<?xml version="1.0" encoding="UTF-8" standalone="no"?>
<svg
   xmlns:dc="http://purl.org/dc/elements/1.1/"
   xmlns:cc="http://creativecommons.org/ns#"
   xmlns:rdf="http://www.w3.org/1999/02/22-rdf-syntax-ns#"
   xmlns:svg="http://www.w3.org/2000/svg"
   xmlns="http://www.w3.org/2000/svg"
   xmlns:sodipodi="http://sodipodi.sourceforge.net/DTD/sodipodi-0.dtd"
   xmlns:inkscape="http://www.inkscape.org/namespaces/inkscape"
   viewBox="0 0 100 100"
   version="1.1"
   id="svg4"
   sodipodi:docname="action-menu.svg"
   inkscape:version="0.92.2 5c3e80d, 2017-08-06">
  <metadata
     id="metadata10">
    <rdf:RDF>
      <cc:Work
         rdf:about="">
        <dc:format>image/svg+xml</dc:format>
        <dc:type
           rdf:resource="http://purl.org/dc/dcmitype/StillImage" />
        <dc:title></dc:title>
      </cc:Work>
    </rdf:RDF>
  </metadata>
  <defs
     id="defs8" />
  <sodipodi:namedview
     pagecolor="#ffffff"
     bordercolor="#666666"
     borderopacity="1"
     objecttolerance="10"
     gridtolerance="10"
     guidetolerance="10"
     inkscape:pageopacity="0"
     inkscape:pageshadow="2"
     inkscape:window-width="3840"
     inkscape:window-height="1545"
     id="namedview6"
     showgrid="false"
     inkscape:zoom="1.3037281"
     inkscape:cx="-81.554763"
     inkscape:cy="-69.462032"
     inkscape:window-x="0"
     inkscape:window-y="0"
     inkscape:window-maximized="1"
     inkscape:current-layer="svg4" />
  <path
     id="path4194-3"
     d="M 42.422708,57.841225 H 15.111244 c -0.90278,0 -1.684033,-0.32986 -2.34376,-0.98958 -0.65972,-0.659727 -0.98958,-1.44098 -0.98958,-2.34376 V 13.842906 c 0,-0.90278 0.32986,-1.68403 0.98958,-2.34375 0.659727,-0.659726 1.44098,-0.98959 2.34376,-0.98959 h 27.311464 c 0.902781,0 1.68403,0.329864 2.34375,0.98959 0.65972,0.65972 0.989581,1.44097 0.989581,2.34375 v 40.664979 c 0,0.90278 -0.32986,1.684033 -0.989581,2.34376 -0.659719,0.65972 -1.44097,0.98958 -2.34375,0.98958 z"
     inkscape:connector-curvature="0"
     style="fill:#ffffeb;fill-opacity:1;stroke:#310049;stroke-width:2.9000001;stroke-miterlimit:4;stroke-dasharray:none;stroke-opacity:1"
     sodipodi:nodetypes="sscssssscsscs" />
  <path
     id="path4194-3-6"
     d="M 76.570991,66.716678 H 49.259527 c -0.90278,0 -1.684033,-0.32986 -2.34376,-0.98958 -0.65972,-0.659727 -0.98958,-1.44098 -0.98958,-2.34376 V 36.820054 c 0,-0.90278 0.32986,-1.68403 0.98958,-2.34375 0.659727,-0.659726 1.44098,-0.98959 2.34376,-0.98959 h 27.311464 c 0.902781,0 1.68403,0.329864 2.34375,0.98959 0.65972,0.65972 0.989581,1.44097 0.989581,2.34375 v 26.563284 c 0,0.90278 -0.32986,1.684033 -0.989581,2.34376 -0.659719,0.65972 -1.44097,0.98958 -2.34375,0.98958 z"
     inkscape:connector-curvature="0"
     style="fill:#ffffeb;fill-opacity:1;stroke:#310049;stroke-width:2.9000001;stroke-miterlimit:4;stroke-dasharray:none;stroke-opacity:1"
     sodipodi:nodetypes="sscssssscsscs" />
  <path
     id="path4194-7-5"
     d="M 79.678489,54.323383 H 46.965583 c -0.362501,0 -0.676204,-0.234852 -0.94111,-0.704556 -0.264903,-0.469709 -0.397354,-1.025942 -0.397354,-1.668699 v -3.968054 c 0,-0.642757 0.132451,-1.198987 0.397354,-1.668691 0.264906,-0.469709 0.578609,-0.704563 0.94111,-0.704563 h 32.712906 c 0.362501,0 0.676202,0.234854 0.941106,0.704563 0.264903,0.469704 0.397354,1.025934 0.397354,1.668691 v 3.968054 c 0,0.642757 -0.132451,1.19899 -0.397354,1.668699 -0.264903,0.469704 -0.578606,0.704556 -0.941106,0.704556 z"
     inkscape:connector-curvature="0"
     style="fill:#310049;fill-opacity:1;stroke-width:0.53468245"
     sodipodi:nodetypes="sscssssscsscs" />
  <path
     style="fill:none;fill-opacity:1;stroke:#ffffff;stroke-width:5;stroke-miterlimit:4;stroke-dasharray:none;stroke-opacity:1"
     inkscape:connector-curvature="0"
     id="path8-3"
     d="m 94.352916,75.501022 q 0.72401,0.70066 0.326969,1.61152 -0.397035,0.93421 -1.377958,0.93421 h -8.921724 l 4.694413,11.11713 q 0.233554,0.58388 0,1.1444 -0.233553,0.56053 -0.794081,0.81744 l -4.133885,1.75165 q -0.583887,0.23355 -1.14441,0 -0.560528,-0.23356 -0.817435,-0.79408 l -4.460865,-10.5566 -7.286853,7.28685 q -0.443753,0.44376 -1.050989,0.44376 -0.280261,0 -0.560528,-0.11678 -0.93421,-0.39704 -0.93421,-1.37796 V 52.636187 q 0,-0.980923 0.93421,-1.377963 0.280267,-0.116776 0.560528,-0.116776 0.630595,0 1.050989,0.443751 z" />
  <g
     id="g2342"
     transform="translate(19.034659,3.4264373)">
    <path
       style="fill:#310049;fill-opacity:1;stroke-width:0.52315873"
       inkscape:connector-curvature="0"
       id="path8"
       d="m 75.318257,72.074588 q 0.72401,0.700659 0.326969,1.611515 -0.397035,0.934212 -1.377958,0.934212 h -8.921724 l 4.694413,11.117124 q 0.233554,0.583882 0,1.144409 -0.233553,0.560527 -0.794081,0.817435 l -4.133885,1.751648 q -0.583887,0.233551 -1.14441,0 -0.560528,-0.233553 -0.817435,-0.79408 l -4.460865,-10.556596 -7.286853,7.286853 q -0.443753,0.443751 -1.050989,0.443751 -0.280261,0 -0.560528,-0.116776 -0.93421,-0.39704 -0.93421,-1.377963 V 49.209749 q 0,-0.980923 0.93421,-1.377963 0.280267,-0.116776 0.560528,-0.116776 0.630595,0 1.050989,0.443751 z" />
    <path
       sodipodi:nodetypes="ccsccscsscscc"
       style="fill:#ffffeb;fill-opacity:1;stroke-width:0.52315873"
       inkscape:connector-curvature="0"
       id="path8-6"
       d="m 68.134089,69.667934 c 0.290725,0.281348 0.356372,0.604899 0.196941,0.970651 -0.159429,0.375131 -0.436087,0.562696 -0.829975,0.562696 h -7.217124 c -2.244888,2.083299 -4.287354,4.217561 -6.554867,6.485075 -0.178189,0.178187 -0.3892,0.26728 -0.633034,0.26728 -0.112539,0 -0.225078,-0.02344 -0.337618,-0.07034 -0.37513,-0.159431 -0.562695,-0.43609 -0.562695,-0.829977 v -21.15738 c 0,-0.393888 0.187565,-0.670547 0.562695,-0.829978 0.11254,-0.04689 0.225079,-0.07034 0.337618,-0.07034 0.253214,0 0.464225,0.08909 0.633034,0.267281 z" />
  </g>
  <path
     id="path4194"
     d="M 90.890574,19.240097 H 9.4216515 c -0.90278,0 -1.6840333,-0.32986 -2.34376,-0.98958 -0.65972,-0.659727 -0.98958,-1.44098 -0.98958,-2.34376 V 10.33345 c 0,-0.9027803 0.32986,-1.6840303 0.98958,-2.3437503 0.6597267,-0.659726 1.44098,-0.98959 2.34376,-0.98959 H 90.890574 c 0.90278,0 1.68403,0.329864 2.34375,0.98959 0.65972,0.65972 0.98958,1.44097 0.98958,2.3437503 v 5.573307 c 0,0.90278 -0.32986,1.684033 -0.98958,2.34376 -0.65972,0.65972 -1.44097,0.98958 -2.34375,0.98958 z"
     inkscape:connector-curvature="0"
     style="fill:#310049;fill-opacity:1;stroke-width:1"
     sodipodi:nodetypes="sscssssscsscs" />
</svg>
