<?xml version="1.0" encoding="UTF-8" standalone="no"?>
<!-- Created with Inkscape (http://www.inkscape.org/) -->

<svg
   xmlns:dc="http://purl.org/dc/elements/1.1/"
   xmlns:cc="http://creativecommons.org/ns#"
   xmlns:rdf="http://www.w3.org/1999/02/22-rdf-syntax-ns#"
   xmlns:svg="http://www.w3.org/2000/svg"
   xmlns="http://www.w3.org/2000/svg"
   xmlns:sodipodi="http://sodipodi.sourceforge.net/DTD/sodipodi-0.dtd"
   xmlns:inkscape="http://www.inkscape.org/namespaces/inkscape"
   width="43.451771mm"
   height="24.558535mm"
   viewBox="0 0 43.451771 24.558535"
   version="1.1"
   id="svg8"
   inkscape:version="0.92.2 5c3e80d, 2017-08-06"
   sodipodi:docname="bond.svg">
  <defs
     id="defs2" />
  <sodipodi:namedview
     id="base"
     pagecolor="#ffffff"
     bordercolor="#666666"
     borderopacity="1.0"
     inkscape:pageopacity="0.0"
     inkscape:pageshadow="2"
     inkscape:zoom="2.3299017"
     inkscape:cx="44.202746"
     inkscape:cy="75.954973"
     inkscape:document-units="mm"
     inkscape:current-layer="layer1"
     showgrid="false"
     inkscape:window-width="1920"
     inkscape:window-height="1536"
     inkscape:window-x="1920"
     inkscape:window-y="27"
     inkscape:window-maximized="0"
     inkscape:snap-global="false"
     fit-margin-top="0"
     fit-margin-left="0"
     fit-margin-right="0"
     fit-margin-bottom="0" />
  <metadata
     id="metadata5">
    <rdf:RDF>
      <cc:Work
         rdf:about="">
        <dc:format>image/svg+xml</dc:format>
        <dc:type
           rdf:resource="http://purl.org/dc/dcmitype/StillImage" />
        <dc:title></dc:title>
      </cc:Work>
    </rdf:RDF>
  </metadata>
  <g
     inkscape:label="Layer 1"
     inkscape:groupmode="layer"
     id="layer1"
     transform="translate(-47.864546,-103.45004)">
    <g
       id="g864"
       transform="matrix(0.75,0,0,0.75,17.397608,28.932326)">
      <g
         transform="translate(-51.879931,-47.472118)"
         id="g4584">
        <circle
           style="fill:#ffffff;fill-opacity:1;stroke:#000000;stroke-width:1;stroke-miterlimit:4;stroke-dasharray:none;stroke-dashoffset:0;stroke-opacity:1"
           id="path4504-3"
           cx="139.78197"
           cy="157.48531"
           r="10.156241" />
      </g>
      <path
         d="m 87.803843,114.50387 q -0.170532,0.863 -0.707967,1.32809 -0.537435,0.47025 -1.328084,0.47025 -0.165365,0 -0.294556,-0.0258 -0.134359,-0.0207 -0.268717,-0.0672 l 0.227376,-0.80099 q 0.06718,0.0258 0.206706,0.0413 0.134358,0.0207 0.222208,0.0207 0.335897,0 0.578776,-0.22737 0.24288,-0.22738 0.346232,-0.73898 l 1.049032,-5.25032 -0.81132,-0.1447 0.129191,-0.65629 h 1.860352 z m 1.472778,-7.50341 h -1.018025 l 0.201538,-1.01803 h 1.018025 z"
         style="font-style:italic;font-variant:normal;font-weight:normal;font-stretch:normal;font-size:medium;line-height:1.25;font-family:serif;-inkscape-font-specification:serif;letter-spacing:0px;word-spacing:0px;fill:#000000;fill-opacity:1;stroke:none;stroke-width:0.26458332"
         id="path834"
         inkscape:connector-curvature="0" />
      <g
         transform="translate(-53.721175,-38.486812)"
         id="g4580">
        <circle
           style="fill:#ffffff;fill-opacity:1;stroke:#000000;stroke-width:1;stroke-miterlimit:4;stroke-dasharray:none;stroke-dashoffset:0;stroke-opacity:1"
           id="path4504"
           cx="105"
           cy="148.5"
           r="10.156241" />
        <g
           aria-label="i"
           style="font-style:normal;font-weight:normal;font-size:10.58333302px;line-height:1.25;font-family:sans-serif;letter-spacing:0px;word-spacing:0px;fill:#000000;fill-opacity:1;stroke:none;stroke-width:0.26458332"
           id="text4512" />
      </g>
      <path
         d="m 49.671684,113.39283 0.873332,-0.14469 0.795817,-3.99459 -0.81132,-0.1447 0.129191,-0.65629 h 1.860352 l -0.956014,4.79558 0.81132,0.14469 -0.129192,0.65112 h -2.702677 z m 3.13676,-6.3717 h -1.018026 l 0.206706,-1.0387 h 1.018025 z"
         style="font-style:italic;font-variant:normal;font-weight:normal;font-stretch:normal;font-size:medium;line-height:1.25;font-family:serif;-inkscape-font-specification:serif;letter-spacing:0px;word-spacing:0px;fill:#000000;fill-opacity:1;stroke:none;stroke-width:0.26458332"
         id="path830"
         inkscape:connector-curvature="0" />
      <path
         inkscape:connector-curvature="0"
         id="path4588"
         d="m 61.605684,110.01319 c 15.969494,0 15.969494,0 15.969494,0"
         style="fill:none;stroke:#000000;stroke-width:1;stroke-linecap:butt;stroke-linejoin:miter;stroke-miterlimit:4;stroke-dasharray:none;stroke-opacity:1" />
      <path
         d="m 66.262599,123.58202 0.129191,-0.65629 h 1.751831 l -0.06201,0.81132 q 0.325562,-0.42891 0.718302,-0.67179 0.397909,-0.24288 0.847494,-0.24288 0.118856,0 0.242879,0.0207 0.124024,0.0155 0.186035,0.0362 l -0.320394,0.94568 -0.573608,-0.031 q -0.403076,0 -0.718302,0.19121 -0.310059,0.18603 -0.5271,0.5271 l -0.640788,3.2091 0.81132,0.1447 -0.129191,0.65112 h -2.702677 l 0.129191,-0.65112 0.873332,-0.1447 0.795817,-3.99458 z"
         style="font-style:italic;font-variant:normal;font-weight:normal;font-stretch:normal;font-size:medium;line-height:1.25;font-family:serif;-inkscape-font-specification:'serif Italic';letter-spacing:0px;word-spacing:0px;fill:#000000;fill-opacity:1;stroke:none;stroke-width:0.26458332"
         id="path838"
         inkscape:connector-curvature="0" />
      <path
         d="m 69.575575,130.21056 0.567665,-0.094 0.517281,-2.59649 -0.527358,-0.094 0.08397,-0.42659 h 1.209229 l -0.621409,3.11713 0.527358,0.094 -0.08397,0.42323 H 69.4916 Z m 2.038893,-4.14161 h -0.661717 l 0.134359,-0.67515 h 0.661717 z"
         style="font-style:italic;font-variant:normal;font-weight:normal;font-stretch:normal;font-size:6.87916613px;line-height:1.25;font-family:serif;-inkscape-font-specification:'serif Italic';letter-spacing:0px;word-spacing:0px;baseline-shift:sub;fill:#000000;fill-opacity:1;stroke:none;stroke-width:0.26458332"
         id="path840"
         inkscape:connector-curvature="0" />
      <path
         d="m 72.816978,130.93274 q -0.110845,0.56094 -0.460178,0.86325 -0.349333,0.30567 -0.863255,0.30567 -0.107487,0 -0.191461,-0.0168 -0.08733,-0.0134 -0.174666,-0.0437 l 0.147794,-0.52064 q 0.04367,0.0168 0.134359,0.0269 0.08733,0.0134 0.144436,0.0134 0.218332,0 0.376204,-0.14779 0.157871,-0.1478 0.225051,-0.48033 l 0.68187,-3.41272 -0.527358,-0.094 0.08397,-0.42659 h 1.209228 z m 0.957306,-4.87723 h -0.661716 l 0.130999,-0.66171 h 0.661717 z"
         style="font-style:italic;font-variant:normal;font-weight:normal;font-stretch:normal;font-size:6.87916613px;line-height:1.25;font-family:serif;-inkscape-font-specification:'serif Italic';letter-spacing:0px;word-spacing:0px;baseline-shift:sub;fill:#000000;fill-opacity:1;stroke:none;stroke-width:0.26458332"
         id="path842"
         inkscape:connector-curvature="0" />
      <g
         transform="translate(0,-1.3040179)"
         id="g4662">
        <path
           style="fill:none;stroke:#000000;stroke-width:0.26458332;stroke-linecap:butt;stroke-linejoin:miter;stroke-miterlimit:4;stroke-dasharray:none;stroke-opacity:1"
           d="m 51.278825,124.35937 c 0,5.57516 0,5.57516 0,5.57516"
           id="path4615"
           inkscape:connector-curvature="0" />
        <path
           style="fill:none;stroke:#000000;stroke-width:0.26458332;stroke-linecap:butt;stroke-linejoin:miter;stroke-miterlimit:4;stroke-dasharray:none;stroke-opacity:1"
           d="m 87.902036,124.35937 c 0,5.57516 0,5.57516 0,5.57516"
           id="path4615-5"
           inkscape:connector-curvature="0" />
        <path
           style="fill:none;stroke:#000000;stroke-width:0.26458332;stroke-linecap:butt;stroke-linejoin:miter;stroke-miterlimit:4;stroke-dasharray:none;stroke-opacity:1"
           d="m 51.146533,127.14695 c 12.662202,0 12.662202,0 12.662202,0"
           id="path4641"
           inkscape:connector-curvature="0" />
        <path
           style="fill:none;stroke:#000000;stroke-width:0.26458332;stroke-linecap:butt;stroke-linejoin:miter;stroke-miterlimit:4;stroke-dasharray:none;stroke-opacity:1"
           d="m 75.372126,127.14695 c 12.662202,0 12.662202,0 12.662202,0"
           id="path4641-3"
           inkscape:connector-curvature="0" />
      </g>
    </g>
  </g>
</svg>
