<?xml version="1.0" encoding="UTF-8" standalone="no"?>
<svg
   xmlns:dc="http://purl.org/dc/elements/1.1/"
   xmlns:cc="http://creativecommons.org/ns#"
   xmlns:rdf="http://www.w3.org/1999/02/22-rdf-syntax-ns#"
   xmlns:svg="http://www.w3.org/2000/svg"
   xmlns="http://www.w3.org/2000/svg"
   xmlns:sodipodi="http://sodipodi.sourceforge.net/DTD/sodipodi-0.dtd"
   xmlns:inkscape="http://www.inkscape.org/namespaces/inkscape"
   version="1.0"
   width="100"
   height="100"
   id="svg2"
   inkscape:version="1.0.1 (3bc2e813f5, 2020-09-07)"
   sodipodi:docname="add.svg">
  <metadata
     id="metadata3050">
    <rdf:RDF>
      <cc:Work
         rdf:about="">
        <dc:format>image/svg+xml</dc:format>
        <dc:type
           rdf:resource="http://purl.org/dc/dcmitype/StillImage" />
      </cc:Work>
    </rdf:RDF>
  </metadata>
  <sodipodi:namedview
     pagecolor="#ffffff"
     bordercolor="#666666"
     borderopacity="1"
     objecttolerance="10"
     gridtolerance="10"
     guidetolerance="10"
     inkscape:pageopacity="0"
     inkscape:pageshadow="2"
     inkscape:window-width="3840"
     inkscape:window-height="1531"
     id="namedview3048"
     showgrid="false"
     inkscape:zoom="5.6568544"
     inkscape:cx="21.117943"
     inkscape:cy="41.646988"
     inkscape:window-x="0"
     inkscape:window-y="32"
     inkscape:window-maximized="1"
     inkscape:current-layer="svg2"
     inkscape:document-rotation="0" />
  <defs
     id="defs4" />
  <g
     id="g833"
     transform="matrix(1.25,0,0,1.25,-12.5,-12.5)"
     style="stroke-width:0.8">
    <rect
       style="opacity:1;fill:#ffffeb;fill-opacity:1;fill-rule:nonzero;stroke:#ffffeb;stroke-width:3.02362;stroke-miterlimit:4;stroke-dasharray:none;stroke-opacity:1"
       id="rect812"
       width="65.053818"
       height="65.053818"
       x="17.473091"
       y="17.473091"
       rx="3.2"
       ry="3.2" />
    <path
       d="m 75.454551,48.181825 v 3.63635 q 0,0.79546 -0.51137,1.30682 -0.51136,0.51137 -1.30682,0.51137 h -20 v 20 q 0,0.79546 -0.51136,1.30682 -0.51136,0.51136 -1.30682,0.51136 h -3.63636 q -0.79546,0 -1.30682,-0.51136 -0.51137,-0.51136 -0.51137,-1.30682 v -20 H 26.363638 q -0.795455,0 -1.306821,-0.51137 -0.511363,-0.51136 -0.511363,-1.30682 v -3.63635 q 0,-0.79546 0.511363,-1.30683 0.511366,-0.51136 1.306821,-0.51136 h 19.999993 v -20 q 0,-0.79545 0.51137,-1.30682 0.51136,-0.51136 1.30682,-0.51136 h 3.63636 q 0.79546,0 1.30682,0.51136 0.51136,0.51137 0.51136,1.30682 v 20 h 20 q 0.79546,0 1.30682,0.51136 0.51137,0.51137 0.51137,1.30683 z m 7.27273,25.45454 v -47.27273 q 0,-3.75 -2.67046,-6.42045 -2.67046,-2.67046 -6.42046,-2.67046 H 26.363638 q -3.750001,0 -6.420456,2.67046 -2.670455,2.67045 -2.670455,6.42045 v 47.27273 q 0,3.75 2.670455,6.42046 2.670455,2.67045 6.420456,2.67045 h 47.272723 q 3.75,0 6.42046,-2.67045 2.67046,-2.67046 2.67046,-6.42046 z m 7.27272,-47.27273 v 47.27273 q 0,6.76137 -4.80113,11.5625 -4.80114,4.80114 -11.56251,4.80114 H 26.363638 q -6.761366,0 -11.562503,-4.80114 -4.801136,-4.80113 -4.801136,-11.5625 v -47.27273 q 0,-6.76136 4.801136,-11.5625 4.801137,-4.80114 11.562503,-4.80114 h 47.272723 q 6.76137,0 11.56251,4.80114 4.80113,4.80114 4.80113,11.5625 z"
       id="path4735"
       inkscape:connector-curvature="0"
       style="fill:#310049;fill-opacity:1;stroke-width:0.8" />
  </g>
</svg>
