<?xml version="1.0" encoding="UTF-8" standalone="no"?>
<svg
   xmlns:dc="http://purl.org/dc/elements/1.1/"
   xmlns:cc="http://creativecommons.org/ns#"
   xmlns:rdf="http://www.w3.org/1999/02/22-rdf-syntax-ns#"
   xmlns:svg="http://www.w3.org/2000/svg"
   xmlns="http://www.w3.org/2000/svg"
   xmlns:sodipodi="http://sodipodi.sourceforge.net/DTD/sodipodi-0.dtd"
   xmlns:inkscape="http://www.inkscape.org/namespaces/inkscape"
   version="1.0"
   width="100"
   height="100"
   id="svg2"
   inkscape:version="1.0.1 (3bc2e813f5, 2020-09-07)"
   sodipodi:docname="advanced.svg">
  <metadata
     id="metadata3050">
    <rdf:RDF>
      <cc:Work
         rdf:about="">
        <dc:format>image/svg+xml</dc:format>
        <dc:type
           rdf:resource="http://purl.org/dc/dcmitype/StillImage" />
        <dc:title />
      </cc:Work>
    </rdf:RDF>
  </metadata>
  <sodipodi:namedview
     pagecolor="#ffffff"
     bordercolor="#666666"
     borderopacity="1"
     objecttolerance="10"
     gridtolerance="10"
     guidetolerance="10"
     inkscape:pageopacity="0"
     inkscape:pageshadow="2"
     inkscape:window-width="3840"
     inkscape:window-height="1531"
     id="namedview3048"
     showgrid="false"
     inkscape:zoom="4.0000001"
     inkscape:cx="-60.162274"
     inkscape:cy="42.191178"
     inkscape:window-x="0"
     inkscape:window-y="32"
     inkscape:window-maximized="1"
     inkscape:current-layer="svg2"
     inkscape:document-rotation="0" />
  <defs
     id="defs4" />
  <g
     id="g4286"
     transform="matrix(1.1101625,0,0,1.1101625,132.17737,-27.28944)"
     style="stroke:#310049;stroke-opacity:1" />
  <g
     id="g840"
     transform="matrix(1.25,0,0,1.25,-12.5,-12.5)"
     style="stroke-width:0.8">
    <g
       id="g15"
       transform="matrix(0.79999999,0,0,0.79999999,10.000001,10.000001)"
       style="stroke-width:1">
      <path
         sodipodi:nodetypes="sssssssssssss"
         style="fill:#9c9c9c;fill-opacity:1;stroke-width:1.5625"
         id="path4"
         d="M 100,50.000008 C 100,59.071189 97.764757,67.437073 93.294271,75.09766 88.823784,82.758248 82.758247,88.823785 75.097659,93.294271 67.437065,97.764757 59.071178,100 49.999998,100 40.928818,100 32.562933,97.764757 24.902342,93.294271 17.241752,88.823785 11.176214,82.758248 6.7057287,75.09766 2.2352423,67.437073 -9.0750439e-7,59.071189 -9.0750439e-7,50.000008 -9.0750439e-7,40.928827 2.2352423,32.562943 6.7057287,24.902355 11.176214,17.241757 17.241752,11.176215 24.902342,6.7057286 32.562933,2.2352424 40.928818,-6.6246997e-7 49.999998,-6.6246997e-7 59.071178,-6.6246997e-7 67.437065,2.2352424 75.097659,6.7057286 82.758247,11.176215 88.823784,17.241757 93.294271,24.902355 97.764757,32.562943 100,40.928827 100,50.000008 Z"
         inkscape:connector-curvature="0" />
      <g
         transform="translate(117.5,-13.875002)"
         style="fill:#ffffff;fill-opacity:1;stroke-width:1"
         id="g853">
        <rect
           style="opacity:1;fill:#ffffeb;fill-opacity:1;stroke:none;stroke-width:0.914744;stroke-miterlimit:4;stroke-dasharray:none;stroke-opacity:1"
           id="rect834"
           width="17.5"
           height="44"
           x="-76.25"
           y="30.500002"
           ry="4.1706161"
           rx="4.1706161" />
        <rect
           style="opacity:1;fill:#ffffeb;fill-opacity:1;stroke:none;stroke-width:0.547284;stroke-miterlimit:4;stroke-dasharray:none;stroke-opacity:1"
           id="rect834-6"
           width="17.5"
           height="15.750001"
           x="-76.25"
           y="81.5"
           ry="4.171"
           rx="4.171" />
      </g>
    </g>
  </g>
</svg>
