<?xml version="1.0" encoding="UTF-8" standalone="no"?>
<!-- Created with Inkscape (http://www.inkscape.org/) -->

<svg
   xmlns:dc="http://purl.org/dc/elements/1.1/"
   xmlns:cc="http://creativecommons.org/ns#"
   xmlns:rdf="http://www.w3.org/1999/02/22-rdf-syntax-ns#"
   xmlns:svg="http://www.w3.org/2000/svg"
   xmlns="http://www.w3.org/2000/svg"
   xmlns:sodipodi="http://sodipodi.sourceforge.net/DTD/sodipodi-0.dtd"
   xmlns:inkscape="http://www.inkscape.org/namespaces/inkscape"
   version="1.0"
   width="100"
   height="100"
   id="svg2"
   inkscape:version="0.92.2 5c3e80d, 2017-08-06"
   sodipodi:docname="general_arrowright.svg">
  <metadata
     id="metadata3050">
    <rdf:RDF>
      <cc:Work
         rdf:about="">
        <dc:format>image/svg+xml</dc:format>
        <dc:type
           rdf:resource="http://purl.org/dc/dcmitype/StillImage" />
        <dc:title />
      </cc:Work>
    </rdf:RDF>
  </metadata>
  <sodipodi:namedview
     pagecolor="#ffffff"
     bordercolor="#666666"
     borderopacity="1"
     objecttolerance="10"
     gridtolerance="10"
     guidetolerance="10"
     inkscape:pageopacity="0"
     inkscape:pageshadow="2"
     inkscape:window-width="1920"
     inkscape:window-height="1163"
     id="namedview3048"
     showgrid="false"
     inkscape:zoom="2.8284271"
     inkscape:cx="38.008381"
     inkscape:cy="-42.294766"
     inkscape:window-x="1920"
     inkscape:window-y="0"
     inkscape:window-maximized="1"
     inkscape:current-layer="svg2" />
  <defs
     id="defs4" />
  <path
     inkscape:connector-curvature="0"
     d="m 12.20796,46.713733 v 6.572533 q 0,2.721431 1.6688,4.646978 1.668809,1.925547 4.338898,1.925547 H 54.364564 L 39.31964,74.955075 q -1.951218,1.848516 -1.951218,4.621307 0,2.772782 1.951218,4.621306 l 3.851093,3.902436 Q 45.0706,90 47.79204,90 q 2.670089,0 4.672658,-1.899876 L 85.892165,54.621306 q 1.899875,-1.899866 1.899875,-4.621307 0,-2.670088 -1.899875,-4.672657 L 52.464698,11.951217 Q 50.51348,10 47.79204,10 q -2.670089,0 -4.621307,1.951217 l -3.851093,3.799742 q -1.951218,1.951218 -1.951218,4.672658 0,2.72144 1.951218,4.672658 L 54.364564,40.141208 H 18.215658 q -2.670089,0 -4.338898,1.925547 -1.6688,1.925538 -1.6688,4.646978 z"
     id="path4"
     style="fill:#310049;fill-opacity:1;stroke-width:1" />
</svg>
