<?xml version="1.0" encoding="UTF-8" standalone="no"?>
<!-- Created with Inkscape (http://www.inkscape.org/) -->

<svg
   xmlns:dc="http://purl.org/dc/elements/1.1/"
   xmlns:cc="http://creativecommons.org/ns#"
   xmlns:rdf="http://www.w3.org/1999/02/22-rdf-syntax-ns#"
   xmlns:svg="http://www.w3.org/2000/svg"
   xmlns="http://www.w3.org/2000/svg"
   xmlns:sodipodi="http://sodipodi.sourceforge.net/DTD/sodipodi-0.dtd"
   xmlns:inkscape="http://www.inkscape.org/namespaces/inkscape"
   version="1.0"
   width="100"
   height="100"
   id="svg2"
   inkscape:version="0.92.2 5c3e80d, 2017-08-06"
   sodipodi:docname="general_arrowdown.svg">
  <metadata
     id="metadata3050">
    <rdf:RDF>
      <cc:Work
         rdf:about="">
        <dc:format>image/svg+xml</dc:format>
        <dc:type
           rdf:resource="http://purl.org/dc/dcmitype/StillImage" />
        <dc:title />
      </cc:Work>
    </rdf:RDF>
  </metadata>
  <sodipodi:namedview
     pagecolor="#ffffff"
     bordercolor="#666666"
     borderopacity="1"
     objecttolerance="10"
     gridtolerance="10"
     guidetolerance="10"
     inkscape:pageopacity="0"
     inkscape:pageshadow="2"
     inkscape:window-width="1920"
     inkscape:window-height="1163"
     id="namedview3048"
     showgrid="false"
     inkscape:zoom="2.8284271"
     inkscape:cx="38.008381"
     inkscape:cy="-42.294766"
     inkscape:window-x="1920"
     inkscape:window-y="0"
     inkscape:window-maximized="1"
     inkscape:current-layer="svg2" />
  <defs
     id="defs4" />
  <path
     inkscape:connector-curvature="0"
     d="m 53.286267,12.207959 h -6.572534 q -2.721431,0 -4.646977,1.6688 -1.925547,1.668809 -1.925547,4.338898 V 54.364564 L 25.044924,39.319639 q -1.848515,-1.951217 -4.621306,-1.951217 -2.772782,0 -4.621307,1.951217 l -3.902435,3.851094 q -1.8998761,1.899866 -1.8998761,4.621306 0,2.670089 1.8998761,4.672658 L 45.378693,85.892164 Q 47.27856,87.79204 50,87.79204 q 2.670089,0 4.672658,-1.899876 L 88.048782,52.464697 Q 90,50.51348 90,47.792039 90,45.121951 88.048782,43.170733 L 84.24904,39.319639 q -1.951218,-1.951217 -4.672658,-1.951217 -2.72144,0 -4.672657,1.951217 L 59.858791,54.364564 V 18.215657 q 0,-2.670089 -1.925546,-4.338898 -1.925538,-1.6688 -4.646978,-1.6688 z"
     id="path4"
     style="fill:#310049;fill-opacity:1;stroke-width:1" />
</svg>
