<?xml version="1.0" encoding="UTF-8" standalone="no"?>
<svg
   xmlns:dc="http://purl.org/dc/elements/1.1/"
   xmlns:cc="http://creativecommons.org/ns#"
   xmlns:rdf="http://www.w3.org/1999/02/22-rdf-syntax-ns#"
   xmlns:svg="http://www.w3.org/2000/svg"
   xmlns="http://www.w3.org/2000/svg"
   xmlns:sodipodi="http://sodipodi.sourceforge.net/DTD/sodipodi-0.dtd"
   xmlns:inkscape="http://www.inkscape.org/namespaces/inkscape"
   version="1.0"
   width="100"
   height="100"
   id="svg2"
   inkscape:version="1.0.1 (3bc2e813f5, 2020-09-07)"
   sodipodi:docname="arrowright.svg">
  <metadata
     id="metadata3050">
    <rdf:RDF>
      <cc:Work
         rdf:about="">
        <dc:format>image/svg+xml</dc:format>
        <dc:type
           rdf:resource="http://purl.org/dc/dcmitype/StillImage" />
        <dc:title />
      </cc:Work>
    </rdf:RDF>
  </metadata>
  <sodipodi:namedview
     pagecolor="#ffffff"
     bordercolor="#666666"
     borderopacity="1"
     objecttolerance="10"
     gridtolerance="10"
     guidetolerance="10"
     inkscape:pageopacity="0"
     inkscape:pageshadow="2"
     inkscape:window-width="3840"
     inkscape:window-height="1531"
     id="namedview3048"
     showgrid="false"
     inkscape:zoom="2.8284271"
     inkscape:cx="38.008381"
     inkscape:cy="-42.294766"
     inkscape:window-x="0"
     inkscape:window-y="32"
     inkscape:window-maximized="1"
     inkscape:current-layer="svg2"
     inkscape:document-rotation="0" />
  <defs
     id="defs4" />
  <path
     inkscape:connector-curvature="0"
     d="m 2.75995,45.892166 v 8.215666 q 0,3.401789 2.086,5.808723 2.086011,2.406934 5.423623,2.406934 H 55.455705 L 36.64955,81.193844 q -2.439022,2.310645 -2.439022,5.776633 0,3.465973 2.439022,5.776633 l 4.813866,4.87804 Q 43.83825,100 47.24005,100 q 3.337611,0 5.840822,-2.37485 L 94.86521,55.776632 q 2.37484,-2.374832 2.37484,-5.776633 0,-3.33761 -2.37484,-5.840822 L 53.080872,2.439021 Q 50.64185,0 47.24005,0 43.902439,0 41.463416,2.439021 L 36.64955,7.188699 q -2.439022,2.439022 -2.439022,5.840822 0,3.4018 2.439022,5.840823 L 55.455705,37.67651 H 10.269573 q -3.337612,0 -5.423623,2.406934 -2.086,2.406922 -2.086,5.808722 z"
     id="path4"
     style="fill:#310049;fill-opacity:1;stroke-width:1" />
</svg>
