<?xml version="1.0" encoding="UTF-8" standalone="no"?>
<svg
   xmlns:dc="http://purl.org/dc/elements/1.1/"
   xmlns:cc="http://creativecommons.org/ns#"
   xmlns:rdf="http://www.w3.org/1999/02/22-rdf-syntax-ns#"
   xmlns:svg="http://www.w3.org/2000/svg"
   xmlns="http://www.w3.org/2000/svg"
   xmlns:sodipodi="http://sodipodi.sourceforge.net/DTD/sodipodi-0.dtd"
   xmlns:inkscape="http://www.inkscape.org/namespaces/inkscape"
   version="1.0"
   width="100"
   height="100"
   id="svg2"
   inkscape:version="1.0.1 (3bc2e813f5, 2020-09-07)"
   sodipodi:docname="manual.svg">
  <metadata
     id="metadata3050">
    <rdf:RDF>
      <cc:Work
         rdf:about="">
        <dc:format>image/svg+xml</dc:format>
        <dc:type
           rdf:resource="http://purl.org/dc/dcmitype/StillImage" />
      </cc:Work>
    </rdf:RDF>
  </metadata>
  <sodipodi:namedview
     pagecolor="#ffffff"
     bordercolor="#666666"
     borderopacity="1"
     objecttolerance="10"
     gridtolerance="10"
     guidetolerance="10"
     inkscape:pageopacity="0"
     inkscape:pageshadow="2"
     inkscape:window-width="3840"
     inkscape:window-height="1531"
     id="namedview3048"
     showgrid="false"
     inkscape:zoom="5.6568544"
     inkscape:cx="24.683509"
     inkscape:cy="38.895418"
     inkscape:window-x="0"
     inkscape:window-y="32"
     inkscape:window-maximized="1"
     inkscape:current-layer="svg2"
     inkscape:document-rotation="0" />
  <defs
     id="defs4">
    <filter
       style="color-interpolation-filters:sRGB;"
       inkscape:label="Drop Shadow"
       id="filter872">
      <feFlood
         flood-opacity="0.498039"
         flood-color="rgb(0,0,0)"
         result="flood"
         id="feFlood862" />
      <feComposite
         in="flood"
         in2="SourceGraphic"
         operator="in"
         result="composite1"
         id="feComposite864" />
      <feGaussianBlur
         in="composite1"
         stdDeviation="4"
         result="blur"
         id="feGaussianBlur866" />
      <feOffset
         dx="5"
         dy="5"
         result="offset"
         id="feOffset868" />
      <feComposite
         in="SourceGraphic"
         in2="offset"
         operator="over"
         result="composite2"
         id="feComposite870" />
    </filter>
  </defs>
  <g
     id="g16"
     transform="matrix(1.25,0,0,1.25,-12.5,-12.5)"
     style="stroke-width:0.8">
    <path
       inkscape:connector-curvature="0"
       d="m 88.760293,29.91987 q 1.921547,2.738205 0.864694,6.196978 L 76.414382,79.63981 q -0.912738,3.074462 -3.674951,5.164142 -2.762223,2.08968 -5.884729,2.08968 H 22.515091 q -3.698969,0 -7.133725,-2.570062 -3.434764,-2.570062 -4.77984,-6.317076 -1.1529241,-3.218586 -0.09608,-6.100898 0,-0.19216 0.144116,-1.29704 0.144116,-1.104889 0.19216,-1.777431 0.048,-0.384311 -0.144116,-1.032827 -0.19216,-0.648524 -0.144124,-0.936755 0.09608,-0.528427 0.384311,-1.008809 0.288231,-0.480382 0.79264,-1.128907 0.5044,-0.648524 0.792631,-1.128907 1.104889,-1.825466 2.161743,-4.395529 1.056844,-2.570062 1.441155,-4.395529 0.144116,-0.480391 0.024,-1.441164 -0.120098,-0.960765 -0.024,-1.345076 0.144116,-0.528426 0.816658,-1.345084 0.672542,-0.816649 0.816658,-1.10488 1.008808,-1.729396 2.017617,-4.419556 1.008809,-2.69016 1.20096,-4.323467 0.048,-0.432346 -0.120097,-1.537235 -0.168134,-1.104889 0.024,-1.345085 0.192151,-0.624498 1.056844,-1.465173 0.864694,-0.840676 1.056854,-1.080871 0.912728,-1.249005 2.041635,-4.059263 1.128907,-2.810249 1.321058,-4.635715 0.048,-0.384312 -0.144116,-1.224987 -0.192151,-0.840676 -0.09607,-1.273022 0.09607,-0.384312 0.432347,-0.864694 0.336267,-0.480391 0.864693,-1.104889 0.528427,-0.624498 0.816658,-1.008809 0.384302,-0.576462 0.792631,-1.465182 0.408329,-0.888711 0.720578,-1.681342 0.312258,-0.79264 0.768622,-1.729396 0.456365,-0.936747 0.936756,-1.537235 0.480382,-0.60048 1.273022,-1.128907 0.792631,-0.528418 1.729387,-0.552436 0.936747,-0.024 2.281831,0.264205 l -0.048,0.144115 q 1.825467,-0.432346 2.449965,-0.432346 h 36.557361 q 3.554853,0 5.476391,2.69016 1.921547,2.69016 0.864702,6.245022 L 68.872328,65.564503 q -1.729386,5.716587 -3.434755,7.37392 -1.705369,1.657333 -6.172961,1.657333 H 17.519091 q -1.29704,0 -1.825467,0.720578 -0.528427,0.768614 -0.048,2.065663 1.152925,3.362693 6.917556,3.362693 h 44.339602 q 1.39312,0 2.69016,-0.744596 1.297049,-0.744595 1.681351,-1.9936 L 85.685867,30.592413 q 0.336275,-1.056845 0.240195,-2.738196 1.825467,0.720578 2.834276,2.065653 z m -51.11305,0.09608 q -0.192151,0.624507 0.09608,1.080872 0.288231,0.456364 0.960773,0.456364 h 29.207459 q 0.624498,0 1.224978,-0.456364 0.60048,-0.456365 0.79264,-1.080872 l 1.008809,-3.074471 q 0.192151,-0.624498 -0.09608,-1.080862 -0.288231,-0.456373 -0.960765,-0.456373 H 40.673678 q -0.624506,0 -1.224986,0.456373 -0.60048,0.456364 -0.792631,1.080862 z m -3.9872,12.297876 q -0.192152,0.624507 0.09608,1.080872 0.288231,0.456364 0.960773,0.456364 h 29.20745 q 0.624507,0 1.224987,-0.456364 0.60048,-0.456365 0.79264,-1.080872 l 1.008809,-3.074471 q 0.192151,-0.624498 -0.09608,-1.080862 -0.288232,-0.456365 -0.960774,-0.456365 h -29.20745 q -0.624506,0 -1.224986,0.456365 -0.600481,0.456364 -0.792641,1.080862 z"
       id="path4223"
       style="fill:#310049;fill-opacity:1;stroke-width:0.8" />
    <path
       style="opacity:1;fill:#ffffeb;fill-opacity:1;fill-rule:nonzero;stroke:none;stroke-width:3.02362;stroke-miterlimit:4;stroke-dasharray:none;stroke-opacity:1"
       d="m 82.304969,20.8132 c -0.0625,0.401726 -0.144722,0.808701 -0.269532,1.228517 L 68.873328,65.565154 c -1.152924,3.811058 -2.298634,6.268158 -3.435547,7.373047 -1.136913,1.104889 -3.195433,1.658203 -6.173828,1.658203 H 17.519812 c -0.864693,0 -1.473887,0.240318 -1.826172,0.720703 -0.352284,0.51241 -0.367159,1.201707 -0.04687,2.066406 0.768617,2.241796 3.072929,3.361329 6.916016,3.361329 H 66.90263 c 0.928746,0 1.826713,-0.247744 2.691406,-0.744141 0.864699,-0.496397 1.423486,-1.161471 1.679688,-1.994141 L 85.685828,30.592498 c 0.224183,-0.704563 0.304288,-1.617381 0.240234,-2.738281 0.08284,0.0327 0.154053,0.07474 0.234375,0.109375 -0.009,-0.0804 -0.01349,-0.173544 -0.03516,-0.212891 z m -41.63086,4.591798 c -0.416337,0 -0.824289,0.152782 -1.224609,0.457031 -0.40032,0.304243 -0.664868,0.663746 -0.792969,1.080078 l -1.009766,3.074219 c -0.1281,0.416338 -0.0945,0.777788 0.09766,1.082031 0.192154,0.304243 0.510623,0.455078 0.958984,0.455078 h 29.208984 c 0.416332,0 0.82429,-0.150835 1.22461,-0.455078 0.40032,-0.304243 0.664862,-0.665693 0.792969,-1.082031 l 1.007812,-3.074219 c 0.128101,-0.416332 0.09645,-0.775835 -0.0957,-1.080078 -0.192154,-0.304249 -0.512582,-0.457031 -0.960938,-0.457031 z m -3.988281,12.296875 c -0.416337,0 -0.82429,0.152788 -1.224609,0.457031 -0.400321,0.304243 -0.664863,0.665699 -0.792969,1.082031 l -1.007813,3.074219 c -0.128101,0.416338 -0.09645,0.775835 0.0957,1.080078 0.192154,0.304243 0.512577,0.457032 0.960938,0.457031 h 29.207031 c 0.416338,10e-7 0.82429,-0.152788 1.22461,-0.457031 0.40032,-0.304243 0.664862,-0.66374 0.792968,-1.080078 l 1.009766,-3.074219 c 0.128101,-0.416332 0.09645,-0.777788 -0.0957,-1.082031 -0.192155,-0.304243 -0.512576,-0.457031 -0.960938,-0.457031 z"
       id="rect812"
       inkscape:connector-curvature="0" />
  </g>
</svg>
