<?xml version="1.0" encoding="UTF-8" standalone="no"?>
<svg
   xmlns:dc="http://purl.org/dc/elements/1.1/"
   xmlns:cc="http://creativecommons.org/ns#"
   xmlns:rdf="http://www.w3.org/1999/02/22-rdf-syntax-ns#"
   xmlns:svg="http://www.w3.org/2000/svg"
   xmlns="http://www.w3.org/2000/svg"
   xmlns:sodipodi="http://sodipodi.sourceforge.net/DTD/sodipodi-0.dtd"
   xmlns:inkscape="http://www.inkscape.org/namespaces/inkscape"
   version="1.0"
   width="100"
   height="100"
   id="svg2"
   inkscape:version="1.0.1 (3bc2e813f5, 2020-09-07)"
   sodipodi:docname="general_charge.svg">
  <metadata
     id="metadata3050">
    <rdf:RDF>
      <cc:Work
         rdf:about="">
        <dc:format>image/svg+xml</dc:format>
        <dc:type
           rdf:resource="http://purl.org/dc/dcmitype/StillImage" />
      </cc:Work>
    </rdf:RDF>
  </metadata>
  <sodipodi:namedview
     pagecolor="#ffffff"
     bordercolor="#666666"
     borderopacity="1"
     objecttolerance="10"
     gridtolerance="10"
     guidetolerance="10"
     inkscape:pageopacity="0"
     inkscape:pageshadow="2"
     inkscape:window-width="1920"
     inkscape:window-height="1131"
     id="namedview3048"
     showgrid="false"
     inkscape:zoom="1.4142136"
     inkscape:cx="-234.88688"
     inkscape:cy="181.49964"
     inkscape:window-x="0"
     inkscape:window-y="0"
     inkscape:window-maximized="1"
     inkscape:current-layer="svg2"
     inkscape:document-rotation="0" />
  <defs
     id="defs4" />
  <circle
     style="fill:#310049;fill-opacity:1;stroke:#ffffeb;stroke-width:5.0058;stroke-linecap:round;stroke-linejoin:round;stroke-miterlimit:4;stroke-dasharray:none;stroke-opacity:1"
     id="path846"
     cx="33.351616"
     cy="33.351616"
     r="30.848715" />
  <circle
     style="fill:#ffffeb;fill-opacity:1;stroke:#310049;stroke-width:5.0058;stroke-linecap:round;stroke-linejoin:round;stroke-miterlimit:4;stroke-dasharray:none;stroke-opacity:1"
     id="path846-6"
     cx="66.648392"
     cy="66.648392"
     r="30.848715" />
  <path
     d="m 85.984572,65.267241 v 2.762301 c 0,0.40284 -0.12948,0.733742 -0.388455,0.992707 -0.25896,0.25897 -0.589865,0.388455 -0.992707,0.388455 H 69.410705 63.88608 48.693369 c -0.402837,0 -0.73374,-0.129485 -0.992708,-0.388455 -0.258967,-0.258965 -0.38845,-0.589867 -0.38845,-0.992707 v -2.762301 c 0,-0.40284 0.129483,-0.733745 0.38845,-0.992715 0.258968,-0.258965 0.589871,-0.388447 0.992708,-0.388447 H 63.88608 69.410705 84.60341 c 0.402842,0 0.733747,0.129482 0.992707,0.388447 0.258975,0.25897 0.388455,0.589875 0.388455,0.992715 z"
     id="path4735-3"
     inkscape:connector-curvature="0"
     style="fill:#310049;fill-opacity:1;stroke-width:0.759636"
     sodipodi:nodetypes="ssssccssssssccsss" />
  <path
     d="m 52.687798,31.970465 v 2.762302 c 0,0.40284 -0.129485,0.733741 -0.388455,0.992707 -0.258965,0.258969 -0.589867,0.388454 -0.992707,0.388454 H 36.113923 v 15.192713 c 0,0.402841 -0.129482,0.733742 -0.388447,0.992708 -0.258965,0.258965 -0.589867,0.388447 -0.992707,0.388447 H 31.97046 c -0.40284,0 -0.733742,-0.129482 -0.992707,-0.388447 -0.25897,-0.258966 -0.388455,-0.589867 -0.388455,-0.992708 V 36.113928 H 15.39659 c -0.402837,0 -0.733739,-0.129485 -0.992707,-0.388454 -0.258967,-0.258966 -0.38845,-0.589867 -0.38845,-0.992707 v -2.762302 c 0,-0.40284 0.129483,-0.733745 0.38845,-0.992714 0.258968,-0.258965 0.58987,-0.388448 0.992707,-0.388448 H 30.589298 V 15.39659 c 0,-0.402834 0.129485,-0.733737 0.388455,-0.992707 0.258965,-0.258965 0.589867,-0.388447 0.992707,-0.388447 h 2.762309 c 0.40284,0 0.733742,0.129482 0.992707,0.388447 0.258965,0.25897 0.388447,0.589873 0.388447,0.992707 v 15.192713 h 15.192713 c 0.40284,0 0.733742,0.129483 0.992707,0.388448 0.25897,0.258969 0.388455,0.589874 0.388455,0.992714 z"
     id="path4735"
     inkscape:connector-curvature="0"
     style="fill:#ffffeb;fill-opacity:1;stroke-width:0.759636"
     sodipodi:nodetypes="sssscsssssscsssssscsssssscsss" />
</svg>
