<?xml version="1.0" encoding="UTF-8" standalone="no"?>
<!-- Created with Inkscape (http://www.inkscape.org/) -->

<svg
   xmlns:dc="http://purl.org/dc/elements/1.1/"
   xmlns:cc="http://creativecommons.org/ns#"
   xmlns:rdf="http://www.w3.org/1999/02/22-rdf-syntax-ns#"
   xmlns:svg="http://www.w3.org/2000/svg"
   xmlns="http://www.w3.org/2000/svg"
   xmlns:sodipodi="http://sodipodi.sourceforge.net/DTD/sodipodi-0.dtd"
   xmlns:inkscape="http://www.inkscape.org/namespaces/inkscape"
   version="1.0"
   width="100"
   height="100"
   id="svg2"
   inkscape:version="0.92.2 5c3e80d, 2017-08-06"
   sodipodi:docname="general_clear.svg">
  <metadata
     id="metadata3050">
    <rdf:RDF>
      <cc:Work
         rdf:about="">
        <dc:format>image/svg+xml</dc:format>
        <dc:type
           rdf:resource="http://purl.org/dc/dcmitype/StillImage" />
        <dc:title />
      </cc:Work>
    </rdf:RDF>
  </metadata>
  <sodipodi:namedview
     pagecolor="#ffffff"
     bordercolor="#666666"
     borderopacity="1"
     objecttolerance="10"
     gridtolerance="10"
     guidetolerance="10"
     inkscape:pageopacity="0"
     inkscape:pageshadow="2"
     inkscape:window-width="1920"
     inkscape:window-height="1536"
     id="namedview3048"
     showgrid="false"
     inkscape:zoom="8"
     inkscape:cx="71.56503"
     inkscape:cy="25.054825"
     inkscape:window-x="1920"
     inkscape:window-y="27"
     inkscape:window-maximized="0"
     inkscape:current-layer="svg2" />
  <defs
     id="defs4" />
  <g
     id="g820"
     transform="matrix(1.0793871,0,0,1.0793871,-3.9693551,-3.969355)"
     style="stroke-width:0.92645168">
    <path
       sodipodi:nodetypes="sssssccccccss"
       id="rect1391-5"
       d="m 90.607742,21.317382 c 3.16501,0 5.71484,2.547877 5.71484,5.712891 v 45.939453 c 0,3.165014 -2.54983,5.712893 -5.71484,5.712893 H 33.265947 c -0.234391,0 -0.464568,-0.0178 -0.691407,-0.0449 -1.508015,0.13265 -3.057688,-0.35315 -4.216796,-1.505862 L 5.23665,54.141601 c -2.078977,-2.067499 -2.078977,-5.397344 0,-7.464844 L 28.357744,23.686523 c 0.26808,-0.2666 0.556506,-0.497466 0.861328,-0.695313 1.032973,-1.035243 2.462099,-1.673829 4.046875,-1.673829 z"
       style="opacity:1;fill:#ffffeb;fill-opacity:1;stroke:none;stroke-width:2.77935457;stroke-miterlimit:4;stroke-dasharray:none;stroke-dashoffset:0;stroke-opacity:1"
       inkscape:connector-curvature="0" />
    <path
       inkscape:connector-curvature="0"
       id="rect1391"
       d="m 90.607741,21.317382 c 3.165014,0 5.714844,2.547877 5.714844,5.712891 v 45.939453 c 0,3.165014 -2.54983,5.712891 -5.714844,5.712891 H 33.265945 c -0.234391,0 -0.464568,-0.01776 -0.691407,-0.04492 -1.508015,0.132649 -3.057688,-0.353151 -4.216796,-1.50586 L 5.236648,54.141601 c -2.078977,-2.067499 -2.078977,-5.397344 0,-7.464844 L 28.357742,23.686523 c 0.26808,-0.2666 0.556506,-0.497466 0.861328,-0.695312 1.032973,-1.035244 2.462099,-1.673829 4.046875,-1.673829 z m -3.46289,4.09961 H 34.992507 c -1.358259,0 -2.583424,0.548274 -3.46875,1.435547 -0.261253,0.169566 -0.508519,0.365255 -0.738281,0.59375 L 10.971023,47.151367 c -1.781824,1.771985 -1.781824,4.626452 0,6.398437 l 19.814453,19.703125 c 0.993432,0.987944 2.322764,1.404711 3.615234,1.291016 0.194416,0.02331 0.390908,0.03906 0.591797,0.03906 h 52.152344 c 2.712627,0 4.896484,-2.183857 4.896484,-4.896484 V 30.313476 c 0,-2.712627 -2.183857,-4.896484 -4.896484,-4.896484 z"
       style="opacity:1;fill:#310049;fill-opacity:1;stroke:none;stroke-width:2.77935457;stroke-miterlimit:4;stroke-dasharray:none;stroke-dashoffset:0;stroke-opacity:1" />
  </g>
  <path
     style="opacity:1;fill:#310049;fill-opacity:1;stroke:none;stroke-width:1.00157475;stroke-miterlimit:4;stroke-dasharray:none;stroke-dashoffset:0;stroke-opacity:1"
     d="m 73.828697,30.255743 c 0.719833,0 1.439459,0.275639 1.991032,0.827214 l 0.597313,0.59731 c 1.103154,1.103152 1.103154,2.880021 0,3.983173 l -14.336561,14.336559 14.336561,14.33656 c 1.103154,1.103153 1.103154,2.880024 0,3.983172 l -0.597313,0.597311 c -1.103148,1.103153 -2.880014,1.103153 -3.983169,0 L 57.5,54.580481 43.16344,68.917042 c -1.103149,1.103153 -2.880021,1.103153 -3.98317,0 l -0.597312,-0.597311 c -1.103155,-1.103155 -1.103155,-2.880019 0,-3.983172 L 52.919518,49.999999 38.582958,35.66344 c -1.103155,-1.103152 -1.103155,-2.880021 0,-3.983173 l 0.597312,-0.59731 c 1.103149,-1.103151 2.880021,-1.103151 3.98317,0 L 57.5,45.419518 71.83656,31.082957 c 0.551575,-0.551575 1.272297,-0.827214 1.992137,-0.827214 z"
     id="rect812-3"
     inkscape:connector-curvature="0" />
</svg>
