<?xml version="1.0" encoding="UTF-8" standalone="no"?>
<svg
   xmlns:dc="http://purl.org/dc/elements/1.1/"
   xmlns:cc="http://creativecommons.org/ns#"
   xmlns:rdf="http://www.w3.org/1999/02/22-rdf-syntax-ns#"
   xmlns:svg="http://www.w3.org/2000/svg"
   xmlns="http://www.w3.org/2000/svg"
   xmlns:sodipodi="http://sodipodi.sourceforge.net/DTD/sodipodi-0.dtd"
   xmlns:inkscape="http://www.inkscape.org/namespaces/inkscape"
   width="100"
   height="100"
   viewBox="0 0 100 100"
   version="1.1"
   id="svg4"
   sodipodi:docname="connect.svg"
   inkscape:version="1.0.1 (3bc2e813f5, 2020-09-07)">
  <metadata
     id="metadata10">
    <rdf:RDF>
      <cc:Work
         rdf:about="">
        <dc:format>image/svg+xml</dc:format>
        <dc:type
           rdf:resource="http://purl.org/dc/dcmitype/StillImage" />
        <dc:title />
      </cc:Work>
    </rdf:RDF>
  </metadata>
  <defs
     id="defs8">
    <filter
       style="color-interpolation-filters:sRGB;"
       inkscape:label="Drop Shadow"
       id="filter826">
      <feFlood
         flood-opacity="0.498039"
         flood-color="rgb(0,0,0)"
         result="flood"
         id="feFlood816" />
      <feComposite
         in="flood"
         in2="SourceGraphic"
         operator="in"
         result="composite1"
         id="feComposite818" />
      <feGaussianBlur
         in="composite1"
         stdDeviation="4"
         result="blur"
         id="feGaussianBlur820" />
      <feOffset
         dx="5"
         dy="5"
         result="offset"
         id="feOffset822" />
      <feComposite
         in="SourceGraphic"
         in2="offset"
         operator="over"
         result="composite2"
         id="feComposite824" />
    </filter>
  </defs>
  <sodipodi:namedview
     pagecolor="#ffffff"
     bordercolor="#666666"
     borderopacity="1"
     objecttolerance="10"
     gridtolerance="10"
     guidetolerance="10"
     inkscape:pageopacity="0"
     inkscape:pageshadow="2"
     inkscape:window-width="3840"
     inkscape:window-height="1531"
     id="namedview6"
     showgrid="false"
     inkscape:zoom="2.97995"
     inkscape:cx="-74.163628"
     inkscape:cy="31.603758"
     inkscape:window-x="0"
     inkscape:window-y="32"
     inkscape:window-maximized="1"
     inkscape:current-layer="svg4"
     inkscape:document-rotation="0" />
  <g
     id="g16"
     transform="matrix(1.25,0,0,1.25,-12.5,-12.5)"
     style="stroke-width:0.8">
    <path
       d="M 88.348214,30.223214 Q 90,31.919643 90,34.263393 q 0,2.34375 -1.651786,4.040178 L 70.446429,56.160714 77.142857,62.857143 70,70 Q 62.723214,77.276786 52.611607,78.325893 42.5,79.375 34.241071,73.839286 L 18.080357,90 H 10 V 81.919643 L 26.160714,65.758929 Q 20.625,57.5 21.674107,47.388393 22.723214,37.276786 30,30 l 7.142857,-7.142857 6.696429,6.696428 17.857143,-17.901785 Q 63.392857,10 65.758929,10 q 2.366071,0 4.017857,1.651786 1.651785,1.651785 1.651785,4.040178 0,2.388393 -1.651785,4.040179 L 51.919643,37.633929 62.366071,48.080357 80.267857,30.223214 q 1.696429,-1.651785 4.0625,-1.651785 2.366072,0 4.017857,1.651785 z"
       id="path2"
       inkscape:connector-curvature="0"
       style="fill:#310049;fill-opacity:1;stroke-width:0.0357143" />
    <path
       d="m 63.888432,60.361293 -4.450149,4.450152 c -3.022399,3.022402 -6.633523,4.751467 -10.833357,5.187223 -4.199834,0.435729 -8.014919,-0.496006 -11.445246,-2.79526 -2.644908,-2.059882 -3.072606,-2.468402 -5.034244,-5.034245 -2.299244,-3.43033 -3.230997,-7.245412 -2.795255,-11.445245 0.435748,-4.199833 2.16482,-7.81095 5.187221,-10.833352 l 4.450149,-4.450161 z"
       id="path2-3"
       inkscape:connector-curvature="0"
       style="fill:#ffffeb;fill-opacity:1;stroke-width:0.0357143"
       sodipodi:nodetypes="cssccsscc" />
  </g>
</svg>
