<?xml version="1.0" encoding="UTF-8" standalone="no"?>
<!-- Created with Inkscape (http://www.inkscape.org/) -->

<svg
   xmlns:dc="http://purl.org/dc/elements/1.1/"
   xmlns:cc="http://creativecommons.org/ns#"
   xmlns:rdf="http://www.w3.org/1999/02/22-rdf-syntax-ns#"
   xmlns:svg="http://www.w3.org/2000/svg"
   xmlns="http://www.w3.org/2000/svg"
   xmlns:sodipodi="http://sodipodi.sourceforge.net/DTD/sodipodi-0.dtd"
   xmlns:inkscape="http://www.inkscape.org/namespaces/inkscape"
   version="1.0"
   width="100"
   height="100"
   id="svg2"
   inkscape:version="0.92.2 5c3e80d, 2017-08-06"
   sodipodi:docname="control_play.svg">
  <metadata
     id="metadata3050">
    <rdf:RDF>
      <cc:Work
         rdf:about="">
        <dc:format>image/svg+xml</dc:format>
        <dc:type
           rdf:resource="http://purl.org/dc/dcmitype/StillImage" />
        <dc:title />
      </cc:Work>
    </rdf:RDF>
  </metadata>
  <sodipodi:namedview
     pagecolor="#ffffff"
     bordercolor="#666666"
     borderopacity="1"
     objecttolerance="10"
     gridtolerance="10"
     guidetolerance="10"
     inkscape:pageopacity="0"
     inkscape:pageshadow="2"
     inkscape:window-width="1920"
     inkscape:window-height="983"
     id="namedview3048"
     showgrid="false"
     inkscape:zoom="3.337544"
     inkscape:cx="-10.254664"
     inkscape:cy="7.2217411"
     inkscape:window-x="0"
     inkscape:window-y="27"
     inkscape:window-maximized="1"
     inkscape:current-layer="svg2" />
  <defs
     id="defs4" />
  <circle
     style="opacity:1;fill:#ffffeb;fill-opacity:1;fill-rule:nonzero;stroke:none;stroke-width:3.77952766;stroke-miterlimit:4;stroke-dasharray:none;stroke-opacity:1"
     id="path812"
     cx="50"
     cy="50"
     r="35.04409" />
  <path
     inkscape:connector-curvature="0"
     d="m 71.666667,50 q 0,1.927084 -1.666667,2.864587 L 41.666667,69.531254 Q 40.885413,70 40,70 39.166667,70 38.333333,69.583333 36.666667,68.593751 36.666667,66.666666 V 33.333334 q 0,-1.927085 1.666666,-2.916667 1.718747,-0.937502 3.333334,0.05209 L 70,47.135423 q 1.666667,0.937502 1.666667,2.864586 z m 6.666666,0 q 0,-7.708338 -3.80208,-14.218746 Q 70.729165,29.270836 64.218747,25.468747 57.708338,21.666667 50,21.666667 q -7.708329,0 -14.218747,3.80208 -6.510417,3.802089 -10.312506,10.312507 -3.80208,6.510409 -3.80208,14.218746 0,7.708328 3.80208,14.218747 3.802089,6.510418 10.312506,10.312507 6.510418,3.80208 14.218747,3.80208 7.708338,0 14.218747,-3.80208 6.510418,-3.80209 10.312506,-10.312508 Q 78.333333,57.708328 78.333333,50 Z M 90,50 Q 90,60.885413 84.635413,70.078125 79.270836,79.270836 70.078125,84.635413 60.885413,90 50,90 39.114587,90 29.921876,84.635413 20.729164,79.270836 15.364587,70.078125 10,60.885413 10,50 10,39.114587 15.364587,29.921875 20.729164,20.729164 29.921876,15.364587 39.114587,9.9999995 50,9.9999995 q 10.885413,0 20.078125,5.3645875 9.192711,5.364577 14.557288,14.557288 Q 90,39.114587 90,50 Z"
     id="path4174"
     style="fill:#310049;fill-opacity:1;stroke-width:1" />
</svg>
