<?xml version="1.0" encoding="UTF-8" standalone="no"?>
<!-- Created with Inkscape (http://www.inkscape.org/) -->

<svg
   xmlns:dc="http://purl.org/dc/elements/1.1/"
   xmlns:cc="http://creativecommons.org/ns#"
   xmlns:rdf="http://www.w3.org/1999/02/22-rdf-syntax-ns#"
   xmlns:svg="http://www.w3.org/2000/svg"
   xmlns="http://www.w3.org/2000/svg"
   xmlns:sodipodi="http://sodipodi.sourceforge.net/DTD/sodipodi-0.dtd"
   xmlns:inkscape="http://www.inkscape.org/namespaces/inkscape"
   version="1.0"
   width="100"
   height="100"
   id="svg2"
   inkscape:version="0.91 r13725"
   sodipodi:docname="control_pause.svg">
  <metadata
     id="metadata3050">
    <rdf:RDF>
      <cc:Work
         rdf:about="">
        <dc:format>image/svg+xml</dc:format>
        <dc:type
           rdf:resource="http://purl.org/dc/dcmitype/StillImage" />
      </cc:Work>
    </rdf:RDF>
  </metadata>
  <sodipodi:namedview
     pagecolor="#ffffff"
     bordercolor="#666666"
     borderopacity="1"
     objecttolerance="10"
     gridtolerance="10"
     guidetolerance="10"
     inkscape:pageopacity="0"
     inkscape:pageshadow="2"
     inkscape:window-width="1920"
     inkscape:window-height="1136"
     id="namedview3048"
     showgrid="false"
     inkscape:zoom="2.36"
     inkscape:cx="-138.7619"
     inkscape:cy="47.457626"
     inkscape:window-x="0"
     inkscape:window-y="27"
     inkscape:window-maximized="1"
     inkscape:current-layer="svg2" />
  <defs
     id="defs4" />
  <path
     inkscape:connector-curvature="0"
     d="m 50,5 q 12.24609,0 22.58789,6.03516 10.3418,6.03515 16.37695,16.37695 Q 95,37.75391 95,50 95,62.24609 88.96484,72.58789 82.92969,82.92969 72.58789,88.96484 62.24609,95 50,95 37.75391,95 27.41211,88.96484 17.07031,82.92969 11.03516,72.58789 5,62.24609 5,50 5,37.75391 11.03516,27.41211 17.07031,17.07031 27.41211,11.03516 37.75391,5 50,5 Z m 0,76.875 q 8.67187,0 15.99609,-4.27734 Q 73.32031,73.32031 77.59766,65.99609 81.875,58.67187 81.875,50 81.875,41.32812 77.59766,34.00391 73.32031,26.67969 65.99609,22.40234 58.67187,18.125 50,18.125 q -8.67188,0 -15.99609,4.27734 Q 26.67969,26.67969 22.40234,34.00391 18.125,41.32812 18.125,50 q 0,8.67187 4.27734,15.99609 4.27735,7.32422 11.60157,11.60157 Q 41.32812,81.875 50,81.875 Z M 55.625,68.75 q -0.82031,0 -1.34766,-0.52734 Q 53.75,67.69531 53.75,66.875 l 0,-33.75 q 0,-0.82031 0.52734,-1.34766 Q 54.80469,31.25 55.625,31.25 l 11.25,0 q 0.82031,0 1.34766,0.52734 Q 68.75,32.30469 68.75,33.125 l 0,33.75 q 0,0.82031 -0.52734,1.34766 Q 67.69531,68.75 66.875,68.75 l -11.25,0 z m -22.5,0 q -0.82031,0 -1.34766,-0.52734 Q 31.25,67.69531 31.25,66.875 l 0,-33.75 q 0,-0.82031 0.52734,-1.34766 Q 32.30469,31.25 33.125,31.25 l 11.25,0 q 0.82031,0 1.34766,0.52734 Q 46.25,32.30469 46.25,33.125 l 0,33.75 q 0,0.82031 -0.52734,1.34766 Q 45.19531,68.75 44.375,68.75 l -11.25,0 z"
     id="path4168"
     style="fill:#310049;fill-opacity:1" />
</svg>
