<?xml version="1.0" encoding="UTF-8" standalone="no"?>
<!-- Created with Inkscape (http://www.inkscape.org/) -->

<svg
   xmlns:dc="http://purl.org/dc/elements/1.1/"
   xmlns:cc="http://creativecommons.org/ns#"
   xmlns:rdf="http://www.w3.org/1999/02/22-rdf-syntax-ns#"
   xmlns:svg="http://www.w3.org/2000/svg"
   xmlns="http://www.w3.org/2000/svg"
   xmlns:xlink="http://www.w3.org/1999/xlink"
   xmlns:sodipodi="http://sodipodi.sourceforge.net/DTD/sodipodi-0.dtd"
   xmlns:inkscape="http://www.inkscape.org/namespaces/inkscape"
   version="1.0"
   width="100"
   height="100"
   id="svg2"
   inkscape:version="0.91 r13725"
   sodipodi:docname="control_run.svg">
  <metadata
     id="metadata3050">
    <rdf:RDF>
      <cc:Work
         rdf:about="">
        <dc:format>image/svg+xml</dc:format>
        <dc:type
           rdf:resource="http://purl.org/dc/dcmitype/StillImage" />
        <dc:title />
      </cc:Work>
    </rdf:RDF>
  </metadata>
  <sodipodi:namedview
     pagecolor="#ffffff"
     bordercolor="#666666"
     borderopacity="1"
     objecttolerance="10"
     gridtolerance="10"
     guidetolerance="10"
     inkscape:pageopacity="0"
     inkscape:pageshadow="2"
     inkscape:window-width="1920"
     inkscape:window-height="1138"
     id="namedview3048"
     showgrid="false"
     inkscape:zoom="6.675088"
     inkscape:cx="7.097906"
     inkscape:cy="28.124392"
     inkscape:window-x="0"
     inkscape:window-y="25"
     inkscape:window-maximized="1"
     inkscape:current-layer="svg2" />
  <defs
     id="defs4">
    <linearGradient
       inkscape:collect="always"
       id="linearGradient4185">
      <stop
         style="stop-color:#000000;stop-opacity:1"
         offset="0"
         id="stop4187" />
      <stop
         style="stop-color:#ffffff;stop-opacity:0;"
         offset="1"
         id="stop4189" />
    </linearGradient>
    <linearGradient
       inkscape:collect="always"
       id="linearGradient4149">
      <stop
         style="stop-color:#003200;stop-opacity:1;"
         offset="0"
         id="stop4151" />
      <stop
         style="stop-color:#003200;stop-opacity:0;"
         offset="1"
         id="stop4153" />
    </linearGradient>
    <radialGradient
       inkscape:collect="always"
       xlink:href="#linearGradient4149"
       id="radialGradient4155"
       cx="71.622017"
       cy="62.682819"
       fx="71.622017"
       fy="62.682819"
       r="66.88565"
       gradientUnits="userSpaceOnUse"
       gradientTransform="matrix(1.7071901,-3.8372241e-8,4.9486233e-8,2.2043713,-49.090767,-74.57018)" />
    <linearGradient
       inkscape:collect="always"
       xlink:href="#linearGradient4185"
       id="linearGradient4191"
       x1="-78.424942"
       y1="47.699005"
       x2="-25.19205"
       y2="77.810968"
       gradientUnits="userSpaceOnUse"
       gradientTransform="matrix(1.0721308,0,0,1.0727922,-3.6065369,-3.6396102)" />
  </defs>
  <g
     id="g4193"
     transform="matrix(0.93272201,0,0,0.93214694,3.3638997,3.392653)">
    <path
       inkscape:connector-curvature="0"
       id="path4-5"
       d="m 73.857541,53.433761 q 1.98791,-1.11819 1.98791,-3.41672 0,-2.29852 -1.98791,-3.41672 L 40.063054,26.721211 q -1.92579,-1.18033 -3.97582,-0.0621 -1.98791,1.18032 -1.98791,3.47884 l 0,39.75823 q 0,2.29852 1.98791,3.47885 0.99395,0.49697 1.98791,0.49697 1.056071,0 1.98791,-0.55909 z"
       style="fill:url(#linearGradient4191);fill-opacity:1;stroke:#000000;stroke-width:1.07246149;stroke-opacity:1" />
    <path
       style="fill:url(#radialGradient4155);fill-opacity:1;stroke:#000000;stroke-width:1.07246149;stroke-opacity:1"
       id="path4"
       d="m 50.000002,2.29013 q 12.983548,0 23.948118,6.39859 10.96458,6.39859 17.36316,17.36316 6.39859,10.96458 6.39859,23.94812 0,12.98355 -6.39859,23.94813 -6.39858,10.96457 -17.36316,17.36315 -10.96457,6.39859 -23.948118,6.39859 -12.983546,0 -23.948118,-6.39859 Q 15.087309,84.9127 8.6887195,73.94813 2.2901295,62.98355 2.2901295,50 q 0,-12.98354 6.39859,-23.94812 Q 15.087309,15.08731 26.051884,8.68872 37.016457,2.29013 50.000002,2.29013 Z M 73.85494,53.41672 Q 75.84285,52.29853 75.84285,50 q 0,-2.29852 -1.98791,-3.41672 L 40.060444,26.70417 q -1.925788,-1.18033 -3.975822,-0.0621 -1.98791,1.18032 -1.98791,3.47884 l 0,39.75823 q 0,2.29852 1.98791,3.47885 0.993955,0.49697 1.987912,0.49697 1.056077,0 1.98791,-0.55909 z"
       inkscape:connector-curvature="0" />
  </g>
</svg>
