<?xml version="1.0" encoding="UTF-8" standalone="no"?>
<!-- Created with Inkscape (http://www.inkscape.org/) -->

<svg
   xmlns:dc="http://purl.org/dc/elements/1.1/"
   xmlns:cc="http://creativecommons.org/ns#"
   xmlns:rdf="http://www.w3.org/1999/02/22-rdf-syntax-ns#"
   xmlns:svg="http://www.w3.org/2000/svg"
   xmlns="http://www.w3.org/2000/svg"
   xmlns:sodipodi="http://sodipodi.sourceforge.net/DTD/sodipodi-0.dtd"
   xmlns:inkscape="http://www.inkscape.org/namespaces/inkscape"
   version="1.0"
   width="100"
   height="100"
   id="svg2"
   inkscape:version="0.91 r13725"
   sodipodi:docname="control_run.svg">
  <metadata
     id="metadata3050">
    <rdf:RDF>
      <cc:Work
         rdf:about="">
        <dc:format>image/svg+xml</dc:format>
        <dc:type
           rdf:resource="http://purl.org/dc/dcmitype/StillImage" />
        <dc:title />
      </cc:Work>
    </rdf:RDF>
  </metadata>
  <sodipodi:namedview
     pagecolor="#ffffff"
     bordercolor="#666666"
     borderopacity="1"
     objecttolerance="10"
     gridtolerance="10"
     guidetolerance="10"
     inkscape:pageopacity="0"
     inkscape:pageshadow="2"
     inkscape:window-width="1920"
     inkscape:window-height="1136"
     id="namedview3048"
     showgrid="false"
     inkscape:zoom="3.337544"
     inkscape:cx="-97.482716"
     inkscape:cy="-14.468391"
     inkscape:window-x="0"
     inkscape:window-y="27"
     inkscape:window-maximized="1"
     inkscape:current-layer="svg2" />
  <defs
     id="defs4" />
  <path
     inkscape:connector-curvature="0"
     d="m 74.375,50 q 0,2.16797 -1.875,3.22266 l -31.875,18.75 Q 39.74609,72.5 38.75,72.5 37.8125,72.5 36.875,72.03125 35,70.91797 35,68.75 l 0,-37.5 q 0,-2.16797 1.875,-3.28125 1.93359,-1.05469 3.75,0.0586 l 31.875,18.75 q 1.875,1.05469 1.875,3.22266 z m 7.5,0 q 0,-8.67188 -4.27734,-15.99609 Q 73.32031,26.67969 65.99609,22.40234 58.67188,18.125 50,18.125 q -8.67187,0 -15.99609,4.27734 Q 26.67969,26.67969 22.40234,34.00391 18.125,41.32812 18.125,50 q 0,8.67187 4.27734,15.99609 4.27735,7.32422 11.60157,11.60157 Q 41.32813,81.875 50,81.875 q 8.67188,0 15.99609,-4.27734 Q 73.32031,73.32031 77.59766,65.99609 81.875,58.67187 81.875,50 Z M 95,50 Q 95,62.24609 88.96484,72.58789 82.92969,82.92969 72.58789,88.96484 62.24609,95 50,95 37.75391,95 27.41211,88.96484 17.07031,82.92969 11.03516,72.58789 5,62.24609 5,50 5,37.75391 11.03516,27.41211 17.07031,17.07031 27.41211,11.03516 37.75391,5 50,5 62.24609,5 72.58789,11.03516 82.92969,17.07031 88.96484,27.41211 95,37.75391 95,50 Z"
     id="path4174"
     style="fill:#310049;fill-opacity:1" />
</svg>
