<?xml version="1.0" encoding="UTF-8" standalone="no"?>
<!-- Created with Inkscape (http://www.inkscape.org/) -->

<svg
   xmlns:dc="http://purl.org/dc/elements/1.1/"
   xmlns:cc="http://creativecommons.org/ns#"
   xmlns:rdf="http://www.w3.org/1999/02/22-rdf-syntax-ns#"
   xmlns:svg="http://www.w3.org/2000/svg"
   xmlns="http://www.w3.org/2000/svg"
   xmlns:sodipodi="http://sodipodi.sourceforge.net/DTD/sodipodi-0.dtd"
   xmlns:inkscape="http://www.inkscape.org/namespaces/inkscape"
   version="1.0"
   width="100"
   height="100"
   id="svg2"
   inkscape:version="0.91 r13725"
   sodipodi:docname="control_step5.svg">
  <metadata
     id="metadata3050">
    <rdf:RDF>
      <cc:Work
         rdf:about="">
        <dc:format>image/svg+xml</dc:format>
        <dc:type
           rdf:resource="http://purl.org/dc/dcmitype/StillImage" />
      </cc:Work>
    </rdf:RDF>
  </metadata>
  <sodipodi:namedview
     pagecolor="#ffffff"
     bordercolor="#666666"
     borderopacity="1"
     objecttolerance="10"
     gridtolerance="10"
     guidetolerance="10"
     inkscape:pageopacity="0"
     inkscape:pageshadow="2"
     inkscape:window-width="1920"
     inkscape:window-height="1138"
     id="namedview3048"
     showgrid="false"
     inkscape:zoom="2.8284271"
     inkscape:cx="-15.500736"
     inkscape:cy="83.578644"
     inkscape:window-x="0"
     inkscape:window-y="25"
     inkscape:window-maximized="1"
     inkscape:current-layer="svg2" />
  <defs
     id="defs4" />
  <path
     inkscape:connector-curvature="0"
     style="fill:none;fill-opacity:1;fill-rule:evenodd;stroke:#000000;stroke-width:5;stroke-linecap:round;stroke-linejoin:round;stroke-miterlimit:4;stroke-dasharray:none;stroke-dashoffset:2.63393879;stroke-opacity:1"
     id="path3224"
     d="m 10.001477,31.950825 41.963204,24.232358 -41.963204,24.232358 0,-48.464716 z" />
  <g
     id="text5264"
     style="font-style:normal;font-variant:normal;font-weight:normal;font-stretch:normal;font-size:101.32447815px;line-height:125%;font-family:Serif;-inkscape-font-specification:Serif;text-align:center;letter-spacing:0px;word-spacing:0px;text-anchor:middle;fill:#ffffff;fill-opacity:1;stroke:#000000;stroke-width:5.79766226;stroke-linecap:butt;stroke-linejoin:miter;stroke-miterlimit:4;stroke-dasharray:none;stroke-opacity:1"
     transform="matrix(0.90028065,0,0,0.82614502,7.3688264,7.4818445)">
    <path
       inkscape:connector-curvature="0"
       id="path4688"
       style="stroke-width:5.79766226"
       d="m 83.022285,28.902295 -0.940022,-5.590657 -21.521557,0 -2.325318,20.23521 q 2.226368,-1.682144 4.996959,-2.770591 2.820066,-1.137921 6.481205,-1.236871 9.944443,-0.09895 15.63405,6.481205 5.739082,6.580154 5.739082,17.711993 0,10.834991 -5.838032,17.415145 -5.788556,6.580154 -16.920396,6.580154 -9.152846,0 -15.238251,-4.996959 -6.035931,-4.996959 -5.788557,-14.694028 l 0.09895,-0.296849 8.806522,0 q 0,5.838031 3.364289,9.103371 3.413764,3.265339 8.757047,3.265339 6.184356,0 9.59812,-4.353786 3.413764,-4.353786 3.413764,-11.923437 0,-6.975953 -3.463239,-11.379214 -3.413764,-4.452736 -9.49917,-4.452736 -5.739082,0 -8.361248,1.73162 -2.572692,1.731619 -3.760088,5.293808 l -8.113875,-0.841072 4.155887,-39.5304 38.046154,0 0,14.248755 -7.322276,0 z" />
  </g>
</svg>
