<?xml version="1.0" encoding="UTF-8" standalone="no"?>
<svg
   xmlns:dc="http://purl.org/dc/elements/1.1/"
   xmlns:cc="http://creativecommons.org/ns#"
   xmlns:rdf="http://www.w3.org/1999/02/22-rdf-syntax-ns#"
   xmlns:svg="http://www.w3.org/2000/svg"
   xmlns="http://www.w3.org/2000/svg"
   xmlns:sodipodi="http://sodipodi.sourceforge.net/DTD/sodipodi-0.dtd"
   xmlns:inkscape="http://www.inkscape.org/namespaces/inkscape"
   aria-hidden="true"
   focusable="false"
   data-prefix="fas"
   data-icon="eraser"
   class="svg-inline--fa fa-eraser fa-w-16"
   role="img"
   viewBox="0 0 100 100"
   version="1.1"
   id="svg4"
   sodipodi:docname="delete.svg"
   width="100"
   height="100"
   inkscape:version="1.0.1 (3bc2e813f5, 2020-09-07)">
  <metadata
     id="metadata10">
    <rdf:RDF>
      <cc:Work
         rdf:about="">
        <dc:format>image/svg+xml</dc:format>
        <dc:type
           rdf:resource="http://purl.org/dc/dcmitype/StillImage" />
        <dc:title />
      </cc:Work>
    </rdf:RDF>
  </metadata>
  <defs
     id="defs8" />
  <sodipodi:namedview
     pagecolor="#ffffff"
     bordercolor="#666666"
     borderopacity="1"
     objecttolerance="10"
     gridtolerance="10"
     guidetolerance="10"
     inkscape:pageopacity="0"
     inkscape:pageshadow="2"
     inkscape:window-width="3840"
     inkscape:window-height="1531"
     id="namedview6"
     showgrid="false"
     inkscape:zoom="5.2149125"
     inkscape:cx="69.953276"
     inkscape:cy="75.74342"
     inkscape:window-x="0"
     inkscape:window-y="32"
     inkscape:window-maximized="1"
     inkscape:current-layer="svg4"
     inkscape:document-rotation="0" />
  <g
     id="g10"
     transform="matrix(1.25,0,0,1.25,-12.5,-12.5)"
     style="stroke-width:0.8">
    <path
       d="m 40.517885,43.017828 21.464499,21.4645 -10.517797,10.51764 H 33.535708 L 21.035726,62.499988 Z"
       id="path2"
       inkscape:connector-curvature="0"
       style="fill:#ffffeb;fill-opacity:1;stroke-width:0.8"
       sodipodi:nodetypes="cccccc" />
    <path
       d="m 87.803281,52.803288 c 2.9289,-2.9289 2.9289,-7.67765 0,-10.60655 l -24.99996,-24.99996 c -2.9289,-2.9289 -7.67749,-2.92906 -10.6067,0 l -39.99994,39.999939 c -2.9289098,2.9289 -2.9289098,7.67764 0,10.60655 l 14.99997,14.99997 a 7.500614,7.500614 0 0 0 5.30343,2.19672 h 55.62492 c 1.03547,0 1.875,-0.83953 1.875,-1.875 v -6.24999 c 0,-1.03547 -0.83953,-1.875 -1.875,-1.875 h -22.51825 z m -47.2854,-9.78546 21.4645,21.464499 -10.5178,10.51764 h -17.92887 l -12.49998,-12.49998 z"
       id="path2-3"
       inkscape:connector-curvature="0"
       style="fill:#310049;fill-opacity:1;stroke-width:0.8" />
  </g>
</svg>
