<?xml version="1.0" encoding="UTF-8" standalone="no"?>
<svg
   xmlns:dc="http://purl.org/dc/elements/1.1/"
   xmlns:cc="http://creativecommons.org/ns#"
   xmlns:rdf="http://www.w3.org/1999/02/22-rdf-syntax-ns#"
   xmlns:svg="http://www.w3.org/2000/svg"
   xmlns="http://www.w3.org/2000/svg"
   xmlns:sodipodi="http://sodipodi.sourceforge.net/DTD/sodipodi-0.dtd"
   xmlns:inkscape="http://www.inkscape.org/namespaces/inkscape"
   viewBox="0 0 100 100"
   version="1.1"
   id="svg4"
   sodipodi:docname="dguided_subscript.svg"
   width="100"
   height="100"
   inkscape:version="0.92.2 5c3e80d, 2017-08-06">
  <metadata
     id="metadata10">
    <rdf:RDF>
      <cc:Work
         rdf:about="">
        <dc:format>image/svg+xml</dc:format>
        <dc:type
           rdf:resource="http://purl.org/dc/dcmitype/StillImage" />
        <dc:title></dc:title>
      </cc:Work>
    </rdf:RDF>
  </metadata>
  <defs
     id="defs8" />
  <sodipodi:namedview
     pagecolor="#ffffff"
     bordercolor="#666666"
     borderopacity="1"
     objecttolerance="10"
     gridtolerance="10"
     guidetolerance="10"
     inkscape:pageopacity="0"
     inkscape:pageshadow="2"
     inkscape:window-width="1920"
     inkscape:window-height="983"
     id="namedview6"
     showgrid="false"
     inkscape:zoom="0.921875"
     inkscape:cx="957.27052"
     inkscape:cy="396.80771"
     inkscape:window-x="0"
     inkscape:window-y="27"
     inkscape:window-maximized="1"
     inkscape:current-layer="svg4" />
  <path
     d="m 71.749687,75 c 0.540782,-1.644688 2.936875,-3.325 5.666407,-5.066406 2.597656,-1.657032 5.541718,-3.535313 7.865781,-6.072188 2.727812,-2.977187 4.05375,-6.277343 4.05375,-10.088594 C 89.335625,44.31 81.413437,40 74.052813,40 c -6.639219,0 -11.934063,3.44 -14.755001,7.882344 -0.727187,1.145156 -0.405,2.661875 0.722344,3.416406 l 4.73875,3.17125 c 1.09875,0.735313 2.571875,0.481875 3.379688,-0.564688 1.253437,-1.624062 2.940312,-2.847656 4.947968,-2.847656 3.029219,0 4.104063,2.015782 4.104063,3.741875 0,5.649844 -18.662031,8.909844 -18.662031,25.00375 0,1.039688 0.08766,2.033438 0.221093,3.020469 C 58.917812,84.068125 59.97375,85 61.229375,85 H 87.5 c 1.380781,0 2.5,-1.119219 2.5,-2.5 v -5 C 90,76.119219 88.880781,75 87.5,75 Z M 52.5,50 c 1.380781,0 2.5,1.119219 2.5,2.5 v 5 C 55,58.880781 53.880781,60 52.5,60 H 42.750156 A 2.5,2.5 0 0 1 40.634375,58.831563 L 33.493594,47.485469 c -0.358906,-0.52375 -0.690938,-1.088906 -0.967969,-1.595157 -0.257812,0.506875 -0.569844,1.083907 -0.917812,1.653438 l -6.98625,11.272969 a 2.4998437,2.4998437 0 0 1 -2.125,1.183125 H 12.5 c -1.380781,0 -2.5,-1.119219 -2.5,-2.5 v -5 c 0,-1.380781 1.119219,-2.5 2.5,-2.5 h 4.113281 L 25.449531,37.076563 17.204844,25 H 12.5 C 11.119219,25 10,23.880781 10,22.5 v -5 C 10,16.119219 11.119219,15 12.5,15 h 10.750937 a 2.5,2.5 0 0 1 2.132032,1.194375 l 6.231562,10.175938 c 0.32375,0.550468 0.633281,1.120468 0.894844,1.620312 0.277656,-0.506875 0.6125,-1.086562 0.974531,-1.646406 L 39.785781,16.1825 A 2.4998437,2.4998437 0 0 1 41.910312,15 H 52.5 c 1.380781,0 2.5,1.119219 2.5,2.5 v 5 C 55,23.880781 53.880781,25 52.5,25 H 48.128281 L 39.895469,36.823594 49.058438,50 Z"
     id="path2"
     inkscape:connector-curvature="0"
     style="stroke-width:1;fill:#310049;fill-opacity:1" />
</svg>
