<?xml version="1.0" encoding="UTF-8" standalone="no"?>
<svg
   xmlns:dc="http://purl.org/dc/elements/1.1/"
   xmlns:cc="http://creativecommons.org/ns#"
   xmlns:rdf="http://www.w3.org/1999/02/22-rdf-syntax-ns#"
   xmlns:svg="http://www.w3.org/2000/svg"
   xmlns="http://www.w3.org/2000/svg"
   xmlns:sodipodi="http://sodipodi.sourceforge.net/DTD/sodipodi-0.dtd"
   xmlns:inkscape="http://www.inkscape.org/namespaces/inkscape"
   viewBox="0 0 100 100"
   version="1.1"
   id="svg4"
   sodipodi:docname="dguided_paste.svg"
   width="100"
   height="100"
   inkscape:version="0.92.2 5c3e80d, 2017-08-06">
  <metadata
     id="metadata10">
    <rdf:RDF>
      <cc:Work
         rdf:about="">
        <dc:format>image/svg+xml</dc:format>
        <dc:type
           rdf:resource="http://purl.org/dc/dcmitype/StillImage" />
        <dc:title></dc:title>
      </cc:Work>
    </rdf:RDF>
  </metadata>
  <defs
     id="defs8" />
  <sodipodi:namedview
     pagecolor="#ffffff"
     bordercolor="#666666"
     borderopacity="1"
     objecttolerance="10"
     gridtolerance="10"
     guidetolerance="10"
     inkscape:pageopacity="0"
     inkscape:pageshadow="2"
     inkscape:window-width="1920"
     inkscape:window-height="1136"
     id="namedview6"
     showgrid="false"
     inkscape:zoom="0.4609375"
     inkscape:cx="0.54237288"
     inkscape:cy="256"
     inkscape:window-x="0"
     inkscape:window-y="27"
     inkscape:window-maximized="1"
     inkscape:current-layer="svg4" />
  <path
     d="M 35,38.75 C 35,33.925156 38.925313,30 43.75,30 H 65 V 18.75 C 65,16.678906 63.321094,15 61.25,15 H 48.654687 C 46.922812,12.014062 43.693281,10 40,10 c -3.693281,0 -6.922813,2.014062 -8.654688,5 H 18.75 C 16.678906,15 15,16.678906 15,18.75 v 52.5 C 15,73.321094 16.678906,75 18.75,75 H 35 Z m 5,-22.5 c 2.071094,0 3.75,1.678906 3.75,3.75 0,2.071094 -1.678906,3.75 -3.75,3.75 -2.071094,0 -3.75,-1.678906 -3.75,-3.75 0,-2.071094 1.678906,-3.75 3.75,-3.75 z M 68.75,55 H 85 V 86.25 C 85,88.321094 83.321094,90 81.25,90 H 43.75 C 41.678906,90 40,88.321094 40,86.25 V 38.75 C 40,36.678906 41.678906,35 43.75,35 H 65 V 51.25 C 65,53.3125 66.6875,55 68.75,55 Z M 85,49.053281 V 50 H 70 V 35 h 0.946719 a 3.75,3.75 0 0 1 2.651562,1.098281 L 83.901563,46.401562 A 3.7503125,3.7503125 0 0 1 85,49.053281 Z"
     id="path2"
     style="fill:#310049;fill-opacity:1;stroke-width:1"
     inkscape:connector-curvature="0" />
</svg>
