<?xml version="1.0" encoding="UTF-8" standalone="no"?>
<svg
   xmlns:dc="http://purl.org/dc/elements/1.1/"
   xmlns:cc="http://creativecommons.org/ns#"
   xmlns:rdf="http://www.w3.org/1999/02/22-rdf-syntax-ns#"
   xmlns:svg="http://www.w3.org/2000/svg"
   xmlns="http://www.w3.org/2000/svg"
   xmlns:sodipodi="http://sodipodi.sourceforge.net/DTD/sodipodi-0.dtd"
   xmlns:inkscape="http://www.inkscape.org/namespaces/inkscape"
   viewBox="0 0 100 100"
   version="1.1"
   id="svg4"
   sodipodi:docname="dguided_angstrom.svg"
   width="100"
   height="100"
   inkscape:version="0.92.2 5c3e80d, 2017-08-06">
  <metadata
     id="metadata10">
    <rdf:RDF>
      <cc:Work
         rdf:about="">
        <dc:format>image/svg+xml</dc:format>
        <dc:type
           rdf:resource="http://purl.org/dc/dcmitype/StillImage" />
        <dc:title />
      </cc:Work>
    </rdf:RDF>
  </metadata>
  <defs
     id="defs8" />
  <sodipodi:namedview
     pagecolor="#ffffff"
     bordercolor="#666666"
     borderopacity="1"
     objecttolerance="10"
     gridtolerance="10"
     guidetolerance="10"
     inkscape:pageopacity="0"
     inkscape:pageshadow="2"
     inkscape:window-width="1920"
     inkscape:window-height="983"
     id="namedview6"
     showgrid="false"
     inkscape:zoom="5.2149125"
     inkscape:cx="81.682072"
     inkscape:cy="72.416622"
     inkscape:window-x="0"
     inkscape:window-y="27"
     inkscape:window-maximized="1"
     inkscape:current-layer="svg4" />
  <path
     inkscape:connector-curvature="0"
     id="path816"
     style="font-style:normal;font-variant:normal;font-weight:normal;font-stretch:normal;font-size:medium;line-height:125%;font-family:serif;-inkscape-font-specification:serif;letter-spacing:0px;word-spacing:0px;fill:#310049;fill-opacity:1;stroke:#310049;stroke-width:2.99999976;stroke-linecap:butt;stroke-linejoin:miter;stroke-miterlimit:4;stroke-dasharray:none;stroke-opacity:1"
     d="m 55.821518,22.638876 q 0,-2.551816 -1.825563,-4.334035 -1.784996,-1.822725 -4.340784,-1.822725 -2.596356,0 -4.381351,1.78222 -1.744427,1.741715 -1.744427,4.37454 0,2.551814 1.744427,4.334034 1.784995,1.78222 4.381351,1.78222 2.555788,0 4.340784,-1.78222 1.825563,-1.78222 1.825563,-4.334034 z M 36.470549,66.586796 H 58.620715 L 47.5862,37.828248 Z M 19.350824,88.499999 v -4.29353 H 24.66524 L 44.503027,32.441084 q -2.920902,-1.498685 -4.462488,-3.969489 -1.501018,-2.470806 -1.501018,-5.832719 0,-4.61757 3.245445,-7.85797 3.245446,-3.280905 7.870205,-3.280905 4.62476,0 7.870206,3.280905 3.286013,3.2404 3.286013,7.85797 0,3.2404 -1.582155,5.832719 -1.582154,2.551814 -4.503055,3.969489 l 19.95949,51.765385 h 5.963506 v 4.29353 H 58.620715 v -4.29353 h 6.7343 L 60.284006,70.920831 H 34.807258 l -5.071009,13.285638 h 6.653163 v 4.29353 z" />
</svg>
