<?xml version="1.0" encoding="UTF-8" standalone="no"?>
<svg
   xmlns:dc="http://purl.org/dc/elements/1.1/"
   xmlns:cc="http://creativecommons.org/ns#"
   xmlns:rdf="http://www.w3.org/1999/02/22-rdf-syntax-ns#"
   xmlns:svg="http://www.w3.org/2000/svg"
   xmlns="http://www.w3.org/2000/svg"
   xmlns:sodipodi="http://sodipodi.sourceforge.net/DTD/sodipodi-0.dtd"
   xmlns:inkscape="http://www.inkscape.org/namespaces/inkscape"
   viewBox="0 0 100 100"
   version="1.1"
   id="svg4"
   sodipodi:docname="dguided_underline.svg"
   inkscape:version="0.92.2 5c3e80d, 2017-08-06"
   width="100"
   height="100">
  <metadata
     id="metadata10">
    <rdf:RDF>
      <cc:Work
         rdf:about="">
        <dc:format>image/svg+xml</dc:format>
        <dc:type
           rdf:resource="http://purl.org/dc/dcmitype/StillImage" />
        <dc:title></dc:title>
      </cc:Work>
    </rdf:RDF>
  </metadata>
  <defs
     id="defs8" />
  <sodipodi:namedview
     pagecolor="#ffffff"
     bordercolor="#666666"
     borderopacity="1"
     objecttolerance="10"
     gridtolerance="10"
     guidetolerance="10"
     inkscape:pageopacity="0"
     inkscape:pageshadow="2"
     inkscape:window-width="1920"
     inkscape:window-height="1136"
     id="namedview6"
     showgrid="false"
     inkscape:zoom="0.4609375"
     inkscape:cx="0.54237288"
     inkscape:cy="256"
     inkscape:window-x="0"
     inkscape:window-y="27"
     inkscape:window-maximized="1"
     inkscape:current-layer="svg4" />
  <path
     d="m 50.04125,70.6625 c -14.323281,0 -24.469219,-7.994531 -24.469219,-23.655 V 20 h -4.420469 c -1.380781,0 -2.5,-1.119219 -2.5,-2.5 v -5 c 0,-1.380781 1.119219,-2.5 2.5,-2.5 H 42.61875 c 1.380781,0 2.5,1.119219 2.5,2.5 v 5 c 0,1.380781 -1.119219,2.5 -2.5,2.5 h -4.502031 v 27.0075 c 0,8.390469 4.424062,12.413125 11.924531,12.413125 7.338438,0 11.843125,-3.974063 11.843125,-12.494531 V 20 h -4.420469 c -1.380781,0 -2.5,-1.119219 -2.5,-2.5 v -5 c 0,-1.380781 1.119219,-2.5 2.5,-2.5 h 21.385625 c 1.380781,0 2.5,1.119219 2.5,2.5 v 5 c 0,1.380781 -1.119219,2.5 -2.5,2.5 h -4.420469 v 27.0075 c 0,15.532031 -10.137656,23.655 -24.387812,23.655 z M 17.5,80 h 65 c 1.380781,0 2.5,1.119219 2.5,2.5 v 5 c 0,1.380781 -1.119219,2.5 -2.5,2.5 h -65 C 16.119219,90 15,88.880781 15,87.5 v -5 C 15,81.119219 16.119219,80 17.5,80 Z"
     id="path2"
     style="fill:#310049;fill-opacity:1;stroke-width:1"
     inkscape:connector-curvature="0" />
</svg>
