<?xml version="1.0" encoding="UTF-8" standalone="no"?>
<svg
   xmlns:dc="http://purl.org/dc/elements/1.1/"
   xmlns:cc="http://creativecommons.org/ns#"
   xmlns:rdf="http://www.w3.org/1999/02/22-rdf-syntax-ns#"
   xmlns:svg="http://www.w3.org/2000/svg"
   xmlns="http://www.w3.org/2000/svg"
   xmlns:sodipodi="http://sodipodi.sourceforge.net/DTD/sodipodi-0.dtd"
   xmlns:inkscape="http://www.inkscape.org/namespaces/inkscape"
   viewBox="0 0 100 100"
   version="1.1"
   id="svg4"
   sodipodi:docname="dguided_listsquare.svg"
   width="100"
   height="100"
   inkscape:version="0.92.2 5c3e80d, 2017-08-06">
  <metadata
     id="metadata10">
    <rdf:RDF>
      <cc:Work
         rdf:about="">
        <dc:format>image/svg+xml</dc:format>
        <dc:type
           rdf:resource="http://purl.org/dc/dcmitype/StillImage" />
        <dc:title></dc:title>
      </cc:Work>
    </rdf:RDF>
  </metadata>
  <defs
     id="defs8" />
  <sodipodi:namedview
     pagecolor="#ffffff"
     bordercolor="#666666"
     borderopacity="1"
     objecttolerance="10"
     gridtolerance="10"
     guidetolerance="10"
     inkscape:pageopacity="0"
     inkscape:pageshadow="2"
     inkscape:window-width="1920"
     inkscape:window-height="1136"
     id="namedview6"
     showgrid="false"
     inkscape:zoom="0.4609375"
     inkscape:cx="32.542373"
     inkscape:cy="256"
     inkscape:window-x="0"
     inkscape:window-y="27"
     inkscape:window-maximized="1"
     inkscape:current-layer="svg4" />
  <path
     d="m 30,28.125 v -6.25 c 0,-1.38078 1.11922,-2.5 2.5,-2.5 h 55 c 1.38078,0 2.5,1.11922 2.5,2.5 v 6.25 c 0,1.38078 -1.11922,2.5 -2.5,2.5 h -55 c -1.38078,0 -2.5,-1.11922 -2.5,-2.5 z m 2.5,27.5 h 55 c 1.38078,0 2.5,-1.11922 2.5,-2.5 v -6.25 c 0,-1.38078 -1.11922,-2.5 -2.5,-2.5 h -55 c -1.38078,0 -2.5,1.11922 -2.5,2.5 v 6.25 c 0,1.38078 1.11922,2.5 2.5,2.5 z m 0,25 h 55 c 1.38078,0 2.5,-1.11922 2.5,-2.5 v -6.25 c 0,-1.38078 -1.11922,-2.5 -2.5,-2.5 h -55 c -1.38078,0 -2.5,1.11922 -2.5,2.5 v 6.25 c 0,1.38078 1.11922,2.5 2.5,2.5 z M 12.5,32.5 h 10 C 23.88078,32.5 25,31.38078 25,30 V 20 c 0,-1.38078 -1.11922,-2.5 -2.5,-2.5 h -10 C 11.11922,17.5 10,18.61922 10,20 v 10 c 0,1.38078 1.11922,2.5 2.5,2.5 z m 0,25 h 10 C 23.88078,57.5 25,56.38078 25,55 V 45 c 0,-1.38078 -1.11922,-2.5 -2.5,-2.5 h -10 C 11.11922,42.5 10,43.61922 10,45 v 10 c 0,1.38078 1.11922,2.5 2.5,2.5 z m 0,25 h 10 C 23.88078,82.5 25,81.38078 25,80 V 70 c 0,-1.38078 -1.11922,-2.5 -2.5,-2.5 h -10 C 11.11922,67.5 10,68.61922 10,70 v 10 c 0,1.38078 1.11922,2.5 2.5,2.5 z"
     id="path2"
     inkscape:connector-curvature="0"
     style="stroke-width:0.99999994;fill:#310049;fill-opacity:1" />
</svg>
