<?xml version="1.0" encoding="UTF-8" standalone="no"?>
<svg
   xmlns:dc="http://purl.org/dc/elements/1.1/"
   xmlns:cc="http://creativecommons.org/ns#"
   xmlns:rdf="http://www.w3.org/1999/02/22-rdf-syntax-ns#"
   xmlns:svg="http://www.w3.org/2000/svg"
   xmlns="http://www.w3.org/2000/svg"
   xmlns:sodipodi="http://sodipodi.sourceforge.net/DTD/sodipodi-0.dtd"
   xmlns:inkscape="http://www.inkscape.org/namespaces/inkscape"
   viewBox="0 0 99.999998 100"
   version="1.1"
   id="svg4"
   sodipodi:docname="dguided_redo.svg"
   width="100"
   height="100"
   inkscape:version="0.92.2 5c3e80d, 2017-08-06">
  <metadata
     id="metadata10">
    <rdf:RDF>
      <cc:Work
         rdf:about="">
        <dc:format>image/svg+xml</dc:format>
        <dc:type
           rdf:resource="http://purl.org/dc/dcmitype/StillImage" />
        <dc:title></dc:title>
      </cc:Work>
    </rdf:RDF>
  </metadata>
  <defs
     id="defs8" />
  <sodipodi:namedview
     pagecolor="#ffffff"
     bordercolor="#666666"
     borderopacity="1"
     objecttolerance="10"
     gridtolerance="10"
     guidetolerance="10"
     inkscape:pageopacity="0"
     inkscape:pageshadow="2"
     inkscape:window-width="1920"
     inkscape:window-height="1136"
     id="namedview6"
     showgrid="false"
     inkscape:zoom="0.4609375"
     inkscape:cx="32.708877"
     inkscape:cy="256"
     inkscape:window-x="0"
     inkscape:window-y="27"
     inkscape:window-maximized="1"
     inkscape:current-layer="svg4" />
  <path
     d="M 88.096496,10.026417 H 80.57591 c -1.087059,0 -1.953312,0.908765 -1.901283,1.994555 l 0.629108,13.127674 C 72.088503,16.67266 61.342589,11.29542 49.339252,11.29542 c -21.677897,0 -39.3552621,17.690848 -39.339241,39.368744 0.01602,21.712794 17.62264,39.309419 39.339082,39.309419 10.140283,0 19.384333,-3.83667 26.36004,-10.137427 0.811051,-0.732532 0.84928,-1.992493 0.07646,-2.765316 l -5.388664,-5.388661 c -0.70842,-0.70842 -1.846398,-0.748235 -2.598282,-0.08613 -4.917544,4.330947 -11.373912,6.956514 -18.449554,6.956514 -15.42901,0 -27.918058,-12.486352 -27.918058,-27.918058 0,-15.42901 12.486351,-27.918059 27.918058,-27.918059 9.659014,0 18.163552,4.894861 23.175002,12.341051 L 56.409659,34.285782 c -1.085791,-0.05203 -1.994555,0.814224 -1.994555,1.901283 v 7.520586 c 0,1.05121 0.852294,1.903504 1.903504,1.903504 H 88.096496 C 89.147706,45.611155 90,44.758861 90,43.707651 v -31.77773 c 0,-1.05121 -0.852294,-1.903504 -1.903504,-1.903504 z"
     id="path2"
     inkscape:connector-curvature="0"
     style="fill:#310049;fill-opacity:1;stroke-width:1" />
</svg>
