<?xml version="1.0" encoding="UTF-8" standalone="no"?>
<svg
   xmlns:dc="http://purl.org/dc/elements/1.1/"
   xmlns:cc="http://creativecommons.org/ns#"
   xmlns:rdf="http://www.w3.org/1999/02/22-rdf-syntax-ns#"
   xmlns:svg="http://www.w3.org/2000/svg"
   xmlns="http://www.w3.org/2000/svg"
   xmlns:sodipodi="http://sodipodi.sourceforge.net/DTD/sodipodi-0.dtd"
   xmlns:inkscape="http://www.inkscape.org/namespaces/inkscape"
   viewBox="0 0 100 100"
   version="1.1"
   id="svg4"
   sodipodi:docname="dguided_clearformat.svg"
   width="100"
   height="100"
   inkscape:version="0.92.2 5c3e80d, 2017-08-06">
  <metadata
     id="metadata10">
    <rdf:RDF>
      <cc:Work
         rdf:about="">
        <dc:format>image/svg+xml</dc:format>
        <dc:type
           rdf:resource="http://purl.org/dc/dcmitype/StillImage" />
        <dc:title></dc:title>
      </cc:Work>
    </rdf:RDF>
  </metadata>
  <defs
     id="defs8" />
  <sodipodi:namedview
     pagecolor="#ffffff"
     bordercolor="#666666"
     borderopacity="1"
     objecttolerance="10"
     gridtolerance="10"
     guidetolerance="10"
     inkscape:pageopacity="0"
     inkscape:pageshadow="2"
     inkscape:window-width="1920"
     inkscape:window-height="1136"
     id="namedview6"
     showgrid="false"
     inkscape:zoom="0.4609375"
     inkscape:cx="-31.457627"
     inkscape:cy="256"
     inkscape:window-x="0"
     inkscape:window-y="27"
     inkscape:window-maximized="1"
     inkscape:current-layer="svg4" />
  <path
     d="M 75,10 H 25 c -2.760938,0 -5,2.239062 -5,5 V 50 H 80 V 15 c 0,-2.760938 -2.239062,-5 -5,-5 z M 20,60 c 0,5.523437 4.478125,10 10,10 h 10 v 10 c 0,5.523437 4.478125,10 10,10 5.521875,0 10,-4.476563 10,-10 V 70 h 10 c 5.521875,0 10,-4.476563 10,-10 V 55 H 20 Z m 30,16.25 c 2.070312,0 3.75,1.678125 3.75,3.75 0,2.070312 -1.679688,3.75 -3.75,3.75 -2.070313,0 -3.75,-1.679688 -3.75,-3.75 0,-2.071875 1.679687,-3.75 3.75,-3.75 z"
     id="path2"
     style="fill:#310049;fill-opacity:1;stroke-width:1"
     inkscape:connector-curvature="0" />
</svg>
