<?xml version="1.0" encoding="UTF-8" standalone="no"?>
<svg
   xmlns:dc="http://purl.org/dc/elements/1.1/"
   xmlns:cc="http://creativecommons.org/ns#"
   xmlns:rdf="http://www.w3.org/1999/02/22-rdf-syntax-ns#"
   xmlns:svg="http://www.w3.org/2000/svg"
   xmlns="http://www.w3.org/2000/svg"
   xmlns:sodipodi="http://sodipodi.sourceforge.net/DTD/sodipodi-0.dtd"
   xmlns:inkscape="http://www.inkscape.org/namespaces/inkscape"
   viewBox="0 0 100 100"
   version="1.1"
   id="svg4"
   sodipodi:docname="dguided_italic.svg"
   width="100"
   height="100"
   inkscape:version="0.92.2 5c3e80d, 2017-08-06">
  <metadata
     id="metadata10">
    <rdf:RDF>
      <cc:Work
         rdf:about="">
        <dc:format>image/svg+xml</dc:format>
        <dc:type
           rdf:resource="http://purl.org/dc/dcmitype/StillImage" />
        <dc:title></dc:title>
      </cc:Work>
    </rdf:RDF>
  </metadata>
  <defs
     id="defs8" />
  <sodipodi:namedview
     pagecolor="#ffffff"
     bordercolor="#666666"
     borderopacity="1"
     objecttolerance="10"
     gridtolerance="10"
     guidetolerance="10"
     inkscape:pageopacity="0"
     inkscape:pageshadow="2"
     inkscape:window-width="1920"
     inkscape:window-height="1136"
     id="namedview6"
     showgrid="false"
     inkscape:zoom="0.4609375"
     inkscape:cx="-63.457627"
     inkscape:cy="256"
     inkscape:window-x="0"
     inkscape:window-y="27"
     inkscape:window-maximized="1"
     inkscape:current-layer="svg4" />
  <path
     d="M 57.992411,78.571429 H 51.947947 L 63.035804,21.428571 h 7.272321 a 2.8571429,2.8571429 0 0 0 2.804286,-2.310179 l 1.114643,-5.714285 C 74.571161,11.64 73.220268,10 71.422768,10 h -28.52375 a 2.8571429,2.8571429 0 0 0 -2.804286,2.310178 l -1.114643,5.714286 c -0.344107,1.764107 1.006786,3.404107 2.804286,3.404107 h 6.043929 l -11.0875,57.142858 h -7.048393 a 2.8571429,2.8571429 0 0 0 -2.804286,2.309821 l -1.115179,5.714286 C 25.428839,88.359822 26.779732,90 28.577411,90 h 28.299821 a 2.8571429,2.8571429 0 0 0 2.804286,-2.309821 l 1.115179,-5.714286 c 0.344107,-1.764286 -1.006786,-3.404464 -2.804286,-3.404464 z"
     id="path2"
     inkscape:connector-curvature="0"
     style="fill:#310049;fill-opacity:1;stroke-width:1" />
</svg>
