<?xml version="1.0" encoding="UTF-8" standalone="no"?>
<svg
   xmlns:dc="http://purl.org/dc/elements/1.1/"
   xmlns:cc="http://creativecommons.org/ns#"
   xmlns:rdf="http://www.w3.org/1999/02/22-rdf-syntax-ns#"
   xmlns:svg="http://www.w3.org/2000/svg"
   xmlns="http://www.w3.org/2000/svg"
   xmlns:sodipodi="http://sodipodi.sourceforge.net/DTD/sodipodi-0.dtd"
   xmlns:inkscape="http://www.inkscape.org/namespaces/inkscape"
   viewBox="0 0 100 100"
   version="1.1"
   id="svg4"
   sodipodi:docname="dguided_superscript.svg"
   width="100"
   height="100"
   inkscape:version="0.92.2 5c3e80d, 2017-08-06">
  <metadata
     id="metadata10">
    <rdf:RDF>
      <cc:Work
         rdf:about="">
        <dc:format>image/svg+xml</dc:format>
        <dc:type
           rdf:resource="http://purl.org/dc/dcmitype/StillImage" />
        <dc:title></dc:title>
      </cc:Work>
    </rdf:RDF>
  </metadata>
  <defs
     id="defs8" />
  <sodipodi:namedview
     pagecolor="#ffffff"
     bordercolor="#666666"
     borderopacity="1"
     objecttolerance="10"
     gridtolerance="10"
     guidetolerance="10"
     inkscape:pageopacity="0"
     inkscape:pageshadow="2"
     inkscape:window-width="1920"
     inkscape:window-height="983"
     id="namedview6"
     showgrid="false"
     inkscape:zoom="0.4609375"
     inkscape:cx="264.67797"
     inkscape:cy="247.32203"
     inkscape:window-x="0"
     inkscape:window-y="27"
     inkscape:window-maximized="1"
     inkscape:current-layer="svg4" />
  <path
     d="m 71.74969,50 c 0.54078,-1.64469 2.93687,-3.325 5.6664,-5.06641 2.59766,-1.65703 5.54172,-3.53531 7.86579,-6.07218 2.72781,-2.97719 4.05375,-6.27735 4.05375,-10.0886 C 89.33563,19.31 81.41344,15 74.05281,15 c -6.63922,0 -11.93406,3.44 -14.755,7.88234 -0.72718,1.14516 -0.405,2.66188 0.72235,3.41641 L 64.75891,29.47 c 1.09875,0.73531 2.57187,0.48187 3.37968,-0.56469 1.25344,-1.62406 2.94032,-2.84765 4.94797,-2.84765 3.02922,0 4.10407,2.01578 4.10407,3.74187 0,5.64984 -18.66204,8.90984 -18.66204,25.00375 0,1.03969 0.0877,2.03344 0.2211,3.02047 C 58.91781,59.06812 59.97375,60 61.22938,60 H 87.5 c 1.38078,0 2.5,-1.11922 2.5,-2.5 v -5 C 90,51.11922 88.88078,50 87.5,50 Z M 52.5,75 c 1.38078,0 2.5,1.11922 2.5,2.5 v 5 C 55,83.88078 53.88078,85 52.5,85 H 42.75016 A 2.5,2.5 0 0 1 40.63438,83.83156 L 33.49359,72.48547 c -0.3589,-0.52375 -0.69093,-1.08891 -0.96796,-1.59516 -0.25782,0.50688 -0.56985,1.08391 -0.91782,1.65344 l -6.98625,11.27297 a 2.4998437,2.4998437 0 0 1 -2.125,1.18312 H 12.5 c -1.38078,0 -2.5,-1.11922 -2.5,-2.5 v -5 c 0,-1.38078 1.11922,-2.5 2.5,-2.5 h 4.11328 L 25.44953,62.07656 17.20484,50 H 12.5 C 11.11922,50 10,48.88078 10,47.5 v -5 C 10,41.11922 11.11922,40 12.5,40 h 10.75094 a 2.5,2.5 0 0 1 2.13203,1.19437 l 6.23156,10.17594 c 0.32375,0.55047 0.63328,1.12047 0.89485,1.62031 0.27765,-0.50687 0.6125,-1.08656 0.97453,-1.6464 L 39.78578,41.1825 a 2.5,2.5 0 0 1 2.12469,-1.18234 H 52.5 c 1.38078,0 2.5,1.11921 2.5,2.5 v 5 c 0,1.38078 -1.11922,2.5 -2.5,2.5 H 48.12828 L 39.89547,61.82375 49.05844,75 Z"
     id="path2"
     inkscape:connector-curvature="0"
     style="stroke-width:1;fill:#310049;fill-opacity:1" />
</svg>
