<?xml version="1.0" encoding="UTF-8" standalone="no"?>
<svg
   xmlns:dc="http://purl.org/dc/elements/1.1/"
   xmlns:cc="http://creativecommons.org/ns#"
   xmlns:rdf="http://www.w3.org/1999/02/22-rdf-syntax-ns#"
   xmlns:svg="http://www.w3.org/2000/svg"
   xmlns="http://www.w3.org/2000/svg"
   xmlns:sodipodi="http://sodipodi.sourceforge.net/DTD/sodipodi-0.dtd"
   xmlns:inkscape="http://www.inkscape.org/namespaces/inkscape"
   viewBox="0 0 100 100"
   version="1.1"
   id="svg4"
   sodipodi:docname="dguided_alignleft.svg"
   width="100"
   height="100"
   inkscape:version="0.92.2 5c3e80d, 2017-08-06">
  <metadata
     id="metadata10">
    <rdf:RDF>
      <cc:Work
         rdf:about="">
        <dc:format>image/svg+xml</dc:format>
        <dc:type
           rdf:resource="http://purl.org/dc/dcmitype/StillImage" />
        <dc:title />
      </cc:Work>
    </rdf:RDF>
  </metadata>
  <defs
     id="defs8" />
  <sodipodi:namedview
     pagecolor="#ffffff"
     bordercolor="#666666"
     borderopacity="1"
     objecttolerance="10"
     gridtolerance="10"
     guidetolerance="10"
     inkscape:pageopacity="0"
     inkscape:pageshadow="2"
     inkscape:window-width="1920"
     inkscape:window-height="1163"
     id="namedview6"
     showgrid="false"
     inkscape:zoom="0.4609375"
     inkscape:cx="-466.98305"
     inkscape:cy="247.32203"
     inkscape:window-x="1920"
     inkscape:window-y="0"
     inkscape:window-maximized="1"
     inkscape:current-layer="svg4" />
  <path
     d="m 61.22807,12.807017 v 7.017544 c 0,1.550351 -1.256667,2.807017 -2.807017,2.807017 H 13.508771 c -1.550351,0 -2.807017,-1.256666 -2.807017,-2.807017 v -7.017544 c 0,-1.550351 1.256666,-2.8070179 2.807017,-2.8070179 h 44.912282 c 1.55035,0 2.807017,1.2566669 2.807017,2.8070179 z M 10.701754,35.263158 v 7.017544 c 0,1.550351 1.256666,2.807018 2.807017,2.807018 h 72.982458 c 1.550351,0 2.807018,-1.256667 2.807018,-2.807018 v -7.017544 c 0,-1.550351 -1.256667,-2.807018 -2.807018,-2.807018 H 13.508771 c -1.550351,0 -2.807017,1.256667 -2.807017,2.807018 z m 2.807017,54.736843 h 72.982458 c 1.550351,0 2.807018,-1.256666 2.807018,-2.807017 V 80.17544 c 0,-1.550351 -1.256667,-2.807018 -2.807018,-2.807018 H 13.508771 c -1.550351,0 -2.807017,1.256667 -2.807017,2.807018 v 7.017544 c 0,1.550351 1.256666,2.807017 2.807017,2.807017 z M 58.421053,54.912281 H 13.508771 c -1.550351,0 -2.807017,1.256667 -2.807017,2.807018 v 7.017544 c 0,1.550351 1.256666,2.807017 2.807017,2.807017 h 44.912282 c 1.55035,0 2.807017,-1.256666 2.807017,-2.807017 v -7.017544 c 0,-1.550351 -1.256667,-2.807018 -2.807017,-2.807018 z"
     id="path2"
     inkscape:connector-curvature="0"
     style="stroke-width:1;fill:#310049;fill-opacity:1" />
</svg>
