<?xml version="1.0" encoding="UTF-8" standalone="no"?>
<svg
   xmlns:dc="http://purl.org/dc/elements/1.1/"
   xmlns:cc="http://creativecommons.org/ns#"
   xmlns:rdf="http://www.w3.org/1999/02/22-rdf-syntax-ns#"
   xmlns:svg="http://www.w3.org/2000/svg"
   xmlns="http://www.w3.org/2000/svg"
   xmlns:sodipodi="http://sodipodi.sourceforge.net/DTD/sodipodi-0.dtd"
   xmlns:inkscape="http://www.inkscape.org/namespaces/inkscape"
   viewBox="0 0 100 100"
   version="1.1"
   id="svg4"
   sodipodi:docname="dguided_listcircle.svg"
   width="100"
   height="100"
   inkscape:version="0.92.2 5c3e80d, 2017-08-06">
  <metadata
     id="metadata10">
    <rdf:RDF>
      <cc:Work
         rdf:about="">
        <dc:format>image/svg+xml</dc:format>
        <dc:type
           rdf:resource="http://purl.org/dc/dcmitype/StillImage" />
        <dc:title></dc:title>
      </cc:Work>
    </rdf:RDF>
  </metadata>
  <defs
     id="defs8" />
  <sodipodi:namedview
     pagecolor="#ffffff"
     bordercolor="#666666"
     borderopacity="1"
     objecttolerance="10"
     gridtolerance="10"
     guidetolerance="10"
     inkscape:pageopacity="0"
     inkscape:pageshadow="2"
     inkscape:window-width="1920"
     inkscape:window-height="1136"
     id="namedview6"
     showgrid="false"
     inkscape:zoom="0.4609375"
     inkscape:cx="32.542373"
     inkscape:cy="256"
     inkscape:window-x="0"
     inkscape:window-y="27"
     inkscape:window-maximized="1"
     inkscape:current-layer="svg4" />
  <path
     d="m 25,25 c 0,4.142187 -3.357812,7.5 -7.5,7.5 -4.142187,0 -7.5,-3.357813 -7.5,-7.5 0,-4.142187 3.357813,-7.5 7.5,-7.5 4.142188,0 7.5,3.357813 7.5,7.5 z m -7.5,17.5 c -4.142187,0 -7.5,3.357813 -7.5,7.5 0,4.142187 3.357813,7.5 7.5,7.5 4.142188,0 7.5,-3.357813 7.5,-7.5 0,-4.142187 -3.357812,-7.5 -7.5,-7.5 z m 0,25 c -4.142187,0 -7.5,3.357813 -7.5,7.5 0,4.142187 3.357813,7.5 7.5,7.5 4.142188,0 7.5,-3.357813 7.5,-7.5 0,-4.142187 -3.357812,-7.5 -7.5,-7.5 z m 15,-36.875 h 55 c 1.380781,0 2.5,-1.119219 2.5,-2.5 v -6.25 c 0,-1.380781 -1.119219,-2.5 -2.5,-2.5 h -55 c -1.380781,0 -2.5,1.119219 -2.5,2.5 v 6.25 c 0,1.380781 1.119219,2.5 2.5,2.5 z m 0,25 h 55 c 1.380781,0 2.5,-1.119219 2.5,-2.5 v -6.25 c 0,-1.380781 -1.119219,-2.5 -2.5,-2.5 h -55 c -1.380781,0 -2.5,1.119219 -2.5,2.5 v 6.25 c 0,1.380781 1.119219,2.5 2.5,2.5 z m 0,25 h 55 c 1.380781,0 2.5,-1.119219 2.5,-2.5 v -6.25 c 0,-1.380781 -1.119219,-2.5 -2.5,-2.5 h -55 c -1.380781,0 -2.5,1.119219 -2.5,2.5 v 6.25 c 0,1.380781 1.119219,2.5 2.5,2.5 z"
     id="path2"
     inkscape:connector-curvature="0"
     style="stroke-width:1;fill:#310049;fill-opacity:1" />
</svg>
