<?xml version="1.0" encoding="UTF-8" standalone="no"?>
<svg
   xmlns:dc="http://purl.org/dc/elements/1.1/"
   xmlns:cc="http://creativecommons.org/ns#"
   xmlns:rdf="http://www.w3.org/1999/02/22-rdf-syntax-ns#"
   xmlns:svg="http://www.w3.org/2000/svg"
   xmlns="http://www.w3.org/2000/svg"
   xmlns:sodipodi="http://sodipodi.sourceforge.net/DTD/sodipodi-0.dtd"
   xmlns:inkscape="http://www.inkscape.org/namespaces/inkscape"
   viewBox="0 0 100 100"
   version="1.1"
   id="svg4"
   sodipodi:docname="dguided_bold.svg"
   width="100"
   height="100"
   inkscape:version="0.92.2 5c3e80d, 2017-08-06">
  <metadata
     id="metadata10">
    <rdf:RDF>
      <cc:Work
         rdf:about="">
        <dc:format>image/svg+xml</dc:format>
        <dc:type
           rdf:resource="http://purl.org/dc/dcmitype/StillImage" />
        <dc:title></dc:title>
      </cc:Work>
    </rdf:RDF>
  </metadata>
  <defs
     id="defs8" />
  <sodipodi:namedview
     pagecolor="#ffffff"
     bordercolor="#666666"
     borderopacity="1"
     objecttolerance="10"
     gridtolerance="10"
     guidetolerance="10"
     inkscape:pageopacity="0"
     inkscape:pageshadow="2"
     inkscape:window-width="1920"
     inkscape:window-height="1136"
     id="namedview6"
     showgrid="false"
     inkscape:zoom="0.4609375"
     inkscape:cx="-31.457627"
     inkscape:cy="256"
     inkscape:window-x="0"
     inkscape:window-y="27"
     inkscape:window-maximized="1"
     inkscape:current-layer="svg4" />
  <path
     d="m 70.141607,47.837678 c 6.006965,-3.310178 9.581608,-9.671428 9.581608,-17.088035 0,-8.613572 -4.6875,-15.6475 -12.254643,-18.603393 C 63.060357,10.358928 58.723036,10 53.15375,10 H 20 c -1.578036,0 -2.857143,1.279107 -2.857143,2.857143 v 5.901607 c 0,1.578035 1.279107,2.857143 2.857143,2.857143 h 5.913036 V 78.49625 H 20 c -1.578036,0 -2.857143,1.279107 -2.857143,2.857143 v 5.789464 C 17.142857,88.720893 18.421964,90 20,90 h 34.944643 c 4.321964,0 8.006072,-0.230178 11.940357,-1.354285 9.100715,-2.718393 15.972143,-11.030179 15.972143,-21.857501 0,-9.315714 -4.745178,-16.372143 -12.715536,-18.950536 z M 41.110179,22.287321 H 53.15375 c 2.909643,0 4.917143,0.360536 6.700893,1.199464 2.826429,1.514108 4.4475,4.7325 4.4475,8.829643 0,6.255179 -3.628571,10.141072 -9.469464,10.141072 h -13.7225 z m 20.114643,54.549108 c -1.810715,0.724285 -4.049465,0.87625 -5.60875,0.87625 H 41.110179 v -23.08 h 15.065535 c 7.079465,0 11.260179,4.532142 11.260179,11.260178 1.79e-4,5.075893 -2.439286,9.371965 -6.211071,10.943572 z"
     id="path2"
     style="fill:#310049;fill-opacity:1;stroke:none;stroke-width:1;stroke-opacity:1"
     inkscape:connector-curvature="0" />
</svg>
