<?xml version="1.0" encoding="UTF-8" standalone="no"?>
<svg
   xmlns:dc="http://purl.org/dc/elements/1.1/"
   xmlns:cc="http://creativecommons.org/ns#"
   xmlns:rdf="http://www.w3.org/1999/02/22-rdf-syntax-ns#"
   xmlns:svg="http://www.w3.org/2000/svg"
   xmlns="http://www.w3.org/2000/svg"
   xmlns:sodipodi="http://sodipodi.sourceforge.net/DTD/sodipodi-0.dtd"
   xmlns:inkscape="http://www.inkscape.org/namespaces/inkscape"
   viewBox="0 0 100 100"
   version="1.1"
   id="svg4"
   sodipodi:docname="dguided_listnumber.svg"
   width="100"
   height="100"
   inkscape:version="0.92.2 5c3e80d, 2017-08-06">
  <metadata
     id="metadata10">
    <rdf:RDF>
      <cc:Work
         rdf:about="">
        <dc:format>image/svg+xml</dc:format>
        <dc:type
           rdf:resource="http://purl.org/dc/dcmitype/StillImage" />
        <dc:title></dc:title>
      </cc:Work>
    </rdf:RDF>
  </metadata>
  <defs
     id="defs8" />
  <sodipodi:namedview
     pagecolor="#ffffff"
     bordercolor="#666666"
     borderopacity="1"
     objecttolerance="10"
     gridtolerance="10"
     guidetolerance="10"
     inkscape:pageopacity="0"
     inkscape:pageshadow="2"
     inkscape:window-width="1920"
     inkscape:window-height="1136"
     id="namedview6"
     showgrid="false"
     inkscape:zoom="0.4609375"
     inkscape:cx="32.542373"
     inkscape:cy="256"
     inkscape:window-x="0"
     inkscape:window-y="27"
     inkscape:window-maximized="1"
     inkscape:current-layer="svg4" />
  <path
     d="m 10.165245,31.722276 c 0,-1.173346 0.614684,-1.815964 1.81612,-1.815964 h 2.374468 V 23.64852 c 0,-0.810216 0.0838,-1.648208 0.0838,-1.648208 h -0.05587 c 0,0 -0.279174,0.418996 -0.446929,0.586595 -0.698481,0.67055 -1.648362,0.698483 -2.458421,-0.167599 l -0.865925,-0.977814 c -0.838306,-0.838149 -0.782126,-1.760097 0.0838,-2.570313 l 3.408462,-3.128818 c 0.698013,-0.642618 1.312698,-0.894015 2.262579,-0.894015 h 1.899605 c 1.201436,0 1.84374,0.614527 1.84374,1.815963 v 13.242158 h 2.430491 c 1.201279,0 1.815963,0.642461 1.815963,1.815964 v 1.39681 c 0,1.173346 -0.614684,1.815963 -1.815963,1.815963 H 11.981365 c -1.201436,0 -1.81612,-0.642617 -1.81612,-1.815963 z m -0.165088,25.903057 c 0,-7.419211 7.996234,-8.848035 7.996234,-10.85388 0,-1.126739 -0.934346,-1.373899 -1.456286,-1.373899 -0.494792,0 -1.016732,0.16493 -1.483748,0.604484 -0.797034,0.769415 -1.648836,1.099119 -2.528257,0.384629 L 11.18182,45.31501 c -0.906883,-0.71449 -1.126738,-1.538673 -0.439867,-2.418094 1.044195,-1.373899 2.995272,-2.940191 6.347555,-2.940191 3.050196,0 6.979501,1.648679 6.979501,6.210086 0,6.017694 -7.336825,7.281744 -7.639067,8.93058 h 6.127856 c 1.181507,0 1.81361,0.631946 1.81361,1.786147 v 1.373899 c 0,1.154044 -0.632103,1.786147 -1.81361,1.786147 H 11.896154 C 10.796878,60.043584 10,59.411481 10,58.257437 v -0.632104 z m 0.540301,23.542086 0.879264,-1.456286 c 0.604641,-1.044194 1.428824,-1.099119 2.445556,-0.494635 0.769415,0.329705 1.511211,0.494635 2.25332,0.494635 1.593598,0 2.253163,-0.549559 2.253163,-1.291512 0,-1.044195 -0.879421,-1.428981 -2.50048,-1.428981 h -0.741953 c -0.934345,0 -1.456286,-0.329704 -1.923615,-1.236587 l -0.164774,-0.302242 c -0.384629,-0.741953 -0.192393,-1.53883 0.439553,-2.335707 l 0.879421,-1.099119 c 1.071657,-1.318975 1.923459,-2.115852 1.923459,-2.115852 v -0.05492 c 0,0 -0.659566,0.16493 -1.97854,0.16493 h -2.033308 c -1.181663,0 -1.786304,-0.632103 -1.786304,-1.786147 v -1.373899 c 0,-1.181663 0.604641,-1.786147 1.786304,-1.786147 h 9.177739 c 1.181506,0 1.786147,0.631946 1.786147,1.786147 v 0.522097 c 0,0.906727 -0.219855,1.53883 -0.797034,2.225701 l -2.747641,3.160046 c 3.077503,0.796877 4.506326,3.214971 4.506326,5.468134 0,3.352439 -2.253163,6.924577 -7.611447,6.924577 -2.610644,-4e-6 -4.424096,-0.741957 -5.633065,-1.483752 -0.906883,-0.659409 -0.9892695,-1.538673 -0.412091,-2.500481 z M 32.250731,30.541083 h 55.23843 C 88.875929,30.541083 90,29.417013 90,28.030246 v -6.277094 c 0,-1.386768 -1.124071,-2.510838 -2.510839,-2.510838 h -55.23843 c -1.386768,0 -2.510838,1.12407 -2.510838,2.510838 v 6.277094 c 0,1.386767 1.12407,2.510837 2.510838,2.510837 z m 0,25.108378 h 55.23843 C 88.875929,55.649461 90,54.52539 90,53.138623 v -6.277094 c 0,-1.386767 -1.124071,-2.510838 -2.510839,-2.510838 h -55.23843 c -1.386768,0 -2.510838,1.124071 -2.510838,2.510838 v 6.277094 c 0,1.386767 1.12407,2.510838 2.510838,2.510838 z m 0,25.108378 h 55.23843 C 88.875929,80.757839 90,79.633768 90,78.247001 v -6.277094 c 0,-1.386768 -1.124071,-2.510838 -2.510839,-2.510838 h -55.23843 c -1.386768,0 -2.510838,1.12407 -2.510838,2.510838 v 6.277094 c 0,1.386767 1.12407,2.510838 2.510838,2.510838 z"
     id="path2"
     inkscape:connector-curvature="0"
     style="stroke-width:1;fill:#310049;fill-opacity:1" />
</svg>
