<?xml version="1.0" encoding="UTF-8" standalone="no"?>
<svg
   xmlns:dc="http://purl.org/dc/elements/1.1/"
   xmlns:cc="http://creativecommons.org/ns#"
   xmlns:rdf="http://www.w3.org/1999/02/22-rdf-syntax-ns#"
   xmlns:svg="http://www.w3.org/2000/svg"
   xmlns="http://www.w3.org/2000/svg"
   xmlns:sodipodi="http://sodipodi.sourceforge.net/DTD/sodipodi-0.dtd"
   xmlns:inkscape="http://www.inkscape.org/namespaces/inkscape"
   viewBox="0 0 100 100"
   version="1.1"
   id="svg4"
   sodipodi:docname="dguided_cut.svg"
   width="100"
   height="100"
   inkscape:version="0.92.2 5c3e80d, 2017-08-06">
  <metadata
     id="metadata10">
    <rdf:RDF>
      <cc:Work
         rdf:about="">
        <dc:format>image/svg+xml</dc:format>
        <dc:type
           rdf:resource="http://purl.org/dc/dcmitype/StillImage" />
        <dc:title></dc:title>
      </cc:Work>
    </rdf:RDF>
  </metadata>
  <defs
     id="defs8" />
  <sodipodi:namedview
     pagecolor="#ffffff"
     bordercolor="#666666"
     borderopacity="1"
     objecttolerance="10"
     gridtolerance="10"
     guidetolerance="10"
     inkscape:pageopacity="0"
     inkscape:pageshadow="2"
     inkscape:window-width="1920"
     inkscape:window-height="1136"
     id="namedview6"
     showgrid="false"
     inkscape:zoom="0.4609375"
     inkscape:cx="0.54237288"
     inkscape:cy="256"
     inkscape:window-x="0"
     inkscape:window-y="27"
     inkscape:window-maximized="1"
     inkscape:current-layer="svg4" />
  <path
     d="M 49.653572,50 79.371429,20.280357 c 0.8375,-0.8375 0.8375,-2.194643 0,-3.030357 -5.857143,-5.857143 -15.355357,-5.857143 -21.2125,0 L 37.532143,37.878571 33.092857,33.439286 C 33.8625,31.489285 34.285715,29.366071 34.285715,27.142857 34.285715,17.675 26.610714,10 17.142857,10 7.6750001,10 0,17.675 0,27.142857 c 0,9.467857 7.6750001,17.142857 17.142857,17.142857 0.810715,0 1.605357,-0.05714 2.385715,-0.166071 L 25.408929,50 19.528572,55.880357 C 18.748214,55.771429 17.951786,55.714286 17.142857,55.714286 7.6750001,55.714286 0,63.389286 0,72.857143 0,82.325 7.6750001,90 17.142857,90 c 9.467857,0 17.142858,-7.675 17.142858,-17.142857 0,-2.223214 -0.423215,-4.346429 -1.192858,-6.296429 L 37.532143,62.121429 58.158929,82.75 c 5.857143,5.857143 15.355357,5.857143 21.2125,0 0.8375,-0.835714 0.8375,-2.192857 0,-3.030357 z M 17.142857,32.857143 c -3.15,0 -5.714285,-2.564286 -5.714285,-5.714286 0,-3.15 2.564285,-5.714286 5.714285,-5.714286 3.15,0 5.714286,2.564286 5.714286,5.714286 0,3.15 -2.564286,5.714286 -5.714286,5.714286 z m 0,45.714286 c -3.15,0 -5.714285,-2.564286 -5.714285,-5.714286 0,-3.15 2.564285,-5.714286 5.714285,-5.714286 3.15,0 5.714286,2.564286 5.714286,5.714286 0,3.15 -2.564286,5.714286 -5.714286,5.714286 z"
     id="path2"
     inkscape:connector-curvature="0"
     style="fill:#310049;fill-opacity:1;stroke-width:1" />
</svg>
