<?xml version="1.0" encoding="UTF-8" standalone="no"?>
<svg
   xmlns:dc="http://purl.org/dc/elements/1.1/"
   xmlns:cc="http://creativecommons.org/ns#"
   xmlns:rdf="http://www.w3.org/1999/02/22-rdf-syntax-ns#"
   xmlns:svg="http://www.w3.org/2000/svg"
   xmlns="http://www.w3.org/2000/svg"
   xmlns:sodipodi="http://sodipodi.sourceforge.net/DTD/sodipodi-0.dtd"
   xmlns:inkscape="http://www.inkscape.org/namespaces/inkscape"
   viewBox="0 0 100 100"
   version="1.1"
   id="svg4"
   sodipodi:docname="dguided_copy.svg"
   width="100"
   height="100"
   inkscape:version="0.92.2 5c3e80d, 2017-08-06">
  <metadata
     id="metadata10">
    <rdf:RDF>
      <cc:Work
         rdf:about="">
        <dc:format>image/svg+xml</dc:format>
        <dc:type
           rdf:resource="http://purl.org/dc/dcmitype/StillImage" />
        <dc:title></dc:title>
      </cc:Work>
    </rdf:RDF>
  </metadata>
  <defs
     id="defs8" />
  <sodipodi:namedview
     pagecolor="#ffffff"
     bordercolor="#666666"
     borderopacity="1"
     objecttolerance="10"
     gridtolerance="10"
     guidetolerance="10"
     inkscape:pageopacity="0"
     inkscape:pageshadow="2"
     inkscape:window-width="1920"
     inkscape:window-height="1136"
     id="namedview6"
     showgrid="false"
     inkscape:zoom="0.4609375"
     inkscape:cx="0.54237288"
     inkscape:cy="256"
     inkscape:window-x="0"
     inkscape:window-y="27"
     inkscape:window-maximized="1"
     inkscape:current-layer="svg4" />
  <path
     d="m 65,80 v 6.25 C 65,88.321094 63.321094,90 61.25,90 H 18.75 C 16.678906,90 15,88.321094 15,86.25 V 28.75 C 15,26.678906 16.678906,25 18.75,25 H 30 V 71.25 C 30,76.074844 33.925156,80 38.75,80 Z M 65,26.25 V 10 H 38.75 C 36.678906,10 35,11.678906 35,13.75 v 57.5 c 0,2.071094 1.678906,3.75 3.75,3.75 h 42.5 C 83.321094,75 85,73.321094 85,71.25 V 30 H 68.75 C 66.6875,30 65,28.3125 65,26.25 Z M 83.901719,21.401719 73.598281,11.098281 A 3.75,3.75 0 0 0 70.946719,10 H 70 v 15 h 15 v -0.946719 a 3.75,3.75 0 0 0 -1.098281,-2.651562 z"
     id="path2"
     inkscape:connector-curvature="0"
     style="fill:#310049;fill-opacity:1;stroke-width:1" />
</svg>
