<?xml version="1.0" encoding="UTF-8" standalone="no"?>
<svg
   xmlns:dc="http://purl.org/dc/elements/1.1/"
   xmlns:cc="http://creativecommons.org/ns#"
   xmlns:rdf="http://www.w3.org/1999/02/22-rdf-syntax-ns#"
   xmlns:svg="http://www.w3.org/2000/svg"
   xmlns="http://www.w3.org/2000/svg"
   xmlns:sodipodi="http://sodipodi.sourceforge.net/DTD/sodipodi-0.dtd"
   xmlns:inkscape="http://www.inkscape.org/namespaces/inkscape"
   version="1.0"
   width="100"
   height="100"
   id="svg2"
   inkscape:version="1.0.1 (3bc2e813f5, 2020-09-07)"
   sodipodi:docname="false.svg">
  <metadata
     id="metadata3050">
    <rdf:RDF>
      <cc:Work
         rdf:about="">
        <dc:format>image/svg+xml</dc:format>
        <dc:type
           rdf:resource="http://purl.org/dc/dcmitype/StillImage" />
        <dc:title />
      </cc:Work>
    </rdf:RDF>
  </metadata>
  <sodipodi:namedview
     pagecolor="#ffffff"
     bordercolor="#666666"
     borderopacity="1"
     objecttolerance="10"
     gridtolerance="10"
     guidetolerance="10"
     inkscape:pageopacity="0"
     inkscape:pageshadow="2"
     inkscape:window-width="3840"
     inkscape:window-height="1531"
     id="namedview3048"
     showgrid="false"
     inkscape:zoom="4.0000001"
     inkscape:cx="-71.582335"
     inkscape:cy="8.97372"
     inkscape:window-x="0"
     inkscape:window-y="32"
     inkscape:window-maximized="1"
     inkscape:current-layer="svg2"
     inkscape:document-rotation="0" />
  <defs
     id="defs4" />
  <g
     id="g10"
     transform="matrix(1.25,0,0,1.25,-12.5,-12.5)"
     style="stroke-width:0.8">
    <rect
       style="opacity:1;fill:#ffffeb;fill-opacity:1;fill-rule:nonzero;stroke:#ffffeb;stroke-width:3.02362;stroke-miterlimit:4;stroke-dasharray:none;stroke-opacity:1"
       id="rect812"
       width="49.75"
       height="46.25"
       x="25.125"
       y="26.875"
       rx="3.2"
       ry="3.2" />
    <path
       inkscape:connector-curvature="0"
       d="m 69.843744,61.770832 q 0,-1.354171 -0.989578,-2.34375 l -9.427084,-9.427084 9.427084,-9.427082 q 0.989578,-0.989579 0.989578,-2.343748 0,-1.406253 -0.989578,-2.395832 l -4.687501,-4.687501 q -0.989579,-0.989578 -2.395832,-0.989578 -1.354171,0 -2.343751,0.989578 L 50,40.572916 40.572918,31.145835 q -0.98958,-0.989578 -2.343751,-0.989578 -1.406253,0 -2.395832,0.989578 l -4.687501,4.687501 q -0.989578,0.989579 -0.989578,2.395832 0,1.354169 0.989578,2.343748 l 9.427084,9.427082 -9.427084,9.427084 q -0.989578,0.989579 -0.989578,2.34375 0,1.406253 0.989578,2.395832 l 4.687501,4.687501 q 0.989579,0.989578 2.395832,0.989578 1.354171,0 2.343751,-0.989578 L 50,59.427082 l 9.427082,9.427083 q 0.98958,0.989578 2.343751,0.989578 1.406253,0 2.395832,-0.989578 l 4.687501,-4.687501 q 0.989578,-0.989579 0.989578,-2.395832 z M 90,49.999998 Q 90,60.885416 84.635407,70.078127 79.270839,79.270839 70.078128,84.635407 60.885417,90 50,90 39.114583,90 29.921872,84.635407 20.729161,79.270839 15.364592,70.078127 10,60.885416 10,49.999998 10,39.114584 15.364592,29.921873 20.729161,20.729161 29.921872,15.364593 39.114583,10 50,10 q 10.885417,0 20.078128,5.364593 9.192711,5.364568 14.557279,14.55728 Q 90,39.114584 90,49.999998 Z"
       id="path14"
       style="fill:#a70006;fill-opacity:1;stroke-width:1.24805" />
  </g>
</svg>
