<?xml version="1.0" encoding="UTF-8" standalone="no"?>
<!-- Created with Inkscape (http://www.inkscape.org/) -->

<svg
   xmlns:dc="http://purl.org/dc/elements/1.1/"
   xmlns:cc="http://creativecommons.org/ns#"
   xmlns:rdf="http://www.w3.org/1999/02/22-rdf-syntax-ns#"
   xmlns:svg="http://www.w3.org/2000/svg"
   xmlns="http://www.w3.org/2000/svg"
   xmlns:sodipodi="http://sodipodi.sourceforge.net/DTD/sodipodi-0.dtd"
   xmlns:inkscape="http://www.inkscape.org/namespaces/inkscape"
   version="1.0"
   width="100"
   height="100"
   id="svg2"
   inkscape:version="0.91 r13725"
   sodipodi:docname="file_new.svg">
  <metadata
     id="metadata24">
    <rdf:RDF>
      <cc:Work
         rdf:about="">
        <dc:format>image/svg+xml</dc:format>
        <dc:type
           rdf:resource="http://purl.org/dc/dcmitype/StillImage" />
      </cc:Work>
    </rdf:RDF>
  </metadata>
  <sodipodi:namedview
     pagecolor="#ffffff"
     bordercolor="#666666"
     borderopacity="1"
     objecttolerance="10"
     gridtolerance="10"
     guidetolerance="10"
     inkscape:pageopacity="0"
     inkscape:pageshadow="2"
     inkscape:window-width="1920"
     inkscape:window-height="1136"
     id="namedview22"
     showgrid="false"
     inkscape:zoom="0.99999999"
     inkscape:cx="-190.82194"
     inkscape:cy="192.18765"
     inkscape:window-x="0"
     inkscape:window-y="27"
     inkscape:window-maximized="1"
     inkscape:current-layer="svg2" />
  <defs
     id="defs4" />
  <g
     id="g2180"
     transform="matrix(1.1075798,0,0,1.1075798,-1.8597601,-0.2059301)" />
  <path
     inkscape:connector-curvature="0"
     d="m 85.15625,24.08482 q 1.40625,1.40625 2.41071,3.81697 1.00447,2.41071 1.00447,4.41964 l 0,57.85714 q 0,2.00893 -1.40625,3.41518 Q 85.75893,95 83.75,95 l -67.5,0 q -2.00893,0 -3.41518,-1.40625 -1.40625,-1.40625 -1.40625,-3.41518 l 0,-80.35714 q 0,-2.00893 1.40625,-3.41518 Q 14.24107,5 16.25,5 l 45,0 q 2.00893,0 4.41964,1.00446 2.41072,1.00447 3.81697,2.41072 z m -22.29911,-12.25446 0,18.88393 18.88393,0 Q 81.23884,29.25781 80.63616,28.65513 L 64.91629,12.93527 q -0.60268,-0.60268 -2.05915,-1.10491 z m 19.28572,76.74107 0,-51.42857 -20.89286,0 q -2.00893,0 -3.41518,-1.40625 -1.40625,-1.40625 -1.40625,-3.41518 l 0,-20.89286 -38.57143,0 0,77.14286 64.28572,0 z"
     id="path4422"
     style="fill:#310049;fill-opacity:1" />
</svg>
