<?xml version="1.0" encoding="UTF-8" standalone="no"?>
<!-- Created with Inkscape (http://www.inkscape.org/) -->

<svg
   xmlns:dc="http://purl.org/dc/elements/1.1/"
   xmlns:cc="http://creativecommons.org/ns#"
   xmlns:rdf="http://www.w3.org/1999/02/22-rdf-syntax-ns#"
   xmlns:svg="http://www.w3.org/2000/svg"
   xmlns="http://www.w3.org/2000/svg"
   xmlns:sodipodi="http://sodipodi.sourceforge.net/DTD/sodipodi-0.dtd"
   xmlns:inkscape="http://www.inkscape.org/namespaces/inkscape"
   version="1.0"
   width="100"
   height="100"
   id="svg2"
   inkscape:version="0.91 r13725"
   sodipodi:docname="file_open.svg">
  <metadata
     id="metadata3050">
    <rdf:RDF>
      <cc:Work
         rdf:about="">
        <dc:format>image/svg+xml</dc:format>
        <dc:type
           rdf:resource="http://purl.org/dc/dcmitype/StillImage" />
      </cc:Work>
    </rdf:RDF>
  </metadata>
  <sodipodi:namedview
     pagecolor="#ffffff"
     bordercolor="#666666"
     borderopacity="1"
     objecttolerance="10"
     gridtolerance="10"
     guidetolerance="10"
     inkscape:pageopacity="0"
     inkscape:pageshadow="2"
     inkscape:window-width="1920"
     inkscape:window-height="1136"
     id="namedview3048"
     showgrid="false"
     inkscape:zoom="2.0000001"
     inkscape:cx="-11.968536"
     inkscape:cy="74.203409"
     inkscape:window-x="0"
     inkscape:window-y="27"
     inkscape:window-maximized="1"
     inkscape:current-layer="svg2" />
  <defs
     id="defs4" />
  <path
     inkscape:connector-curvature="0"
     d="m 88.96543,54.66736 q 0,-1.65008 -2.49869,-1.65008 l -51.29387,0 q -1.88581,0 -4.03091,1.01362 -2.1451,1.01362 -3.37088,2.47512 L 13.91042,73.61969 q -0.84861,1.13149 -0.84861,1.88581 0,1.65008 2.49869,1.65008 l 51.29387,0 q 1.88581,0 4.05448,-1.0372 2.16868,-1.03719 3.34731,-2.49869 L 88.11682,56.50602 q 0.84861,-1.03719 0.84861,-1.83866 z m -53.79256,-7.68465 36.20743,0 0,-7.54322 q 0,-1.8858 -1.32006,-3.20586 -1.32006,-1.32006 -3.20587,-1.32006 l -27.15557,0 q -1.88581,0 -3.20587,-1.32007 -1.32006,-1.32006 -1.32006,-3.20586 l 0,-3.01729 q 0,-1.88581 -1.32007,-3.20587 -1.32006,-1.32006 -3.20586,-1.32006 l -15.08644,0 q -1.8858,0 -3.20586,1.32006 -1.32007,1.32006 -1.32007,3.20587 l 0,40.21477 12.06915,-14.85071 q 2.07438,-2.49869 5.46883,-4.12519 3.39445,-1.62651 6.60032,-1.62651 z M 95,54.66736 q 0,2.923 -2.16867,5.65742 L 78.92352,77.43845 q -2.02724,2.49869 -5.46883,4.12519 -3.44159,1.62651 -6.60032,1.62651 l -51.29387,0 q -4.33735,0 -7.44892,-3.11158 Q 5,76.967 5,72.62965 L 5,27.37035 Q 5,23.033 8.11158,19.92142 11.22315,16.80985 15.5605,16.80985 l 15.08644,0 q 4.33735,0 7.44892,3.11157 3.11158,3.11158 3.11158,7.44893 l 0,1.50864 25.64693,0 q 4.33735,0 7.44893,3.11158 3.11158,3.11158 3.11158,7.44892 l 0,7.54322 9.05186,0 q 2.54583,0 4.66736,1.15506 2.12153,1.15505 3.15872,3.32373 Q 95,52.97014 95,54.66736 Z"
     id="path4195"
     style="fill:#310049;fill-opacity:1" />
</svg>
