<?xml version="1.0" encoding="UTF-8" standalone="no"?>
<svg
   xmlns:dc="http://purl.org/dc/elements/1.1/"
   xmlns:cc="http://creativecommons.org/ns#"
   xmlns:rdf="http://www.w3.org/1999/02/22-rdf-syntax-ns#"
   xmlns:svg="http://www.w3.org/2000/svg"
   xmlns="http://www.w3.org/2000/svg"
   xmlns:sodipodi="http://sodipodi.sourceforge.net/DTD/sodipodi-0.dtd"
   xmlns:inkscape="http://www.inkscape.org/namespaces/inkscape"
   version="1.0"
   width="100"
   height="100"
   id="svg2"
   inkscape:version="1.0.1 (3bc2e813f5, 2020-09-07)"
   sodipodi:docname="font.svg">
  <metadata
     id="metadata3050">
    <rdf:RDF>
      <cc:Work
         rdf:about="">
        <dc:format>image/svg+xml</dc:format>
        <dc:type
           rdf:resource="http://purl.org/dc/dcmitype/StillImage" />
        <dc:title />
      </cc:Work>
    </rdf:RDF>
  </metadata>
  <sodipodi:namedview
     pagecolor="#ffffff"
     bordercolor="#666666"
     borderopacity="1"
     objecttolerance="10"
     gridtolerance="10"
     guidetolerance="10"
     inkscape:pageopacity="0"
     inkscape:pageshadow="2"
     inkscape:window-width="3840"
     inkscape:window-height="1531"
     id="namedview3048"
     showgrid="false"
     inkscape:zoom="5.6568544"
     inkscape:cx="-13.004991"
     inkscape:cy="43.053681"
     inkscape:window-x="0"
     inkscape:window-y="32"
     inkscape:window-maximized="1"
     inkscape:current-layer="svg2"
     inkscape:document-rotation="0" />
  <defs
     id="defs4" />
  <g
     aria-label="Aa"
     style="font-style:normal;font-variant:normal;font-weight:normal;font-stretch:normal;font-size:24px;line-height:125%;font-family:Quattrocento;-inkscape-font-specification:Quattrocento;text-align:center;letter-spacing:0px;word-spacing:0px;text-anchor:middle;fill:#310049;fill-opacity:1;stroke:#310049;stroke-width:0.282134px;stroke-linecap:butt;stroke-linejoin:miter;stroke-opacity:1"
     id="text818"
     transform="matrix(3.511196,0,0,3.5779546,40.307313,-134.24091)">
    <path
       d="m -1.9525196,43.381362 3.936,10.896 q 0.24,0.72 0.408,1.2 0.192,0.48 0.312,0.816 0.144,0.336 0.24,0.576 0.096,0.216 0.168,0.384 0.264,0.6 0.528,0.936 0.288,0.312 0.576,0.48 0.288,0.144 0.576,0.168 0.312,0.024 0.624,0.024 l 0.12,0.096 0.072,0.432 -0.048,0.096 q -0.168,0 -0.504,-0.024 -0.336,-0.024 -0.696,-0.048 -0.36,-0.024 -0.696,-0.048 -0.312,-0.024 -0.48,-0.024 h -0.792 q -0.168,0 -0.552,0.024 -0.384,0.024 -0.816,0.048 -0.40800003,0.024 -0.79200003,0.048 -0.384,0.024 -0.552,0.024 l -0.048,-0.096 0.072,-0.432 0.096,-0.096 q 0.696,0 1.08,-0.144 0.38400003,-0.168 0.38400003,-0.864 0,-0.552 -0.38400003,-1.536 -0.36,-1.008 -0.912,-2.52 l -0.408,-1.152 H -5.8165196 l -0.408,1.152 q -0.552,1.512 -0.936,2.52 -0.36,0.984 -0.36,1.536 0,0.696 0.384,0.864 0.384,0.144 1.08,0.144 l 0.12,0.096 0.072,0.432 -0.048,0.096 q -0.168,0 -0.528,-0.024 -0.36,-0.024 -0.768,-0.048 -0.384,-0.024 -0.744,-0.048 -0.36,-0.024 -0.528,-0.024 h -0.456 q -0.168,0 -0.504,0.024 -0.336,0.024 -0.6960004,0.048 -0.36,0.024 -0.696,0.048 -0.312,0.024 -0.48,0.024 l -0.024,-0.096 0.048,-0.432 0.12,-0.096 q 0.312,0 0.6,-0.024 0.288,-0.024 0.5760004,-0.168 0.288,-0.168 0.552,-0.48 0.288,-0.336 0.576,-0.936 0.072,-0.12 0.12,-0.264 0.072,-0.168 0.192,-0.48 0.144,-0.312 0.336,-0.816 0.216,-0.528 0.528,-1.344 0.336,-0.84 0.792,-2.04 0.48,-1.2 1.152,-2.904 0.312,-0.84 0.648,-1.656 0.336,-0.84 0.624,-1.56 0.288,-0.72 0.504,-1.272 0.24,-0.552 0.336,-0.816 l 1.416,-0.72 z m -3.456,8.232 h 4.58399997 l -2.27999997,-6.168 z"
       style="stroke:#310049;stroke-width:0.282134px;stroke-opacity:1"
       id="path820"
       inkscape:connector-curvature="0" />
    <path
       d="m 13.11423,59.173362 q 0.072,-0.264 0.096,-0.792 0.048,-0.528 0.12,-0.984 l -0.024,-0.072 q -0.312,0.432 -0.744,0.84 -0.432,0.408 -0.96,0.744 -0.504,0.312 -1.104,0.504 -0.5759996,0.192 -1.2239996,0.192 -0.744,0 -1.32,-0.264 -0.576,-0.264 -0.96,-0.696 -0.384,-0.432 -0.576,-1.008 -0.192,-0.576 -0.192,-1.2 0,-0.888 0.408,-1.536 0.408,-0.672 1.08,-1.104 0.624,-0.384 1.464,-0.624 0.8639996,-0.24 1.6559996,-0.336 0.816,-0.12 1.464,-0.144 0.648,-0.048 0.864,-0.048 h 0.336 q -0.024,-0.888 -0.096,-1.392 -0.072,-0.528 -0.192,-0.864 -0.264,-0.72 -0.912,-1.032 -0.648,-0.336 -1.56,-0.336 -0.384,0 -0.8399996,0.072 -0.432,0.072 -0.84,0.264 -0.384,0.192 -0.672,0.552 -0.288,0.336 -0.336,0.888 l -0.096,0.072 h -0.528 l -0.216,-1.776 0.072,-0.144 q 0.12,-0.144 0.504,-0.312 0.384,-0.168 0.888,-0.312 0.528,-0.168 1.152,-0.264 0.6479996,-0.12 1.2719996,-0.12 0.864,0 1.608,0.24 0.744,0.216 1.272,0.672 0.552,0.456 0.864,1.152 0.312,0.672 0.312,1.584 0,1.008 -0.024,1.8 0,0.768 -0.024,1.44 -0.024,0.648 -0.048,1.296 0,0.624 0,1.344 0.048,0.552 0.12,0.816 0.072,0.24 0.24,0.36 0.192,0.192 0.552,0.24 0.384,0.024 0.768,0.024 l 0.096,0.096 0.024,0.336 -0.024,0.096 q -0.432,-0.048 -0.936,-0.072 -0.504,-0.024 -0.984,-0.024 -0.912,0 -1.656,0.072 z m 0,-2.592 q 0.072,-0.12 0.144,-0.288 0.096,-0.168 0.12,-0.408 l 0.12,-2.4 h -0.216 q -0.96,0 -1.92,0.12 -0.96,0.096 -1.7279996,0.408 -0.744,0.312 -1.224,0.864 -0.48,0.552 -0.48,1.416 0,0.912 0.528,1.464 0.528,0.528 1.368,0.528 0.5039996,0 1.0079996,-0.168 0.504,-0.168 0.936,-0.432 0.456,-0.264 0.792,-0.552 0.36,-0.288 0.552,-0.552 z"
       style="stroke:#310049;stroke-width:0.282134px;stroke-opacity:1"
       id="path822"
       inkscape:connector-curvature="0" />
  </g>
</svg>
