<?xml version="1.0" encoding="UTF-8" standalone="no"?>
<svg
   xmlns:dc="http://purl.org/dc/elements/1.1/"
   xmlns:cc="http://creativecommons.org/ns#"
   xmlns:rdf="http://www.w3.org/1999/02/22-rdf-syntax-ns#"
   xmlns:svg="http://www.w3.org/2000/svg"
   xmlns="http://www.w3.org/2000/svg"
   xmlns:sodipodi="http://sodipodi.sourceforge.net/DTD/sodipodi-0.dtd"
   xmlns:inkscape="http://www.inkscape.org/namespaces/inkscape"
   width="100"
   height="100"
   viewBox="0 0 100 100"
   version="1.1"
   id="svg4"
   sodipodi:docname="frequency.svg"
   inkscape:version="1.0.1 (3bc2e813f5, 2020-09-07)">
  <metadata
     id="metadata10">
    <rdf:RDF>
      <cc:Work
         rdf:about="">
        <dc:format>image/svg+xml</dc:format>
        <dc:type
           rdf:resource="http://purl.org/dc/dcmitype/StillImage" />
        <dc:title />
      </cc:Work>
    </rdf:RDF>
  </metadata>
  <defs
     id="defs8" />
  <sodipodi:namedview
     pagecolor="#ffffff"
     bordercolor="#666666"
     borderopacity="1"
     objecttolerance="10"
     gridtolerance="10"
     guidetolerance="10"
     inkscape:pageopacity="0"
     inkscape:pageshadow="2"
     inkscape:window-width="3840"
     inkscape:window-height="1531"
     id="namedview6"
     showgrid="false"
     inkscape:zoom="2.9799501"
     inkscape:cx="-98.100455"
     inkscape:cy="42.657684"
     inkscape:window-x="0"
     inkscape:window-y="32"
     inkscape:window-maximized="1"
     inkscape:current-layer="svg4"
     inkscape:document-rotation="0" />
  <path
     d="M 100,50.000002 H 86.892021 L 76.272113,28.855814 C 75.76185,27.771538 74.948615,26.91051 73.832411,26.272719 72.716206,25.634785 71.552159,25.379612 70.34027,25.507198 c -2.870245,0.318895 -4.656175,1.78593 -5.357787,4.4011 L 52.640433,71.048393 33.888179,5.4154965 c -0.382704,-1.275583 -1.13216,-2.327997 -2.248365,-3.157238 -1.1162,-0.829101 -2.375912,-1.24365 -3.779138,-1.24365 -1.403226,0 -2.646999,0.430481 -3.731314,1.291441 -1.084315,0.861104 -1.785928,1.96138 -2.104837,3.300827 L 10.926264,50.000002 H 0 v 12.246401 h 15.709996 c 1.403228,0 2.662929,-0.430549 3.779138,-1.291654 1.116203,-0.861105 1.83377,-1.96138 2.152693,-3.300825 l 6.697237,-26.884521 18.17819,63.815109 c 0.382703,1.27558 1.116206,2.32799 2.200507,3.15723 1.084316,0.829099 2.328095,1.24365 3.731335,1.24365 1.339448,0 2.551329,-0.414551 3.635644,-1.24365 1.084304,-0.82924 1.817806,-1.88165 2.200508,-3.15723 l 13.968523,-46.402298 5.357788,10.71557 c 1.148095,2.232413 2.965914,3.348619 5.453455,3.348619 H 100 Z"
     id="path2-3"
     inkscape:connector-curvature="0"
     style="fill:#310049;fill-opacity:1;stroke-width:1"
     sodipodi:nodetypes="cccccccccscccccscccccsccccscc" />
</svg>
