<?xml version="1.0" encoding="UTF-8" standalone="no"?>
<!-- Created with Inkscape (http://www.inkscape.org/) -->

<svg
   xmlns:dc="http://purl.org/dc/elements/1.1/"
   xmlns:cc="http://creativecommons.org/ns#"
   xmlns:rdf="http://www.w3.org/1999/02/22-rdf-syntax-ns#"
   xmlns:svg="http://www.w3.org/2000/svg"
   xmlns="http://www.w3.org/2000/svg"
   xmlns:sodipodi="http://sodipodi.sourceforge.net/DTD/sodipodi-0.dtd"
   xmlns:inkscape="http://www.inkscape.org/namespaces/inkscape"
   version="1.0"
   width="100"
   height="100"
   id="svg2"
   inkscape:version="0.91 r13725"
   sodipodi:docname="general_plus.svg">
  <metadata
     id="metadata3050">
    <rdf:RDF>
      <cc:Work
         rdf:about="">
        <dc:format>image/svg+xml</dc:format>
        <dc:type
           rdf:resource="http://purl.org/dc/dcmitype/StillImage" />
      </cc:Work>
    </rdf:RDF>
  </metadata>
  <sodipodi:namedview
     pagecolor="#ffffff"
     bordercolor="#666666"
     borderopacity="1"
     objecttolerance="10"
     gridtolerance="10"
     guidetolerance="10"
     inkscape:pageopacity="0"
     inkscape:pageshadow="2"
     inkscape:window-width="1920"
     inkscape:window-height="1136"
     id="namedview3048"
     showgrid="false"
     inkscape:zoom="1.4142136"
     inkscape:cx="183.54671"
     inkscape:cy="-87.158074"
     inkscape:window-x="0"
     inkscape:window-y="27"
     inkscape:window-maximized="1"
     inkscape:current-layer="svg2" />
  <defs
     id="defs4" />
  <path
     d="m 78.636368,47.95455 0,4.0909 q 0,0.89489 -0.57529,1.47017 -0.57528,0.57529 -1.47017,0.57529 l -22.5,0 0,22.5 q 0,0.89489 -0.57528,1.47017 -0.57528,0.57528 -1.47017,0.57528 l -4.09091,0 q -0.89489,0 -1.47017,-0.57528 -0.57529,-0.57528 -0.57529,-1.47017 l 0,-22.5 -22.499994,0 q -0.894887,0 -1.470173,-0.57529 -0.575284,-0.57528 -0.575284,-1.47017 l 0,-4.0909 q 0,-0.89489 0.575284,-1.47018 0.575286,-0.57528 1.470173,-0.57528 l 22.499994,0 0,-22.5 q 0,-0.89488 0.57529,-1.47017 0.57528,-0.57528 1.47017,-0.57528 l 4.09091,0 q 0.89489,0 1.47017,0.57528 0.57528,0.57529 0.57528,1.47017 l 0,22.5 22.5,0 q 0.89489,0 1.47017,0.57528 0.57529,0.57529 0.57529,1.47018 z m 8.18182,28.63636 0,-53.18182 q 0,-4.21875 -3.00426,-7.22301 -3.00427,-3.00426 -7.22302,-3.00426 l -53.181814,0 q -4.218751,0 -7.223012,3.00426 -3.004262,3.00426 -3.004262,7.22301 l 0,53.18182 q 0,4.21875 3.004262,7.22301 3.004261,3.00426 7.223012,3.00426 l 53.181814,0 q 4.21875,0 7.22302,-3.00426 3.00426,-3.00426 3.00426,-7.22301 z m 8.18181,-53.18182 0,53.18182 q 0,7.60654 -5.40127,13.00781 Q 84.197448,95 76.590908,95 L 23.409094,95 Q 15.802558,95 10.401279,89.59872 5.000002,84.19745 5.000002,76.59091 l 0,-53.18182 q 0,-7.60653 5.401277,-13.00781 Q 15.802558,5 23.409094,5 l 53.181814,0 q 7.60654,0 13.00782,5.40128 5.40127,5.40128 5.40127,13.00781 z"
     id="path4735"
     inkscape:connector-curvature="0"
     style="fill:#310049;fill-opacity:1" />
</svg>
