<?xml version="1.0" encoding="UTF-8" standalone="no"?>
<!-- Created with Inkscape (http://www.inkscape.org/) -->

<svg
   xmlns:dc="http://purl.org/dc/elements/1.1/"
   xmlns:cc="http://creativecommons.org/ns#"
   xmlns:rdf="http://www.w3.org/1999/02/22-rdf-syntax-ns#"
   xmlns:svg="http://www.w3.org/2000/svg"
   xmlns="http://www.w3.org/2000/svg"
   xmlns:sodipodi="http://sodipodi.sourceforge.net/DTD/sodipodi-0.dtd"
   xmlns:inkscape="http://www.inkscape.org/namespaces/inkscape"
   version="1.0"
   width="100"
   height="100"
   id="svg2"
   inkscape:version="0.92.2 5c3e80d, 2017-08-06"
   sodipodi:docname="general_cross.svg">
  <metadata
     id="metadata3050">
    <rdf:RDF>
      <cc:Work
         rdf:about="">
        <dc:format>image/svg+xml</dc:format>
        <dc:type
           rdf:resource="http://purl.org/dc/dcmitype/StillImage" />
      </cc:Work>
    </rdf:RDF>
  </metadata>
  <sodipodi:namedview
     pagecolor="#ffffff"
     bordercolor="#666666"
     borderopacity="1"
     objecttolerance="10"
     gridtolerance="10"
     guidetolerance="10"
     inkscape:pageopacity="0"
     inkscape:pageshadow="2"
     inkscape:window-width="3840"
     inkscape:window-height="1536"
     id="namedview3048"
     showgrid="false"
     inkscape:zoom="4.0000001"
     inkscape:cx="5.3725312"
     inkscape:cy="-13.918064"
     inkscape:window-x="0"
     inkscape:window-y="27"
     inkscape:window-maximized="1"
     inkscape:current-layer="svg2" />
  <defs
     id="defs4" />
  <path
     style="opacity:1;fill:#310049;fill-opacity:1;stroke:none;stroke-width:1.00157475;stroke-miterlimit:4;stroke-dasharray:none;stroke-dashoffset:0;stroke-opacity:1"
     d="m 21.00781,14.943358 c -1.27809,0 -2.55581,0.489407 -3.53515,1.468749 l -1.06055,1.060547 c -1.95869,1.958686 -1.95869,5.11358 0,7.072266 L 41.86719,49.999999 16.41211,75.455077 c -1.95869,1.95869 -1.95869,5.113586 0,7.072266 l 1.06055,1.060547 c 1.95868,1.95869 5.11357,1.95869 7.07226,0 L 50,58.13281 75.45508,83.58789 c 1.95868,1.95869 5.11358,1.95869 7.07226,0 l 1.06055,-1.060547 c 1.95869,-1.958691 1.95869,-5.113576 0,-7.072266 L 58.13281,49.999999 83.58789,24.54492 c 1.95869,-1.958686 1.95869,-5.11358 0,-7.072266 l -1.06055,-1.060547 c -1.95868,-1.958685 -5.11358,-1.958685 -7.07226,0 L 50,41.867187 24.54492,16.412107 c -0.97934,-0.979342 -2.25901,-1.468749 -3.53711,-1.468749 z"
     id="rect812"
     inkscape:connector-curvature="0" />
</svg>
