<?xml version="1.0" encoding="UTF-8" standalone="no"?>
<svg
   xmlns:dc="http://purl.org/dc/elements/1.1/"
   xmlns:cc="http://creativecommons.org/ns#"
   xmlns:rdf="http://www.w3.org/1999/02/22-rdf-syntax-ns#"
   xmlns:svg="http://www.w3.org/2000/svg"
   xmlns="http://www.w3.org/2000/svg"
   xmlns:sodipodi="http://sodipodi.sourceforge.net/DTD/sodipodi-0.dtd"
   xmlns:inkscape="http://www.inkscape.org/namespaces/inkscape"
   version="1.0"
   width="100"
   height="100"
   id="svg2"
   inkscape:version="1.0.1 (3bc2e813f5, 2020-09-07)"
   sodipodi:docname="general_generator.svg">
  <metadata
     id="metadata24">
    <rdf:RDF>
      <cc:Work
         rdf:about="">
        <dc:format>image/svg+xml</dc:format>
        <dc:type
           rdf:resource="http://purl.org/dc/dcmitype/StillImage" />
        <dc:title />
      </cc:Work>
    </rdf:RDF>
  </metadata>
  <sodipodi:namedview
     pagecolor="#ffffff"
     bordercolor="#666666"
     borderopacity="1"
     objecttolerance="10"
     gridtolerance="10"
     guidetolerance="10"
     inkscape:pageopacity="0"
     inkscape:pageshadow="2"
     inkscape:window-width="1920"
     inkscape:window-height="1131"
     id="namedview22"
     showgrid="false"
     inkscape:zoom="2.8284271"
     inkscape:cx="-68.142598"
     inkscape:cy="93.535411"
     inkscape:window-x="0"
     inkscape:window-y="0"
     inkscape:window-maximized="1"
     inkscape:current-layer="svg2"
     inkscape:document-rotation="0" />
  <defs
     id="defs4" />
  <g
     id="g2180"
     transform="matrix(1.1075798,0,0,1.1075798,-1.8597601,-0.2059301)" />
  <g
     id="g1594"
     transform="translate(-3.5843921,-0.242755)">
    <g
       id="g1589"
       transform="matrix(1.25,0,0,1.25,-8.9156073,-12.257245)">
      <path
         style="opacity:1;fill:#ffffeb;fill-opacity:1;fill-rule:nonzero;stroke:none;stroke-width:1.00157;stroke-miterlimit:4;stroke-dasharray:none;stroke-opacity:1"
         d="m 23.262883,13.556195 h 39.484471 l 16.625383,15.524716 0.707107,54.020166 c 0,2.310734 -1.860266,4.171 -4.171,4.171 H 23.262883 c -2.310734,0 -4.171,-1.860266 -4.171,-4.171 V 17.727195 c 0,-2.310734 1.860266,-4.171 4.171,-4.171 z"
         id="rect1369"
         inkscape:connector-curvature="0"
         sodipodi:nodetypes="ccccssssc" />
      <path
         inkscape:connector-curvature="0"
         d="m 81.25,26.964284 q 1.25,1.25 2.142853,3.392863 0.892862,2.142853 0.892862,3.928569 v 51.428568 q 0,1.785716 -1.25,3.035716 Q 81.785715,90 80,90 H 20 q -1.785716,0 -3.035716,-1.25 -1.25,-1.25 -1.25,-3.035716 V 14.285716 q 0,-1.785716 1.25,-3.035716 Q 18.214284,10 20,10 h 40 q 1.785716,0 3.928568,0.892853 2.142863,0.892863 3.392863,2.142863 z M 61.428568,16.071431 V 32.857147 H 78.214284 Q 77.767857,31.562498 77.232142,31.026782 L 63.258924,17.053573 Q 62.723208,16.517858 61.428568,16.071431 Z M 78.571432,84.285716 V 38.571431 H 60 q -1.785716,0 -3.035716,-1.25 -1.25,-1.25 -1.25,-3.035715 V 15.714284 H 21.428568 v 68.571432 z"
         id="path4422"
         style="fill:#310049;fill-opacity:1;fill-rule:nonzero;stroke-width:0.888889" />
    </g>
  </g>
  <g
     id="g1732"
     transform="matrix(0.75958356,0,0,0.75958356,-2.2711482,12.020822)"
     style="fill:#310049;fill-opacity:1;stroke:#000000;stroke-opacity:1">
    <rect
       style="opacity:1;fill:#310049;fill-opacity:1;stroke:none;stroke-width:1.00157;stroke-miterlimit:4;stroke-dasharray:none;stroke-dashoffset:0;stroke-opacity:1"
       id="rect818"
       width="10.518213"
       height="100"
       x="44.740894"
       y="0"
       rx="5"
       ry="5" />
    <circle
       style="opacity:1;fill:#310049;fill-opacity:1;stroke:#ffffeb;stroke-width:8.5226;stroke-miterlimit:4;stroke-dasharray:none;stroke-dashoffset:0;stroke-opacity:1"
       id="path812"
       cx="50"
       cy="50"
       r="20.903845" />
  </g>
</svg>
