<?xml version="1.0" encoding="UTF-8" standalone="no"?>
<!-- Created with Inkscape (http://www.inkscape.org/) -->

<svg
   xmlns:dc="http://purl.org/dc/elements/1.1/"
   xmlns:cc="http://creativecommons.org/ns#"
   xmlns:rdf="http://www.w3.org/1999/02/22-rdf-syntax-ns#"
   xmlns:svg="http://www.w3.org/2000/svg"
   xmlns="http://www.w3.org/2000/svg"
   xmlns:sodipodi="http://sodipodi.sourceforge.net/DTD/sodipodi-0.dtd"
   xmlns:inkscape="http://www.inkscape.org/namespaces/inkscape"
   version="1.0"
   width="100"
   height="100"
   id="svg2"
   inkscape:version="0.92.2 5c3e80d, 2017-08-06"
   sodipodi:docname="general_cross.svg">
  <metadata
     id="metadata3050">
    <rdf:RDF>
      <cc:Work
         rdf:about="">
        <dc:format>image/svg+xml</dc:format>
        <dc:type
           rdf:resource="http://purl.org/dc/dcmitype/StillImage" />
      </cc:Work>
    </rdf:RDF>
  </metadata>
  <sodipodi:namedview
     pagecolor="#ffffff"
     bordercolor="#666666"
     borderopacity="1"
     objecttolerance="10"
     gridtolerance="10"
     guidetolerance="10"
     inkscape:pageopacity="0"
     inkscape:pageshadow="2"
     inkscape:window-width="1920"
     inkscape:window-height="1163"
     id="namedview3048"
     showgrid="false"
     inkscape:zoom="1.4142136"
     inkscape:cx="37.17561"
     inkscape:cy="-88.572288"
     inkscape:window-x="1920"
     inkscape:window-y="0"
     inkscape:window-maximized="1"
     inkscape:current-layer="svg2" />
  <defs
     id="defs4" />
  <path
     inkscape:connector-curvature="0"
     d="m 90,74.377103 q 0,2.693609 -1.88552,4.579128 L 78.956231,88.11448 Q 77.070711,90 74.377102,90 q -2.6936,0 -4.57912,-1.88552 L 50,68.316497 30.202018,88.11448 Q 28.316498,90 25.622898,90 22.929289,90 21.043769,88.11448 L 11.88552,78.956231 Q 10,77.070712 10,74.377103 q 0,-2.6936 1.88552,-4.57912 L 31.683502,50 11.88552,30.202018 Q 10,28.316498 10,25.622897 q 0,-2.693608 1.88552,-4.579128 l 9.158249,-9.158249 q 1.88552,-1.8855205 4.579129,-1.8855205 2.6936,0 4.57912,1.8855205 L 50,31.683503 69.797982,11.88552 q 1.88552,-1.8855205 4.57912,-1.8855205 2.693609,0 4.579129,1.8855205 l 9.158249,9.158248 Q 90,22.929289 90,25.622897 q 0,2.6936 -1.88552,4.57912 L 68.316498,50 88.11448,69.797983 Q 90,71.683503 90,74.377103 Z"
     id="path4184"
     style="fill:#310049;fill-opacity:1;stroke-width:1" />
</svg>
