<?xml version="1.0" encoding="UTF-8" standalone="no"?>
<!-- Created with Inkscape (http://www.inkscape.org/) -->

<svg
   xmlns:dc="http://purl.org/dc/elements/1.1/"
   xmlns:cc="http://creativecommons.org/ns#"
   xmlns:rdf="http://www.w3.org/1999/02/22-rdf-syntax-ns#"
   xmlns:svg="http://www.w3.org/2000/svg"
   xmlns="http://www.w3.org/2000/svg"
   xmlns:sodipodi="http://sodipodi.sourceforge.net/DTD/sodipodi-0.dtd"
   xmlns:inkscape="http://www.inkscape.org/namespaces/inkscape"
   version="1.0"
   width="100"
   height="100"
   id="svg2"
   inkscape:version="0.91 r13725"
   sodipodi:docname="general_righton.svg">
  <metadata
     id="metadata3050">
    <rdf:RDF>
      <cc:Work
         rdf:about="">
        <dc:format>image/svg+xml</dc:format>
        <dc:type
           rdf:resource="http://purl.org/dc/dcmitype/StillImage" />
        <dc:title />
      </cc:Work>
    </rdf:RDF>
  </metadata>
  <sodipodi:namedview
     pagecolor="#ffffff"
     bordercolor="#666666"
     borderopacity="1"
     objecttolerance="10"
     gridtolerance="10"
     guidetolerance="10"
     inkscape:pageopacity="0"
     inkscape:pageshadow="2"
     inkscape:window-width="1920"
     inkscape:window-height="1136"
     id="namedview3048"
     showgrid="false"
     inkscape:zoom="5.6568544"
     inkscape:cx="30.328759"
     inkscape:cy="38.925163"
     inkscape:window-x="0"
     inkscape:window-y="27"
     inkscape:window-maximized="1"
     inkscape:current-layer="svg2" />
  <defs
     id="defs4" />
  <path
     d="m 91.110913,8.75 0,82.5 q 0,1.52344 -1.11328,2.63672 Q 88.884353,95 87.360913,95 l -30,0 q -1.52344,0 -2.63672,-1.11328 -1.11328,-1.11328 -1.11328,-2.63672 l 0,-82.5 q 0,-1.52344 1.11328,-2.63672 Q 55.837473,5 57.360913,5 l 30,0 q 1.52344,0 2.63672,1.11328 1.11328,1.11328 1.11328,2.63672 z"
     id="path4759"
     inkscape:connector-curvature="0"
     style="fill:#310049;fill-opacity:1" />
  <path
     inkscape:connector-curvature="0"
     d="M 12.639087,5 C 11.62346,5 10.744555,5.371095 10.002368,6.113282 9.260182,6.855468 8.889087,7.734374 8.889087,8.75 l 0,82.5 c 0,1.015627 0.371095,1.894532 1.113281,2.636719 C 10.744555,94.628905 11.62346,95 12.639087,95 l 30,0 c 1.015627,0 1.894532,-0.371095 2.636719,-1.113281 0.742187,-0.742187 1.113281,-1.621092 1.113281,-2.636719 l 0,-82.5 c 0,-1.015626 -0.371094,-1.894532 -1.113281,-2.636718 C 44.533619,5.371095 43.654714,5 42.639087,5 l -30,0 z m 2.96875,4.507813 24.060547,0 c 0.814544,0 1.519993,0.334114 2.115234,1.001953 0.595242,0.667839 0.892578,1.459159 0.892579,2.373046 l 0,74.234376 c 0,0.913888 -0.297337,1.705207 -0.892579,2.373046 -0.595241,0.66784 -1.30069,1.001954 -2.115234,1.001954 l -24.060547,0 c -0.814543,0 -1.51804,-0.334114 -2.113281,-1.001954 -0.595241,-0.667839 -0.894531,-1.459159 -0.894531,-2.373046 l 0,-74.234376 c 0,-0.913887 0.29929,-1.705207 0.894531,-2.373046 0.595241,-0.667839 1.298738,-1.001953 2.113281,-1.001953 z"
     id="path4759-6"
     style="fill:#310049;fill-opacity:1" />
</svg>
