<?xml version="1.0" encoding="UTF-8" standalone="no"?>
<!-- Created with Inkscape (http://www.inkscape.org/) -->

<svg
   xmlns:dc="http://purl.org/dc/elements/1.1/"
   xmlns:cc="http://creativecommons.org/ns#"
   xmlns:rdf="http://www.w3.org/1999/02/22-rdf-syntax-ns#"
   xmlns:svg="http://www.w3.org/2000/svg"
   xmlns="http://www.w3.org/2000/svg"
   xmlns:sodipodi="http://sodipodi.sourceforge.net/DTD/sodipodi-0.dtd"
   xmlns:inkscape="http://www.inkscape.org/namespaces/inkscape"
   version="1.0"
   width="100"
   height="100"
   id="svg2"
   inkscape:version="0.91 r13725"
   sodipodi:docname="general_trash.svg">
  <metadata
     id="metadata3050">
    <rdf:RDF>
      <cc:Work
         rdf:about="">
        <dc:format>image/svg+xml</dc:format>
        <dc:type
           rdf:resource="http://purl.org/dc/dcmitype/StillImage" />
      </cc:Work>
    </rdf:RDF>
  </metadata>
  <sodipodi:namedview
     pagecolor="#ffffff"
     bordercolor="#666666"
     borderopacity="1"
     objecttolerance="10"
     gridtolerance="10"
     guidetolerance="10"
     inkscape:pageopacity="0"
     inkscape:pageshadow="2"
     inkscape:window-width="1920"
     inkscape:window-height="1016"
     id="namedview3048"
     showgrid="false"
     inkscape:zoom="1.4142136"
     inkscape:cx="-97.400251"
     inkscape:cy="34.069411"
     inkscape:window-x="0"
     inkscape:window-y="27"
     inkscape:window-maximized="1"
     inkscape:current-layer="svg2" />
  <defs
     id="defs4" />
  <path
     inkscape:connector-curvature="0"
     d="m 38.75,40.625001 0,33.749999 q 0,0.82032 -0.52734,1.34766 Q 37.69532,76.25 36.875,76.25 l -3.75,0 q -0.82031,0 -1.34765,-0.52734 Q 31.25,75.19532 31.25,74.375 l 0,-33.749999 q 0,-0.820313 0.52735,-1.347658 0.52734,-0.527342 1.34765,-0.527342 l 3.75,0 q 0.82032,0 1.34766,0.527342 0.52734,0.527345 0.52734,1.347658 z m 15,0 0,33.749999 q 0,0.82032 -0.52734,1.34766 Q 52.69531,76.25 51.87501,76.25 l -3.75001,0 q -0.82031,0 -1.34765,-0.52734 Q 46.25,75.19532 46.25,74.375 l 0,-33.749999 q 0,-0.820313 0.52735,-1.347658 0.52734,-0.527342 1.34765,-0.527342 l 3.75001,0 q 0.8203,0 1.34765,0.527342 0.52734,0.527345 0.52734,1.347658 z m 15.000002,0 0,33.749999 q 0,0.82032 -0.527344,1.34766 Q 67.695313,76.25 66.875003,76.25 l -3.750002,0 q -0.820311,0 -1.347656,-0.52734 Q 61.25,75.19532 61.25,74.375 l 0,-33.749999 q 0,-0.820313 0.527345,-1.347658 0.527345,-0.527342 1.347656,-0.527342 l 3.750002,0 q 0.82031,0 1.347655,0.527342 0.527344,0.527345 0.527344,1.347658 z M 76.25,83.04688 l 0,-55.546879 -52.5,0 0,55.546879 q 0,1.28906 0.410159,2.37305 0.41015,1.08397 0.849611,1.58202 Q 25.449219,87.5 25.625,87.5 l 48.750001,0 q 0.175781,0 0.615233,-0.49805 0.439453,-0.49805 0.84961,-1.58202 Q 76.25,84.33594 76.25,83.04688 Z m -39.375,-63.046879 26.250001,0 -2.8125,-6.855471 q -0.410156,-0.527344 -0.996094,-0.644531 l -18.574217,0 q -0.58594,0.117187 -0.9961,0.644531 z m 54.375001,1.874999 0,3.749999 q 0,0.820313 -0.527345,1.347656 -0.527341,0.527346 -1.347655,0.527346 l -5.624999,0 0,55.546879 q 0,4.86328 -2.753908,8.4082 Q 78.242187,95 74.375002,95 L 25.625,95 Q 21.75781,95 19.003909,91.57226 16.25,88.14453 16.25,83.28125 l 0,-55.781249 -5.625,0 q -0.8203105,0 -1.3476505,-0.527346 -0.52735,-0.527343 -0.52735,-1.347656 l 0,-3.749999 q 0,-0.820313 0.52735,-1.347657 0.52734,-0.527342 1.3476505,-0.527342 l 18.105459,0 4.10157,-9.785157 q 0.8789,-2.16797 3.16406,-3.691407 Q 38.28125,5 40.625,5 l 18.75,0 q 2.34375,0 4.628907,1.523437 2.285155,1.523437 3.164063,3.691407 l 4.101563,9.785157 18.105467,0 q 0.820314,0 1.347656,0.527342 Q 91.25,21.054687 91.25,21.875 Z"
     id="path4135" />
</svg>
