<?xml version="1.0" encoding="UTF-8" standalone="no"?>
<!-- Created with Inkscape (http://www.inkscape.org/) -->

<svg
   xmlns:dc="http://purl.org/dc/elements/1.1/"
   xmlns:cc="http://creativecommons.org/ns#"
   xmlns:rdf="http://www.w3.org/1999/02/22-rdf-syntax-ns#"
   xmlns:svg="http://www.w3.org/2000/svg"
   xmlns="http://www.w3.org/2000/svg"
   xmlns:sodipodi="http://sodipodi.sourceforge.net/DTD/sodipodi-0.dtd"
   xmlns:inkscape="http://www.inkscape.org/namespaces/inkscape"
   version="1.0"
   width="100"
   height="100"
   id="svg2"
   inkscape:version="0.92.2 5c3e80d, 2017-08-06"
   sodipodi:docname="general_arrowup.svg">
  <metadata
     id="metadata3050">
    <rdf:RDF>
      <cc:Work
         rdf:about="">
        <dc:format>image/svg+xml</dc:format>
        <dc:type
           rdf:resource="http://purl.org/dc/dcmitype/StillImage" />
        <dc:title />
      </cc:Work>
    </rdf:RDF>
  </metadata>
  <sodipodi:namedview
     pagecolor="#ffffff"
     bordercolor="#666666"
     borderopacity="1"
     objecttolerance="10"
     gridtolerance="10"
     guidetolerance="10"
     inkscape:pageopacity="0"
     inkscape:pageshadow="2"
     inkscape:window-width="1920"
     inkscape:window-height="1163"
     id="namedview3048"
     showgrid="false"
     inkscape:zoom="2.8284271"
     inkscape:cx="44.195566"
     inkscape:cy="14.273777"
     inkscape:window-x="1920"
     inkscape:window-y="0"
     inkscape:window-maximized="1"
     inkscape:current-layer="svg2" />
  <defs
     id="defs4" />
  <path
     inkscape:connector-curvature="0"
     d="m 53.286267,87.79204 h -6.572534 q -2.721431,0 -4.646977,-1.6688 -1.925547,-1.668809 -1.925547,-4.338898 V 45.635435 L 25.044924,60.68036 q -1.848515,1.951217 -4.621306,1.951217 -2.772782,0 -4.621307,-1.951217 L 11.899876,56.829266 Q 9.9999999,54.9294 9.9999999,52.20796 q 0,-2.670089 1.8998761,-4.672658 L 45.378693,14.107835 Q 47.27856,12.207959 50,12.207959 q 2.670089,0 4.672658,1.899876 L 88.048782,47.535302 Q 90,49.486519 90,52.20796 q 0,2.670088 -1.951218,4.621306 L 84.24904,60.68036 q -1.951218,1.951217 -4.672658,1.951217 -2.72144,0 -4.672657,-1.951217 L 59.858791,45.635435 v 36.148907 q 0,2.670089 -1.925546,4.338898 -1.925538,1.6688 -4.646978,1.6688 z"
     id="path4"
     style="fill:#310049;fill-opacity:1;stroke-width:1" />
</svg>
