<?xml version="1.0" encoding="UTF-8" standalone="no"?>
<!-- Created with Inkscape (http://www.inkscape.org/) -->

<svg
   xmlns:dc="http://purl.org/dc/elements/1.1/"
   xmlns:cc="http://creativecommons.org/ns#"
   xmlns:rdf="http://www.w3.org/1999/02/22-rdf-syntax-ns#"
   xmlns:svg="http://www.w3.org/2000/svg"
   xmlns="http://www.w3.org/2000/svg"
   xmlns:sodipodi="http://sodipodi.sourceforge.net/DTD/sodipodi-0.dtd"
   xmlns:inkscape="http://www.inkscape.org/namespaces/inkscape"
   version="1.0"
   width="100"
   height="100"
   id="svg2"
   inkscape:version="0.91 r13725"
   sodipodi:docname="general_minus.svg">
  <metadata
     id="metadata3050">
    <rdf:RDF>
      <cc:Work
         rdf:about="">
        <dc:format>image/svg+xml</dc:format>
        <dc:type
           rdf:resource="http://purl.org/dc/dcmitype/StillImage" />
      </cc:Work>
    </rdf:RDF>
  </metadata>
  <sodipodi:namedview
     pagecolor="#ffffff"
     bordercolor="#666666"
     borderopacity="1"
     objecttolerance="10"
     gridtolerance="10"
     guidetolerance="10"
     inkscape:pageopacity="0"
     inkscape:pageshadow="2"
     inkscape:window-width="1920"
     inkscape:window-height="1136"
     id="namedview3048"
     showgrid="false"
     inkscape:zoom="4"
     inkscape:cx="17.894211"
     inkscape:cy="13.745717"
     inkscape:window-x="0"
     inkscape:window-y="27"
     inkscape:window-maximized="1"
     inkscape:current-layer="svg2" />
  <defs
     id="defs4" />
  <path
     inkscape:connector-curvature="0"
     d="m 78.63636,47.954549 0,4.0909 q 0,0.89489 -0.57528,1.47017 -0.57528,0.57529 -1.47017,0.57529 l -53.18182,0 q -0.89489,0 -1.47017,-0.57529 -0.57528,-0.57528 -0.57528,-1.47017 l 0,-4.0909 q 0,-0.89489 0.57528,-1.47018 0.57528,-0.575278 1.47017,-0.575278 l 53.18182,0 q 0.89489,0 1.47017,0.575278 0.57528,0.57529 0.57528,1.47018 z m 8.18182,28.63636 0,-53.181818 q 0,-4.21875 -3.00426,-7.22301 -3.00426,-3.00426 -7.22301,-3.00426 l -53.18182,0 q -4.21875,0 -7.22301,3.00426 -3.00426,3.00426 -3.00426,7.22301 l 0,53.181818 q 0,4.21875 3.00426,7.22301 3.00426,3.00426 7.22301,3.00426 l 53.18182,0 q 4.21875,0 7.22301,-3.00426 3.00426,-3.00426 3.00426,-7.22301 z M 95,23.409091 95,76.590909 q 0,7.60653 -5.40128,13.00781 -5.40128,5.40128 -13.00781,5.40128 l -53.18182,0 q -7.60653,0 -13.00781,-5.40128 Q 5,84.197439 5,76.590909 L 5,23.409091 q 0,-7.60653 5.40128,-13.00781 5.40128,-5.40128 13.00781,-5.40128 l 53.18182,0 q 7.60653,0 13.00781,5.40128 Q 95,15.802561 95,23.409091 Z"
     id="path5355"
     style="fill:#310049;fill-opacity:1" />
</svg>
