<?xml version="1.0" encoding="UTF-8" standalone="no"?>
<!-- Created with Inkscape (http://www.inkscape.org/) -->

<svg
   xmlns:dc="http://purl.org/dc/elements/1.1/"
   xmlns:cc="http://creativecommons.org/ns#"
   xmlns:rdf="http://www.w3.org/1999/02/22-rdf-syntax-ns#"
   xmlns:svg="http://www.w3.org/2000/svg"
   xmlns="http://www.w3.org/2000/svg"
   xmlns:sodipodi="http://sodipodi.sourceforge.net/DTD/sodipodi-0.dtd"
   xmlns:inkscape="http://www.inkscape.org/namespaces/inkscape"
   version="1.0"
   width="100"
   height="100"
   id="svg2"
   inkscape:version="0.91 r13725"
   sodipodi:docname="general_bothon.svg">
  <metadata
     id="metadata3050">
    <rdf:RDF>
      <cc:Work
         rdf:about="">
        <dc:format>image/svg+xml</dc:format>
        <dc:type
           rdf:resource="http://purl.org/dc/dcmitype/StillImage" />
        <dc:title />
      </cc:Work>
    </rdf:RDF>
  </metadata>
  <sodipodi:namedview
     pagecolor="#ffffff"
     bordercolor="#666666"
     borderopacity="1"
     objecttolerance="10"
     gridtolerance="10"
     guidetolerance="10"
     inkscape:pageopacity="0"
     inkscape:pageshadow="2"
     inkscape:window-width="1920"
     inkscape:window-height="1136"
     id="namedview3048"
     showgrid="false"
     inkscape:zoom="5.6568544"
     inkscape:cx="30.328759"
     inkscape:cy="38.925163"
     inkscape:window-x="0"
     inkscape:window-y="27"
     inkscape:window-maximized="1"
     inkscape:current-layer="svg2" />
  <defs
     id="defs4" />
  <g
     id="g4761"
     transform="translate(3.889087,0)"
     style="fill:#310049;fill-opacity:1">
    <path
       inkscape:connector-curvature="0"
       id="path4759"
       d="m 87.221826,8.75 0,82.5 q 0,1.52344 -1.11328,2.63672 Q 84.995266,95 83.471826,95 l -30,0 q -1.52344,0 -2.63672,-1.11328 -1.11328,-1.11328 -1.11328,-2.63672 l 0,-82.5 q 0,-1.52344 1.11328,-2.63672 Q 51.948386,5 53.471826,5 l 30,0 q 1.52344,0 2.63672,1.11328 1.11328,1.11328 1.11328,2.63672 z"
       style="fill:#310049;fill-opacity:1" />
    <path
       id="path4194"
       d="m 42.5,8.75 0,82.5 q 0,1.52344 -1.11328,2.63672 Q 40.27344,95 38.75,95 l -30,0 Q 7.22656,95 6.11328,93.88672 5,92.77344 5,91.25 L 5,8.75 Q 5,7.22656 6.11328,6.11328 7.22656,5 8.75,5 l 30,0 Q 40.27344,5 41.38672,6.11328 42.5,7.22656 42.5,8.75 Z"
       inkscape:connector-curvature="0"
       style="fill:#310049;fill-opacity:1" />
  </g>
</svg>
