<?xml version="1.0" encoding="UTF-8" standalone="no"?>
<!-- Created with Inkscape (http://www.inkscape.org/) -->

<svg
   xmlns:dc="http://purl.org/dc/elements/1.1/"
   xmlns:cc="http://creativecommons.org/ns#"
   xmlns:rdf="http://www.w3.org/1999/02/22-rdf-syntax-ns#"
   xmlns:svg="http://www.w3.org/2000/svg"
   xmlns="http://www.w3.org/2000/svg"
   xmlns:sodipodi="http://sodipodi.sourceforge.net/DTD/sodipodi-0.dtd"
   xmlns:inkscape="http://www.inkscape.org/namespaces/inkscape"
   version="1.0"
   width="100"
   height="100"
   id="svg2"
   inkscape:version="0.92.2 5c3e80d, 2017-08-06"
   sodipodi:docname="general_options.svg">
  <metadata
     id="metadata3050">
    <rdf:RDF>
      <cc:Work
         rdf:about="">
        <dc:format>image/svg+xml</dc:format>
        <dc:type
           rdf:resource="http://purl.org/dc/dcmitype/StillImage" />
      </cc:Work>
    </rdf:RDF>
  </metadata>
  <sodipodi:namedview
     pagecolor="#ffffff"
     bordercolor="#666666"
     borderopacity="1"
     objecttolerance="10"
     gridtolerance="10"
     guidetolerance="10"
     inkscape:pageopacity="0"
     inkscape:pageshadow="2"
     inkscape:window-width="1920"
     inkscape:window-height="1163"
     id="namedview3048"
     showgrid="false"
     inkscape:zoom="2"
     inkscape:cx="-92.4632"
     inkscape:cy="116.3469"
     inkscape:window-x="1920"
     inkscape:window-y="0"
     inkscape:window-maximized="1"
     inkscape:current-layer="svg2" />
  <defs
     id="defs4" />
  <path
     inkscape:connector-curvature="0"
     d="m 90,73.333334 v 6.666667 q 0,1.354169 -0.989582,2.343751 -0.989582,0.989582 -2.343751,0.989582 H 13.333333 q -1.354168,0 -2.343751,-0.989582 Q 10,81.35417 10,80.000001 v -6.666667 q 0,-1.354169 0.989582,-2.343751 0.989583,-0.989582 2.343751,-0.989582 h 73.333334 q 1.354169,0 2.343751,0.989582 Q 90,71.979165 90,73.333334 Z m 0,-26.666667 v 6.666667 q 0,1.354169 -0.989582,2.343751 -0.989582,0.989582 -2.343751,0.989582 H 13.333333 q -1.354168,0 -2.343751,-0.989582 Q 10,54.687503 10,53.333334 v -6.666667 q 0,-1.354169 0.989582,-2.343751 0.989583,-0.989582 2.343751,-0.989582 h 73.333334 q 1.354169,0 2.343751,0.989582 Q 90,45.312498 90,46.666667 Z m 0,-26.666666 v 6.666666 q 0,1.354169 -0.989582,2.343751 -0.989582,0.989583 -2.343751,0.989583 H 13.333333 q -1.354168,0 -2.343751,-0.989583 Q 10,28.020836 10,26.666667 v -6.666666 q 0,-1.354169 0.989582,-2.343751 0.989583,-0.989583 2.343751,-0.989583 h 73.333334 q 1.354169,0 2.343751,0.989583 Q 90,18.645832 90,20.000001 Z"
     id="path4475"
     style="fill:#310049;fill-opacity:1;stroke-width:1" />
</svg>
