<?xml version="1.0" encoding="UTF-8" standalone="no"?>
<!-- Created with Inkscape (http://www.inkscape.org/) -->

<svg
   xmlns:dc="http://purl.org/dc/elements/1.1/"
   xmlns:cc="http://creativecommons.org/ns#"
   xmlns:rdf="http://www.w3.org/1999/02/22-rdf-syntax-ns#"
   xmlns:svg="http://www.w3.org/2000/svg"
   xmlns="http://www.w3.org/2000/svg"
   xmlns:sodipodi="http://sodipodi.sourceforge.net/DTD/sodipodi-0.dtd"
   xmlns:inkscape="http://www.inkscape.org/namespaces/inkscape"
   version="1.0"
   width="100"
   height="100"
   id="svg2"
   inkscape:version="0.91 r13725"
   sodipodi:docname="general_options.svg">
  <metadata
     id="metadata3050">
    <rdf:RDF>
      <cc:Work
         rdf:about="">
        <dc:format>image/svg+xml</dc:format>
        <dc:type
           rdf:resource="http://purl.org/dc/dcmitype/StillImage" />
      </cc:Work>
    </rdf:RDF>
  </metadata>
  <sodipodi:namedview
     pagecolor="#ffffff"
     bordercolor="#666666"
     borderopacity="1"
     objecttolerance="10"
     gridtolerance="10"
     guidetolerance="10"
     inkscape:pageopacity="0"
     inkscape:pageshadow="2"
     inkscape:window-width="1920"
     inkscape:window-height="1136"
     id="namedview3048"
     showgrid="false"
     inkscape:zoom="2"
     inkscape:cx="-84.7132"
     inkscape:cy="116.3469"
     inkscape:window-x="0"
     inkscape:window-y="27"
     inkscape:window-maximized="1"
     inkscape:current-layer="svg2" />
  <defs
     id="defs4" />
  <path
     inkscape:connector-curvature="0"
     d="m 95,76.25 0,7.5 q 0,1.52344 -1.11328,2.63672 Q 92.77344,87.5 91.25,87.5 l -82.5,0 Q 7.22656,87.5 6.11328,86.38672 5,85.27344 5,83.75 l 0,-7.5 Q 5,74.72656 6.11328,73.61328 7.22656,72.5 8.75,72.5 l 82.5,0 q 1.52344,0 2.63672,1.11328 Q 95,74.72656 95,76.25 Z m 0,-30 0,7.5 q 0,1.52344 -1.11328,2.63672 Q 92.77344,57.5 91.25,57.5 l -82.5,0 Q 7.22656,57.5 6.11328,56.38672 5,55.27344 5,53.75 l 0,-7.5 Q 5,44.72656 6.11328,43.61328 7.22656,42.5 8.75,42.5 l 82.5,0 q 1.52344,0 2.63672,1.11328 Q 95,44.72656 95,46.25 Z m 0,-30 0,7.5 q 0,1.52344 -1.11328,2.63672 Q 92.77344,27.5 91.25,27.5 l -82.5,0 Q 7.22656,27.5 6.11328,26.38672 5,25.27344 5,23.75 l 0,-7.5 Q 5,14.72656 6.11328,13.61328 7.22656,12.5 8.75,12.5 l 82.5,0 q 1.52344,0 2.63672,1.11328 Q 95,14.72656 95,16.25 Z"
     id="path4475"
     style="fill:#310049;fill-opacity:1" />
</svg>
