<?xml version="1.0" encoding="UTF-8" standalone="no"?>
<!-- Created with Inkscape (http://www.inkscape.org/) -->

<svg
   xmlns:dc="http://purl.org/dc/elements/1.1/"
   xmlns:cc="http://creativecommons.org/ns#"
   xmlns:rdf="http://www.w3.org/1999/02/22-rdf-syntax-ns#"
   xmlns:svg="http://www.w3.org/2000/svg"
   xmlns="http://www.w3.org/2000/svg"
   xmlns:sodipodi="http://sodipodi.sourceforge.net/DTD/sodipodi-0.dtd"
   xmlns:inkscape="http://www.inkscape.org/namespaces/inkscape"
   version="1.0"
   width="100"
   height="100"
   id="svg2"
   inkscape:version="0.92.2 5c3e80d, 2017-08-06"
   sodipodi:docname="general_library.svg">
  <metadata
     id="metadata3050">
    <rdf:RDF>
      <cc:Work
         rdf:about="">
        <dc:format>image/svg+xml</dc:format>
        <dc:type
           rdf:resource="http://purl.org/dc/dcmitype/StillImage" />
      </cc:Work>
    </rdf:RDF>
  </metadata>
  <sodipodi:namedview
     pagecolor="#ffffff"
     bordercolor="#666666"
     borderopacity="1"
     objecttolerance="10"
     gridtolerance="10"
     guidetolerance="10"
     inkscape:pageopacity="0"
     inkscape:pageshadow="2"
     inkscape:window-width="1920"
     inkscape:window-height="1163"
     id="namedview3048"
     showgrid="false"
     inkscape:zoom="1.4142136"
     inkscape:cx="-79.143453"
     inkscape:cy="-89.986502"
     inkscape:window-x="1920"
     inkscape:window-y="0"
     inkscape:window-maximized="1"
     inkscape:current-layer="svg2" />
  <defs
     id="defs4" />
  <path
     inkscape:connector-curvature="0"
     d="m 88.760293,29.91987 q 1.921547,2.738205 0.864694,6.196978 L 76.414382,79.63981 q -0.912738,3.074462 -3.674951,5.164142 -2.762223,2.08968 -5.884729,2.08968 H 22.515091 q -3.698969,0 -7.133725,-2.570062 -3.434764,-2.570062 -4.77984,-6.317076 -1.1529241,-3.218586 -0.09608,-6.100898 0,-0.19216 0.144116,-1.29704 0.144116,-1.104889 0.19216,-1.777431 0.048,-0.384311 -0.144116,-1.032827 -0.19216,-0.648524 -0.144124,-0.936755 0.09608,-0.528427 0.384311,-1.008809 0.288231,-0.480382 0.79264,-1.128907 0.5044,-0.648524 0.792631,-1.128907 1.104889,-1.825466 2.161743,-4.395529 1.056844,-2.570062 1.441155,-4.395529 0.144116,-0.480391 0.024,-1.441164 -0.120098,-0.960765 -0.024,-1.345076 0.144116,-0.528426 0.816658,-1.345084 0.672542,-0.816649 0.816658,-1.10488 1.008808,-1.729396 2.017617,-4.419556 1.008809,-2.69016 1.20096,-4.323467 0.048,-0.432346 -0.120097,-1.537235 -0.168134,-1.104889 0.024,-1.345085 0.192151,-0.624498 1.056844,-1.465173 0.864694,-0.840676 1.056854,-1.080871 0.912728,-1.249005 2.041635,-4.059263 1.128907,-2.810249 1.321058,-4.635715 0.048,-0.384312 -0.144116,-1.224987 -0.192151,-0.840676 -0.09607,-1.273022 0.09607,-0.384312 0.432347,-0.864694 0.336267,-0.480391 0.864693,-1.104889 0.528427,-0.624498 0.816658,-1.008809 0.384302,-0.576462 0.792631,-1.465182 0.408329,-0.888711 0.720578,-1.681342 0.312258,-0.79264 0.768622,-1.729396 0.456365,-0.936747 0.936756,-1.537235 0.480382,-0.60048 1.273022,-1.128907 0.792631,-0.528418 1.729387,-0.552436 0.936747,-0.024 2.281831,0.264205 l -0.048,0.144115 q 1.825467,-0.432346 2.449965,-0.432346 h 36.557361 q 3.554853,0 5.476391,2.69016 1.921547,2.69016 0.864702,6.245022 L 68.872328,65.564503 q -1.729386,5.716587 -3.434755,7.37392 -1.705369,1.657333 -6.172961,1.657333 H 17.519091 q -1.29704,0 -1.825467,0.720578 -0.528427,0.768614 -0.048,2.065663 1.152925,3.362693 6.917556,3.362693 h 44.339602 q 1.39312,0 2.69016,-0.744596 1.297049,-0.744595 1.681351,-1.9936 L 85.685867,30.592413 q 0.336275,-1.056845 0.240195,-2.738196 1.825467,0.720578 2.834276,2.065653 z m -51.11305,0.09608 q -0.192151,0.624507 0.09608,1.080872 0.288231,0.456364 0.960773,0.456364 h 29.207459 q 0.624498,0 1.224978,-0.456364 0.60048,-0.456365 0.79264,-1.080872 l 1.008809,-3.074471 q 0.192151,-0.624498 -0.09608,-1.080862 -0.288231,-0.456373 -0.960765,-0.456373 H 40.673678 q -0.624506,0 -1.224986,0.456373 -0.60048,0.456364 -0.792631,1.080862 z m -3.9872,12.297876 q -0.192152,0.624507 0.09608,1.080872 0.288231,0.456364 0.960773,0.456364 h 29.20745 q 0.624507,0 1.224987,-0.456364 0.60048,-0.456365 0.79264,-1.080872 l 1.008809,-3.074471 q 0.192151,-0.624498 -0.09608,-1.080862 -0.288232,-0.456365 -0.960774,-0.456365 h -29.20745 q -0.624506,0 -1.224986,0.456365 -0.600481,0.456364 -0.792641,1.080862 z"
     id="path4223"
     style="fill:#310049;fill-opacity:1;stroke-width:1" />
</svg>
