<?xml version="1.0" encoding="UTF-8" standalone="no"?>
<!-- Created with Inkscape (http://www.inkscape.org/) -->

<svg
   xmlns:dc="http://purl.org/dc/elements/1.1/"
   xmlns:cc="http://creativecommons.org/ns#"
   xmlns:rdf="http://www.w3.org/1999/02/22-rdf-syntax-ns#"
   xmlns:svg="http://www.w3.org/2000/svg"
   xmlns="http://www.w3.org/2000/svg"
   xmlns:sodipodi="http://sodipodi.sourceforge.net/DTD/sodipodi-0.dtd"
   xmlns:inkscape="http://www.inkscape.org/namespaces/inkscape"
   version="1.0"
   width="100"
   height="100"
   id="svg2"
   inkscape:version="0.91 r13725"
   sodipodi:docname="general_library.svg">
  <metadata
     id="metadata3050">
    <rdf:RDF>
      <cc:Work
         rdf:about="">
        <dc:format>image/svg+xml</dc:format>
        <dc:type
           rdf:resource="http://purl.org/dc/dcmitype/StillImage" />
      </cc:Work>
    </rdf:RDF>
  </metadata>
  <sodipodi:namedview
     pagecolor="#ffffff"
     bordercolor="#666666"
     borderopacity="1"
     objecttolerance="10"
     gridtolerance="10"
     guidetolerance="10"
     inkscape:pageopacity="0"
     inkscape:pageshadow="2"
     inkscape:window-width="1920"
     inkscape:window-height="1016"
     id="namedview3048"
     showgrid="false"
     inkscape:zoom="1.4142136"
     inkscape:cx="-68.183298"
     inkscape:cy="-89.986502"
     inkscape:window-x="0"
     inkscape:window-y="27"
     inkscape:window-maximized="1"
     inkscape:current-layer="svg2" />
  <defs
     id="defs4" />
  <path
     inkscape:connector-curvature="0"
     d="m 93.605329,27.409855 q 2.16174,3.08048 0.97278,6.9716 l -14.86193,48.96333 q -1.02683,3.45877 -4.13432,5.80966 -3.1075,2.35089 -6.62032,2.35089 l -49.88206,0 q -4.16134,0 -8.02544,-2.89132 -3.8641101,-2.89132 -5.3773201,-7.10671 -1.29704,-3.62091 -0.10809,-6.86351 0,-0.21618 0.16213,-1.45917 0.16213,-1.243 0.21618,-1.99961 0.054,-0.43235 -0.16213,-1.16193 -0.21618,-0.72959 -0.16214,-1.05385 0.10809,-0.59448 0.43235,-1.13491 0.32426,-0.54043 0.89172,-1.27002 0.56745,-0.72959 0.89171,-1.27002 1.243,-2.05365 2.4319601,-4.94497 1.18895,-2.89132 1.6213,-4.94497 0.16213,-0.54044 0.027,-1.62131 -0.13511,-1.08086 -0.027,-1.51321 0.16213,-0.59448 0.91874,-1.51322 0.75661,-0.91873 0.91874,-1.24299 1.13491,-1.94557 2.26982,-4.972 1.13491,-3.02643 1.35108,-4.8639 0.054,-0.48639 -0.13511,-1.72939 -0.18915,-1.243 0.027,-1.51322 0.21617,-0.70256 1.18895,-1.64832 0.97278,-0.94576 1.18896,-1.21598 1.02682,-1.40513 2.29684,-4.56667 1.27002,-3.16153 1.48619,-5.21518 0.054,-0.43235 -0.16213,-1.37811 -0.21617,-0.94576 -0.10808,-1.43215 0.10808,-0.43235 0.48639,-0.97278 0.3783,-0.54044 0.97278,-1.243 0.59448,-0.70256 0.91874,-1.13491 0.43234,-0.64852 0.89171,-1.64833 0.45937,-0.9998 0.81065,-1.89151 0.35129,-0.89172 0.8647,-1.94557 0.51341,-1.05384 1.05385,-1.72939 0.54043,-0.67554 1.43215,-1.27002 0.89171,-0.59447 1.94556,-0.62149 1.05384,-0.027 2.56706,0.29723 l -0.054,0.16213 q 2.05365,-0.48639 2.75621,-0.48639 l 41.12703,0 q 3.99921,0 6.16094,3.02643 2.16174,3.02643 0.97279,7.02565 l -14.8079,48.96332 q -1.94556,6.43116 -3.8641,8.29566 -1.91854,1.8645 -6.94458,1.8645 l -46.96371,0 q -1.45917,0 -2.05365,0.81065 -0.59448,0.86469 -0.054,2.32387 1.29704,3.78303 7.78225,3.78303 l 49.88205,0 q 1.56726,0 3.02643,-0.83767 1.45918,-0.83767 1.89152,-2.2428 l 16.21302,-53.34084 q 0.37831,-1.18895 0.27022,-3.08047 2.05365,0.81065 3.18856,2.32386 z m -57.50218,0.10809 q -0.21617,0.70257 0.10809,1.21598 0.32426,0.51341 1.08087,0.51341 l 32.85839,0 q 0.70256,0 1.3781,-0.51341 0.67554,-0.51341 0.89172,-1.21598 l 1.13491,-3.45878 q 0.21617,-0.70256 -0.10809,-1.21597 -0.32426,-0.51342 -1.08086,-0.51342 l -32.85839,0 q -0.70257,0 -1.37811,0.51342 -0.67554,0.51341 -0.89171,1.21597 z m -4.4856,13.83511 q -0.21617,0.70257 0.10809,1.21598 0.32426,0.51341 1.08087,0.51341 l 32.85838,0 q 0.70257,0 1.37811,-0.51341 0.67554,-0.51341 0.89172,-1.21598 l 1.13491,-3.45878 q 0.21617,-0.70256 -0.10809,-1.21597 -0.32426,-0.51341 -1.08087,-0.51341 l -32.85838,0 q -0.70257,0 -1.37811,0.51341 -0.67554,0.51341 -0.89172,1.21597 z"
     id="path4223"
     style="fill:#310049;fill-opacity:1" />
</svg>
