<?xml version="1.0" encoding="UTF-8" standalone="no"?>
<svg
   xmlns:dc="http://purl.org/dc/elements/1.1/"
   xmlns:cc="http://creativecommons.org/ns#"
   xmlns:rdf="http://www.w3.org/1999/02/22-rdf-syntax-ns#"
   xmlns:svg="http://www.w3.org/2000/svg"
   xmlns="http://www.w3.org/2000/svg"
   xmlns:sodipodi="http://sodipodi.sourceforge.net/DTD/sodipodi-0.dtd"
   xmlns:inkscape="http://www.inkscape.org/namespaces/inkscape"
   aria-hidden="true"
   focusable="false"
   data-prefix="fas"
   data-icon="chart-area"
   class="svg-inline--fa fa-chart-area fa-w-16"
   role="img"
   viewBox="0 0 100 100"
   version="1.1"
   id="svg4"
   sodipodi:docname="graph.svg"
   width="100"
   height="100"
   inkscape:version="1.0.1 (3bc2e813f5, 2020-09-07)">
  <metadata
     id="metadata10">
    <rdf:RDF>
      <cc:Work
         rdf:about="">
        <dc:format>image/svg+xml</dc:format>
        <dc:type
           rdf:resource="http://purl.org/dc/dcmitype/StillImage" />
        <dc:title />
      </cc:Work>
    </rdf:RDF>
  </metadata>
  <defs
     id="defs8" />
  <sodipodi:namedview
     pagecolor="#ffffff"
     bordercolor="#666666"
     borderopacity="1"
     objecttolerance="10"
     gridtolerance="10"
     guidetolerance="10"
     inkscape:pageopacity="0"
     inkscape:pageshadow="2"
     inkscape:window-width="3840"
     inkscape:window-height="1531"
     id="namedview6"
     showgrid="false"
     inkscape:zoom="7.375"
     inkscape:cx="33.590128"
     inkscape:cy="66.956689"
     inkscape:window-x="0"
     inkscape:window-y="32"
     inkscape:window-maximized="1"
     inkscape:current-layer="svg4"
     inkscape:document-rotation="0" />
  <path
     d="M 97.65625,75 C 98.94531,75 100,76.054687 100,77.34375 v 7.8125 C 100,86.445312 98.94531,87.5 97.65625,87.5 H 2.34375 C 1.054688,87.5 0,86.445312 0,85.15625 V 14.84375 C 0,13.554687 1.054688,12.5 2.34375,12.5 h 7.8125 C 11.445312,12.5 12.5,13.554687 12.5,14.84375 V 75 Z M 72.792969,31.152344 56.25,42.1875 39.589844,19.980469 C 38.59375,18.652344 36.5625,18.75 35.703125,20.175781 L 18.75,48.4375 V 68.75 h 75 L 76.191406,32.070312 c -0.625,-1.269531 -2.226562,-1.699218 -3.398437,-0.917968 z"
     id="path2"
     inkscape:connector-curvature="0"
     style="fill:#646464;fill-opacity:1;stroke-width:1" />
</svg>
