<?xml version="1.0" encoding="UTF-8" standalone="no"?>
<svg
   xmlns:dc="http://purl.org/dc/elements/1.1/"
   xmlns:cc="http://creativecommons.org/ns#"
   xmlns:rdf="http://www.w3.org/1999/02/22-rdf-syntax-ns#"
   xmlns:svg="http://www.w3.org/2000/svg"
   xmlns="http://www.w3.org/2000/svg"
   xmlns:sodipodi="http://sodipodi.sourceforge.net/DTD/sodipodi-0.dtd"
   xmlns:inkscape="http://www.inkscape.org/namespaces/inkscape"
   width="100"
   height="100"
   viewBox="0 0 100 100"
   version="1.1"
   id="svg4"
   sodipodi:docname="heartbeat.svg"
   inkscape:version="1.0.1 (3bc2e813f5, 2020-09-07)">
  <metadata
     id="metadata10">
    <rdf:RDF>
      <cc:Work
         rdf:about="">
        <dc:format>image/svg+xml</dc:format>
        <dc:type
           rdf:resource="http://purl.org/dc/dcmitype/StillImage" />
        <dc:title />
      </cc:Work>
    </rdf:RDF>
  </metadata>
  <defs
     id="defs8" />
  <sodipodi:namedview
     pagecolor="#ffffff"
     bordercolor="#666666"
     borderopacity="1"
     objecttolerance="10"
     gridtolerance="10"
     guidetolerance="10"
     inkscape:pageopacity="0"
     inkscape:pageshadow="2"
     inkscape:window-width="3840"
     inkscape:window-height="1531"
     id="namedview6"
     showgrid="false"
     inkscape:zoom="2.9799501"
     inkscape:cx="-39.542427"
     inkscape:cy="43.999988"
     inkscape:window-x="0"
     inkscape:window-y="32"
     inkscape:window-maximized="1"
     inkscape:current-layer="svg4"
     inkscape:document-rotation="0" />
  <g
     id="g10"
     transform="matrix(1.2499998,0,0,1.2499998,-12.49999,-12.49999)"
     style="stroke-width:0.8">
    <path
       d="m 67.142855,55.7143 h 13.61607 q -0.22321,0.2678 -0.44642,0.4687 -0.22322,0.2009 -0.40179,0.3349 l -0.13393,0.1785 -27.8125,26.7857 q -0.80357,0.8036 -1.96429,0.8036 -1.16071,0 -1.96428,-0.8036 l -27.85715,-26.875 q -0.22321,-0.089 -0.9375,-0.8928 h 16.47322 q 0.98214,0 1.76339,-0.6027 0.78125,-0.6027 1.00447,-1.5402 l 3.125,-12.5446 8.48214,29.7768 q 0.26786,0.8928 1.02678,1.4732 0.75893,0.5803 1.74108,0.5803 0.9375,0 1.69643,-0.5803 0.75892,-0.5804 1.02678,-1.4732 l 6.51786,-21.6518 2.5,5 q 0.80357,1.5625 2.54464,1.5625 z m 22.85715,-19.1072 q 0,6.4733 -4.59822,13.3929 h -16.47321 l -4.95536,-9.8661 q -0.35714,-0.7589 -1.13839,-1.2053 -0.78125,-0.4465 -1.62947,-0.3572 -2.00893,0.2232 -2.5,2.0536 l -5.75893,19.1964 -8.75,-30.625 q -0.26786,-0.8928 -1.04911,-1.4732 -0.78125,-0.5803 -1.76339,-0.5803 -0.98214,0 -1.74107,0.6026 -0.75893,0.6027 -0.98214,1.5402 L 33.482145,50 h -18.88394 q -4.59821,-6.9196 -4.59821,-13.3929 0,-9.8214 5.66964,-15.3571 5.66965,-5.5357 15.66965,-5.5357 2.76786,0 5.64732,0.9598 2.87946,0.9598 5.35714,2.5893 2.47768,1.6295 4.2634,3.058 1.78571,1.4286 3.39285,3.0357 1.60715,-1.6071 3.39286,-3.0357 1.78572,-1.4285 4.26339,-3.058 2.47768,-1.6295 5.35715,-2.5893 2.87946,-0.9598 5.64732,-0.9598 10,0 15.66964,5.5357 5.66965,5.5357 5.66965,15.3571 z"
       id="path2"
       inkscape:connector-curvature="0"
       style="fill:#310049;fill-opacity:1;stroke-width:0.8" />
    <path
       d="m 85.401785,50 h -16.47321 l -4.95536,-9.8661 c -0.238093,-0.505934 -0.617557,-0.9077 -1.13839,-1.2053 -0.520833,-0.297667 -1.06399,-0.416734 -1.62947,-0.3572 -1.339287,0.1488 -2.17262,0.833333 -2.5,2.0536 l -5.75893,19.1964 -8.75,-30.625 c -0.178573,-0.5952 -0.528277,-1.086267 -1.04911,-1.4732 -0.520831,-0.386867 -1.108626,-0.5803 -1.763386,-0.5803 -0.65476,0 -1.235117,0.200867 -1.74107,0.6026 -0.505953,0.4018 -0.833333,0.9152 -0.98214,1.5402 L 33.482154,50 h -18.88394 l 4.64286,5.7143 h 16.47322 c 0.65476,0 1.24255,-0.2009 1.763385,-0.6027 0.520833,-0.4018 0.855657,-0.9152 1.00447,-1.5402 l 3.125,-12.5446 8.482136,29.7768 c 0.178573,0.5952 0.520833,1.086267 1.02678,1.4732 0.505953,0.386867 1.086313,0.5803 1.74108,0.5803 0.625,0 1.190477,-0.193433 1.69643,-0.5803 0.505947,-0.386933 0.848207,-0.878 1.02678,-1.4732 l 6.51786,-21.6518 2.5,5 c 0.535713,1.041667 1.383927,1.5625 2.54464,1.5625 h 13.61607 z"
       id="path2-3"
       inkscape:connector-curvature="0"
       style="fill:#ffffeb;fill-opacity:1;stroke-width:0.8"
       sodipodi:nodetypes="cccccccccscccccscccccsccccscc" />
  </g>
</svg>
