<?xml version="1.0" encoding="UTF-8" standalone="no"?>
<svg
   xmlns:dc="http://purl.org/dc/elements/1.1/"
   xmlns:cc="http://creativecommons.org/ns#"
   xmlns:rdf="http://www.w3.org/1999/02/22-rdf-syntax-ns#"
   xmlns:svg="http://www.w3.org/2000/svg"
   xmlns="http://www.w3.org/2000/svg"
   xmlns:sodipodi="http://sodipodi.sourceforge.net/DTD/sodipodi-0.dtd"
   xmlns:inkscape="http://www.inkscape.org/namespaces/inkscape"
   version="1.0"
   width="100"
   height="100"
   id="svg2"
   inkscape:version="1.0.1 (3bc2e813f5, 2020-09-07)"
   sodipodi:docname="lefton.svg">
  <metadata
     id="metadata3050">
    <rdf:RDF>
      <cc:Work
         rdf:about="">
        <dc:format>image/svg+xml</dc:format>
        <dc:type
           rdf:resource="http://purl.org/dc/dcmitype/StillImage" />
      </cc:Work>
    </rdf:RDF>
  </metadata>
  <sodipodi:namedview
     pagecolor="#ffffff"
     bordercolor="#666666"
     borderopacity="1"
     objecttolerance="10"
     gridtolerance="10"
     guidetolerance="10"
     inkscape:pageopacity="0"
     inkscape:pageshadow="2"
     inkscape:window-width="3840"
     inkscape:window-height="1531"
     id="namedview3048"
     showgrid="false"
     inkscape:zoom="5.6568544"
     inkscape:cx="12.163896"
     inkscape:cy="38.218056"
     inkscape:window-x="0"
     inkscape:window-y="32"
     inkscape:window-maximized="1"
     inkscape:current-layer="svg2"
     inkscape:document-rotation="0" />
  <defs
     id="defs4" />
  <g
     id="g14"
     transform="matrix(1.25,0,0,1.25,-12.5,-12.5)"
     style="stroke-width:0.8">
    <rect
       style="opacity:1;fill:#ffffeb;fill-opacity:1;fill-rule:nonzero;stroke:none;stroke-width:3.02362;stroke-miterlimit:4;stroke-dasharray:none;stroke-opacity:1"
       id="rect814"
       width="28.8146"
       height="76.013977"
       x="55.154327"
       y="11.788431"
       rx="3.2"
       ry="3.2" />
    <g
       id="g10"
       transform="matrix(0.88888889,0,0,0.88888889,5.5553711,5.5555555)"
       style="stroke-width:0.9">
      <path
         style="fill:#310049;fill-opacity:1;stroke-width:0.9"
         id="path4759"
         d="M 57.361328,5 C 56.345701,5 55.466796,5.3710946 54.724609,6.1132812 53.982423,6.8554679 53.611328,7.7343733 53.611328,8.75 v 82.5 c 0,1.015627 0.371095,1.894532 1.113281,2.636719 C 55.466796,94.628905 56.345701,95 57.361328,95 h 30 c 1.015627,0 1.894532,-0.371095 2.636719,-1.113281 0.742187,-0.742187 1.113281,-1.621092 1.113281,-2.636719 V 8.75 c 0,-1.0156267 -0.371094,-1.8945321 -1.113281,-2.6367188 C 89.25586,5.3710946 88.376955,5 87.361328,5 Z m 2.96875,4.5078125 h 24.060547 c 0.814544,0 1.519993,0.3341139 2.115234,1.0019535 0.595242,0.667839 0.892578,1.459159 0.892579,2.373046 v 74.234376 c 0,0.913888 -0.297337,1.705207 -0.892579,2.373046 -0.595241,0.66784 -1.30069,1.001954 -2.115234,1.001954 H 60.330078 c -0.814543,0 -1.51804,-0.334114 -2.113281,-1.001954 -0.595241,-0.667839 -0.894531,-1.459159 -0.894531,-2.373046 V 12.882812 c 0,-0.913887 0.29929,-1.705207 0.894531,-2.373046 0.595241,-0.6678396 1.298738,-1.0019535 2.113281,-1.0019535 z"
         inkscape:connector-curvature="0" />
      <path
         style="fill:#310049;fill-opacity:1;stroke-width:0.9"
         id="path4194"
         d="m 46.389087,8.75 v 82.5 q 0,1.52344 -1.11328,2.63672 Q 44.162527,95 42.639087,95 h -30 q -1.52344,0 -2.63672,-1.11328 Q 8.889087,92.77344 8.889087,91.25 V 8.75 q 0,-1.52344 1.11328,-2.63672 Q 11.115647,5 12.639087,5 h 30 q 1.52344,0 2.63672,1.11328 1.11328,1.11328 1.11328,2.63672 z"
         inkscape:connector-curvature="0" />
    </g>
  </g>
</svg>
