<?xml version="1.0" encoding="UTF-8" standalone="no"?>
<svg
   xmlns:dc="http://purl.org/dc/elements/1.1/"
   xmlns:cc="http://creativecommons.org/ns#"
   xmlns:rdf="http://www.w3.org/1999/02/22-rdf-syntax-ns#"
   xmlns:svg="http://www.w3.org/2000/svg"
   xmlns="http://www.w3.org/2000/svg"
   xmlns:sodipodi="http://sodipodi.sourceforge.net/DTD/sodipodi-0.dtd"
   xmlns:inkscape="http://www.inkscape.org/namespaces/inkscape"
   version="1.0"
   width="100"
   height="100"
   id="svg2"
   inkscape:version="1.0.1 (3bc2e813f5, 2020-09-07)"
   sodipodi:docname="analysis.svg">
  <sodipodi:namedview
     pagecolor="#ffffff"
     bordercolor="#666666"
     borderopacity="1"
     objecttolerance="10"
     gridtolerance="10"
     guidetolerance="10"
     inkscape:pageopacity="0"
     inkscape:pageshadow="2"
     inkscape:window-width="2108"
     inkscape:window-height="1205"
     id="namedview3048"
     showgrid="false"
     inkscape:zoom="4"
     inkscape:cx="-5.793877"
     inkscape:cy="73.352187"
     inkscape:window-x="253"
     inkscape:window-y="153"
     inkscape:window-maximized="0"
     inkscape:current-layer="svg2"
     inkscape:document-rotation="0" />
  <metadata
     id="metadata3050">
    <rdf:RDF>
      <cc:Work
         rdf:about="">
        <dc:format>image/svg+xml</dc:format>
        <dc:type
           rdf:resource="http://purl.org/dc/dcmitype/StillImage" />
      </cc:Work>
    </rdf:RDF>
  </metadata>
  <defs
     id="defs4" />
  <path
     inkscape:connector-curvature="0"
     d="m 64.583332,29.166668 q 0,0.846355 -0.618488,1.464843 Q 63.346355,31.25 62.5,31.25 q -0.846356,0 -1.464845,-0.618489 -0.618489,-0.618488 -0.618489,-1.464843 0,-2.99479 -3.515622,-4.622402 Q 53.385421,22.916668 50,22.916668 q -0.846356,0 -1.464844,-0.618489 -0.61849,-0.618489 -0.61849,-1.464845 0,-0.846356 0.618489,-1.464844 Q 49.153644,18.75 50,18.75 q 3.255211,0 6.477866,1.041668 3.222655,1.041666 5.664055,3.515621 2.441411,2.473955 2.441411,5.859379 z m 10.416668,0 q 0,-4.6875 -2.246088,-8.723958 -2.2461,-4.036466 -5.859378,-6.608077 Q 63.281256,11.263021 58.886721,9.7981782 54.49219,8.3333342 50,8.3333342 q -4.492188,0 -8.886723,1.464845 -4.394521,1.4648438 -8.007811,4.0364548 -3.613277,2.571611 -5.859377,6.608077 Q 25,24.479168 25,29.166668 q 0,6.575522 4.427089,11.718742 0.651032,0.716156 1.985666,2.148445 1.334645,1.432289 1.985677,2.148434 8.333334,9.960945 9.179689,19.401045 h 14.843756 q 0.846355,-9.4401 9.179689,-19.401044 0.651034,-0.716145 1.985678,-2.148434 1.334633,-1.432288 1.985677,-2.148445 Q 75,35.74219 75,29.166668 Z m 8.333334,0 q 0,10.091143 -6.705733,17.44791 -2.929679,3.190112 -4.850257,5.664066 -1.920578,2.473957 -3.8737,6.217446 -1.953122,3.743488 -2.213543,6.998699 Q 68.75,67.31771 68.75,70.833334 68.75,73.242189 67.122401,75 68.75,76.757811 68.75,79.166666 q 0,3.385412 -2.929688,5.273434 0.846354,1.4974 0.846354,3.0599 0,2.99479 -2.050777,4.6224 Q 62.5651,93.75 59.570311,93.75 58.268232,96.61458 55.664066,98.30729 53.0599,100 50,100 46.9401,100 44.335932,98.30729 41.731766,96.61458 40.429689,93.75 37.4349,93.75 35.384111,92.1224 33.333332,90.49479 33.333332,87.5 q 0,-1.5625 0.846357,-3.059899 Q 31.25,82.552078 31.25,79.166666 31.25,76.757811 32.8776,75 31.25,73.242189 31.25,70.833334 q 0,-3.515624 3.0599,-5.338545 -0.260423,-3.255211 -2.213545,-6.998699 -1.953123,-3.743489 -3.8737,-6.217446 -1.920566,-2.473954 -4.850255,-5.664066 -6.705734,-7.356767 -6.705734,-17.44791 0,-6.445313 2.897134,-12.011723 2.897132,-5.5664 7.617189,-9.2447888 4.720055,-3.678388 10.677088,-5.794266 Q 43.8151,-2e-7 50,-2e-7 q 6.1849,0 12.141921,2.1158904 5.957034,2.115878 10.67709,5.794266 4.720055,3.6783878 7.617189,9.2447888 2.897132,5.56641 2.897134,12.011723 z"
     id="path8739"
     style="stroke-width:1" />
</svg>
