<?xml version="1.0" encoding="UTF-8" standalone="no"?>
<svg
   xmlns:dc="http://purl.org/dc/elements/1.1/"
   xmlns:cc="http://creativecommons.org/ns#"
   xmlns:rdf="http://www.w3.org/1999/02/22-rdf-syntax-ns#"
   xmlns:svg="http://www.w3.org/2000/svg"
   xmlns="http://www.w3.org/2000/svg"
   xmlns:sodipodi="http://sodipodi.sourceforge.net/DTD/sodipodi-0.dtd"
   xmlns:inkscape="http://www.inkscape.org/namespaces/inkscape"
   viewBox="0 0 100 100"
   version="1.1"
   id="svg4"
   sodipodi:docname="viewer_link.svg"
   width="100"
   height="100"
   inkscape:version="0.92.2 5c3e80d, 2017-08-06">
  <metadata
     id="metadata10">
    <rdf:RDF>
      <cc:Work
         rdf:about="">
        <dc:format>image/svg+xml</dc:format>
        <dc:type
           rdf:resource="http://purl.org/dc/dcmitype/StillImage" />
        <dc:title></dc:title>
      </cc:Work>
    </rdf:RDF>
  </metadata>
  <defs
     id="defs8" />
  <sodipodi:namedview
     pagecolor="#ffffff"
     bordercolor="#666666"
     borderopacity="1"
     objecttolerance="10"
     gridtolerance="10"
     guidetolerance="10"
     inkscape:pageopacity="0"
     inkscape:pageshadow="2"
     inkscape:window-width="1920"
     inkscape:window-height="1030"
     id="namedview6"
     showgrid="false"
     inkscape:zoom="7.375"
     inkscape:cx="106.7071"
     inkscape:cy="74.069484"
     inkscape:window-x="0"
     inkscape:window-y="0"
     inkscape:window-maximized="1"
     inkscape:current-layer="svg4" />
  <path
     d="m 61.033216,38.967342 c 9.335471,9.345158 9.207346,24.327818 0.05625,33.529696 -0.01719,0.01875 -0.0375,0.03906 -0.05625,0.05781 L 50.533214,83.054853 c -9.26094,9.260936 -24.327975,9.259686 -33.587509,0 -9.2609403,-9.259377 -9.2609403,-24.328131 0,-33.587509 l 5.797814,-5.797814 c 1.5375,-1.5375 4.185313,-0.515625 4.264688,1.657188 0.101251,2.769064 0.597813,5.551095 1.514063,8.237659 0.310313,0.909687 0.08859,1.915938 -0.591094,2.595625 l -2.044844,2.044845 c -4.379063,4.379063 -4.516407,11.509378 -0.180469,15.931254 4.378752,4.46547 11.575941,4.492032 15.988286,0.07969 l 10.500002,-10.49844 c 4.404845,-4.404845 4.386408,-11.524534 0,-15.910942 C 51.61587,47.229219 51.03337,46.780781 50.57837,46.4675 a 2.5057819,2.5057819 0 0 1 -1.085469,-1.969688 c -0.06188,-1.651094 0.523125,-3.352501 1.827813,-4.657189 l 3.289688,-3.289844 c 0.862657,-0.862657 2.215938,-0.968594 3.216251,-0.270469 a 23.825319,23.825319 0 0 1 3.206563,2.687032 z m 22.0211,-22.022193 c -9.259534,-9.2596895 -24.326569,-9.2609395 -33.587509,0 L 38.966804,27.445151 c -0.01875,0.01875 -0.03906,0.03906 -0.05625,0.05781 -9.15094,9.201877 -9.279221,24.184537 0.05625,33.529696 a 23.820944,23.820944 0 0 0 3.206407,2.686876 c 1.000313,0.698126 2.353751,0.592032 3.216251,-0.270469 l 3.289689,-3.289845 c 1.304687,-1.304688 1.889688,-3.006094 1.827812,-4.657189 a 2.5057819,2.5057819 0 0 0 -1.085469,-1.969688 c -0.455,-0.313281 -1.0375,-0.761719 -1.615781,-1.338906 -4.386408,-4.386408 -4.404845,-11.506097 0,-15.910942 l 10.500002,-10.49844 c 4.412345,-4.412345 11.609378,-4.385782 15.988286,0.07969 4.335938,4.421876 4.198751,11.55219 -0.180469,15.931254 l -2.044844,2.044844 c -0.679688,0.679688 -0.901407,1.685938 -0.591094,2.595626 0.91625,2.686563 1.412813,5.468595 1.514063,8.237658 0.07953,2.172813 2.727188,3.194688 4.264688,1.657188 L 83.054159,50.5325 c 9.261096,-9.259221 9.261096,-24.327974 1.57e-4,-33.587351 z"
     id="path2"
     inkscape:connector-curvature="0"
     style="stroke-width:1;fill:#310049;fill-opacity:1" />
</svg>
