<?xml version="1.0" encoding="UTF-8" standalone="no"?>
<svg
   xmlns:dc="http://purl.org/dc/elements/1.1/"
   xmlns:cc="http://creativecommons.org/ns#"
   xmlns:rdf="http://www.w3.org/1999/02/22-rdf-syntax-ns#"
   xmlns:svg="http://www.w3.org/2000/svg"
   xmlns="http://www.w3.org/2000/svg"
   xmlns:sodipodi="http://sodipodi.sourceforge.net/DTD/sodipodi-0.dtd"
   xmlns:inkscape="http://www.inkscape.org/namespaces/inkscape"
   viewBox="0 0 100 100"
   version="1.1"
   id="svg4"
   sodipodi:docname="link.svg"
   width="100"
   height="100"
   inkscape:version="1.0.1 (3bc2e813f5, 2020-09-07)">
  <metadata
     id="metadata10">
    <rdf:RDF>
      <cc:Work
         rdf:about="">
        <dc:format>image/svg+xml</dc:format>
        <dc:type
           rdf:resource="http://purl.org/dc/dcmitype/StillImage" />
        <dc:title />
      </cc:Work>
    </rdf:RDF>
  </metadata>
  <defs
     id="defs8" />
  <sodipodi:namedview
     pagecolor="#ffffff"
     bordercolor="#666666"
     borderopacity="1"
     objecttolerance="10"
     gridtolerance="10"
     guidetolerance="10"
     inkscape:pageopacity="0"
     inkscape:pageshadow="2"
     inkscape:window-width="3840"
     inkscape:window-height="1531"
     id="namedview6"
     showgrid="false"
     inkscape:zoom="7.375"
     inkscape:cx="106.7071"
     inkscape:cy="74.069484"
     inkscape:window-x="0"
     inkscape:window-y="32"
     inkscape:window-maximized="1"
     inkscape:current-layer="svg4"
     inkscape:document-rotation="0" />
  <path
     d="m 63.791519,36.209176 c 11.669339,11.681448 11.509183,30.409773 0.07031,41.91212 -0.02149,0.02344 -0.04687,0.04882 -0.07031,0.07226 L 50.666517,91.318567 c -11.576175,11.576173 -30.409969,11.574613 -41.9843872,0 -11.5761749,-11.574223 -11.5761749,-30.410166 0,-41.984388 l 7.2472682,-7.247268 c 1.921875,-1.921875 5.231641,-0.644531 5.33086,2.071485 0.126564,3.46133 0.747266,6.938869 1.892579,10.297074 0.387891,1.137109 0.110737,2.394923 -0.738868,3.244531 l -2.556055,2.556057 c -5.473829,5.473828 -5.645509,14.386722 -0.225586,19.914067 5.47344,5.581838 14.469926,5.61504 19.985357,0.09961 l 13.125003,-13.12305 c 5.506056,-5.506057 5.48301,-14.405668 0,-19.888678 -0.722851,-0.721487 -1.450976,-1.282035 -2.019726,-1.673636 a 3.1322274,3.1322274 0 0 1 -1.356837,-2.46211 c -0.07735,-2.063868 0.653907,-4.190626 2.284767,-5.821486 l 4.11211,-4.112305 c 1.078321,-1.078322 2.769922,-1.210743 4.020313,-0.338087 a 29.781649,29.781649 0 0 1 4.008204,3.35879 z M 91.317899,8.6814351 c -11.574422,-11.5746117 -30.408216,-11.5761742 -41.984391,0 L 36.208504,21.806438 c -0.02344,0.02344 -0.04883,0.04883 -0.07031,0.07226 -11.438675,11.502346 -11.599027,30.230671 0.07031,41.91212 a 29.77618,29.77618 0 0 0 4.008009,3.358595 c 1.250391,0.872658 2.942189,0.74004 4.020314,-0.338086 l 4.112111,-4.112306 c 1.630859,-1.63086 2.36211,-3.757618 2.284765,-5.821487 a 3.1322274,3.1322274 0 0 0 -1.356836,-2.46211 c -0.56875,-0.391601 -1.296875,-0.952148 -2.019727,-1.673632 -5.48301,-5.48301 -5.506056,-14.382621 0,-19.888678 l 13.125003,-13.12305 c 5.515431,-5.515431 14.511722,-5.482227 19.985357,0.09961 5.419923,5.527345 5.248439,14.440237 -0.225586,19.914067 l -2.556055,2.556055 c -0.84961,0.84961 -1.126759,2.107423 -0.738867,3.244533 1.145312,3.358204 1.766016,6.835744 1.892578,10.297072 0.09941,2.716017 3.408985,3.99336 5.33086,2.071485 l 7.247269,-7.247267 c 11.576371,-11.574026 11.576371,-30.409968 2e-4,-41.9841889 z"
     id="path2"
     inkscape:connector-curvature="0"
     style="fill:#310049;fill-opacity:1;stroke-width:1" />
</svg>
