<?xml version="1.0" encoding="UTF-8" standalone="no"?>
<svg
   xmlns:dc="http://purl.org/dc/elements/1.1/"
   xmlns:cc="http://creativecommons.org/ns#"
   xmlns:rdf="http://www.w3.org/1999/02/22-rdf-syntax-ns#"
   xmlns:svg="http://www.w3.org/2000/svg"
   xmlns="http://www.w3.org/2000/svg"
   xmlns:sodipodi="http://sodipodi.sourceforge.net/DTD/sodipodi-0.dtd"
   xmlns:inkscape="http://www.inkscape.org/namespaces/inkscape"
   viewBox="0 0 100 100"
   version="1.1"
   id="svg4"
   sodipodi:docname="tabs_messages.svg"
   inkscape:version="0.92.2 5c3e80d, 2017-08-06"
   width="100"
   height="100">
  <metadata
     id="metadata10">
    <rdf:RDF>
      <cc:Work
         rdf:about="">
        <dc:format>image/svg+xml</dc:format>
        <dc:type
           rdf:resource="http://purl.org/dc/dcmitype/StillImage" />
        <dc:title />
      </cc:Work>
    </rdf:RDF>
  </metadata>
  <defs
     id="defs8" />
  <sodipodi:namedview
     pagecolor="#ffffff"
     bordercolor="#666666"
     borderopacity="1"
     objecttolerance="10"
     gridtolerance="10"
     guidetolerance="10"
     inkscape:pageopacity="0"
     inkscape:pageshadow="2"
     inkscape:window-width="1920"
     inkscape:window-height="1016"
     id="namedview6"
     showgrid="false"
     inkscape:zoom="6.925"
     inkscape:cx="27.685905"
     inkscape:cy="56.004251"
     inkscape:window-x="0"
     inkscape:window-y="27"
     inkscape:window-maximized="1"
     inkscape:current-layer="svg4"
     showguides="true"
     inkscape:guide-bbox="true">
    <sodipodi:guide
       position="-231.99229,601.21946"
       orientation="0,1"
       id="guide891"
       inkscape:locked="false" />
  </sodipodi:namedview>
  <g
     id="g843"
     transform="matrix(1.25,0,0,1.25,-12.5,-11.146208)"
     style="stroke-width:0.80000001">
    <g
       style="stroke-width:0.7562114"
       transform="matrix(1,0,0,1.1191634,0,-1.8696182)"
       id="g837">
      <path
         inkscape:connector-curvature="0"
         d="m 86,72.404582 v -47 c 0,-2.7575 -2.2425,-5 -5,-5 H 19 c -2.7575,0 -5,2.2425 -5,5 v 47 z"
         id="path2-3"
         style="fill:#ffffeb;fill-opacity:1;stroke-width:0.7562114"
         sodipodi:nodetypes="csssscc" />
      <path
         inkscape:connector-curvature="0"
         style="fill:#310049;fill-opacity:1;stroke-width:0.7562114"
         d="m 22,23.689531 h 56 v 44 h 8 v -47 c 0,-2.7575 -2.2425,-5 -5,-5 H 19 c -2.7575,0 -5,2.2425 -5,5 v 47 h 8 z"
         id="path819" />
      <path
         style="fill:#310049;fill-opacity:1;stroke-width:0.7562114"
         d="m 88,67.068592 c -25.765057,0 -53.491168,0 -76,0 -1.105,0 -2,0.895 -2,2 v 4 c 0,1.105 0.895,2 2,2 h 76 c 1.105,0 2,-0.895 2,-2 v -4 c 0,-1.105 -0.895,-2 -2,-2 z"
         id="path2"
         inkscape:connector-curvature="0"
         sodipodi:nodetypes="ccssssssc" />
    </g>
  </g>
  <g
     id="g4788"
     transform="translate(0,-0.86642599)">
    <path
       inkscape:connector-curvature="0"
       id="path4773"
       d="m 23.971119,31.696751 c 42.454874,0 42.599278,0 42.599278,0"
       style="fill:none;fill-rule:evenodd;stroke:#310049;stroke-width:2.5;stroke-linecap:butt;stroke-linejoin:miter;stroke-miterlimit:4;stroke-dasharray:none;stroke-opacity:1" />
    <path
       inkscape:connector-curvature="0"
       id="path4775"
       d="m 23.971119,41.083039 c 36.245488,0 36.101083,0 36.101083,0"
       style="fill:none;fill-rule:evenodd;stroke:#310049;stroke-width:2.5;stroke-linecap:butt;stroke-linejoin:miter;stroke-miterlimit:4;stroke-dasharray:none;stroke-opacity:1" />
    <path
       inkscape:connector-curvature="0"
       id="path4777"
       d="m 23.971119,50.469316 c 12.274368,0 12.274368,0 12.274368,0"
       style="fill:none;fill-rule:evenodd;stroke:#310049;stroke-width:2.5;stroke-linecap:butt;stroke-linejoin:miter;stroke-miterlimit:4;stroke-dasharray:none;stroke-opacity:1" />
    <path
       inkscape:connector-curvature="0"
       id="path4779"
       d="m 23.971119,59.8556 c 52.129964,0 51.985559,0 51.985559,0"
       style="fill:none;fill-rule:evenodd;stroke:#310049;stroke-width:2.5;stroke-linecap:butt;stroke-linejoin:miter;stroke-miterlimit:4;stroke-dasharray:none;stroke-opacity:1" />
    <path
       inkscape:connector-curvature="0"
       id="path4781"
       d="m 23.971119,69.241877 c 26.570398,0 26.570398,0 26.570398,0"
       style="fill:none;fill-rule:evenodd;stroke:#310049;stroke-width:2.5;stroke-linecap:butt;stroke-linejoin:miter;stroke-miterlimit:4;stroke-dasharray:none;stroke-opacity:1" />
  </g>
</svg>
