<?xml version="1.0" encoding="UTF-8" standalone="no"?>
<svg
   xmlns:dc="http://purl.org/dc/elements/1.1/"
   xmlns:cc="http://creativecommons.org/ns#"
   xmlns:rdf="http://www.w3.org/1999/02/22-rdf-syntax-ns#"
   xmlns:svg="http://www.w3.org/2000/svg"
   xmlns="http://www.w3.org/2000/svg"
   xmlns:sodipodi="http://sodipodi.sourceforge.net/DTD/sodipodi-0.dtd"
   xmlns:inkscape="http://www.inkscape.org/namespaces/inkscape"
   viewBox="0 0 100 100"
   version="1.1"
   id="svg4"
   sodipodi:docname="modules_checks.svg"
   width="100"
   height="100"
   inkscape:version="0.92.2 5c3e80d, 2017-08-06">
  <metadata
     id="metadata10">
    <rdf:RDF>
      <cc:Work
         rdf:about="">
        <dc:format>image/svg+xml</dc:format>
        <dc:type
           rdf:resource="http://purl.org/dc/dcmitype/StillImage" />
        <dc:title></dc:title>
      </cc:Work>
    </rdf:RDF>
  </metadata>
  <defs
     id="defs8" />
  <sodipodi:namedview
     pagecolor="#ffffff"
     bordercolor="#666666"
     borderopacity="1"
     objecttolerance="10"
     gridtolerance="10"
     guidetolerance="10"
     inkscape:pageopacity="0"
     inkscape:pageshadow="2"
     inkscape:window-width="1920"
     inkscape:window-height="983"
     id="namedview6"
     showgrid="false"
     inkscape:zoom="5.2149125"
     inkscape:cx="37.594146"
     inkscape:cy="52.324358"
     inkscape:window-x="0"
     inkscape:window-y="27"
     inkscape:window-maximized="1"
     inkscape:current-layer="svg4" />
  <path
     d="M 50,10.000001 C 27.908548,10.000001 10,27.908549 10,50 10,72.091451 27.908548,89.999999 50,89.999999 72.091452,89.999999 90,72.091451 90,50 90,27.908549 72.091452,10.000001 50,10.000001 Z m 0,7.741935 c 17.827742,0 32.258063,14.42758 32.258063,32.258064 0,17.827742 -14.42758,32.258064 -32.258064,32.258064 -17.827741,0 -32.258064,-14.42758 -32.258064,-32.258064 0,-17.827742 14.427581,-32.258064 32.258064,-32.258064 m 22.613548,21.010806 -3.634838,-3.664193 c -0.752742,-0.758871 -1.978226,-0.763871 -2.737097,-0.01097 L 43.442903,57.693064 33.799032,47.970968 c -0.752742,-0.758871 -1.978226,-0.763871 -2.737097,-0.01113 l -3.664355,3.634838 c -0.758871,0.752742 -0.76387,1.978226 -0.01097,2.737258 L 42.028709,69.09258 c 0.752742,0.758871 1.978226,0.763871 2.737097,0.01097 L 72.602741,41.49 c 0.75871,-0.752903 0.763548,-1.978387 0.01081,-2.737258 z"
     id="path2"
     inkscape:connector-curvature="0"
     style="stroke-width:0.99999994" />
</svg>
