<?xml version="1.0" encoding="UTF-8" standalone="no"?>
<svg
   xmlns:dc="http://purl.org/dc/elements/1.1/"
   xmlns:cc="http://creativecommons.org/ns#"
   xmlns:rdf="http://www.w3.org/1999/02/22-rdf-syntax-ns#"
   xmlns:svg="http://www.w3.org/2000/svg"
   xmlns="http://www.w3.org/2000/svg"
   xmlns:sodipodi="http://sodipodi.sourceforge.net/DTD/sodipodi-0.dtd"
   xmlns:inkscape="http://www.inkscape.org/namespaces/inkscape"
   viewBox="0 0 100 100"
   version="1.1"
   id="svg4"
   sodipodi:docname="modules_export.svg"
   width="100"
   height="100"
   inkscape:version="0.92.2 5c3e80d, 2017-08-06">
  <metadata
     id="metadata10">
    <rdf:RDF>
      <cc:Work
         rdf:about="">
        <dc:format>image/svg+xml</dc:format>
        <dc:type
           rdf:resource="http://purl.org/dc/dcmitype/StillImage" />
        <dc:title />
      </cc:Work>
    </rdf:RDF>
  </metadata>
  <defs
     id="defs8" />
  <sodipodi:namedview
     pagecolor="#ffffff"
     bordercolor="#666666"
     borderopacity="1"
     objecttolerance="10"
     gridtolerance="10"
     guidetolerance="10"
     inkscape:pageopacity="0"
     inkscape:pageshadow="2"
     inkscape:window-width="1920"
     inkscape:window-height="983"
     id="namedview6"
     showgrid="false"
     inkscape:zoom="5.2149125"
     inkscape:cx="46.30045"
     inkscape:cy="68.839751"
     inkscape:window-x="0"
     inkscape:window-y="27"
     inkscape:window-maximized="1"
     inkscape:current-layer="svg4" />
  <g
     id="g1421">
    <path
       inkscape:connector-curvature="0"
       id="path2-3"
       d="m 13.615559,9.908208 c -2.078125,0 -3.75,1.67188 -3.75,3.75 v 72.5 c 0,2.07813 1.671875,3.75 3.75,3.75 h 17.5 c 2.078125,0 3.75,-1.67187 3.75,-3.75 V 63.236333 l -0.113281,-0.113281 h -5.082032 c -2.748314,0 -4.960937,-2.21263 -4.960937,-4.960938 V 41.632817 c 0,-2.748322 2.212624,-4.960937 4.960937,-4.960937 h 5.103516 l 0.0918,-0.0918 V 13.658208 c 0,-2.07812 -1.671875,-3.75 -3.75,-3.75 z"
       style="fill:#000000;fill-opacity:1;stroke-width:1" />
    <path
       inkscape:connector-curvature="0"
       id="path1386"
       d="m 29.860387,56.25 v -12.5 c 0,-2.07813 1.671875,-3.75 3.75,-3.75 h 26.25 V 26.29687 c 0,-2.78125 3.359375,-4.17187 5.328125,-2.20312 l 23.78125,23.76562 c 1.171875,1.17188 1.171875,3.09375 0,4.26563 L 65.188512,75.92187 C 63.219762,77.89062 59.860387,76.5 59.860387,73.71875 V 60 h -26.25 c -2.078125,0 -3.75,-1.67188 -3.75,-3.75 z"
       style="fill:#000000;fill-opacity:1;stroke-width:1" />
  </g>
</svg>
