<?xml version="1.0" encoding="UTF-8" standalone="no"?>
<svg
   xmlns:dc="http://purl.org/dc/elements/1.1/"
   xmlns:cc="http://creativecommons.org/ns#"
   xmlns:rdf="http://www.w3.org/1999/02/22-rdf-syntax-ns#"
   xmlns:svg="http://www.w3.org/2000/svg"
   xmlns="http://www.w3.org/2000/svg"
   xmlns:sodipodi="http://sodipodi.sourceforge.net/DTD/sodipodi-0.dtd"
   xmlns:inkscape="http://www.inkscape.org/namespaces/inkscape"
   viewBox="0 0 100 100"
   version="1.1"
   id="svg4"
   sodipodi:docname="modules_calculateaxisangle.svg"
   width="100"
   height="100"
   inkscape:version="1.0.1 (3bc2e813f5, 2020-09-07)">
  <metadata
     id="metadata10">
    <rdf:RDF>
      <cc:Work
         rdf:about="">
        <dc:format>image/svg+xml</dc:format>
        <dc:type
           rdf:resource="http://purl.org/dc/dcmitype/StillImage" />
        <dc:title />
      </cc:Work>
    </rdf:RDF>
  </metadata>
  <defs
     id="defs8">
    <marker
       style="overflow:visible"
       id="marker1380"
       refX="0.0"
       refY="0.0"
       orient="auto"
       inkscape:stockid="Arrow1Sstart"
       inkscape:isstock="true">
      <path
         transform="scale(0.2) translate(6,0)"
         style="fill-rule:evenodd;stroke:#000000;stroke-width:1pt;stroke-opacity:1;fill:#ffffff;fill-opacity:1"
         d="M 0.0,0.0 L 5.0,-5.0 L -12.5,0.0 L 5.0,5.0 L 0.0,0.0 z "
         id="path1378" />
    </marker>
    <marker
       style="overflow:visible"
       id="marker1169"
       refX="0.0"
       refY="0.0"
       orient="auto"
       inkscape:stockid="Arrow1Sstart"
       inkscape:isstock="true">
      <path
         transform="scale(0.2) translate(6,0)"
         style="fill-rule:evenodd;stroke:#000000;stroke-width:1pt;stroke-opacity:1;fill:#000000;fill-opacity:1"
         d="M 0.0,0.0 L 5.0,-5.0 L -12.5,0.0 L 5.0,5.0 L 0.0,0.0 z "
         id="path918" />
    </marker>
    <marker
       style="overflow:visible;"
       id="marker1214"
       refX="0.0"
       refY="0.0"
       orient="auto"
       inkscape:stockid="Arrow1Send"
       inkscape:isstock="true">
      <path
         transform="scale(0.2) rotate(180) translate(6,0)"
         style="fill-rule:evenodd;stroke:#000000;stroke-width:1pt;stroke-opacity:1;fill:#ffffff;fill-opacity:1"
         d="M 0.0,0.0 L 5.0,-5.0 L -12.5,0.0 L 5.0,5.0 L 0.0,0.0 z "
         id="path1212" />
    </marker>
    <marker
       style="overflow:visible;"
       id="Arrow1Send"
       refX="0.0"
       refY="0.0"
       orient="auto"
       inkscape:stockid="Arrow1Send"
       inkscape:isstock="true">
      <path
         transform="scale(0.2) rotate(180) translate(6,0)"
         style="fill-rule:evenodd;stroke:#000000;stroke-width:1pt;stroke-opacity:1;fill:#ffffff;fill-opacity:1"
         d="M 0.0,0.0 L 5.0,-5.0 L -12.5,0.0 L 5.0,5.0 L 0.0,0.0 z "
         id="path875" />
    </marker>
    <marker
       style="overflow:visible"
       id="Arrow1Sstart"
       refX="0.0"
       refY="0.0"
       orient="auto"
       inkscape:stockid="Arrow1Sstart"
       inkscape:isstock="true"
       inkscape:collect="always">
      <path
         transform="scale(0.2) translate(6,0)"
         style="fill-rule:evenodd;stroke:#000000;stroke-width:1pt;stroke-opacity:1;fill:#ffffff;fill-opacity:1"
         d="M 0.0,0.0 L 5.0,-5.0 L -12.5,0.0 L 5.0,5.0 L 0.0,0.0 z "
         id="path872" />
    </marker>
    <marker
       style="overflow:visible"
       id="Arrow1Mstart"
       refX="0.0"
       refY="0.0"
       orient="auto"
       inkscape:stockid="Arrow1Mstart"
       inkscape:isstock="true">
      <path
         transform="scale(0.4) translate(10,0)"
         style="fill-rule:evenodd;stroke:#000000;stroke-width:1pt;stroke-opacity:1;fill:#ffffff;fill-opacity:1"
         d="M 0.0,0.0 L 5.0,-5.0 L -12.5,0.0 L 5.0,5.0 L 0.0,0.0 z "
         id="path866" />
    </marker>
    <marker
       style="overflow:visible"
       id="Arrow1Sstart-6"
       refX="0"
       refY="0"
       orient="auto"
       inkscape:stockid="Arrow1Sstart"
       inkscape:isstock="true">
      <path
         transform="matrix(0.2,0,0,0.2,1.2,0)"
         style="fill:#ffffff;fill-opacity:1;fill-rule:evenodd;stroke:#000000;stroke-width:1pt;stroke-opacity:1"
         d="M 0,0 5,-5 -12.5,0 5,5 Z"
         id="path872-7" />
    </marker>
  </defs>
  <sodipodi:namedview
     pagecolor="#ffffff"
     bordercolor="#666666"
     borderopacity="1"
     objecttolerance="10"
     gridtolerance="10"
     guidetolerance="10"
     inkscape:pageopacity="0"
     inkscape:pageshadow="2"
     inkscape:window-width="1920"
     inkscape:window-height="1016"
     id="namedview6"
     showgrid="false"
     inkscape:zoom="5.4942197"
     inkscape:cx="39.188263"
     inkscape:cy="57.783421"
     inkscape:window-x="0"
     inkscape:window-y="27"
     inkscape:window-maximized="1"
     inkscape:current-layer="svg4"
     inkscape:document-rotation="0"
     inkscape:snap-intersection-paths="false"
     inkscape:object-paths="false"
     inkscape:snap-smooth-nodes="true" />
  <g
     id="g1662"
     transform="matrix(1.5224917,0,0,1.5224917,221.09697,12.713465)">
    <rect
       style="opacity:0.620722;fill:#003500;fill-opacity:1;stroke:#000000;stroke-width:2.19219;stroke-miterlimit:4;stroke-dasharray:none;stroke-dashoffset:0;stroke-opacity:1"
       id="rect869-3"
       width="33.122601"
       height="19.203993"
       x="-124.25014"
       y="1.7352216"
       ry="0.81593019"
       transform="matrix(0.99808606,0.06184027,0.50172135,0.8650293,0,0)"
       inkscape:transform-center-x="-4.7129303"
       inkscape:transform-center-y="-9.2982398" />
    <path
       style="fill:none;stroke:#000000;stroke-width:2.5;stroke-linecap:butt;stroke-linejoin:miter;stroke-miterlimit:4;stroke-dasharray:2.5, 2.5;stroke-dashoffset:0;stroke-opacity:1;marker-start:url(#Arrow1Sstart)"
       d="m -106.2099,29.278304 c 4.85484,-25.7539337 4.85484,-25.7539337 4.85484,-25.7539337"
       id="path892" />
    <path
       style="fill:none;stroke:#000000;stroke-width:1;stroke-linecap:butt;stroke-linejoin:miter;stroke-miterlimit:4;stroke-dasharray:none;stroke-dashoffset:0;stroke-opacity:1"
       d="m -105.51774,-4.7410646 4.16268,8.2654349"
       id="path1590"
       sodipodi:nodetypes="cc" />
    <path
       style="fill:none;stroke:#000000;stroke-width:1;stroke-linecap:butt;stroke-linejoin:miter;stroke-miterlimit:4;stroke-dasharray:none;stroke-dashoffset:0;stroke-opacity:1"
       d="M -101.35506,3.5243703 -118.53951,2.4596418"
       id="path1590-5"
       sodipodi:nodetypes="cc" />
  </g>
  <g
     id="g1686"
     transform="matrix(1.5224917,0,0,1.5224917,262.91677,79.069588)">
    <path
       style="fill:none;stroke:#000000;stroke-width:2.5;stroke-linecap:butt;stroke-linejoin:miter;stroke-miterlimit:4;stroke-dasharray:2.5, 2.5;stroke-dashoffset:0;stroke-opacity:1;marker-start:url(#marker1380)"
       d="m -135.38793,-7.1841818 c -18.19243,4.906215 -18.19243,4.906215 -18.19243,4.906215"
       id="path892-5" />
    <path
       id="rect869-6"
       style="opacity:0.625;fill:#360000;fill-opacity:1;stroke:#000000;stroke-width:2.08982;stroke-miterlimit:4;stroke-dasharray:none;stroke-dashoffset:0;stroke-opacity:1"
       transform="matrix(0.99310929,0.1171919,0.29132389,0.95662448,0,0)"
       d="m -172.47189,3.3066018 h 12.78589 12.78589 c 0.65316,0 1.17899,0.5258309 1.17899,1.1789932 v 12.695586 12.695586 c 0,0.653163 -0.52583,1.178994 -1.17899,1.178994 h -12.78589 -12.78589 c -0.65316,0 -1.17899,-0.525831 -1.17899,-1.178994 V 17.181181 4.485595 c 0,-0.6531623 0.52583,-1.1789932 1.17899,-1.1789932 z"
       sodipodi:nodetypes="scsscsscsscss" />
    <path
       style="fill:none;stroke:#000000;stroke-width:1;stroke-linecap:butt;stroke-linejoin:miter;stroke-miterlimit:4;stroke-dasharray:none;stroke-opacity:1"
       d="m -153.58036,-2.2779668 13.52518,0.5087161"
       id="path1623"
       sodipodi:nodetypes="cc" />
    <path
       style="fill:none;stroke:#000000;stroke-width:1;stroke-linecap:butt;stroke-linejoin:miter;stroke-miterlimit:4;stroke-dasharray:none;stroke-opacity:1"
       d="m -149.53836,10.994795 -4.042,-13.2727618"
       id="path1623-2"
       sodipodi:nodetypes="cc" />
  </g>
  <g
     id="g954"
     transform="matrix(1.1427966,0,0,1.1427966,2.9462097,-3.3875138)"
     style="opacity:0.8">
    <path
       d="M 29.317386,4.4642316 H 2.5693849 c -1.94530905,0 -3.647455,1.702146 -3.647455,3.647455 V 39.722957 c 0,1.94531 1.70214595,3.64746 3.647455,3.64746 H 29.317386 c 1.945309,0 3.647455,-1.70215 3.647455,-3.64746 V 8.1116866 c 0,-1.945309 -1.702146,-3.647455 -3.647455,-3.647455 z"
       id="path2-3"
       style="fill:#ffffff;fill-opacity:1;stroke:#ffffff;stroke-width:3;stroke-miterlimit:4;stroke-dasharray:none;stroke-opacity:1"
       inkscape:connector-curvature="0"
       sodipodi:nodetypes="sssssssss" />
    <path
       d="M 29.317386,4.4642322 H 2.5693848 c -1.945309,0 -3.647455,1.702146 -3.647455,3.647455 V 39.722961 c 0,1.945309 1.702146,3.647455 3.647455,3.647455 H 29.317386 c 1.945309,0 3.647455,-1.702146 3.647455,-3.647455 V 8.1116872 c 0,-1.945309 -1.702146,-3.647455 -3.647455,-3.647455 z M 8.6484758,37.534488 c 0,0.486328 -0.486327,0.972655 -0.972655,0.972655 h -2.917963 c -0.486328,0 -0.972655,-0.486327 -0.972655,-0.972655 v -2.917964 c 0,-0.486327 0.486327,-0.972654 0.972655,-0.972654 h 2.917963 c 0.486328,0 0.972655,0.486327 0.972655,0.972654 z m 0,-9.726546 c 0,0.486328 -0.486327,0.972655 -0.972655,0.972655 h -2.917963 c -0.486328,0 -0.972655,-0.486327 -0.972655,-0.972655 v -2.917964 c 0,-0.486327 0.486327,-0.972654 0.972655,-0.972654 h 2.917963 c 0.486328,0 0.972655,0.486327 0.972655,0.972654 z m 9.7265462,9.726546 c 0,0.486328 -0.486327,0.972655 -0.972655,0.972655 h -2.917963 c -0.486328,0 -0.972655,-0.486327 -0.972655,-0.972655 v -2.917964 c 0,-0.486327 0.486327,-0.972654 0.972655,-0.972654 h 2.917963 c 0.486328,0 0.972655,0.486327 0.972655,0.972654 z m 0,-9.726546 c 0,0.486328 -0.486327,0.972655 -0.972655,0.972655 h -2.917963 c -0.486328,0 -0.972655,-0.486327 -0.972655,-0.972655 v -2.917964 c 0,-0.486327 0.486327,-0.972654 0.972655,-0.972654 h 2.917963 c 0.486328,0 0.972655,0.486327 0.972655,0.972654 z m 9.726546,9.726546 c 0,0.486328 -0.486327,0.972655 -0.972655,0.972655 h -2.917964 c -0.486327,0 -0.972654,-0.486327 -0.972654,-0.972655 v -12.64451 c 0,-0.486327 0.486327,-0.972654 0.972654,-0.972654 h 2.917964 c 0.486328,0 0.972655,0.486327 0.972655,0.972654 z m 0,-19.453092 c 0,0.486328 -0.486327,0.972655 -0.972655,0.972655 H 4.7578578 c -0.486328,0 -0.972655,-0.486327 -0.972655,-0.972655 V 10.30016 c 0,-0.4863278 0.486327,-0.9726548 0.972655,-0.9726548 H 27.128913 c 0.486328,0 0.972655,0.486327 0.972655,0.9726548 z"
       id="path2"
       style="fill:#9e00a7;fill-opacity:1;stroke-width:0.486327"
       inkscape:connector-curvature="0" />
  </g>
</svg>
