<?xml version="1.0" encoding="UTF-8" standalone="no"?>
<svg
   xmlns:dc="http://purl.org/dc/elements/1.1/"
   xmlns:cc="http://creativecommons.org/ns#"
   xmlns:rdf="http://www.w3.org/1999/02/22-rdf-syntax-ns#"
   xmlns:svg="http://www.w3.org/2000/svg"
   xmlns="http://www.w3.org/2000/svg"
   xmlns:sodipodi="http://sodipodi.sourceforge.net/DTD/sodipodi-0.dtd"
   xmlns:inkscape="http://www.inkscape.org/namespaces/inkscape"
   viewBox="0 0 100 100"
   version="1.1"
   id="svg4"
   sodipodi:docname="modules_calculaterdf.svg"
   width="100"
   height="100"
   inkscape:version="0.92.2 5c3e80d, 2017-08-06">
  <metadata
     id="metadata10">
    <rdf:RDF>
      <cc:Work
         rdf:about="">
        <dc:format>image/svg+xml</dc:format>
        <dc:type
           rdf:resource="http://purl.org/dc/dcmitype/StillImage" />
        <dc:title></dc:title>
      </cc:Work>
    </rdf:RDF>
  </metadata>
  <defs
     id="defs8" />
  <sodipodi:namedview
     pagecolor="#ffffff"
     bordercolor="#666666"
     borderopacity="1"
     objecttolerance="10"
     gridtolerance="10"
     guidetolerance="10"
     inkscape:pageopacity="0"
     inkscape:pageshadow="2"
     inkscape:window-width="1920"
     inkscape:window-height="983"
     id="namedview6"
     showgrid="false"
     inkscape:zoom="3.6875"
     inkscape:cx="90.897449"
     inkscape:cy="76.7815"
     inkscape:window-x="0"
     inkscape:window-y="27"
     inkscape:window-maximized="1"
     inkscape:current-layer="svg4" />
  <path
     d="m 77.5,10 h -55 c -4,0 -7.5,3.5 -7.5,7.5 v 65 c 0,4 3.5,7.5 7.5,7.5 h 55 c 4,0 7.5,-3.5 7.5,-7.5 v -65 C 85,13.5 81.5,10 77.5,10 Z M 35,78 c 0,1 -1,2 -2,2 h -6 c -1,0 -2,-1 -2,-2 v -6 c 0,-1 1,-2 2,-2 h 6 c 1,0 2,1 2,2 z m 0,-20 c 0,1 -1,2 -2,2 h -6 c -1,0 -2,-1 -2,-2 v -6 c 0,-1 1,-2 2,-2 h 6 c 1,0 2,1 2,2 z m 20,20 c 0,1 -1,2 -2,2 h -6 c -1,0 -2,-1 -2,-2 v -6 c 0,-1 1,-2 2,-2 h 6 c 1,0 2,1 2,2 z m 0,-20 c 0,1 -1,2 -2,2 h -6 c -1,0 -2,-1 -2,-2 v -6 c 0,-1 1,-2 2,-2 h 6 c 1,0 2,1 2,2 z m 20,20 c 0,1 -1,2 -2,2 h -6 c -1,0 -2,-1 -2,-2 V 52 c 0,-1 1,-2 2,-2 h 6 c 1,0 2,1 2,2 z m 0,-40 c 0,1 -1,2 -2,2 H 27 c -1,0 -2,-1 -2,-2 V 22 c 0,-1 1,-2 2,-2 h 46 c 1,0 2,1 2,2 z"
     id="path2"
     style="fill:#9e00a7;fill-opacity:1;stroke-width:1"
     inkscape:connector-curvature="0" />
</svg>
