<?xml version="1.0" encoding="UTF-8" standalone="no"?>
<svg
   xmlns:dc="http://purl.org/dc/elements/1.1/"
   xmlns:cc="http://creativecommons.org/ns#"
   xmlns:rdf="http://www.w3.org/1999/02/22-rdf-syntax-ns#"
   xmlns:svg="http://www.w3.org/2000/svg"
   xmlns="http://www.w3.org/2000/svg"
   xmlns:sodipodi="http://sodipodi.sourceforge.net/DTD/sodipodi-0.dtd"
   xmlns:inkscape="http://www.inkscape.org/namespaces/inkscape"
   viewBox="0 0 100 100"
   version="1.1"
   id="svg4"
   sodipodi:docname="modules_calculaterdf.svg"
   width="100"
   height="100"
   inkscape:version="1.0.1 (3bc2e813f5, 2020-09-07)">
  <metadata
     id="metadata10">
    <rdf:RDF>
      <cc:Work
         rdf:about="">
        <dc:format>image/svg+xml</dc:format>
        <dc:type
           rdf:resource="http://purl.org/dc/dcmitype/StillImage" />
        <dc:title />
      </cc:Work>
    </rdf:RDF>
  </metadata>
  <defs
     id="defs8" />
  <sodipodi:namedview
     pagecolor="#ffffff"
     bordercolor="#666666"
     borderopacity="1"
     objecttolerance="10"
     gridtolerance="10"
     guidetolerance="10"
     inkscape:pageopacity="0"
     inkscape:pageshadow="2"
     inkscape:window-width="1920"
     inkscape:window-height="1016"
     id="namedview6"
     showgrid="false"
     inkscape:zoom="5.2149125"
     inkscape:cx="10.236988"
     inkscape:cy="54.926908"
     inkscape:window-x="0"
     inkscape:window-y="27"
     inkscape:window-maximized="1"
     inkscape:current-layer="svg4"
     inkscape:document-rotation="0" />
  <g
     id="g4499"
     transform="translate(2.7228251,-0.9440083)">
    <circle
       style="fill:#b822ff;fill-opacity:0.190083;fill-rule:evenodd;stroke:none;stroke-width:0.298561px;stroke-linecap:butt;stroke-linejoin:miter;stroke-opacity:1"
       id="path3336-9-7-5-3"
       cx="-87.781471"
       cy="-36.96003"
       r="9.4957037"
       transform="scale(-1)" />
    <circle
       style="fill:#000000;fill-opacity:1;fill-rule:evenodd;stroke:none;stroke-width:0.298561px;stroke-linecap:butt;stroke-linejoin:miter;stroke-opacity:1"
       id="path3336-9"
       cx="-53.670036"
       cy="-57.698643"
       r="9.4957037"
       transform="scale(-1)" />
    <circle
       style="fill:#b822ff;fill-opacity:1;fill-rule:evenodd;stroke:none;stroke-width:0.298561px;stroke-linecap:butt;stroke-linejoin:miter;stroke-opacity:1"
       id="path3336-9-7"
       cx="-61.210766"
       cy="-26.027592"
       r="9.4957037"
       transform="scale(-1)" />
    <circle
       style="fill:#b822ff;fill-opacity:0.188235;fill-rule:evenodd;stroke:none;stroke-width:0.298561px;stroke-linecap:butt;stroke-linejoin:miter;stroke-opacity:1"
       id="path3336-9-7-5"
       cx="-35.903347"
       cy="-69.874168"
       r="9.4957037"
       transform="scale(-1)" />
    <circle
       style="fill:#b822ff;fill-opacity:1;fill-rule:evenodd;stroke:none;stroke-width:0.298561px;stroke-linecap:butt;stroke-linejoin:miter;stroke-opacity:1"
       id="path3336-9-7-5-3-5"
       cx="-71.804573"
       cy="-86.353424"
       r="9.4957037"
       transform="scale(-1)" />
    <circle
       style="fill:none;fill-opacity:1;fill-rule:evenodd;stroke:#000000;stroke-width:2.17026;stroke-linecap:butt;stroke-linejoin:miter;stroke-miterlimit:4;stroke-dasharray:4.34052, 2.17026;stroke-dashoffset:0;stroke-opacity:1"
       id="path3336-9-3"
       cx="-53.670036"
       cy="-57.698643"
       r="31.189997"
       transform="scale(-1)" />
    <circle
       style="fill:none;fill-opacity:1;fill-rule:evenodd;stroke:#000000;stroke-width:2.17026;stroke-linecap:butt;stroke-linejoin:miter;stroke-miterlimit:4;stroke-dasharray:4.34052, 2.17026;stroke-dashoffset:0;stroke-opacity:1"
       id="path3336-9-3-3"
       cx="-53.670036"
       cy="-57.698643"
       r="38.160744"
       transform="scale(-1)" />
  </g>
  <g
     id="g954"
     transform="matrix(1.1427966,0,0,1.1427966,2.9462097,-3.3875138)"
     style="opacity:0.8">
    <path
       d="M 29.317386,4.4642316 H 2.5693849 c -1.94530905,0 -3.647455,1.702146 -3.647455,3.647455 V 39.722957 c 0,1.94531 1.70214595,3.64746 3.647455,3.64746 H 29.317386 c 1.945309,0 3.647455,-1.70215 3.647455,-3.64746 V 8.1116866 c 0,-1.945309 -1.702146,-3.647455 -3.647455,-3.647455 z"
       id="path2-3"
       style="fill:#ffffff;fill-opacity:1;stroke:#ffffff;stroke-width:3;stroke-miterlimit:4;stroke-dasharray:none;stroke-opacity:1"
       inkscape:connector-curvature="0"
       sodipodi:nodetypes="sssssssss" />
    <path
       d="M 29.317386,4.4642322 H 2.5693848 c -1.945309,0 -3.647455,1.702146 -3.647455,3.647455 V 39.722961 c 0,1.945309 1.702146,3.647455 3.647455,3.647455 H 29.317386 c 1.945309,0 3.647455,-1.702146 3.647455,-3.647455 V 8.1116872 c 0,-1.945309 -1.702146,-3.647455 -3.647455,-3.647455 z M 8.6484758,37.534488 c 0,0.486328 -0.486327,0.972655 -0.972655,0.972655 h -2.917963 c -0.486328,0 -0.972655,-0.486327 -0.972655,-0.972655 v -2.917964 c 0,-0.486327 0.486327,-0.972654 0.972655,-0.972654 h 2.917963 c 0.486328,0 0.972655,0.486327 0.972655,0.972654 z m 0,-9.726546 c 0,0.486328 -0.486327,0.972655 -0.972655,0.972655 h -2.917963 c -0.486328,0 -0.972655,-0.486327 -0.972655,-0.972655 v -2.917964 c 0,-0.486327 0.486327,-0.972654 0.972655,-0.972654 h 2.917963 c 0.486328,0 0.972655,0.486327 0.972655,0.972654 z m 9.7265462,9.726546 c 0,0.486328 -0.486327,0.972655 -0.972655,0.972655 h -2.917963 c -0.486328,0 -0.972655,-0.486327 -0.972655,-0.972655 v -2.917964 c 0,-0.486327 0.486327,-0.972654 0.972655,-0.972654 h 2.917963 c 0.486328,0 0.972655,0.486327 0.972655,0.972654 z m 0,-9.726546 c 0,0.486328 -0.486327,0.972655 -0.972655,0.972655 h -2.917963 c -0.486328,0 -0.972655,-0.486327 -0.972655,-0.972655 v -2.917964 c 0,-0.486327 0.486327,-0.972654 0.972655,-0.972654 h 2.917963 c 0.486328,0 0.972655,0.486327 0.972655,0.972654 z m 9.726546,9.726546 c 0,0.486328 -0.486327,0.972655 -0.972655,0.972655 h -2.917964 c -0.486327,0 -0.972654,-0.486327 -0.972654,-0.972655 v -12.64451 c 0,-0.486327 0.486327,-0.972654 0.972654,-0.972654 h 2.917964 c 0.486328,0 0.972655,0.486327 0.972655,0.972654 z m 0,-19.453092 c 0,0.486328 -0.486327,0.972655 -0.972655,0.972655 H 4.7578578 c -0.486328,0 -0.972655,-0.486327 -0.972655,-0.972655 V 10.30016 c 0,-0.4863278 0.486327,-0.9726548 0.972655,-0.9726548 H 27.128913 c 0.486328,0 0.972655,0.486327 0.972655,0.9726548 z"
       id="path2"
       style="fill:#9e00a7;fill-opacity:1;stroke-width:0.486327"
       inkscape:connector-curvature="0" />
  </g>
</svg>
