<?xml version="1.0" encoding="UTF-8" standalone="no"?>
<svg
   xmlns:dc="http://purl.org/dc/elements/1.1/"
   xmlns:cc="http://creativecommons.org/ns#"
   xmlns:rdf="http://www.w3.org/1999/02/22-rdf-syntax-ns#"
   xmlns:svg="http://www.w3.org/2000/svg"
   xmlns="http://www.w3.org/2000/svg"
   xmlns:sodipodi="http://sodipodi.sourceforge.net/DTD/sodipodi-0.dtd"
   xmlns:inkscape="http://www.inkscape.org/namespaces/inkscape"
   viewBox="0 0 100 100"
   version="1.1"
   id="svg4"
   sodipodi:docname="module_checkspecies.svg"
   width="100"
   height="100"
   inkscape:version="1.0.1 (3bc2e813f5, 2020-09-07)">
  <metadata
     id="metadata10">
    <rdf:RDF>
      <cc:Work
         rdf:about="">
        <dc:format>image/svg+xml</dc:format>
        <dc:type
           rdf:resource="http://purl.org/dc/dcmitype/StillImage" />
        <dc:title />
      </cc:Work>
    </rdf:RDF>
  </metadata>
  <defs
     id="defs8" />
  <sodipodi:namedview
     pagecolor="#ffffff"
     bordercolor="#666666"
     borderopacity="1"
     objecttolerance="10"
     gridtolerance="10"
     guidetolerance="10"
     inkscape:pageopacity="0"
     inkscape:pageshadow="2"
     inkscape:window-width="1920"
     inkscape:window-height="1016"
     id="namedview6"
     showgrid="false"
     inkscape:zoom="5.2149125"
     inkscape:cx="37.594146"
     inkscape:cy="52.324358"
     inkscape:window-x="0"
     inkscape:window-y="27"
     inkscape:window-maximized="1"
     inkscape:current-layer="svg4"
     inkscape:document-rotation="0" />
  <g
     id="g4695"
     transform="matrix(0.93805689,0,0,0.93811051,-3.2566381,3.544477)"
     style="stroke-width:0.935543">
    <circle
       style="opacity:1;fill:#005100;fill-opacity:1;stroke:#ffffff;stroke-width:2.80663;stroke-linecap:round;stroke-linejoin:round;stroke-miterlimit:4;stroke-dasharray:none;stroke-dashoffset:0;stroke-opacity:1"
       id="path4256-6"
       cx="21.5"
       cy="67.25"
       r="16.625" />
    <circle
       style="opacity:1;fill:#005100;fill-opacity:1;stroke:#ffffff;stroke-width:2.80663;stroke-linecap:round;stroke-linejoin:round;stroke-miterlimit:4;stroke-dasharray:none;stroke-dashoffset:0;stroke-opacity:1"
       id="path4260"
       cx="46.875"
       cy="49.75"
       r="31.625" />
    <circle
       style="opacity:1;fill:#005100;fill-opacity:1;stroke:#ffffff;stroke-width:2.80663;stroke-linecap:round;stroke-linejoin:round;stroke-miterlimit:4;stroke-dasharray:none;stroke-dashoffset:0;stroke-opacity:1"
       id="path4256"
       cx="45.125"
       cy="14.25"
       r="16.625" />
    <circle
       style="opacity:1;fill:#005100;fill-opacity:1;stroke:#ffffff;stroke-width:2.80663;stroke-linecap:round;stroke-linejoin:round;stroke-miterlimit:4;stroke-dasharray:none;stroke-dashoffset:0;stroke-opacity:1"
       id="path4256-3"
       cx="79"
       cy="69.25"
       r="16.625" />
  </g>
  <g
     id="g1478"
     transform="translate(104.35825,48.243188)">
    <path
       d="m -10.359628,18.360267 -3.63484,-3.664193 c -0.75274,-0.758871 -1.97823,-0.763871 -2.7371,-0.01097 l -22.7987,22.615485 -9.643874,-9.722096 c -0.752742,-0.758871 -1.978226,-0.763871 -2.737097,-0.01113 l -3.664355,3.634838 c -0.758871,0.752742 -0.76387,1.978226 -0.01097,2.737258 l 14.642099,14.760646 c 0.752737,0.758875 1.978227,0.763875 2.737097,0.01097 l 27.83693,-27.61355 c 0.7587133,-0.752903 0.7635533,-1.978387 0.0108,-2.737258 z"
       id="path2-3"
       inkscape:connector-curvature="0"
       style="stroke:#ffffff;stroke-width:5;stroke-miterlimit:4;stroke-dasharray:none;stroke-opacity:1"
       sodipodi:nodetypes="cccccccccccsc" />
    <path
       d="m -10.359628,18.360267 -3.63484,-3.664193 c -0.75274,-0.758871 -1.97823,-0.763871 -2.7371,-0.01097 l -22.7987,22.615485 -9.643874,-9.722096 c -0.752742,-0.758871 -1.978226,-0.763871 -2.737097,-0.01113 l -3.664355,3.634838 c -0.758871,0.752742 -0.76387,1.978226 -0.01097,2.737258 l 14.642099,14.760646 c 0.752737,0.758875 1.978227,0.763875 2.737097,0.01097 l 27.83693,-27.61355 c 0.7587132,-0.752903 0.7635532,-1.978387 0.0108,-2.737258 z"
       id="path2"
       inkscape:connector-curvature="0"
       style="stroke-width:1"
       sodipodi:nodetypes="cccccccccccsc" />
  </g>
</svg>
