<?xml version="1.0" encoding="UTF-8" standalone="no"?>
<svg
   xmlns:dc="http://purl.org/dc/elements/1.1/"
   xmlns:cc="http://creativecommons.org/ns#"
   xmlns:rdf="http://www.w3.org/1999/02/22-rdf-syntax-ns#"
   xmlns:svg="http://www.w3.org/2000/svg"
   xmlns="http://www.w3.org/2000/svg"
   xmlns:sodipodi="http://sodipodi.sourceforge.net/DTD/sodipodi-0.dtd"
   xmlns:inkscape="http://www.inkscape.org/namespaces/inkscape"
   version="1.0"
   width="100"
   height="100"
   id="svg2"
   inkscape:version="1.0.1 (3bc2e813f5, 2020-09-07)"
   sodipodi:docname="movemodule.svg">
  <metadata
     id="metadata3050">
    <rdf:RDF>
      <cc:Work
         rdf:about="">
        <dc:format>image/svg+xml</dc:format>
        <dc:type
           rdf:resource="http://purl.org/dc/dcmitype/StillImage" />
        <dc:title />
      </cc:Work>
    </rdf:RDF>
  </metadata>
  <sodipodi:namedview
     pagecolor="#ffffff"
     bordercolor="#666666"
     borderopacity="1"
     objecttolerance="10"
     gridtolerance="10"
     guidetolerance="10"
     inkscape:pageopacity="0"
     inkscape:pageshadow="2"
     inkscape:window-width="3840"
     inkscape:window-height="1531"
     id="namedview3048"
     showgrid="false"
     inkscape:zoom="2"
     inkscape:cx="-59.574567"
     inkscape:cy="-17.340984"
     inkscape:window-x="0"
     inkscape:window-y="32"
     inkscape:window-maximized="1"
     inkscape:current-layer="svg2"
     showguides="false"
     inkscape:document-rotation="0" />
  <defs
     id="defs4" />
  <g
     id="g16"
     transform="matrix(1.2509559,0,0,1.2520302,-12.319308,-10.718259)"
     style="stroke-width:0.799046">
    <g
       id="g905"
       transform="matrix(1.0076461,0,0,1.0076784,-0.08186766,-0.67901574)"
       style="stroke-width:0.79297">
      <path
         inkscape:connector-curvature="0"
         id="path4475-3-3"
         d="m 13.576464,65.993637 c -0.777119,0 -1.449625,0.430067 -2.017517,1.28822 -0.567893,0.858152 -0.851842,1.874387 -0.851842,3.048697 v 5.610193 c 0,1.174309 0.283949,2.190545 0.851842,3.04869 0.567892,0.858152 1.240398,1.288227 2.017517,1.288227 h 40.171019 c 0.777121,0 1.449622,-0.430075 2.017517,-1.288227 0.567897,-0.858145 0.851841,-1.874381 0.851841,-3.04869 v -5.610193 c 0,-1.17431 -0.283944,-2.190545 -0.851841,-3.048697 -0.567895,-0.858153 -1.240396,-1.28822 -2.017517,-1.28822 H 43.680818 c -0.250402,5.353156 -4.659839,9.56659 -10.018845,9.573496 -5.361894,-0.0029 -9.775776,-4.217455 -10.026315,-9.573495 z"
         style="fill:#310049;fill-opacity:1;stroke-width:1.05729"
         sodipodi:nodetypes="sssscsscsssscccs" />
      <path
         id="path4"
         d="m 61.910156,13.072266 c -0.68097,0 -1.234549,0.247197 -1.660156,0.738281 -0.425605,0.491082 -0.638672,1.083278 -0.638672,1.777344 v 2.513671 c 0,0.694063 0.213067,1.286261 0.638672,1.777344 0.425607,0.491085 0.979186,0.736328 1.660156,0.736328 h 19.072266 v 48.744141 h -8.583984 l 5.755859,-5.775391 c 0.49763,-0.471439 0.746094,-1.062368 0.746094,-1.769531 0,-0.707159 -0.248464,-1.296135 -0.746094,-1.767578 l -1.474609,-1.492187 c -0.484533,-0.484539 -1.073513,-0.726563 -1.767579,-0.726563 -0.68097,0 -1.276381,0.242024 -1.787109,0.726563 l -12.787109,12.80664 c -0.484536,0.484536 -0.726563,1.075465 -0.726563,1.769531 0,0.68097 0.242027,1.276382 0.726563,1.78711 L 73.125,87.685547 c 0.497632,0.497632 1.093043,0.746094 1.787109,0.746094 0.680967,0 1.269946,-0.248462 1.767579,-0.746094 l 1.474609,-1.453125 c 0.49763,-0.497632 0.746094,-1.093042 0.746094,-1.78711 0,-0.694066 -0.248464,-1.29143 -0.746094,-1.789062 l -5.755859,-5.753906 h 13.828124 c 0.680971,0 1.23455,-0.247197 1.660157,-0.738282 0.425605,-0.49108 0.638672,-1.083277 0.638672,-1.777343 V 72.482422 71.873047 15.371094 c 0,-0.68097 -0.245245,-1.232596 -0.736329,-1.658203 -0.491082,-0.425605 -1.083277,-0.638672 -1.777343,-0.638672 h -1.835938 v -0.002 z"
         style="fill:#310049;fill-opacity:1;stroke-width:0.79297"
         inkscape:connector-curvature="0" />
      <path
         inkscape:connector-curvature="0"
         id="path4475-3-3-3"
         d="m 14.039491,37.848144 c -0.777119,0 -1.449625,0.430067 -2.017517,1.28822 -0.567893,0.858152 -0.851842,1.874387 -0.851842,3.048697 v 5.610193 c 0,1.174309 0.283949,2.190545 0.851842,3.04869 0.567892,0.858152 1.240398,1.288227 2.017517,1.288227 H 54.21051 c 0.777121,0 1.449622,-0.430075 2.017517,-1.288227 0.567897,-0.858145 0.851841,-1.874381 0.851841,-3.04869 v -5.610193 c 0,-1.17431 -0.283944,-2.190545 -0.851841,-3.048697 -0.567895,-0.858153 -1.240396,-1.28822 -2.017517,-1.28822 H 44.143845 C 43.893443,43.2013 39.484006,47.414734 34.125,47.42164 28.763106,47.41874 24.349224,43.204185 24.098685,37.848145 Z"
         style="fill:#9c9c9c;fill-opacity:1;stroke-width:1.05729"
         sodipodi:nodetypes="sssscsscsssscccs" />
      <path
         inkscape:connector-curvature="0"
         id="path4475-3-3-5"
         d="m 13.914491,9.7026556 c -0.777119,0 -1.449625,0.4300664 -2.017517,1.2882194 -0.567893,0.858152 -0.851842,1.874387 -0.851842,3.048697 v 5.610193 c 0,1.174309 0.283949,2.190545 0.851842,3.04869 0.567892,0.858152 1.240398,1.288227 2.017517,1.288227 H 54.08551 c 0.777121,0 1.449622,-0.430075 2.017517,-1.288227 0.567897,-0.858145 0.851841,-1.874381 0.851841,-3.04869 v -5.610193 c 0,-1.17431 -0.283944,-2.190545 -0.851841,-3.048697 C 55.535132,10.132722 54.862631,9.7026556 54.08551,9.7026556 H 44.018845 C 43.768443,15.055811 39.359006,19.269245 34,19.276151 28.638106,19.273251 24.224224,15.058696 23.973685,9.7026566 Z"
         style="fill:none;fill-opacity:1;stroke:#9c9c9c;stroke-width:1.05703;stroke-miterlimit:4;stroke-dasharray:1.05703, 1.05703;stroke-dashoffset:0;stroke-opacity:1"
         sodipodi:nodetypes="sssscsscsssscccs" />
    </g>
  </g>
</svg>
