<?xml version="1.0" encoding="UTF-8" standalone="no"?>
<svg
   xmlns:dc="http://purl.org/dc/elements/1.1/"
   xmlns:cc="http://creativecommons.org/ns#"
   xmlns:rdf="http://www.w3.org/1999/02/22-rdf-syntax-ns#"
   xmlns:svg="http://www.w3.org/2000/svg"
   xmlns="http://www.w3.org/2000/svg"
   xmlns:sodipodi="http://sodipodi.sourceforge.net/DTD/sodipodi-0.dtd"
   xmlns:inkscape="http://www.inkscape.org/namespaces/inkscape"
   version="1.0"
   width="100"
   height="100"
   id="svg2"
   inkscape:version="1.0.1 (3bc2e813f5, 2020-09-07)"
   sodipodi:docname="nodes_transmute.svg">
  <metadata
     id="metadata3050">
    <rdf:RDF>
      <cc:Work
         rdf:about="">
        <dc:format>image/svg+xml</dc:format>
        <dc:type
           rdf:resource="http://purl.org/dc/dcmitype/StillImage" />
        <dc:title></dc:title>
      </cc:Work>
    </rdf:RDF>
  </metadata>
  <sodipodi:namedview
     pagecolor="#ffffff"
     bordercolor="#666666"
     borderopacity="1"
     objecttolerance="10"
     gridtolerance="10"
     guidetolerance="10"
     inkscape:pageopacity="0"
     inkscape:pageshadow="2"
     inkscape:window-width="1920"
     inkscape:window-height="1131"
     id="namedview3048"
     showgrid="false"
     inkscape:zoom="1"
     inkscape:cx="-366.1118"
     inkscape:cy="148.62603"
     inkscape:window-x="0"
     inkscape:window-y="0"
     inkscape:window-maximized="1"
     inkscape:current-layer="svg2"
     showguides="false"
     inkscape:document-rotation="0" />
  <defs
     id="defs4" />
  <g
     id="g863"
     transform="matrix(0.99008362,0,0,0.99008362,-30.603055,0.49581899)"
     style="fill:#d9d9d9;fill-opacity:1;stroke:#eaeae9;stroke-opacity:1">
    <circle
       style="fill:#d9d9d9;fill-opacity:1;stroke:#eaeae9;stroke-width:2.55631;stroke-miterlimit:4;stroke-dasharray:none;stroke-dashoffset:0;stroke-opacity:1"
       id="path812"
       cx="50"
       cy="50"
       r="17.812279" />
    <path
       id="rect818-3"
       style="fill:#d9d9d9;fill-opacity:1;stroke:#eaeae9;stroke-width:1.00157;stroke-miterlimit:4;stroke-dasharray:none;stroke-dashoffset:0;stroke-opacity:1"
       d="M 44.740234,2.8749996e-8 V 29.769531 A 20.903845,20.903845 0 0 1 50,29.095703 20.903845,20.903845 0 0 1 55.259766,29.769531 V 2.8749996e-8 Z M 44.740234,70.230469 V 100 H 55.259766 V 70.230469 A 20.903845,20.903845 0 0 1 50,70.904297 20.903845,20.903845 0 0 1 44.740234,70.230469 Z" />
  </g>
  <path
     inkscape:connector-curvature="0"
     d="M 65.357089,40.332132 H 63.67572 q -0.69619,0 -1.188779,0.426909 -0.492587,0.426911 -0.492587,1.109966 v 9.247526 l -3.861896,-3.848756 q -0.472883,-0.499155 -1.182212,-0.499155 -0.709326,0 -1.182211,0.499155 l -0.998311,0.985178 q -0.486022,0.486019 -0.486022,1.182211 0,0.683055 0.486022,1.195348 l 8.564469,8.551335 q 0.486021,0.486019 1.182213,0.486019 0.683056,0 1.195348,-0.486019 l 8.538198,-8.551335 q 0.499156,-0.499157 0.499156,-1.195348 0,-0.683056 -0.499156,-1.182211 l -0.972041,-0.985178 q -0.499156,-0.499155 -1.195348,-0.499155 -0.696192,0 -1.195349,0.499155 l -3.848757,3.848756 v -9.247526 q 0,-0.683055 -0.49259,-1.109966 -0.492587,-0.426909 -1.188778,-0.426909 z"
     id="path4"
     style="fill:none;fill-opacity:1;stroke:#000000;stroke-width:1.01871;stroke-miterlimit:4;stroke-dasharray:none;stroke-opacity:1" />
  <circle
     style="fill:#00004a;fill-opacity:1;stroke:#000028;stroke-width:1.84388;stroke-miterlimit:4;stroke-dasharray:none;stroke-opacity:1"
     id="path7385"
     cx="64.516403"
     cy="18.95293"
     r="14.896393" />
  <path
     sodipodi:type="star"
     style="fill:#00004a;fill-opacity:1;stroke:#000028;stroke-width:2.00274;stroke-miterlimit:4;stroke-dasharray:none;stroke-opacity:1"
     id="path7387"
     sodipodi:sides="3"
     sodipodi:cx="64.516405"
     sodipodi:cy="84.793556"
     sodipodi:r1="19.088383"
     sodipodi:r2="9.5441914"
     sodipodi:arg1="0.52359878"
     sodipodi:arg2="1.5707963"
     inkscape:flatsided="true"
     inkscape:rounded="0"
     inkscape:randomized="0"
     d="m 81.047428,94.337748 -33.062049,0 16.531024,-28.632575 z"
     inkscape:transform-center-y="-4.7720928"
     inkscape:transform-center-x="1.6339085e-06" />
</svg>
