<?xml version="1.0" encoding="UTF-8" standalone="no"?>
<svg
   xmlns:dc="http://purl.org/dc/elements/1.1/"
   xmlns:cc="http://creativecommons.org/ns#"
   xmlns:rdf="http://www.w3.org/1999/02/22-rdf-syntax-ns#"
   xmlns:svg="http://www.w3.org/2000/svg"
   xmlns="http://www.w3.org/2000/svg"
   xmlns:sodipodi="http://sodipodi.sourceforge.net/DTD/sodipodi-0.dtd"
   xmlns:inkscape="http://www.inkscape.org/namespaces/inkscape"
   version="1.0"
   width="100"
   height="100"
   id="svg2"
   inkscape:version="1.0.1 (3bc2e813f5, 2020-09-07)"
   sodipodi:docname="nodes_operatemultiply.svg">
  <metadata
     id="metadata3050">
    <rdf:RDF>
      <cc:Work
         rdf:about="">
        <dc:format>image/svg+xml</dc:format>
        <dc:type
           rdf:resource="http://purl.org/dc/dcmitype/StillImage" />
        <dc:title></dc:title>
      </cc:Work>
    </rdf:RDF>
  </metadata>
  <sodipodi:namedview
     pagecolor="#ffffff"
     bordercolor="#666666"
     borderopacity="1"
     objecttolerance="10"
     gridtolerance="10"
     guidetolerance="10"
     inkscape:pageopacity="0"
     inkscape:pageshadow="2"
     inkscape:window-width="1920"
     inkscape:window-height="1131"
     id="namedview3048"
     showgrid="false"
     inkscape:zoom="4.0000001"
     inkscape:cx="-39.977867"
     inkscape:cy="39.576638"
     inkscape:window-x="0"
     inkscape:window-y="0"
     inkscape:window-maximized="1"
     inkscape:current-layer="svg2"
     showguides="false"
     inkscape:document-rotation="0" />
  <defs
     id="defs4" />
  <g
     id="g863"
     transform="matrix(0.99008362,0,0,0.99008362,-30.603055,0.49581899)"
     style="fill:#d9d9d9;fill-opacity:1;stroke:#eaeae9;stroke-opacity:1">
    <circle
       style="fill:#d9d9d9;fill-opacity:1;stroke:#eaeae9;stroke-width:2.55631;stroke-miterlimit:4;stroke-dasharray:none;stroke-dashoffset:0;stroke-opacity:1"
       id="path812"
       cx="50"
       cy="50"
       r="17.812279" />
    <path
       id="rect818-3"
       style="fill:#d9d9d9;fill-opacity:1;stroke:#eaeae9;stroke-width:1.00157;stroke-miterlimit:4;stroke-dasharray:none;stroke-dashoffset:0;stroke-opacity:1"
       d="M 44.740234,2.8749996e-8 V 29.769531 A 20.903845,20.903845 0 0 1 50,29.095703 20.903845,20.903845 0 0 1 55.259766,29.769531 V 2.8749996e-8 Z M 44.740234,70.230469 V 100 H 55.259766 V 70.230469 A 20.903845,20.903845 0 0 1 50,70.904297 20.903845,20.903845 0 0 1 44.740234,70.230469 Z" />
  </g>
  <path
     id="rect833-6"
     style="opacity:1;fill:#004b00;fill-opacity:1;stroke:#003800;stroke-width:2;stroke-opacity:1"
     d="m 45.112306,28.101965 c -0.511238,0 -1.022326,0.196154 -1.414063,0.587891 L 39.543942,32.8422 c -0.78347,0.783474 -0.78347,2.04465 0,2.828125 L 53.877931,50.004309 39.543942,64.338293 c -0.78347,0.783475 -0.78347,2.044651 0,2.828125 l 4.154301,4.152344 c 0.783475,0.783474 2.044651,0.783474 2.828125,0 L 60.8584,56.984778 75.192384,71.318762 c 0.783474,0.783474 2.044651,0.783474 2.828125,0 l 4.154297,-4.152344 c 0.783474,-0.783474 0.783474,-2.04465 0,-2.828125 L 67.840821,50.004309 82.174806,35.670325 c 0.783474,-0.783475 0.783474,-2.044651 0,-2.828125 l -4.154297,-4.152344 c -0.783474,-0.783474 -2.044651,-0.783474 -2.828125,0 L 60.8584,43.02384 46.526368,28.689856 c -0.391737,-0.391737 -0.902824,-0.587891 -1.414062,-0.587891 z" />
</svg>
