<?xml version="1.0" encoding="UTF-8" standalone="no"?>
<svg
   xmlns:dc="http://purl.org/dc/elements/1.1/"
   xmlns:cc="http://creativecommons.org/ns#"
   xmlns:rdf="http://www.w3.org/1999/02/22-rdf-syntax-ns#"
   xmlns:svg="http://www.w3.org/2000/svg"
   xmlns="http://www.w3.org/2000/svg"
   xmlns:sodipodi="http://sodipodi.sourceforge.net/DTD/sodipodi-0.dtd"
   xmlns:inkscape="http://www.inkscape.org/namespaces/inkscape"
   version="1.0"
   width="100"
   height="100"
   id="svg2"
   inkscape:version="1.0.1 (3bc2e813f5, 2020-09-07)"
   sodipodi:docname="nodes_addpair.svg">
  <metadata
     id="metadata3050">
    <rdf:RDF>
      <cc:Work
         rdf:about="">
        <dc:format>image/svg+xml</dc:format>
        <dc:type
           rdf:resource="http://purl.org/dc/dcmitype/StillImage" />
        <dc:title></dc:title>
      </cc:Work>
    </rdf:RDF>
  </metadata>
  <sodipodi:namedview
     pagecolor="#ffffff"
     bordercolor="#666666"
     borderopacity="1"
     objecttolerance="10"
     gridtolerance="10"
     guidetolerance="10"
     inkscape:pageopacity="0"
     inkscape:pageshadow="2"
     inkscape:window-width="1920"
     inkscape:window-height="1131"
     id="namedview3048"
     showgrid="false"
     inkscape:zoom="1"
     inkscape:cx="-493.51683"
     inkscape:cy="237.97351"
     inkscape:window-x="0"
     inkscape:window-y="0"
     inkscape:window-maximized="1"
     inkscape:current-layer="svg2"
     showguides="false"
     inkscape:document-rotation="0" />
  <defs
     id="defs4" />
  <g
     id="g863"
     transform="matrix(0.99008362,0,0,0.99008362,-30.603055,0.49581899)"
     style="fill:#d9d9d9;fill-opacity:1;stroke:#eaeae9;stroke-opacity:1">
    <circle
       style="fill:#d9d9d9;fill-opacity:1;stroke:#eaeae9;stroke-width:2.55631;stroke-miterlimit:4;stroke-dasharray:none;stroke-dashoffset:0;stroke-opacity:1"
       id="path812"
       cx="50"
       cy="50"
       r="17.812279" />
    <path
       id="rect818-3"
       style="fill:#d9d9d9;fill-opacity:1;stroke:#eaeae9;stroke-width:1.00157;stroke-miterlimit:4;stroke-dasharray:none;stroke-dashoffset:0;stroke-opacity:1"
       d="M 44.740234,2.8749996e-8 V 29.769531 A 20.903845,20.903845 0 0 1 50,29.095703 20.903845,20.903845 0 0 1 55.259766,29.769531 V 2.8749996e-8 Z M 44.740234,70.230469 V 100 H 55.259766 V 70.230469 A 20.903845,20.903845 0 0 1 50,70.904297 20.903845,20.903845 0 0 1 44.740234,70.230469 Z" />
  </g>
  <g
     id="g1563"
     transform="translate(1.4892578,1.35222)">
    <path
       style="fill:#00004a;fill-opacity:1;stroke-width:0.744538"
       d="m 75.457047,29.591885 v 2.707403 q 0,0.59225 -0.380735,0.972978 Q 74.695585,33.653 74.103334,33.653 H 59.212565 v 14.89077 q 0,0.592251 -0.380727,0.972978 -0.380727,0.380727 -0.972978,0.380727 h -2.70741 q -0.592251,0 -0.972978,-0.380727 -0.380734,-0.380727 -0.380734,-0.972978 V 33.653 H 38.906973 q -0.592247,0 -0.972979,-0.380734 -0.380729,-0.380728 -0.380729,-0.972978 v -2.707403 q 0,-0.59225 0.380729,-0.972985 0.380732,-0.380727 0.972979,-0.380727 h 14.890765 v -14.89077 q 0,-0.592243 0.380734,-0.972978 0.380727,-0.380727 0.972978,-0.380727 h 2.70741 q 0.592251,0 0.972978,0.380727 0.380727,0.380735 0.380727,0.972978 v 14.89077 h 14.890769 q 0.592251,0 0.972978,0.380727 0.380735,0.380735 0.380735,0.972985 z"
       id="path4735" />
    <path
       style="fill:none;fill-opacity:1;stroke:#00004a;stroke-width:0.744538;stroke-opacity:1"
       d="m 92.896925,64.624006 v 2.707403 q 0,0.59225 -0.38073,0.972977 -0.38073,0.380735 -0.972979,0.380735 H 76.652448 v 14.890767 q 0,0.59225 -0.380727,0.972978 -0.380728,0.380727 -0.972978,0.380727 h -2.70741 q -0.592251,0 -0.972978,-0.380727 Q 71.23762,84.168138 71.23762,83.575888 V 68.685121 H 56.346856 q -0.592247,0 -0.972979,-0.380735 -0.380729,-0.380727 -0.380729,-0.972977 v -2.707403 q 0,-0.592251 0.380729,-0.972985 0.380732,-0.380727 0.972979,-0.380727 H 71.23762 v -14.89077 q 0,-0.592243 0.380735,-0.972978 0.380727,-0.380727 0.972978,-0.380727 h 2.70741 q 0.59225,0 0.972978,0.380727 0.380727,0.380735 0.380727,0.972978 v 14.89077 h 14.890768 q 0.592249,0 0.972979,0.380727 0.38073,0.380734 0.38073,0.972985 z"
       id="path4735-7" />
  </g>
</svg>
