<?xml version="1.0" encoding="UTF-8" standalone="no"?>
<svg
   xmlns:dc="http://purl.org/dc/elements/1.1/"
   xmlns:cc="http://creativecommons.org/ns#"
   xmlns:rdf="http://www.w3.org/1999/02/22-rdf-syntax-ns#"
   xmlns:svg="http://www.w3.org/2000/svg"
   xmlns="http://www.w3.org/2000/svg"
   xmlns:sodipodi="http://sodipodi.sourceforge.net/DTD/sodipodi-0.dtd"
   xmlns:inkscape="http://www.inkscape.org/namespaces/inkscape"
   viewBox="0 0 100 100"
   version="1.1"
   id="svg4"
   sodipodi:docname="output.svg"
   inkscape:version="1.0.1 (3bc2e813f5, 2020-09-07)"
   width="100"
   height="100">
  <metadata
     id="metadata10">
    <rdf:RDF>
      <cc:Work
         rdf:about="">
        <dc:format>image/svg+xml</dc:format>
        <dc:type
           rdf:resource="http://purl.org/dc/dcmitype/StillImage" />
        <dc:title />
      </cc:Work>
    </rdf:RDF>
  </metadata>
  <defs
     id="defs8" />
  <sodipodi:namedview
     pagecolor="#ffffff"
     bordercolor="#666666"
     borderopacity="1"
     objecttolerance="10"
     gridtolerance="10"
     guidetolerance="10"
     inkscape:pageopacity="0"
     inkscape:pageshadow="2"
     inkscape:window-width="3840"
     inkscape:window-height="1531"
     id="namedview6"
     showgrid="false"
     inkscape:zoom="1.2241786"
     inkscape:cx="215.09876"
     inkscape:cy="227.47774"
     inkscape:window-x="0"
     inkscape:window-y="32"
     inkscape:window-maximized="1"
     inkscape:current-layer="svg4"
     showguides="true"
     inkscape:guide-bbox="true"
     inkscape:document-rotation="0">
    <sodipodi:guide
       position="-231.99229,601.21946"
       orientation="0,1"
       id="guide891"
       inkscape:locked="false" />
  </sodipodi:namedview>
  <g
     id="g13"
     transform="matrix(1.25,0,0,1.25,-12.5,-12.5)"
     style="stroke-width:0.8">
    <g
       id="g895"
       transform="matrix(0.125,0,0,0.125,10,69.5)"
       style="stroke-width:6.4">
      <path
         sodipodi:nodetypes="csssscc"
         style="fill:#ffffeb;fill-opacity:1;stroke-width:6.4"
         id="path2-3"
         d="m 608,59.04893 v -376 c 0,-22.06 -17.94,-40 -40,-40 H 72 c -22.060001,0 -40,17.94 -40,40 v 376 z"
         inkscape:connector-curvature="0" />
      <path
         inkscape:connector-curvature="0"
         style="fill:#310049;fill-opacity:1;stroke-width:6.4"
         id="path2"
         d="M 96,-348 H 544 V 4 h 64 v -376 c 0,-22.06 -17.94,-40 -40,-40 H 72 c -22.06,0 -40,17.94 -40,40 V 4 H 96 Z M 624,36 H 480 V -28 H 288 V 36 H 16 C 7.16,36 0,43.16 0,52 v 32 c 0,8.84 7.16,16 16,16 h 608 c 8.84,0 16,-7.16 16,-16 V 52 c 0,-8.84 -7.16,-16 -16,-16 z" />
    </g>
  </g>
</svg>
