<?xml version="1.0" encoding="UTF-8" standalone="no"?>
<svg
   xmlns:dc="http://purl.org/dc/elements/1.1/"
   xmlns:cc="http://creativecommons.org/ns#"
   xmlns:rdf="http://www.w3.org/1999/02/22-rdf-syntax-ns#"
   xmlns:svg="http://www.w3.org/2000/svg"
   xmlns="http://www.w3.org/2000/svg"
   xmlns:sodipodi="http://sodipodi.sourceforge.net/DTD/sodipodi-0.dtd"
   xmlns:inkscape="http://www.inkscape.org/namespaces/inkscape"
   viewBox="0 0 100 100"
   version="1.1"
   id="svg4"
   sodipodi:docname="palette.svg"
   width="100"
   height="100"
   inkscape:version="1.0.1 (3bc2e813f5, 2020-09-07)">
  <metadata
     id="metadata10">
    <rdf:RDF>
      <cc:Work
         rdf:about="">
        <dc:format>image/svg+xml</dc:format>
        <dc:type
           rdf:resource="http://purl.org/dc/dcmitype/StillImage" />
        <dc:title />
      </cc:Work>
    </rdf:RDF>
  </metadata>
  <defs
     id="defs8" />
  <sodipodi:namedview
     pagecolor="#ffffff"
     bordercolor="#666666"
     borderopacity="1"
     objecttolerance="10"
     gridtolerance="10"
     guidetolerance="10"
     inkscape:pageopacity="0"
     inkscape:pageshadow="2"
     inkscape:window-width="3840"
     inkscape:window-height="1531"
     id="namedview6"
     showgrid="false"
     inkscape:zoom="3.6875"
     inkscape:cx="-109.08824"
     inkscape:cy="12.157887"
     inkscape:window-x="0"
     inkscape:window-y="32"
     inkscape:window-maximized="1"
     inkscape:current-layer="svg4"
     inkscape:document-rotation="0" />
  <g
     id="g12"
     transform="matrix(1.24999,0,0,1.24999,-12.4995,-12.4995)"
     style="stroke-width:0.800009">
    <g
       id="g834"
       style="stroke-width:0.800009">
      <path
         style="fill:#310049;fill-opacity:1;stroke-width:0.800009"
         inkscape:connector-curvature="0"
         id="path2"
         d="M 41.920728,10.786425 C 26.389107,13.817747 13.873184,26.30242 10.810611,41.787165 5.0292226,71.006612 31.389227,92.788387 51.249076,89.710184 57.686729,88.71016 60.843055,81.17873 57.889859,75.381717 54.280398,68.287798 59.436771,60.00635 67.405711,60.00635 h 12.453423 c 5.593883,0 10.125241,-4.625111 10.140867,-10.203369 C 89.921874,25.177393 67.515089,5.8019308 41.920728,10.786425 Z M 24.998449,60.00635 c -2.765691,0 -5.000119,-2.234428 -5.000119,-5.00012 0,-2.765691 2.234428,-5.000119 5.000119,-5.000119 2.765691,0 5.000119,2.234428 5.000119,5.000119 0,2.765692 -2.234428,5.00012 -5.000119,5.00012 z m 5.000119,-20.000478 c -2.765691,0 -5.000119,-2.234428 -5.000119,-5.000119 0,-2.765691 2.234428,-5.000119 5.000119,-5.000119 2.765691,0 5.00012,2.234428 5.00012,5.000119 0,2.765691 -2.234429,5.000119 -5.00012,5.000119 z M 49.999046,30.005634 c -2.765691,0 -5.00012,-2.234429 -5.00012,-5.00012 0,-2.765691 2.234429,-5.000119 5.00012,-5.000119 2.765691,0 5.000119,2.234428 5.000119,5.000119 0,2.765691 -2.234428,5.00012 -5.000119,5.00012 z m 20.000477,10.000238 c -2.765691,0 -5.000119,-2.234428 -5.000119,-5.000119 0,-2.765691 2.234428,-5.000119 5.000119,-5.000119 2.765691,0 5.00012,2.234428 5.00012,5.000119 0,2.765691 -2.234429,5.000119 -5.00012,5.000119 z" />
      <path
         sodipodi:nodetypes="ssssssssssssssssssss"
         style="fill:#ffffeb;fill-opacity:1;stroke-width:0.800009"
         inkscape:connector-curvature="0"
         id="path2-3"
         d="m 24.998448,60.00635 c -2.76569,0 -5.00012,-2.234428 -5.00012,-5.00012 0,-2.765691 2.23443,-5.000119 5.00012,-5.000119 2.76569,0 5.00012,2.234428 5.00012,5.000119 0,2.765692 -2.23443,5.00012 -5.00012,5.00012 z m 5.00012,-20.000478 c -2.76569,0 -5.00012,-2.234428 -5.00012,-5.000119 0,-2.765691 2.23443,-5.000119 5.00012,-5.000119 2.76569,0 5.00012,2.234428 5.00012,5.000119 0,2.765691 -2.23443,5.000119 -5.00012,5.000119 z m 20.00048,-10.000238 c -2.76569,0 -5.00012,-2.234429 -5.00012,-5.00012 0,-2.765691 2.23443,-5.000119 5.00012,-5.000119 2.76569,0 5.00012,2.234428 5.00012,5.000119 0,2.765691 -2.23443,5.00012 -5.00012,5.00012 z m 20.00048,10.000238 c -2.76569,0 -5.00012,-2.234428 -5.00012,-5.000119 0,-2.765691 2.23443,-5.000119 5.00012,-5.000119 2.76569,0 5.00012,2.234428 5.00012,5.000119 0,2.765691 -2.23443,5.000119 -5.00012,5.000119 z" />
    </g>
  </g>
</svg>
