<?xml version="1.0" encoding="UTF-8" standalone="no"?>
<svg
   xmlns:dc="http://purl.org/dc/elements/1.1/"
   xmlns:cc="http://creativecommons.org/ns#"
   xmlns:rdf="http://www.w3.org/1999/02/22-rdf-syntax-ns#"
   xmlns:svg="http://www.w3.org/2000/svg"
   xmlns="http://www.w3.org/2000/svg"
   xmlns:sodipodi="http://sodipodi.sourceforge.net/DTD/sodipodi-0.dtd"
   xmlns:inkscape="http://www.inkscape.org/namespaces/inkscape"
   version="1.0"
   width="100"
   height="100"
   id="svg2"
   inkscape:version="1.0.1 (3bc2e813f5, 2020-09-07)"
   sodipodi:docname="pause.svg">
  <metadata
     id="metadata3050">
    <rdf:RDF>
      <cc:Work
         rdf:about="">
        <dc:format>image/svg+xml</dc:format>
        <dc:type
           rdf:resource="http://purl.org/dc/dcmitype/StillImage" />
      </cc:Work>
    </rdf:RDF>
  </metadata>
  <sodipodi:namedview
     pagecolor="#ffffff"
     bordercolor="#666666"
     borderopacity="1"
     objecttolerance="10"
     gridtolerance="10"
     guidetolerance="10"
     inkscape:pageopacity="0"
     inkscape:pageshadow="2"
     inkscape:window-width="3840"
     inkscape:window-height="1531"
     id="namedview3048"
     showgrid="false"
     inkscape:zoom="2.36"
     inkscape:cx="0.68220526"
     inkscape:cy="26.445338"
     inkscape:window-x="0"
     inkscape:window-y="32"
     inkscape:window-maximized="1"
     inkscape:current-layer="svg2"
     inkscape:document-rotation="0" />
  <defs
     id="defs4" />
  <g
     id="g10"
     transform="matrix(1.25,0,0,1.25,-12.5,-12.5)"
     style="stroke-width:0.8">
    <circle
       style="opacity:1;fill:#ffffeb;fill-opacity:1;fill-rule:nonzero;stroke:none;stroke-width:3.02362;stroke-miterlimit:4;stroke-dasharray:none;stroke-opacity:1"
       id="path812"
       cx="50"
       cy="50"
       r="36.853447" />
    <path
       inkscape:connector-curvature="0"
       d="m 50,9.9999995 q 10.885413,0 20.078125,5.3645875 9.192711,5.364578 14.557288,14.557288 Q 90,39.114587 90,50 90,60.885413 84.635413,70.078125 79.270836,79.270836 70.078125,84.635413 60.885413,90 50,90 39.114587,90 29.921876,84.635413 20.729164,79.270836 15.364587,70.078125 10,60.885413 10,50 10,39.114587 15.364587,29.921875 20.729164,20.729164 29.921876,15.364587 39.114587,9.9999995 50,9.9999995 Z m 0,68.3333335 q 7.708329,0 14.218747,-3.80208 6.510418,-3.802089 10.312506,-10.312507 3.80208,-6.510418 3.80208,-14.218747 0,-7.708337 -3.80208,-14.218746 Q 70.729165,29.270836 64.218747,25.468747 57.708329,21.666667 50,21.666667 q -7.708338,0 -14.218747,3.80208 -6.510417,3.802089 -10.312506,10.312507 -3.80208,6.510409 -3.80208,14.218746 0,7.708328 3.80208,14.218747 3.802089,6.510418 10.312506,10.312507 Q 42.291662,78.333334 50,78.333333 Z m 5,-11.666667 q -0.729164,0 -1.19792,-0.468746 Q 53.333333,65.729164 53.333333,65 V 35 q 0,-0.729164 0.468747,-1.197921 Q 54.270836,33.333334 55,33.333334 h 10 q 0.729165,0 1.19792,0.468746 0.468747,0.468756 0.468747,1.19792 v 30.000001 q 0,0.729164 -0.468747,1.19792 Q 65.729165,66.666667 65,66.666667 Z m -20,0 q -0.729164,0 -1.19792,-0.468746 Q 33.333333,65.729164 33.333333,65 V 35 q 0,-0.729164 0.468747,-1.197921 Q 34.270836,33.333334 35,33.333334 h 10 q 0.729164,0 1.19792,0.468746 0.468747,0.468756 0.468747,1.19792 v 30.000001 q 0,0.729164 -0.468747,1.19792 Q 45.729164,66.666667 45,66.666667 Z"
       id="path4168"
       style="fill:#310049;fill-opacity:1;stroke-width:0.8" />
  </g>
</svg>
