<?xml version="1.0" encoding="UTF-8" standalone="no"?>
<svg
   xmlns:dc="http://purl.org/dc/elements/1.1/"
   xmlns:cc="http://creativecommons.org/ns#"
   xmlns:rdf="http://www.w3.org/1999/02/22-rdf-syntax-ns#"
   xmlns:svg="http://www.w3.org/2000/svg"
   xmlns="http://www.w3.org/2000/svg"
   xmlns:sodipodi="http://sodipodi.sourceforge.net/DTD/sodipodi-0.dtd"
   xmlns:inkscape="http://www.inkscape.org/namespaces/inkscape"
   version="1.0"
   width="100"
   height="100"
   id="svg2"
   inkscape:version="1.0.1 (3bc2e813f5, 2020-09-07)"
   sodipodi:docname="recent.svg">
  <metadata
     id="metadata3050">
    <rdf:RDF>
      <cc:Work
         rdf:about="">
        <dc:format>image/svg+xml</dc:format>
        <dc:type
           rdf:resource="http://purl.org/dc/dcmitype/StillImage" />
      </cc:Work>
    </rdf:RDF>
  </metadata>
  <sodipodi:namedview
     pagecolor="#ffffff"
     bordercolor="#666666"
     borderopacity="1"
     objecttolerance="10"
     gridtolerance="10"
     guidetolerance="10"
     inkscape:pageopacity="0"
     inkscape:pageshadow="2"
     inkscape:window-width="3840"
     inkscape:window-height="1531"
     id="namedview3048"
     showgrid="false"
     inkscape:zoom="4.0000002"
     inkscape:cx="-57.355564"
     inkscape:cy="24.990042"
     inkscape:window-x="0"
     inkscape:window-y="32"
     inkscape:window-maximized="1"
     inkscape:current-layer="svg2"
     inkscape:document-rotation="0" />
  <defs
     id="defs4" />
  <g
     id="g20"
     transform="matrix(1.2066366,0,0,1.2066366,-12.066364,-11.103872)"
     style="stroke-width:0.82875">
    <g
       id="g839"
       transform="matrix(0.88888889,0,0,0.88888889,5.5555555,5.5555555)"
       style="stroke-width:0.82875">
      <path
         sodipodi:nodetypes="ssssccssscccsscsssscsscsscscccs"
         style="fill:#ffffeb;fill-opacity:1;stroke:#ffffeb;stroke-width:0.82875;stroke-opacity:1"
         id="path4195-6"
         d="m 88.965434,54.66736 c 0,-1.100053 -0.832897,-1.65008 -2.49869,-1.65008 H 35.17287 c -1.25721,0 -2.60084,0.337873 -4.03091,1.01362 -1.43007,0.675747 -2.55369,1.500787 -3.37088,2.47512 L 13.91042,73.61969 c -0.56574,0.754327 -0.84861,1.38293 -0.84861,1.88581 0,1.100053 0.8329,1.65008 2.49869,1.65008 h 51.293874 c 1.257207,0 2.6087,-0.345733 4.05448,-1.0372 1.445787,-0.69146 2.561557,-1.524357 3.34731,-2.49869 l 13.86066,-17.11367 c 0.56574,-0.69146 0.84861,-1.304347 0.84861,-1.83866 z M 35.17287,46.98271 h 36.207434 v -7.54322 c 0,-1.2572 -0.44002,-2.32582 -1.32006,-3.20586 -0.88004,-0.88004 -1.948663,-1.32006 -3.20587,-1.32006 h -27.15557 c -1.257207,0 -2.325831,-0.440023 -3.205874,-1.32007 -0.88004,-0.88004 -1.32006,-1.94866 -1.32006,-3.20586 v -3.01729 c 0,-1.257207 -0.44002,-2.32583 -1.32007,-3.20587 -0.88004,-0.88004 -1.94866,-1.32006 -3.20586,-1.32006 H 15.5605 c -1.2572,0 -2.32582,0.44002 -3.20586,1.32006 -0.88005,0.88004 -1.32007,1.948663 -1.32007,3.20587 V 67.58512 L 23.10372,52.73441 c 1.38292,-1.665793 3.20586,-3.040857 5.46883,-4.12519 2.26297,-1.08434 4.46307,-1.62651 6.60032,-1.62651 z"
         inkscape:connector-curvature="0" />
      <path
         style="fill:#310049;fill-opacity:1;stroke-width:0.82875"
         id="path4195"
         d="m 88.96543,54.66736 q 0,-1.65008 -2.49869,-1.65008 H 35.17287 q -1.88581,0 -4.03091,1.01362 -2.1451,1.01362 -3.37088,2.47512 L 13.91042,73.61969 q -0.84861,1.13149 -0.84861,1.88581 0,1.65008 2.49869,1.65008 h 51.29387 q 1.88581,0 4.05448,-1.0372 2.16868,-1.03719 3.34731,-2.49869 L 88.11682,56.50602 q 0.84861,-1.03719 0.84861,-1.83866 z M 35.17287,46.98271 H 71.3803 v -7.54322 q 0,-1.8858 -1.32006,-3.20586 -1.32006,-1.32006 -3.20587,-1.32006 H 39.6988 q -1.88581,0 -3.20587,-1.32007 -1.32006,-1.32006 -1.32006,-3.20586 v -3.01729 q 0,-1.88581 -1.32007,-3.20587 -1.32006,-1.32006 -3.20586,-1.32006 H 15.5605 q -1.8858,0 -3.20586,1.32006 -1.32007,1.32006 -1.32007,3.20587 V 67.58512 L 23.10372,52.73441 q 2.07438,-2.49869 5.46883,-4.12519 3.39445,-1.62651 6.60032,-1.62651 z M 95,54.66736 q 0,2.923 -2.16867,5.65742 L 78.92352,77.43845 q -2.02724,2.49869 -5.46883,4.12519 -3.44159,1.62651 -6.60032,1.62651 H 15.5605 q -4.33735,0 -7.44892,-3.11158 Q 5,76.967 5,72.62965 V 27.37035 Q 5,23.033 8.11158,19.92142 11.22315,16.80985 15.5605,16.80985 h 15.08644 q 4.33735,0 7.44892,3.11157 3.11158,3.11158 3.11158,7.44893 v 1.50864 h 25.64693 q 4.33735,0 7.44893,3.11158 3.11158,3.11158 3.11158,7.44892 v 7.54322 h 9.05186 q 2.54583,0 4.66736,1.15506 2.12153,1.15505 3.15872,3.32373 Q 95,52.97014 95,54.66736 Z"
         inkscape:connector-curvature="0" />
    </g>
    <rect
       style="opacity:1;fill:#ffffff;fill-opacity:1;fill-rule:nonzero;stroke:none;stroke-width:0.670102;stroke-miterlimit:4;stroke-dasharray:none;stroke-opacity:1"
       id="rect816"
       width="27.874998"
       height="28.063261"
       x="64.999992"
       y="52.718754"
       ry="1.6746893"
       rx="1.6746893" />
    <rect
       style="opacity:1;fill:#310049;fill-opacity:1;fill-rule:nonzero;stroke:none;stroke-width:0.904953;stroke-miterlimit:4;stroke-dasharray:none;stroke-opacity:1"
       id="rect814"
       width="24.668491"
       height="5.4184933"
       x="66.603249"
       y="-61.244022"
       ry="2.2452879"
       transform="scale(1,-1)"
       rx="2.2452879" />
    <rect
       style="opacity:1;fill:#310049;fill-opacity:1;fill-rule:nonzero;stroke:none;stroke-width:0.904953;stroke-miterlimit:4;stroke-dasharray:none;stroke-opacity:1"
       id="rect814-3"
       width="24.668491"
       height="5.4184933"
       x="66.603249"
       y="-70.122543"
       ry="2.2452879"
       transform="scale(1,-1)"
       rx="2.2452879" />
    <rect
       style="opacity:1;fill:#310049;fill-opacity:1;fill-rule:nonzero;stroke:none;stroke-width:0.904953;stroke-miterlimit:4;stroke-dasharray:none;stroke-opacity:1"
       id="rect814-6"
       width="24.668491"
       height="5.4184933"
       x="66.603249"
       y="-79.354622"
       ry="2.2452879"
       transform="scale(1,-1)"
       rx="2.2452879" />
  </g>
</svg>
