<?xml version="1.0" encoding="UTF-8" standalone="no"?>
<svg
   xmlns:dc="http://purl.org/dc/elements/1.1/"
   xmlns:cc="http://creativecommons.org/ns#"
   xmlns:rdf="http://www.w3.org/1999/02/22-rdf-syntax-ns#"
   xmlns:svg="http://www.w3.org/2000/svg"
   xmlns="http://www.w3.org/2000/svg"
   xmlns:sodipodi="http://sodipodi.sourceforge.net/DTD/sodipodi-0.dtd"
   xmlns:inkscape="http://www.inkscape.org/namespaces/inkscape"
   version="1.0"
   width="100"
   height="100"
   id="svg2"
   inkscape:version="1.0.1 (3bc2e813f5, 2020-09-07)"
   sodipodi:docname="remove.svg">
  <metadata
     id="metadata3050">
    <rdf:RDF>
      <cc:Work
         rdf:about="">
        <dc:format>image/svg+xml</dc:format>
        <dc:type
           rdf:resource="http://purl.org/dc/dcmitype/StillImage" />
      </cc:Work>
    </rdf:RDF>
  </metadata>
  <sodipodi:namedview
     pagecolor="#ffffff"
     bordercolor="#666666"
     borderopacity="1"
     objecttolerance="10"
     gridtolerance="10"
     guidetolerance="10"
     inkscape:pageopacity="0"
     inkscape:pageshadow="2"
     inkscape:window-width="3840"
     inkscape:window-height="1531"
     id="namedview3048"
     showgrid="false"
     inkscape:zoom="4"
     inkscape:cx="-35.980789"
     inkscape:cy="12.745717"
     inkscape:window-x="0"
     inkscape:window-y="32"
     inkscape:window-maximized="1"
     inkscape:current-layer="svg2"
     inkscape:document-rotation="0" />
  <defs
     id="defs4" />
  <g
     id="g10"
     transform="matrix(1.25,0,0,1.25,-12.5,-12.5)"
     style="stroke-width:0.8">
    <rect
       style="opacity:1;fill:#ffffeb;fill-opacity:1;fill-rule:nonzero;stroke:none;stroke-width:3.02362;stroke-miterlimit:4;stroke-dasharray:none;stroke-opacity:1"
       id="rect812"
       width="68.75"
       height="68.75"
       x="15.625"
       y="15.625"
       rx="3.2"
       ry="3.2" />
    <path
       inkscape:connector-curvature="0"
       d="m 75.454542,48.181821 v 3.636355 q 0,0.795459 -0.51136,1.306818 -0.51136,0.51137 -1.306817,0.51137 H 26.363636 q -0.795458,0 -1.306818,-0.51137 -0.51136,-0.51136 -0.51136,-1.306818 v -3.636355 q 0,-0.795457 0.51136,-1.306827 0.51136,-0.511358 1.306818,-0.511358 h 47.272729 q 0.795457,0 1.306817,0.511358 0.51136,0.51137 0.51136,1.306827 z m 7.272729,25.454543 V 26.363636 q 0,-3.75 -2.670453,-6.420453 -2.670453,-2.670454 -6.420453,-2.670454 H 26.363636 q -3.75,0 -6.420454,2.670454 -2.670453,2.670453 -2.670453,6.420453 v 47.272728 q 0,3.75 2.670453,6.420452 2.670454,2.670455 6.420454,2.670455 h 47.272729 q 3.75,0 6.420453,-2.670455 2.670453,-2.670452 2.670453,-6.420452 z M 90,26.363636 V 73.636364 Q 90,80.397723 85.198862,85.198862 80.397725,90 73.636365,90 H 26.363636 Q 19.602276,90 14.801138,85.198862 10,80.397723 10,73.636364 V 26.363636 Q 10,19.602276 14.801138,14.801139 19.602276,10 26.363636,10 h 47.272729 q 6.76136,0 11.562497,4.801139 Q 90,19.602276 90,26.363636 Z"
       id="path5355"
       style="fill:#310049;fill-opacity:1;stroke-width:0.8" />
  </g>
</svg>
