<?xml version="1.0" encoding="UTF-8" standalone="no"?>
<svg
   xmlns:dc="http://purl.org/dc/elements/1.1/"
   xmlns:cc="http://creativecommons.org/ns#"
   xmlns:rdf="http://www.w3.org/1999/02/22-rdf-syntax-ns#"
   xmlns:svg="http://www.w3.org/2000/svg"
   xmlns="http://www.w3.org/2000/svg"
   xmlns:sodipodi="http://sodipodi.sourceforge.net/DTD/sodipodi-0.dtd"
   xmlns:inkscape="http://www.inkscape.org/namespaces/inkscape"
   version="1.0"
   width="100"
   height="100"
   id="svg2"
   inkscape:version="1.0.1 (3bc2e813f5, 2020-09-07)"
   sodipodi:docname="repeat.svg">
  <metadata
     id="metadata3050">
    <rdf:RDF>
      <cc:Work
         rdf:about="">
        <dc:format>image/svg+xml</dc:format>
        <dc:type
           rdf:resource="http://purl.org/dc/dcmitype/StillImage" />
      </cc:Work>
    </rdf:RDF>
  </metadata>
  <sodipodi:namedview
     pagecolor="#ffffff"
     bordercolor="#666666"
     borderopacity="1"
     objecttolerance="10"
     gridtolerance="10"
     guidetolerance="10"
     inkscape:pageopacity="0"
     inkscape:pageshadow="2"
     inkscape:window-width="3840"
     inkscape:window-height="1531"
     id="namedview3048"
     showgrid="false"
     inkscape:zoom="1.4142136"
     inkscape:cx="46.721551"
     inkscape:cy="-88.572288"
     inkscape:window-x="0"
     inkscape:window-y="32"
     inkscape:window-maximized="1"
     inkscape:current-layer="svg2"
     inkscape:document-rotation="0" />
  <defs
     id="defs4" />
  <g
     id="g8"
     transform="matrix(1.25,0,0,1.25,-12.5,-12.5)"
     style="stroke-width:0.8">
    <path
       inkscape:connector-curvature="0"
       d="M 90,16.666667 V 40 q 0,1.354168 -0.989582,2.343752 -0.989582,0.989582 -2.343751,0.989582 H 63.333333 q -2.187502,0 -3.072915,-2.083334 -0.885422,-2.031253 0.729164,-3.593751 l 7.187503,-7.187502 Q 60.468747,23.333334 50,23.333334 q -5.416667,0 -10.338542,2.109378 -4.921876,2.109368 -8.515627,5.703119 -3.593751,3.593751 -5.70312,8.515626 Q 23.333333,44.583334 23.333333,50 q 0,5.416667 2.109378,10.338543 2.109369,4.921875 5.70312,8.515625 3.593751,3.593752 8.515627,5.70312 4.921875,2.109379 10.338542,2.109379 6.19792,0 11.718747,-2.70833 5.520835,-2.708337 9.322915,-7.656256 0.364587,-0.520827 1.19792,-0.624996 0.781254,0 1.30208,0.468746 l 7.135423,7.187502 q 0.468746,0.416667 0.494791,1.067707 0.02604,0.65104 -0.390623,1.171875 -5.677084,6.875005 -13.75,10.65104 Q 58.958329,90 50,90 41.875004,90 34.479164,86.822915 27.083333,83.645831 21.718747,78.281254 16.354169,72.916667 13.177084,65.520836 10,58.125005 10,50 10,41.875005 13.177084,34.479165 16.354169,27.083334 21.718747,21.718747 27.083333,16.354168 34.479164,13.177085 41.875004,9.9999995 50,9.9999995 q 7.656249,0 14.817707,2.8906235 7.161458,2.890631 12.734373,8.151049 l 6.770836,-6.718756 Q 85.833333,12.708338 87.968747,13.593752 90,14.479165 90,16.666667 Z"
       id="path4247"
       style="fill:#310049;fill-opacity:1;stroke-width:0.8" />
  </g>
</svg>
