<?xml version="1.0" encoding="UTF-8" standalone="no"?>
<svg
   xmlns:dc="http://purl.org/dc/elements/1.1/"
   xmlns:cc="http://creativecommons.org/ns#"
   xmlns:rdf="http://www.w3.org/1999/02/22-rdf-syntax-ns#"
   xmlns:svg="http://www.w3.org/2000/svg"
   xmlns="http://www.w3.org/2000/svg"
   xmlns:sodipodi="http://sodipodi.sourceforge.net/DTD/sodipodi-0.dtd"
   xmlns:inkscape="http://www.inkscape.org/namespaces/inkscape"
   version="1.0"
   width="100"
   height="100"
   id="svg2"
   inkscape:version="1.0.1 (3bc2e813f5, 2020-09-07)"
   sodipodi:docname="righton.svg">
  <metadata
     id="metadata3050">
    <rdf:RDF>
      <cc:Work
         rdf:about="">
        <dc:format>image/svg+xml</dc:format>
        <dc:type
           rdf:resource="http://purl.org/dc/dcmitype/StillImage" />
        <dc:title />
      </cc:Work>
    </rdf:RDF>
  </metadata>
  <sodipodi:namedview
     pagecolor="#ffffff"
     bordercolor="#666666"
     borderopacity="1"
     objecttolerance="10"
     gridtolerance="10"
     guidetolerance="10"
     inkscape:pageopacity="0"
     inkscape:pageshadow="2"
     inkscape:window-width="3840"
     inkscape:window-height="1531"
     id="namedview3048"
     showgrid="false"
     inkscape:zoom="5.6568544"
     inkscape:cx="-7.7666181"
     inkscape:cy="38.218056"
     inkscape:window-x="0"
     inkscape:window-y="32"
     inkscape:window-maximized="1"
     inkscape:current-layer="svg2"
     inkscape:document-rotation="0" />
  <defs
     id="defs4" />
  <g
     id="g14"
     transform="matrix(1.25,0,0,1.25,-12.5,-12.5)"
     style="stroke-width:0.8">
    <rect
       style="opacity:1;fill:#ffffeb;fill-opacity:1;fill-rule:nonzero;stroke:none;stroke-width:3.02362;stroke-miterlimit:4;stroke-dasharray:none;stroke-opacity:1"
       id="rect814"
       width="28.637823"
       height="75.48365"
       x="15.556349"
       y="11.611654"
       rx="3.2"
       ry="3.2" />
    <g
       id="g10"
       transform="translate(4.567879,-5.0000005)"
       style="stroke-width:0.8">
      <path
         style="fill:#310049;fill-opacity:1;stroke-width:0.8"
         inkscape:connector-curvature="0"
         id="path4759"
         d="m 81.975155,18.333334 v 73.333333 q 0,1.354169 -0.989583,2.343751 -0.989582,0.989583 -2.343751,0.989583 H 51.975155 q -1.354169,0 -2.343751,-0.989583 -0.989583,-0.989582 -0.989583,-2.343751 V 18.333334 q 0,-1.354169 0.989583,-2.343751 Q 50.620986,15 51.975155,15 h 26.666666 q 1.354169,0 2.343751,0.989583 0.989583,0.989582 0.989583,2.343751 z" />
      <path
         style="fill:#310049;fill-opacity:1;stroke-width:0.8"
         id="path4759-6"
         d="m 12.22242,15 c -0.902779,0 -1.684028,0.329863 -2.3437499,0.989584 -0.6597209,0.659721 -0.9895831,1.440971 -0.9895831,2.34375 v 73.333333 c 0,0.90278 0.3298622,1.684029 0.9895831,2.34375 0.6597219,0.659721 1.4409709,0.989584 2.3437499,0.989584 h 26.666667 c 0.90278,0 1.684028,-0.329863 2.34375,-0.989584 0.659722,-0.659721 0.989583,-1.44097 0.989583,-2.34375 V 18.333334 c 0,-0.902779 -0.329861,-1.684029 -0.989583,-2.34375 C 40.573115,15.329863 39.791867,15 38.889087,15 Z m 2.638889,4.006945 h 21.387153 c 0.724039,0 1.351105,0.296991 1.880208,0.890625 0.529104,0.593635 0.793403,1.29703 0.793404,2.109374 v 65.986113 c 0,0.812344 -0.2643,1.515739 -0.793404,2.109374 -0.529103,0.593635 -1.156169,0.890626 -1.880208,0.890626 H 14.861309 c -0.724038,0 -1.349369,-0.296991 -1.878472,-0.890626 -0.529103,-0.593635 -0.795138,-1.29703 -0.795138,-2.109374 V 22.006944 c 0,-0.812344 0.266035,-1.515739 0.795138,-2.109374 0.529103,-0.593634 1.154434,-0.890625 1.878472,-0.890625 z"
         inkscape:connector-curvature="0" />
    </g>
  </g>
</svg>
