<?xml version="1.0" encoding="UTF-8" standalone="no"?>
<svg
   xmlns:dc="http://purl.org/dc/elements/1.1/"
   xmlns:cc="http://creativecommons.org/ns#"
   xmlns:rdf="http://www.w3.org/1999/02/22-rdf-syntax-ns#"
   xmlns:svg="http://www.w3.org/2000/svg"
   xmlns="http://www.w3.org/2000/svg"
   xmlns:sodipodi="http://sodipodi.sourceforge.net/DTD/sodipodi-0.dtd"
   xmlns:inkscape="http://www.inkscape.org/namespaces/inkscape"
   version="1.0"
   width="100"
   height="100"
   id="svg2"
   inkscape:version="1.0.1 (3bc2e813f5, 2020-09-07)"
   sodipodi:docname="save.svg">
  <metadata
     id="metadata3127">
    <rdf:RDF>
      <cc:Work
         rdf:about="">
        <dc:format>image/svg+xml</dc:format>
        <dc:type
           rdf:resource="http://purl.org/dc/dcmitype/StillImage" />
      </cc:Work>
    </rdf:RDF>
  </metadata>
  <sodipodi:namedview
     pagecolor="#ffffff"
     bordercolor="#666666"
     borderopacity="1"
     objecttolerance="10"
     gridtolerance="10"
     guidetolerance="10"
     inkscape:pageopacity="0"
     inkscape:pageshadow="2"
     inkscape:window-width="3840"
     inkscape:window-height="1531"
     id="namedview3125"
     showgrid="false"
     inkscape:zoom="6.675088"
     inkscape:cx="2.994714"
     inkscape:cy="50.974439"
     inkscape:window-x="0"
     inkscape:window-y="32"
     inkscape:window-maximized="1"
     inkscape:current-layer="svg2"
     inkscape:document-rotation="0" />
  <defs
     id="defs4" />
  <g
     id="g10"
     transform="matrix(1.1111111,0,0,1.1111111,-5.555555,-5.555555)"
     style="stroke-width:0.9">
    <path
       inkscape:connector-curvature="0"
       d="m 92.789632,35.412639 v 51.65968 c 0,1.484474 -0.519564,2.746278 -1.558692,3.785413 -1.039135,1.039128 -2.300939,1.558692 -3.785413,1.558692 H 12.62806 c -1.484474,0 -2.746275,-0.519564 -3.785403,-1.558692 C 7.803522,89.818597 7.283955,88.556793 7.283955,87.072319 V 12.254851 c 0,-1.484473 0.519567,-2.7462739 1.558702,-3.7854029 1.039128,-1.0391344 2.300929,-1.5587017 3.785403,-1.5587017 h 51.65968 c 1.484473,0 3.117394,0.37112 4.898762,1.1133599 1.781369,0.7422338 3.19162,1.6329178 4.230755,2.6720527 l 15.586972,15.586972 c 1.039129,1.039129 1.929813,2.449377 2.672053,4.230745 0.742233,1.781369 1.11335,3.41429 1.11335,4.898763 z"
       id="path4314-3"
       style="fill:#ffffeb;fill-opacity:1;stroke-width:0.855057"
       sodipodi:nodetypes="sscssssscsscsscs" />
    <path
       inkscape:connector-curvature="0"
       d="m 27.5,87.5 h 45 V 65 h -45 z m 52.5,0 h 7.5 V 35 q 0,-0.82031 -0.58594,-2.25586 -0.58593,-1.43555 -1.17187,-2.02148 L 69.27734,14.25781 Q 68.69141,13.67188 67.28516,13.08594 65.87891,12.5 65,12.5 v 24.375 q 0,2.34375 -1.64062,3.98438 Q 61.71875,42.5 59.375,42.5 h -33.75 q -2.34375,0 -3.98437,-1.64062 Q 20,39.21875 20,36.875 V 12.5 h -7.5 v 75 H 20 V 63.125 Q 20,60.78125 21.64063,59.14063 23.28125,57.5 25.625,57.5 h 48.75 q 2.34375,0 3.98438,1.64063 Q 80,60.78125 80,63.125 Z M 57.5,33.125 v -18.75 q 0,-0.76172 -0.55664,-1.31836 Q 56.38672,12.5 55.625,12.5 h -11.25 q -0.76172,0 -1.31836,0.55664 Q 42.5,13.61328 42.5,14.375 v 18.75 q 0,0.76172 0.55664,1.31836 Q 43.61328,35 44.375,35 h 11.25 q 0.76172,0 1.31836,-0.55664 Q 57.5,33.88672 57.5,33.125 Z M 95,35 v 54.375 q 0,2.34375 -1.64062,3.98438 Q 91.71875,95 89.375,95 H 10.625 Q 8.28125,95 6.64063,93.35938 5,91.71875 5,89.375 V 10.625 Q 5,8.28125 6.64063,6.64063 8.28125,5 10.625,5 H 65 q 2.34375,0 5.15625,1.17188 2.8125,1.17187 4.45313,2.8125 l 16.40625,16.40625 q 1.64062,1.64062 2.8125,4.45312 Q 95,32.65625 95,35 Z"
       id="path4314"
       style="fill:#310049;fill-opacity:1;stroke-width:0.9" />
  </g>
</svg>
