<?xml version="1.0" encoding="UTF-8" standalone="no"?>
<svg
   xmlns:dc="http://purl.org/dc/elements/1.1/"
   xmlns:cc="http://creativecommons.org/ns#"
   xmlns:rdf="http://www.w3.org/1999/02/22-rdf-syntax-ns#"
   xmlns:svg="http://www.w3.org/2000/svg"
   xmlns="http://www.w3.org/2000/svg"
   xmlns:sodipodi="http://sodipodi.sourceforge.net/DTD/sodipodi-0.dtd"
   xmlns:inkscape="http://www.inkscape.org/namespaces/inkscape"
   viewBox="0 0 100 100"
   version="1.1"
   id="svg4"
   sodipodi:docname="screen.svg"
   inkscape:version="1.0.1 (3bc2e813f5, 2020-09-07)"
   width="100"
   height="100">
  <metadata
     id="metadata10">
    <rdf:RDF>
      <cc:Work
         rdf:about="">
        <dc:format>image/svg+xml</dc:format>
        <dc:type
           rdf:resource="http://purl.org/dc/dcmitype/StillImage" />
        <dc:title />
      </cc:Work>
    </rdf:RDF>
  </metadata>
  <defs
     id="defs8" />
  <sodipodi:namedview
     pagecolor="#ffffff"
     bordercolor="#666666"
     borderopacity="1"
     objecttolerance="10"
     gridtolerance="10"
     guidetolerance="10"
     inkscape:pageopacity="0"
     inkscape:pageshadow="2"
     inkscape:window-width="3840"
     inkscape:window-height="1531"
     id="namedview6"
     showgrid="false"
     inkscape:zoom="1.73125"
     inkscape:cx="-260.37419"
     inkscape:cy="-48.018127"
     inkscape:window-x="0"
     inkscape:window-y="32"
     inkscape:window-maximized="1"
     inkscape:current-layer="svg4"
     showguides="true"
     inkscape:guide-bbox="true"
     inkscape:document-rotation="0">
    <sodipodi:guide
       position="-231.99229,601.21946"
       orientation="0,1"
       id="guide891"
       inkscape:locked="false" />
  </sodipodi:namedview>
  <g
     id="g17"
     transform="matrix(1.25,0,0,1.25,-12.5,-12.5)"
     style="stroke-width:0.8">
    <g
       id="g843"
       transform="translate(0,1.0830334)"
       style="stroke-width:0.8">
      <g
         style="stroke-width:0.756211"
         transform="matrix(1,0,0,1.1191634,0,-1.8696182)"
         id="g837">
        <path
           inkscape:connector-curvature="0"
           d="m 86,72.404582 v -47 c 0,-2.7575 -2.2425,-5 -5,-5 H 19 c -2.7575,0 -5,2.2425 -5,5 v 47 z"
           id="path2-3"
           style="fill:#ffffeb;fill-opacity:1;stroke-width:0.756211"
           sodipodi:nodetypes="csssscc" />
        <path
           inkscape:connector-curvature="0"
           style="fill:#310049;fill-opacity:1;stroke-width:0.756211"
           d="m 22,23.689531 h 56 v 44 h 8 v -47 c 0,-2.7575 -2.2425,-5 -5,-5 H 19 c -2.7575,0 -5,2.2425 -5,5 v 47 h 8 z"
           id="path819" />
        <path
           style="fill:#310049;fill-opacity:1;stroke-width:0.756211"
           d="m 88,67.068592 c -25.765057,0 -53.491168,0 -76,0 -1.105,0 -2,0.895 -2,2 v 4 c 0,1.105 0.895,2 2,2 h 76 c 1.105,0 2,-0.895 2,-2 v -4 c 0,-1.105 -0.895,-2 -2,-2 z"
           id="path2"
           inkscape:connector-curvature="0"
           sodipodi:nodetypes="ccssssssc" />
      </g>
    </g>
  </g>
</svg>
