<?xml version="1.0" encoding="UTF-8" standalone="no"?>
<!-- Created with Inkscape (http://www.inkscape.org/) -->

<svg
   xmlns:dc="http://purl.org/dc/elements/1.1/"
   xmlns:cc="http://creativecommons.org/ns#"
   xmlns:rdf="http://www.w3.org/1999/02/22-rdf-syntax-ns#"
   xmlns:svg="http://www.w3.org/2000/svg"
   xmlns="http://www.w3.org/2000/svg"
   xmlns:sodipodi="http://sodipodi.sourceforge.net/DTD/sodipodi-0.dtd"
   xmlns:inkscape="http://www.inkscape.org/namespaces/inkscape"
   version="1.0"
   width="120"
   height="70"
   id="svg2"
   inkscape:version="0.92.2 5c3e80d, 2017-08-06"
   sodipodi:docname="slider-off.svg">
  <metadata
     id="metadata3050">
    <rdf:RDF>
      <cc:Work
         rdf:about="">
        <dc:format>image/svg+xml</dc:format>
        <dc:type
           rdf:resource="http://purl.org/dc/dcmitype/StillImage" />
        <dc:title />
      </cc:Work>
    </rdf:RDF>
  </metadata>
  <sodipodi:namedview
     pagecolor="#ffffff"
     bordercolor="#666666"
     borderopacity="1"
     objecttolerance="10"
     gridtolerance="10"
     guidetolerance="10"
     inkscape:pageopacity="0"
     inkscape:pageshadow="2"
     inkscape:window-width="1920"
     inkscape:window-height="983"
     id="namedview3048"
     showgrid="false"
     inkscape:zoom="8.0000002"
     inkscape:cx="19.425291"
     inkscape:cy="54.306482"
     inkscape:window-x="0"
     inkscape:window-y="27"
     inkscape:window-maximized="1"
     inkscape:current-layer="svg2" />
  <defs
     id="defs4" />
  <circle
     style="opacity:1;fill:#ffffeb;fill-opacity:1;fill-rule:nonzero;stroke:#ffffeb;stroke-width:3.77952766;stroke-miterlimit:4;stroke-dasharray:none;stroke-opacity:1"
     id="path814"
     cx="33.5625"
     cy="35.0625"
     r="21.9375" />
  <g
     id="g4286"
     transform="matrix(1.1101625,0,0,1.1101625,132.17737,-57.28944)"
     style="stroke:#310049;stroke-opacity:1">
    <rect
       rx="23.719604"
       y="60.597919"
       x="-108.90263"
       height="45.067101"
       width="87.774994"
       id="rect4267"
       style="opacity:1;fill:none;fill-opacity:1;stroke:#310049;stroke-width:3;stroke-miterlimit:4;stroke-dasharray:none;stroke-opacity:1" />
  </g>
  <path
     inkscape:connector-curvature="0"
     d="m 50.57478,44.431379 q 0,-1.08503 -0.7929,-1.87793 l -7.55345,-7.55345 7.55345,-7.55345 q 0.7929,-0.7929 0.7929,-1.877928 0,-1.12676 -0.7929,-1.91966 l -3.75586,-3.75586 q -0.7929,-0.7929 -1.91966,-0.7929 -1.08503,0 -1.87793,0.7929 l -7.55345,7.553448 -7.55345,-7.553448 q -0.7929,-0.7929 -1.87793,-0.7929 -1.12676,0 -1.91966,0.7929 l -3.75586,3.75586 q -0.7929,0.7929 -0.7929,1.91966 0,1.085028 0.7929,1.877928 l 7.55345,7.55345 -7.55345,7.55345 q -0.7929,0.7929 -0.7929,1.87793 0,1.12676 0.7929,1.91966 l 3.75586,3.75586 q 0.7929,0.7929 1.91966,0.7929 1.08503,0 1.87793,-0.7929 l 7.55345,-7.55345 7.55345,7.55345 q 0.7929,0.7929 1.87793,0.7929 1.12676,0 1.91966,-0.7929 l 3.75586,-3.75586 q 0.7929,-0.7929 0.7929,-1.91966 z m 16.1502,-9.43138 q 0,8.72194 -4.29838,16.0876 -4.29836,7.36566 -11.66402,11.66402 -7.36566,4.29838 -16.0876,4.29838 -8.72194,0 -16.0876,-4.29838 -7.36566,-4.29836 -11.6640202,-11.66402 -4.2983795,-7.36566 -4.2983795,-16.0876 0,-8.721938 4.2983795,-16.087598 4.2983602,-7.36566 11.6640202,-11.66402 7.36566,-4.29838 16.0876,-4.29838 8.72194,0 16.0876,4.29838 7.36566,4.29836 11.66402,11.66402 4.29838,7.36566 4.29838,16.087598 z"
     id="path14"
     style="fill:#a70006;fill-opacity:1" />
</svg>
