<?xml version="1.0" encoding="UTF-8" standalone="no"?>
<svg
   xmlns:dc="http://purl.org/dc/elements/1.1/"
   xmlns:cc="http://creativecommons.org/ns#"
   xmlns:rdf="http://www.w3.org/1999/02/22-rdf-syntax-ns#"
   xmlns:svg="http://www.w3.org/2000/svg"
   xmlns="http://www.w3.org/2000/svg"
   xmlns:sodipodi="http://sodipodi.sourceforge.net/DTD/sodipodi-0.dtd"
   xmlns:inkscape="http://www.inkscape.org/namespaces/inkscape"
   width="100"
   height="100"
   viewBox="0 0 100 100"
   version="1.1"
   id="svg4"
   sodipodi:docname="special_guide.svg"
   inkscape:version="0.92.2 5c3e80d, 2017-08-06">
  <metadata
     id="metadata10">
    <rdf:RDF>
      <cc:Work
         rdf:about="">
        <dc:format>image/svg+xml</dc:format>
        <dc:type
           rdf:resource="http://purl.org/dc/dcmitype/StillImage" />
        <dc:title></dc:title>
      </cc:Work>
    </rdf:RDF>
  </metadata>
  <defs
     id="defs8" />
  <sodipodi:namedview
     pagecolor="#ffffff"
     bordercolor="#666666"
     borderopacity="1"
     objecttolerance="10"
     gridtolerance="10"
     guidetolerance="10"
     inkscape:pageopacity="0"
     inkscape:pageshadow="2"
     inkscape:window-width="1920"
     inkscape:window-height="983"
     id="namedview6"
     showgrid="false"
     inkscape:zoom="5.9599"
     inkscape:cx="45.05333"
     inkscape:cy="77.396662"
     inkscape:window-x="0"
     inkscape:window-y="27"
     inkscape:window-maximized="1"
     inkscape:current-layer="svg4" />
  <rect
     style="opacity:1;fill:#ffffff;fill-opacity:1;fill-rule:nonzero;stroke:#fffffe;stroke-width:1;stroke-miterlimit:4;stroke-dasharray:none;stroke-opacity:1"
     id="rect817"
     width="41.611435"
     height="23.825903"
     x="30.369637"
     y="21.810768"
     ry="4.171" />
  <path
     d="m 88.760299,29.919875 q 1.92154,2.738199 0.86469,6.196977 l -13.21061,43.522953 q -0.91273,3.074469 -3.67495,5.164147 -2.76222,2.089678 -5.88473,2.089678 H 22.515094 q -3.698971,0 -7.133729,-2.570064 -3.434758,-2.570064 -4.779839,-6.317073 -1.152925,-3.218585 -0.09608,-6.1009 0,-0.192154 0.144116,-1.297041 0.144116,-1.104888 0.192154,-1.777428 0.04804,-0.384308 -0.144115,-1.032829 -0.192155,-0.648521 -0.144116,-0.936752 0.09608,-0.528425 0.384308,-1.008811 0.288232,-0.480385 0.792637,-1.128906 0.504405,-0.648521 0.792637,-1.128907 1.104887,-1.825466 2.161736,-4.39553 1.056848,-2.570064 1.441157,-4.39553 0.144116,-0.480386 0.02402,-1.441157 -0.120096,-0.960772 -0.02402,-1.34508 0.144116,-0.528425 0.816656,-1.345081 0.67254,-0.816655 0.816656,-1.104887 1.00881,-1.729389 2.01762,-4.419549 1.00881,-2.690161 1.200965,-4.323472 0.04804,-0.432348 -0.120097,-1.537235 -0.168135,-1.104887 0.02402,-1.34508 0.192155,-0.624502 1.056849,-1.465177 0.864695,-0.840675 1.056849,-1.080868 0.912733,-1.249003 2.041639,-4.05926 1.128907,-2.810257 1.321061,-4.635723 0.04804,-0.384308 -0.144115,-1.224983 -0.192155,-0.840675 -0.09608,-1.273023 0.09608,-0.384308 0.432348,-0.864694 0.33627,-0.480386 0.864694,-1.104887 0.528424,-0.624502 0.816656,-1.008811 0.384309,-0.576463 0.792637,-1.465176 0.408327,-0.888714 0.720578,-1.681351 0.312251,-0.792636 0.768617,-1.729388 0.456367,-0.936753 0.936753,-1.537237 0.480386,-0.60048 1.273022,-1.1289 0.792637,-0.52843 1.729389,-0.55245 0.936752,-0.024 2.281832,0.26421 l -0.04804,0.14412 q 1.825466,-0.43235 2.449967,-0.43235 h 36.557353 q 3.55486,0 5.4764,2.690163 1.92154,2.69016 0.86469,6.245015 l -13.16257,43.522953 q -1.72938,5.716591 -3.43475,7.373922 -1.70537,1.657331 -6.17296,1.657331 H 17.519082 q -1.297042,0 -1.825466,0.720578 -0.528425,0.768618 -0.04804,2.065659 1.152926,3.362701 6.917556,3.362701 h 44.339607 q 1.39312,0 2.69016,-0.744598 1.29704,-0.744598 1.68135,-1.993601 l 14.41158,-47.414078 q 0.33627,-1.056848 0.24019,-2.738199 1.82547,0.720579 2.83428,2.065659 z m -51.113053,0.09608 q -0.192154,0.624502 0.09608,1.080868 0.288231,0.456367 0.960771,0.456367 h 29.207452 q 0.6245,0 1.22499,-0.456367 0.60048,-0.456366 0.79263,-1.080868 l 1.00881,-3.074469 q 0.19216,-0.624501 -0.0961,-1.080868 -0.28824,-0.456366 -0.96078,-0.456366 H 40.673677 q -0.624502,0 -1.224984,0.456366 -0.600482,0.456367 -0.792636,1.080868 z m -3.987202,12.297877 q -0.192154,0.624501 0.09608,1.080868 0.288231,0.456366 0.960771,0.456366 h 29.207454 q 0.6245,0 1.22498,-0.456366 0.60049,-0.456367 0.79264,-1.080868 l 1.00881,-3.074469 q 0.19216,-0.624502 -0.0961,-1.080868 -0.28823,-0.456367 -0.96077,-0.456367 H 36.686475 q -0.624502,0 -1.224984,0.456367 -0.600482,0.456366 -0.792636,1.080868 z"
     id="path2"
     inkscape:connector-curvature="0"
     style="stroke-width:0.04803858" />
</svg>
