<?xml version="1.0" encoding="UTF-8" standalone="no"?>
<svg
   xmlns:dc="http://purl.org/dc/elements/1.1/"
   xmlns:cc="http://creativecommons.org/ns#"
   xmlns:rdf="http://www.w3.org/1999/02/22-rdf-syntax-ns#"
   xmlns:svg="http://www.w3.org/2000/svg"
   xmlns="http://www.w3.org/2000/svg"
   xmlns:sodipodi="http://sodipodi.sourceforge.net/DTD/sodipodi-0.dtd"
   xmlns:inkscape="http://www.inkscape.org/namespaces/inkscape"
   version="1.0"
   width="100"
   height="100"
   id="svg2"
   inkscape:version="1.0.1 (3bc2e813f5, 2020-09-07)"
   sodipodi:docname="stop.svg">
  <metadata
     id="metadata3050">
    <rdf:RDF>
      <cc:Work
         rdf:about="">
        <dc:format>image/svg+xml</dc:format>
        <dc:type
           rdf:resource="http://purl.org/dc/dcmitype/StillImage" />
        <dc:title />
      </cc:Work>
    </rdf:RDF>
  </metadata>
  <sodipodi:namedview
     pagecolor="#ffffff"
     bordercolor="#666666"
     borderopacity="1"
     objecttolerance="10"
     gridtolerance="10"
     guidetolerance="10"
     inkscape:pageopacity="0"
     inkscape:pageshadow="2"
     inkscape:window-width="3840"
     inkscape:window-height="1531"
     id="namedview3048"
     showgrid="false"
     inkscape:zoom="6.675088"
     inkscape:cx="42.559976"
     inkscape:cy="48.928603"
     inkscape:window-x="0"
     inkscape:window-y="32"
     inkscape:window-maximized="1"
     inkscape:current-layer="svg2"
     inkscape:document-rotation="0" />
  <defs
     id="defs4" />
  <g
     id="g10"
     transform="matrix(1.1809111,0,0,1.1756508,-9.0454833,-8.7842399)"
     style="stroke-width:0.848697">
    <path
       inkscape:connector-curvature="0"
       id="path832-3"
       d="m 61.195732,89.746476 7.9e-5,-1e-5 c -2.3439,0.56857 -6.690607,0.80511 -8.759594,0.4767 -5.40002,-0.85715 -10.304378,-3.49619 -13.377372,-7.198408 -1.385849,-1.66962 -2.764888,-4.087732 -3.279234,-5.75005 C 35.614835,76.742155 33.582009,71.913914 31.262207,66.545294 23.39388,48.335888 23.674856,49.033313 23.674856,47.712549 c 0,-1.023469 0.114296,-1.326813 0.741525,-1.968376 1.426963,-1.459554 3.194338,-1.585056 5.690631,-0.404114 1.991981,0.942351 3.433676,2.722504 5.526491,6.823936 l 1.819823,3.566433 0.0095,-19.4501 c 0.01111,-21.712564 -0.08033,-20.549702 1.703908,-21.730407 1.089681,-0.721109 2.995543,-0.986275 4.209441,-0.585653 0.992213,0.327457 2.185379,1.247694 2.634877,2.032159 0.219972,0.38389 0.3286,3.818788 0.418163,13.227263 0.105565,11.081445 0.167539,12.708711 0.484153,12.708711 0.317472,0 0.378318,-1.855873 0.484137,-14.766316 0.08683,-10.594688 0.200636,-14.90309 0.402796,-15.250454 1.304097,-2.2408269 4.605872,-2.9724129 6.815539,-1.510129 1.803424,1.193483 1.738276,0.560984 1.738276,16.865274 0,13.122985 0.0381,14.570427 0.387541,14.704486 0.213145,0.08175 0.483804,-0.0032 0.60148,-0.189143 0.11763,-0.185826 0.215797,-5.958972 0.217638,-12.829214 l 0.0032,-12.491359 0.546603,-0.822531 c 1.18834,-1.788201 3.927162,-2.41262 5.996562,-1.367181 1.501272,0.758415 2.168647,1.842921 2.182013,3.545813 0.0063,0.745858 0.03302,6.439537 0.06048,12.652611 0.02746,6.213074 0.126836,11.373549 0.221003,11.467747 0.09413,0.09414 0.33922,0.106835 0.544666,0.02794 0.32779,-0.125725 0.37354,-1.288349 0.37354,-9.482688 0,-10.222402 -0.01588,-10.100455 1.454744,-11.337688 2.011554,-1.692622 5.294931,-1.265077 6.831841,0.889632 l 0.548999,0.769653 V 48.58937 c 0,28.242205 0.06874,26.834703 -1.477047,30.220169 -1.853874,4.060126 -4.891881,7.125687 -9.143818,9.226727 -1.34802,0.66612 -3.376877,1.43573 -4.508546,1.71024 z"
       style="fill:none;fill-opacity:1;stroke:#ffffe6;stroke-width:4.24348;stroke-miterlimit:4;stroke-dasharray:none;stroke-opacity:1"
       sodipodi:nodetypes="cccccssccccsccccssccsccccccccccssccsscc" />
    <path
       inkscape:connector-curvature="0"
       id="path832"
       d="m 60.654925,87.81458 7.5e-5,-1.5e-5 c -2.230524,0.54107 -6.366977,0.766172 -8.335886,0.453649 -5.138817,-0.815692 -9.805947,-3.327076 -12.730298,-6.85022 -1.318814,-1.588859 -2.631148,-3.890005 -3.120615,-5.471915 -0.156806,-0.506793 -2.091302,-5.101488 -4.298894,-10.210424 -7.48773,-17.328603 -7.220345,-16.664913 -7.220345,-17.921791 0,-0.973963 0.108768,-1.262634 0.705657,-1.873164 1.35794,-1.388954 3.039826,-1.508386 5.415371,-0.384567 1.895627,0.896769 3.267587,2.590815 5.25917,6.493857 l 1.731797,3.393922 0.009,-18.509283 c 0.01057,-20.662311 -0.07644,-19.555697 1.621488,-20.679291 1.036973,-0.686228 2.850647,-0.938568 4.005827,-0.557324 0.944219,0.311618 2.079671,1.187342 2.507426,1.933862 0.209332,0.365321 0.312706,3.63407 0.397937,12.58745 0.100458,10.545427 0.159435,12.09398 0.460734,12.09398 0.302115,0 0.360018,-1.766103 0.460719,-14.052057 0.08263,-10.082215 0.190931,-14.182216 0.383312,-14.512778 1.241017,-2.132436 4.383083,-2.828635 6.485866,-1.437083 1.716191,1.135753 1.654195,0.533849 1.654195,16.049488 0,12.488216 0.03626,13.865644 0.368795,13.993218 0.202835,0.0778 0.460402,-0.003 0.572386,-0.179994 0.11194,-0.176837 0.205359,-5.670732 0.20711,-12.208655 l 0.003,-11.887142 0.520164,-0.782744 c 1.130859,-1.701705 3.737202,-2.29592 5.706504,-1.30105 1.428654,0.72173 2.063747,1.753778 2.076467,3.374299 0.006,0.70978 0.03142,6.128052 0.05755,12.040595 0.02613,5.912542 0.120701,10.823401 0.210313,10.913043 0.08958,0.08959 0.322812,0.101667 0.51832,0.02659 0.311935,-0.119643 0.355472,-1.22603 0.355472,-9.024003 0,-9.727936 -0.01511,-9.611888 1.384376,-10.789275 1.914254,-1.610749 5.038811,-1.203884 6.50138,0.8466 l 0.522443,0.732424 v 24.533493 c 0,26.876108 0.06542,25.536687 -1.405601,28.758396 -1.764201,3.863734 -4.655257,6.781016 -8.701524,8.780425 -1.282815,0.6339 -3.213535,1.36628 -4.290464,1.627516 z"
       style="fill:#310049;fill-opacity:1;stroke-width:3.20767"
       sodipodi:nodetypes="cccccssccccsccccssccsccccccccccssccsscc" />
  </g>
  <g
     id="g16"
     transform="matrix(1.1809111,0,0,1.1756508,-9.0454833,-8.7842399)"
     style="stroke-width:0.848697">
    <path
       inkscape:connector-curvature="0"
       id="path12"
       d="m 61.195732,89.746476 7.9e-5,-1e-5 c -2.3439,0.56857 -6.690607,0.80511 -8.759594,0.4767 -5.40002,-0.85715 -10.304378,-3.49619 -13.377372,-7.198408 -1.385849,-1.66962 -2.764888,-4.087732 -3.279234,-5.75005 C 35.614835,76.742155 33.582009,71.913914 31.262207,66.545294 23.39388,48.335888 23.674856,49.033313 23.674856,47.712549 c 0,-1.023469 0.114296,-1.326813 0.741525,-1.968376 1.426963,-1.459554 3.194338,-1.585056 5.690631,-0.404114 1.991981,0.942351 3.433676,2.722504 5.526491,6.823936 l 1.819823,3.566433 0.0095,-19.4501 c 0.01111,-21.712564 -0.08033,-20.549702 1.703908,-21.730407 1.089681,-0.721109 2.995543,-0.986275 4.209441,-0.585653 0.992213,0.327457 2.185379,1.247694 2.634877,2.032159 0.219972,0.38389 0.3286,3.818788 0.418163,13.227263 0.105565,11.081445 0.167539,12.708711 0.484153,12.708711 0.317472,0 0.378318,-1.855873 0.484137,-14.766316 0.08683,-10.594688 0.200636,-14.90309 0.402796,-15.250454 1.304097,-2.2408269 4.605872,-2.9724129 6.815539,-1.510129 1.803424,1.193483 1.738276,0.560984 1.738276,16.865274 0,13.122985 0.0381,14.570427 0.387541,14.704486 0.213145,0.08175 0.483804,-0.0032 0.60148,-0.189143 0.11763,-0.185826 0.215797,-5.958972 0.217638,-12.829214 l 0.0032,-12.491359 0.546603,-0.822531 c 1.18834,-1.788201 3.927162,-2.41262 5.996562,-1.367181 1.501272,0.758415 2.168647,1.842921 2.182013,3.545813 0.0063,0.745858 0.03302,6.439537 0.06048,12.652611 0.02746,6.213074 0.126836,11.373549 0.221003,11.467747 0.09413,0.09414 0.33922,0.106835 0.544666,0.02794 0.32779,-0.125725 0.37354,-1.288349 0.37354,-9.482688 0,-10.222402 -0.01588,-10.100455 1.454744,-11.337688 2.011554,-1.692622 5.294931,-1.265077 6.831841,0.889632 l 0.548999,0.769653 V 48.58937 c 0,28.242205 0.06874,26.834703 -1.477047,30.220169 -1.853874,4.060126 -4.891881,7.125687 -9.143818,9.226727 -1.34802,0.66612 -3.376877,1.43573 -4.508546,1.71024 z"
       style="fill:none;fill-opacity:1;stroke:#ffffe6;stroke-width:4.24348;stroke-miterlimit:4;stroke-dasharray:none;stroke-opacity:1"
       sodipodi:nodetypes="cccccssccccsccccssccsccccccccccssccsscc" />
    <path
       inkscape:connector-curvature="0"
       id="path14"
       d="m 60.654925,87.81458 7.5e-5,-1.5e-5 c -2.230524,0.54107 -6.366977,0.766172 -8.335886,0.453649 -5.138817,-0.815692 -9.805947,-3.327076 -12.730298,-6.85022 -1.318814,-1.588859 -2.631148,-3.890005 -3.120615,-5.471915 -0.156806,-0.506793 -2.091302,-5.101488 -4.298894,-10.210424 -7.48773,-17.328603 -7.220345,-16.664913 -7.220345,-17.921791 0,-0.973963 0.108768,-1.262634 0.705657,-1.873164 1.35794,-1.388954 3.039826,-1.508386 5.415371,-0.384567 1.895627,0.896769 3.267587,2.590815 5.25917,6.493857 l 1.731797,3.393922 0.009,-18.509283 c 0.01057,-20.662311 -0.07644,-19.555697 1.621488,-20.679291 1.036973,-0.686228 2.850647,-0.938568 4.005827,-0.557324 0.944219,0.311618 2.079671,1.187342 2.507426,1.933862 0.209332,0.365321 0.312706,3.63407 0.397937,12.58745 0.100458,10.545427 0.159435,12.09398 0.460734,12.09398 0.302115,0 0.360018,-1.766103 0.460719,-14.052057 0.08263,-10.082215 0.190931,-14.182216 0.383312,-14.512778 1.241017,-2.132436 4.383083,-2.828635 6.485866,-1.437083 1.716191,1.135753 1.654195,0.533849 1.654195,16.049488 0,12.488216 0.03626,13.865644 0.368795,13.993218 0.202835,0.0778 0.460402,-0.003 0.572386,-0.179994 0.11194,-0.176837 0.205359,-5.670732 0.20711,-12.208655 l 0.003,-11.887142 0.520164,-0.782744 c 1.130859,-1.701705 3.737202,-2.29592 5.706504,-1.30105 1.428654,0.72173 2.063747,1.753778 2.076467,3.374299 0.006,0.70978 0.03142,6.128052 0.05755,12.040595 0.02613,5.912542 0.120701,10.823401 0.210313,10.913043 0.08958,0.08959 0.322812,0.101667 0.51832,0.02659 0.311935,-0.119643 0.355472,-1.22603 0.355472,-9.024003 0,-9.727936 -0.01511,-9.611888 1.384376,-10.789275 1.914254,-1.610749 5.038811,-1.203884 6.50138,0.8466 l 0.522443,0.732424 v 24.533493 c 0,26.876108 0.06542,25.536687 -1.405601,28.758396 -1.764201,3.863734 -4.655257,6.781016 -8.701524,8.780425 -1.282815,0.6339 -3.213535,1.36628 -4.290464,1.627516 z"
       style="fill:#310049;fill-opacity:1;stroke-width:3.20767"
       sodipodi:nodetypes="cccccssccccsccccssccsccccccccccssccsscc" />
  </g>
</svg>
