<?xml version="1.0" encoding="UTF-8" standalone="no"?>
<!-- Created with Inkscape (http://www.inkscape.org/) -->

<svg
   xmlns:dc="http://purl.org/dc/elements/1.1/"
   xmlns:cc="http://creativecommons.org/ns#"
   xmlns:rdf="http://www.w3.org/1999/02/22-rdf-syntax-ns#"
   xmlns:svg="http://www.w3.org/2000/svg"
   xmlns="http://www.w3.org/2000/svg"
   xmlns:sodipodi="http://sodipodi.sourceforge.net/DTD/sodipodi-0.dtd"
   xmlns:inkscape="http://www.inkscape.org/namespaces/inkscape"
   version="1.0"
   width="100"
   height="100"
   id="svg2"
   inkscape:version="0.91 r13725"
   sodipodi:docname="tabs_configuration.svg">
  <sodipodi:namedview
     pagecolor="#ffffff"
     bordercolor="#666666"
     borderopacity="1"
     objecttolerance="10"
     gridtolerance="10"
     guidetolerance="10"
     inkscape:pageopacity="0"
     inkscape:pageshadow="2"
     inkscape:window-width="1920"
     inkscape:window-height="1163"
     id="namedview3048"
     showgrid="false"
     inkscape:zoom="0.5"
     inkscape:cx="-366.11455"
     inkscape:cy="141.6198"
     inkscape:window-x="1920"
     inkscape:window-y="0"
     inkscape:window-maximized="1"
     inkscape:current-layer="svg2" />
  <metadata
     id="metadata3050">
    <rdf:RDF>
      <cc:Work
         rdf:about="">
        <dc:format>image/svg+xml</dc:format>
        <dc:type
           rdf:resource="http://purl.org/dc/dcmitype/StillImage" />
      </cc:Work>
    </rdf:RDF>
  </metadata>
  <defs
     id="defs4" />
  <path
     inkscape:connector-curvature="0"
     d="m 53.46154,86.18389 34.61538,-18.8762 0,-34.39904 -34.61538,12.60217 0,40.67307 z M 50,39.39904 87.7524,25.66106 50,11.92308 12.2476,25.66106 Z m 45,-13.62981 0,41.53846 q 0,1.89303 -0.97356,3.51563 -0.97356,1.62259 -2.65024,2.54206 L 53.29928,94.13462 Q 51.78486,95 50,95 48.21514,95 46.70072,94.13462 L 8.6238,73.36538 Q 6.94712,72.44591 5.97356,70.82332 5,69.20072 5,67.30769 L 5,25.76923 Q 5,23.60577 6.24399,21.82091 7.48798,20.03606 9.54327,19.27885 L 47.62019,5.43269 Q 48.8101,5 50,5 q 1.1899,0 2.37981,0.43269 l 38.07692,13.84616 q 2.05529,0.75721 3.29928,2.54206 Q 95,23.60577 95,25.76923 Z"
     id="path4170"
     style="fill:#fbe16c;fill-opacity:1" />
</svg>
