<?xml version="1.0" encoding="UTF-8" standalone="no"?>
<!-- Created with Inkscape (http://www.inkscape.org/) -->

<svg
   xmlns:dc="http://purl.org/dc/elements/1.1/"
   xmlns:cc="http://creativecommons.org/ns#"
   xmlns:rdf="http://www.w3.org/1999/02/22-rdf-syntax-ns#"
   xmlns:svg="http://www.w3.org/2000/svg"
   xmlns="http://www.w3.org/2000/svg"
   xmlns:sodipodi="http://sodipodi.sourceforge.net/DTD/sodipodi-0.dtd"
   xmlns:inkscape="http://www.inkscape.org/namespaces/inkscape"
   version="1.0"
   width="100"
   height="100"
   id="svg2"
   inkscape:version="0.92.2 5c3e80d, 2017-08-06"
   sodipodi:docname="tabs_configuration.svg">
  <sodipodi:namedview
     pagecolor="#ffffff"
     bordercolor="#666666"
     borderopacity="1"
     objecttolerance="10"
     gridtolerance="10"
     guidetolerance="10"
     inkscape:pageopacity="0"
     inkscape:pageshadow="2"
     inkscape:window-width="1920"
     inkscape:window-height="983"
     id="namedview3048"
     showgrid="false"
     inkscape:zoom="2.8284271"
     inkscape:cx="111.79396"
     inkscape:cy="20.610951"
     inkscape:window-x="0"
     inkscape:window-y="27"
     inkscape:window-maximized="1"
     inkscape:current-layer="svg2" />
  <metadata
     id="metadata3050">
    <rdf:RDF>
      <cc:Work
         rdf:about="">
        <dc:format>image/svg+xml</dc:format>
        <dc:type
           rdf:resource="http://purl.org/dc/dcmitype/StillImage" />
      </cc:Work>
    </rdf:RDF>
  </metadata>
  <defs
     id="defs4" />
  <g
     id="g829"
     transform="translate(5,-5)">
    <path
       sodipodi:nodetypes="cccccccccc"
       style="fill:#ffffff;fill-opacity:1;stroke:#ffffff;stroke-width:0.8888889;stroke-opacity:1"
       id="path4170-3"
       d="M 48.076924,87.163458 78.846151,70.384613 V 39.807689 L 48.076924,51.009618 Z M 45,45.576924 78.557689,33.365387 45,21.153849 11.442311,33.365387 Z"
       inkscape:connector-curvature="0" />
    <path
       style="fill:#fbe16c;fill-opacity:1;stroke-width:0.8888889"
       id="path4170"
       d="M 48.076924,87.163458 78.846151,70.384613 V 39.807689 L 48.076924,51.009618 Z M 45,45.576924 78.557689,33.365387 45,21.153849 11.442311,33.365387 Z M 85,33.461538 v 36.923075 q 0,1.682694 -0.865387,3.125005 -0.865386,1.442302 -2.355769,2.259609 L 47.932693,94.230773 Q 46.586542,95 45,95 43.413458,95 42.067307,94.230773 L 8.2211556,75.769227 Q 6.7307733,74.95192 5.8653867,73.509618 5,72.067307 5,70.384613 V 33.461538 Q 5,31.538462 6.1057689,29.95192 7.2115378,28.365387 9.0384622,27.692311 L 42.884613,15.384613 Q 43.942311,15 45,15 q 1.057689,0 2.115387,0.384613 l 33.846151,12.307698 q 1.826924,0.673076 2.932693,2.259609 Q 85,31.538462 85,33.461538 Z"
       inkscape:connector-curvature="0" />
  </g>
</svg>
