<?xml version="1.0" encoding="UTF-8" standalone="no"?>
<!-- Created with Inkscape (http://www.inkscape.org/) -->

<svg
   xmlns:dc="http://purl.org/dc/elements/1.1/"
   xmlns:cc="http://creativecommons.org/ns#"
   xmlns:rdf="http://www.w3.org/1999/02/22-rdf-syntax-ns#"
   xmlns:svg="http://www.w3.org/2000/svg"
   xmlns="http://www.w3.org/2000/svg"
   xmlns:sodipodi="http://sodipodi.sourceforge.net/DTD/sodipodi-0.dtd"
   xmlns:inkscape="http://www.inkscape.org/namespaces/inkscape"
   version="1.0"
   width="100"
   height="100"
   id="svg2"
   inkscape:version="0.92.2 5c3e80d, 2017-08-06"
   sodipodi:docname="tabs_analysis.svg">
  <sodipodi:namedview
     pagecolor="#ffffff"
     bordercolor="#666666"
     borderopacity="1"
     objecttolerance="10"
     gridtolerance="10"
     guidetolerance="10"
     inkscape:pageopacity="0"
     inkscape:pageshadow="2"
     inkscape:window-width="1920"
     inkscape:window-height="1163"
     id="namedview3048"
     showgrid="false"
     inkscape:zoom="4"
     inkscape:cx="-5.793877"
     inkscape:cy="73.352187"
     inkscape:window-x="1920"
     inkscape:window-y="0"
     inkscape:window-maximized="1"
     inkscape:current-layer="svg2" />
  <metadata
     id="metadata3050">
    <rdf:RDF>
      <cc:Work
         rdf:about="">
        <dc:format>image/svg+xml</dc:format>
        <dc:type
           rdf:resource="http://purl.org/dc/dcmitype/StillImage" />
      </cc:Work>
    </rdf:RDF>
  </metadata>
  <defs
     id="defs4" />
  <path
     inkscape:connector-curvature="0"
     d="m 61.666666,33.333334 q 0,0.677084 -0.494791,1.171875 Q 60.677084,35 60,35 q -0.677085,0 -1.171876,-0.494791 -0.494791,-0.494791 -0.494791,-1.171875 0,-2.395832 -2.812498,-3.697921 Q 52.708337,28.333334 50,28.333334 q -0.677085,0 -1.171875,-0.494791 -0.494792,-0.494791 -0.494792,-1.171876 0,-0.677085 0.494791,-1.171875 Q 49.322915,25 50,25 q 2.604169,0 5.182293,0.833334 2.578124,0.833333 4.531244,2.812497 1.953129,1.979164 1.953129,4.687503 z m 8.333334,0 q 0,-3.75 -1.79687,-6.979166 -1.79688,-3.229173 -4.687503,-5.286462 -2.890622,-2.057289 -6.40625,-3.229164 Q 53.593752,16.666667 50,16.666667 q -3.59375,0 -7.109378,1.171876 -3.515617,1.171875 -6.406249,3.229164 -2.890622,2.057289 -4.687502,5.286462 Q 30,29.583334 30,33.333334 q 0,5.260418 3.541671,9.374994 0.520826,0.572925 1.588533,1.718756 1.067716,1.145831 1.588542,1.718747 6.666667,7.968756 7.343751,15.520836 h 11.875005 q 0.677084,-7.55208 7.343751,-15.520835 0.520827,-0.572916 1.588542,-1.718747 1.067707,-1.145831 1.588542,-1.718756 Q 70,38.593752 70,33.333334 Z m 6.666667,0 q 0,8.072915 -5.364586,13.958328 -2.343743,2.55209 -3.880206,4.531253 -1.536462,1.979166 -3.09896,4.973957 -1.562497,2.99479 -1.770834,5.598959 Q 65,63.854168 65,66.666667 65,68.593751 63.697921,70 65,71.406249 65,73.333333 65,76.041662 62.65625,77.55208 63.333333,78.75 63.333333,80 q 0,2.395831 -1.640622,3.69792 Q 60.05208,85 57.656249,85 56.614586,87.291662 54.531253,88.645831 52.44792,90 50,90 47.55208,90 45.468746,88.645831 43.385413,87.291662 42.343751,85 39.94792,85 38.307289,83.69792 36.666666,82.395831 36.666666,80 q 0,-1.25 0.677085,-2.447919 Q 35,76.041662 35,73.333333 35,71.406249 36.30208,70 35,68.593751 35,66.666667 q 0,-2.812499 2.44792,-4.270836 -0.208338,-2.604169 -1.770836,-5.598959 -1.562498,-2.994791 -3.09896,-4.973957 -1.536453,-1.979163 -3.880204,-4.531253 -5.364587,-5.885413 -5.364587,-13.958328 0,-5.15625 2.317707,-9.609378 2.317706,-4.45312 6.093751,-7.395831 3.776044,-2.942711 8.541671,-4.635413 Q 45.05208,9.9999995 50,9.9999995 q 4.94792,0 9.713537,1.6927125 4.765627,1.692702 8.541672,4.635413 3.776044,2.94271 6.093751,7.395831 2.317706,4.453128 2.317707,9.609378 z"
     id="path8739"
     style="stroke-width:1" />
</svg>
