<?xml version="1.0" encoding="UTF-8" standalone="no"?>
<!-- Created with Inkscape (http://www.inkscape.org/) -->

<svg
   xmlns:dc="http://purl.org/dc/elements/1.1/"
   xmlns:cc="http://creativecommons.org/ns#"
   xmlns:rdf="http://www.w3.org/1999/02/22-rdf-syntax-ns#"
   xmlns:svg="http://www.w3.org/2000/svg"
   xmlns="http://www.w3.org/2000/svg"
   xmlns:sodipodi="http://sodipodi.sourceforge.net/DTD/sodipodi-0.dtd"
   xmlns:inkscape="http://www.inkscape.org/namespaces/inkscape"
   version="1.0"
   width="100"
   height="100"
   id="svg2"
   inkscape:version="0.91 r13725"
   sodipodi:docname="tabs_analysis.svg">
  <sodipodi:namedview
     pagecolor="#ffffff"
     bordercolor="#666666"
     borderopacity="1"
     objecttolerance="10"
     gridtolerance="10"
     guidetolerance="10"
     inkscape:pageopacity="0"
     inkscape:pageshadow="2"
     inkscape:window-width="1920"
     inkscape:window-height="1163"
     id="namedview3048"
     showgrid="false"
     inkscape:zoom="4"
     inkscape:cx="48.581123"
     inkscape:cy="73.352187"
     inkscape:window-x="1920"
     inkscape:window-y="0"
     inkscape:window-maximized="1"
     inkscape:current-layer="svg2" />
  <metadata
     id="metadata3050">
    <rdf:RDF>
      <cc:Work
         rdf:about="">
        <dc:format>image/svg+xml</dc:format>
        <dc:type
           rdf:resource="http://purl.org/dc/dcmitype/StillImage" />
      </cc:Work>
    </rdf:RDF>
  </metadata>
  <defs
     id="defs4" />
  <path
     inkscape:connector-curvature="0"
     d="m 63.125,31.25 q 0,0.76172 -0.55664,1.31836 Q 62.01172,33.125 61.25,33.125 q -0.76172,0 -1.31836,-0.55664 Q 59.375,32.01172 59.375,31.25 q 0,-2.69531 -3.16406,-4.16016 Q 53.04688,25.625 50,25.625 q -0.76172,0 -1.31836,-0.55664 Q 48.125,24.51172 48.125,23.75 q 0,-0.76172 0.55664,-1.31836 Q 49.23828,21.875 50,21.875 q 2.92969,0 5.83008,0.9375 2.90039,0.9375 5.09765,3.16406 Q 63.125,28.20312 63.125,31.25 Z m 9.375,0 q 0,-4.21875 -2.02148,-7.85156 Q 68.45703,19.76562 65.20508,17.45117 61.95313,15.13672 57.99805,13.81836 54.04297,12.5 50,12.5 q -4.04297,0 -7.99805,1.31836 -3.95507,1.31836 -7.20703,3.63281 -3.25195,2.31445 -5.27344,5.94727 Q 27.5,27.03125 27.5,31.25 q 0,5.91797 3.98438,10.54687 0.58593,0.64454 1.7871,1.9336 1.20118,1.28906 1.78711,1.93359 7.5,8.96485 8.26172,17.46094 l 13.35938,0 q 0.76172,-8.49609 8.26172,-17.46094 0.58593,-0.64453 1.78711,-1.93359 1.20117,-1.28906 1.78711,-1.9336 Q 72.5,37.16797 72.5,31.25 Z m 7.5,0 q 0,9.08203 -6.03516,15.70312 -2.63671,2.8711 -4.36523,5.09766 -1.72852,2.22656 -3.48633,5.5957 -1.75781,3.36914 -1.99219,6.29883 2.75391,1.64063 2.75391,4.80469 0,2.16797 -1.46484,3.75 1.46484,1.58203 1.46484,3.75 0,3.04687 -2.63672,4.74609 Q 65,82.34375 65,83.75 65,86.44531 63.1543,87.91016 61.30859,89.375 58.61328,89.375 57.44141,91.95312 55.09766,93.47656 52.75391,95 50,95 47.24609,95 44.90234,93.47656 42.55859,91.95312 41.38672,89.375 38.69141,89.375 36.8457,87.91016 35,86.44531 35,83.75 35,82.34375 35.76172,80.99609 33.125,79.29687 33.125,76.25 q 0,-2.16797 1.46484,-3.75 -1.46484,-1.58203 -1.46484,-3.75 0,-3.16406 2.75391,-4.80469 -0.23438,-2.92969 -1.99219,-6.29883 -1.75781,-3.36914 -3.48633,-5.5957 Q 28.67188,49.82422 26.03516,46.95312 20,40.33203 20,31.25 20,25.44922 22.60742,20.43945 25.21484,15.42969 29.46289,12.11914 33.71094,8.80859 39.07227,6.9043 44.43359,5 50,5 q 5.56641,0 10.92773,1.9043 5.36133,1.90429 9.60938,5.21484 4.24805,3.31055 6.85547,8.32031 Q 80,25.44922 80,31.25 Z"
     id="path8739" />
</svg>
