<?xml version="1.0" encoding="UTF-8" standalone="no"?>
<svg
   xmlns:dc="http://purl.org/dc/elements/1.1/"
   xmlns:cc="http://creativecommons.org/ns#"
   xmlns:rdf="http://www.w3.org/1999/02/22-rdf-syntax-ns#"
   xmlns:svg="http://www.w3.org/2000/svg"
   xmlns="http://www.w3.org/2000/svg"
   xmlns:sodipodi="http://sodipodi.sourceforge.net/DTD/sodipodi-0.dtd"
   xmlns:inkscape="http://www.inkscape.org/namespaces/inkscape"
   viewBox="0 0 100 100"
   version="1.1"
   id="svg4"
   sodipodi:docname="tools.svg"
   width="100"
   height="100"
   inkscape:version="1.0.1 (3bc2e813f5, 2020-09-07)">
  <metadata
     id="metadata10">
    <rdf:RDF>
      <cc:Work
         rdf:about="">
        <dc:format>image/svg+xml</dc:format>
        <dc:type
           rdf:resource="http://purl.org/dc/dcmitype/StillImage" />
        <dc:title />
      </cc:Work>
    </rdf:RDF>
  </metadata>
  <defs
     id="defs8" />
  <sodipodi:namedview
     pagecolor="#ffffff"
     bordercolor="#666666"
     borderopacity="1"
     objecttolerance="10"
     gridtolerance="10"
     guidetolerance="10"
     inkscape:pageopacity="0"
     inkscape:pageshadow="2"
     inkscape:window-width="3840"
     inkscape:window-height="1531"
     id="namedview6"
     showgrid="false"
     inkscape:zoom="3.6875"
     inkscape:cx="-13.101524"
     inkscape:cy="12.140855"
     inkscape:window-x="0"
     inkscape:window-y="32"
     inkscape:window-maximized="1"
     inkscape:current-layer="svg4"
     inkscape:document-rotation="0" />
  <path
     d="m 99.166272,21.308263 c -0.4375,-1.763668 -2.64453,-2.361323 -3.92968,-1.07617 L 80.713183,34.755503 67.455398,32.546522 65.246409,19.288736 79.76982,4.7653272 C 81.062795,3.4723612 80.439745,1.2692402 78.664356,0.82783418 69.410475,-1.465129 59.22103,1.0055682 51.988625,8.2360232 44.246456,15.978195 42.115605,27.20083 45.338245,36.985967 L 3.6606032,78.663619 c -4.8808548,4.88085 -4.8808548,12.794893 0,17.675743 4.880841,4.880848 12.7948958,4.880848 17.6757368,0 L 62.978845,54.696869 c 9.789044,3.263665 20.99019,1.109374 28.783147,-6.683581 7.24022,-7.24022 9.707008,-17.445277 7.40428,-26.705025 z M 12.500421,92.187032 c -2.5878758,0 -4.6874898,-2.09961 -4.6874898,-4.687493 0,-2.589839 2.099614,-4.687491 4.6874898,-4.687491 2.587889,0 4.687491,2.097652 4.687491,4.687491 0,2.587883 -2.099602,4.687493 -4.687491,4.687493 z"
     id="path2-3"
     inkscape:connector-curvature="0"
     style="fill:#646464;fill-opacity:1;stroke-width:0.999999" />
</svg>
