<?xml version="1.0" encoding="UTF-8" standalone="no"?>
<svg
   xmlns:dc="http://purl.org/dc/elements/1.1/"
   xmlns:cc="http://creativecommons.org/ns#"
   xmlns:rdf="http://www.w3.org/1999/02/22-rdf-syntax-ns#"
   xmlns:svg="http://www.w3.org/2000/svg"
   xmlns="http://www.w3.org/2000/svg"
   xmlns:sodipodi="http://sodipodi.sourceforge.net/DTD/sodipodi-0.dtd"
   xmlns:inkscape="http://www.inkscape.org/namespaces/inkscape"
   viewBox="0 0 100 100"
   version="1.1"
   id="svg4"
   sodipodi:docname="viewer_toolbar_tools.svg"
   width="100"
   height="100"
   inkscape:version="0.92.2 5c3e80d, 2017-08-06">
  <metadata
     id="metadata10">
    <rdf:RDF>
      <cc:Work
         rdf:about="">
        <dc:format>image/svg+xml</dc:format>
        <dc:type
           rdf:resource="http://purl.org/dc/dcmitype/StillImage" />
        <dc:title></dc:title>
      </cc:Work>
    </rdf:RDF>
  </metadata>
  <defs
     id="defs8" />
  <sodipodi:namedview
     pagecolor="#ffffff"
     bordercolor="#666666"
     borderopacity="1"
     objecttolerance="10"
     gridtolerance="10"
     guidetolerance="10"
     inkscape:pageopacity="0"
     inkscape:pageshadow="2"
     inkscape:window-width="1920"
     inkscape:window-height="983"
     id="namedview6"
     showgrid="false"
     inkscape:zoom="3.6875"
     inkscape:cx="-13.101524"
     inkscape:cy="12.140855"
     inkscape:window-x="0"
     inkscape:window-y="27"
     inkscape:window-maximized="1"
     inkscape:current-layer="svg4" />
  <path
     d="m 89.33299,27.046626 c -0.35,-1.410933 -2.11562,-1.889057 -3.14374,-0.860935 L 74.57053,37.80441 63.96431,36.037227 62.19712,25.431006 73.81584,13.812287 c 1.03438,-1.034372 0.53594,-2.796868 -0.88437,-3.149992 -7.4031,-1.8343695 -15.55465,0.142187 -21.34057,5.926547 -6.19373,6.193733 -7.89841,15.171834 -5.3203,22.999938 L 12.928511,72.930878 c -3.9046814,3.904677 -3.9046814,10.23591 0,14.140583 3.90467,3.90468 10.235909,3.90468 14.140579,0 L 60.38307,53.757492 c 7.83123,2.61093 16.79214,0.887498 23.0265,-5.346861 5.79217,-5.792172 7.7656,-13.956212 5.92342,-21.364005 z M 20.00036,83.749599 c -2.070299,0 -3.749989,-1.679683 -3.749989,-3.74999 0,-2.07187 1.67969,-3.74999 3.749989,-3.74999 2.07031,0 3.74999,1.67812 3.74999,3.74999 0,2.070307 -1.67968,3.74999 -3.74999,3.74999 z"
     id="path2-3"
     inkscape:connector-curvature="0"
     style="stroke-width:1;fill:#646464;fill-opacity:1" />
</svg>
