<?xml version="1.0" encoding="UTF-8" standalone="no"?>
<svg
   xmlns:dc="http://purl.org/dc/elements/1.1/"
   xmlns:cc="http://creativecommons.org/ns#"
   xmlns:rdf="http://www.w3.org/1999/02/22-rdf-syntax-ns#"
   xmlns:svg="http://www.w3.org/2000/svg"
   xmlns="http://www.w3.org/2000/svg"
   xmlns:sodipodi="http://sodipodi.sourceforge.net/DTD/sodipodi-0.dtd"
   xmlns:inkscape="http://www.inkscape.org/namespaces/inkscape"
   version="1.0"
   width="100"
   height="100"
   id="svg2"
   inkscape:version="1.0.1 (3bc2e813f5, 2020-09-07)"
   sodipodi:docname="trash.svg">
  <metadata
     id="metadata3050">
    <rdf:RDF>
      <cc:Work
         rdf:about="">
        <dc:format>image/svg+xml</dc:format>
        <dc:type
           rdf:resource="http://purl.org/dc/dcmitype/StillImage" />
      </cc:Work>
    </rdf:RDF>
  </metadata>
  <sodipodi:namedview
     pagecolor="#ffffff"
     bordercolor="#666666"
     borderopacity="1"
     objecttolerance="10"
     gridtolerance="10"
     guidetolerance="10"
     inkscape:pageopacity="0"
     inkscape:pageshadow="2"
     inkscape:window-width="3840"
     inkscape:window-height="1531"
     id="namedview3048"
     showgrid="false"
     inkscape:zoom="2.8284272"
     inkscape:cx="108.56149"
     inkscape:cy="11.702042"
     inkscape:window-x="0"
     inkscape:window-y="32"
     inkscape:window-maximized="1"
     inkscape:current-layer="svg2"
     inkscape:document-rotation="0" />
  <defs
     id="defs4" />
  <g
     id="g12"
     transform="matrix(1.25,0,0,1.25,-12.5,-12.5)"
     style="stroke-width:0.8">
    <g
       id="g829"
       transform="translate(4.5833333,-5.0000005)"
       style="stroke-width:0.8">
      <path
         style="fill:#ffffeb;fill-opacity:1;stroke:#ffffeb;stroke-width:0.8;stroke-opacity:1"
         sodipodi:nodetypes="sccsccssccsccccccc"
         id="path4135-3"
         d="M 68.75,84.375005 V 35.000001 H 22.083332 v 49.375004 c 0,0.763884 0.121528,1.467013 0.364586,2.109378 0.243049,0.642355 0.494791,1.111102 0.755209,1.40624 0.260418,0.295138 0.442702,0.442711 0.546871,0.442711 h 43.333336 c 0.104166,0 0.286458,-0.147573 0.546874,-0.442711 0.260417,-0.295138 0.512153,-0.763885 0.755209,-1.40624 C 68.628472,85.842018 68.75,85.138889 68.75,84.375005 Z M 33.749998,28.333335 h 23.333336 l -2.5,-6.093753 C 54.340279,21.927082 54.04514,21.73611 53.697917,21.666665 H 37.1875 c -0.347226,0.06945 -0.642364,0.260417 -0.885422,0.572917 z"
         inkscape:connector-curvature="0" />
      <path
         style="stroke-width:0.8"
         id="path4135"
         d="m 35.416667,46.666668 v 29.999999 q 0,0.729174 -0.468747,1.19792 -0.468747,0.468747 -1.19792,0.468747 h -3.333333 q -0.729165,0 -1.197911,-0.468747 Q 28.75,77.395841 28.75,76.666667 V 46.666668 q 0,-0.729167 0.468756,-1.197918 0.468746,-0.468749 1.197911,-0.468749 H 33.75 q 0.729173,0 1.19792,0.468749 0.468747,0.468751 0.468747,1.197918 z m 13.333333,0 v 29.999999 q 0,0.729174 -0.468747,1.19792 -0.468755,0.468747 -1.197911,0.468747 H 43.75 q -0.729164,0 -1.197911,-0.468747 -0.468756,-0.468746 -0.468756,-1.19792 V 46.666668 q 0,-0.729167 0.468756,-1.197918 0.468747,-0.468749 1.197911,-0.468749 h 3.333342 q 0.729156,0 1.197911,0.468749 Q 48.75,45.937501 48.75,46.666668 Z m 13.333335,0 v 29.999999 q 0,0.729174 -0.46875,1.19792 -0.468751,0.468747 -1.197916,0.468747 h -3.333335 q -0.729165,0 -1.197916,-0.468747 -0.468751,-0.468746 -0.468751,-1.19792 V 46.666668 q 0,-0.729167 0.468751,-1.197918 0.468751,-0.468749 1.197916,-0.468749 h 3.333335 q 0.729165,0 1.197916,0.468749 0.46875,0.468751 0.46875,1.197918 z M 68.75,84.375005 V 35.000001 H 22.083333 v 49.375004 q 0,1.145831 0.364586,2.109378 0.364578,0.963529 0.75521,1.40624 0.390621,0.442711 0.546871,0.442711 h 43.333334 q 0.15625,0 0.546874,-0.442711 0.390625,-0.442711 0.755209,-1.40624 Q 68.75,85.520836 68.75,84.375005 Z m -35,-56.04167 h 23.333334 l -2.5,-6.093752 Q 54.218751,21.770832 53.697917,21.666666 H 37.187502 q -0.520835,0.104166 -0.885422,0.572917 z M 82.083334,30 v 3.333333 q 0,0.729167 -0.468751,1.197916 -0.468747,0.468752 -1.197915,0.468752 h -5 v 49.375004 q 0,4.322916 -2.447918,7.473956 -2.447917,3.15104 -5.885415,3.15104 H 23.75 q -3.437502,0 -5.885414,-3.04688 -2.447919,-3.046872 -2.447919,-7.369787 V 35.000001 h -5 q -0.7291653,0 -1.1979119,-0.468752 Q 8.7499995,34.0625 8.7499995,33.333333 V 30 q 0,-0.729167 0.4687556,-1.197917 0.4687466,-0.468748 1.1979119,-0.468748 h 16.093741 l 3.64584,-8.697918 q 0.781244,-1.927084 2.812498,-3.28125 Q 35,15 37.083333,15 H 53.75 q 2.083333,0 4.114584,1.354167 2.031249,1.354166 2.8125,3.28125 l 3.645834,8.697918 h 16.093749 q 0.729168,0 1.197916,0.468748 0.46875,0.46875 0.468751,1.197917 z"
         inkscape:connector-curvature="0" />
    </g>
  </g>
</svg>
