<?xml version="1.0" encoding="UTF-8" standalone="no"?>
<svg
   xmlns:dc="http://purl.org/dc/elements/1.1/"
   xmlns:cc="http://creativecommons.org/ns#"
   xmlns:rdf="http://www.w3.org/1999/02/22-rdf-syntax-ns#"
   xmlns:svg="http://www.w3.org/2000/svg"
   xmlns="http://www.w3.org/2000/svg"
   xmlns:sodipodi="http://sodipodi.sourceforge.net/DTD/sodipodi-0.dtd"
   xmlns:inkscape="http://www.inkscape.org/namespaces/inkscape"
   version="1.0"
   width="100"
   height="100"
   id="svg2"
   inkscape:version="1.0.1 (3bc2e813f5, 2020-09-07)"
   sodipodi:docname="true.svg">
  <metadata
     id="metadata3050">
    <rdf:RDF>
      <cc:Work
         rdf:about="">
        <dc:format>image/svg+xml</dc:format>
        <dc:type
           rdf:resource="http://purl.org/dc/dcmitype/StillImage" />
        <dc:title />
      </cc:Work>
    </rdf:RDF>
  </metadata>
  <sodipodi:namedview
     pagecolor="#ffffff"
     bordercolor="#666666"
     borderopacity="1"
     objecttolerance="10"
     gridtolerance="10"
     guidetolerance="10"
     inkscape:pageopacity="0"
     inkscape:pageshadow="2"
     inkscape:window-width="3840"
     inkscape:window-height="1531"
     id="namedview3048"
     showgrid="false"
     inkscape:zoom="4.0000001"
     inkscape:cx="-52.749994"
     inkscape:cy="43.191178"
     inkscape:window-x="0"
     inkscape:window-y="32"
     inkscape:window-maximized="1"
     inkscape:current-layer="svg2"
     inkscape:document-rotation="0" />
  <defs
     id="defs4" />
  <g
     id="g4286"
     transform="matrix(1.1101625,0,0,1.1101625,132.17737,-27.28944)"
     style="stroke:#310049;stroke-opacity:1" />
  <g
     id="g13"
     transform="matrix(1.25,0,0,1.25,-12.5,-12.5)"
     style="stroke-width:0.8">
    <circle
       style="opacity:1;fill:#ffffeb;fill-opacity:1;fill-rule:nonzero;stroke:#ffffeb;stroke-width:3.02362;stroke-miterlimit:4;stroke-dasharray:none;stroke-opacity:1"
       id="path815"
       cx="50.375"
       cy="50.375"
       r="29.125" />
    <g
       id="g817"
       transform="matrix(1.2499991,0,0,1.249999,-56.656207,-31.249935)"
       style="stroke-width:1">
      <path
         style="fill:#316549;fill-opacity:1;stroke-width:1"
         id="path4"
         d="m 106.82504,58.249995 q 0,-1.16666 -0.75,-1.91667 l -3.79167,-3.75 q -0.79167,-0.79166 -1.875,-0.79166 -1.083334,0 -1.875002,0.79166 l -17.000011,16.95835 -9.416673,-9.41668 q -0.791668,-0.79166 -1.875002,-0.79166 -1.083334,0 -1.875001,0.79166 l -3.791669,3.75001 q -0.750001,0.75 -0.750001,1.91666 0,1.12501 0.750001,1.87501 l 15.083343,15.08334 q 0.791668,0.79167 1.875002,0.79167 1.125,0 1.916668,-0.79167 l 22.625015,-22.62502 q 0.75,-0.75 0.75,-1.875 z m 10.50001,6.75001 q 0,8.70834 -4.29167,16.06251 -4.29167,7.35417 -11.64584,11.64584 -7.354175,4.29167 -16.062514,4.29167 -8.708339,0 -16.062511,-4.29167 -7.354172,-4.29167 -11.645841,-11.64584 -4.29167,-7.35417 -4.29167,-16.06251 0,-8.70834 4.29167,-16.06251 4.291669,-7.35418 11.645841,-11.64585 7.354172,-4.29167 16.062511,-4.29167 8.708339,0 16.062514,4.29167 7.35417,4.29167 11.64584,11.64585 4.29167,7.35417 4.29167,16.06251 z"
         inkscape:connector-curvature="0" />
    </g>
  </g>
</svg>
