<?xml version="1.0" encoding="UTF-8" standalone="no"?>
<svg
   xmlns:dc="http://purl.org/dc/elements/1.1/"
   xmlns:cc="http://creativecommons.org/ns#"
   xmlns:rdf="http://www.w3.org/1999/02/22-rdf-syntax-ns#"
   xmlns:svg="http://www.w3.org/2000/svg"
   xmlns="http://www.w3.org/2000/svg"
   xmlns:sodipodi="http://sodipodi.sourceforge.net/DTD/sodipodi-0.dtd"
   xmlns:inkscape="http://www.inkscape.org/namespaces/inkscape"
   width="100"
   height="100"
   viewBox="0 0 100 100"
   version="1.1"
   id="svg4"
   sodipodi:docname="tutorials.svg"
   inkscape:version="1.0.1 (3bc2e813f5, 2020-09-07)">
  <metadata
     id="metadata10">
    <rdf:RDF>
      <cc:Work
         rdf:about="">
        <dc:format>image/svg+xml</dc:format>
        <dc:type
           rdf:resource="http://purl.org/dc/dcmitype/StillImage" />
        <dc:title />
      </cc:Work>
    </rdf:RDF>
  </metadata>
  <defs
     id="defs8" />
  <sodipodi:namedview
     pagecolor="#ffffff"
     bordercolor="#666666"
     borderopacity="1"
     objecttolerance="10"
     gridtolerance="10"
     guidetolerance="10"
     inkscape:pageopacity="0"
     inkscape:pageshadow="2"
     inkscape:window-width="3840"
     inkscape:window-height="1531"
     id="namedview6"
     showgrid="false"
     inkscape:zoom="2.97995"
     inkscape:cx="-152.43567"
     inkscape:cy="77.728781"
     inkscape:window-x="0"
     inkscape:window-y="32"
     inkscape:window-maximized="1"
     inkscape:current-layer="svg4"
     inkscape:document-rotation="0" />
  <g
     id="g8"
     transform="matrix(1.25,0,0,1.25,-12.5,-12.499999)"
     style="stroke-width:0.8">
    <path
       d="m 71.597222,47.916665 0.625,10.972222 Q 72.361111,61.284721 69.375,63.333332 66.388889,65.381944 61.215278,66.579859 56.041667,67.777776 50,67.777776 q -6.041667,0 -11.215278,-1.197917 Q 33.611111,65.381944 30.625,63.333332 27.638889,61.284721 27.777778,58.888887 l 0.625,-10.972222 19.930555,6.284722 Q 49.097222,54.444443 50,54.444443 q 0.902778,0 1.666667,-0.243056 z M 90,36.666665 q 0,0.798611 -0.763889,1.076389 L 50.347222,49.965277 Q 50.208333,49.999997 50,49.999997 q -0.208333,0 -0.347222,-0.03472 L 27.013889,42.812499 q -1.493056,1.180556 -2.465278,3.871528 -0.972222,2.690972 -1.180555,6.197917 2.1875,1.25 2.1875,3.784722 0,2.395833 -2.013889,3.715278 l 2.013889,15.034721 q 0.06944,0.486111 -0.277778,0.868056 -0.3125,0.381944 -0.833334,0.381944 h -6.666666 q -0.520834,0 -0.833334,-0.381944 -0.347222,-0.381945 -0.277777,-0.868056 l 2.013889,-15.034722 q -2.013889,-1.319445 -2.013889,-3.715278 0,-2.534722 2.256944,-3.854167 0.381945,-7.1875 3.402778,-11.458333 l -11.5625,-3.611111 Q 10,37.465276 10,36.666665 10,35.868054 10.763889,35.590276 L 49.652778,23.368054 Q 49.791667,23.333334 50,23.333334 q 0.208333,0 0.347222,0.03472 L 89.236111,35.590276 Q 90,35.868054 90,36.666665 Z"
       id="path2"
       inkscape:connector-curvature="0"
       style="fill:#310049;fill-opacity:1;stroke-width:0.0277778" />
  </g>
</svg>
