<?xml version="1.0" encoding="UTF-8" standalone="no"?>
<svg
   xmlns:dc="http://purl.org/dc/elements/1.1/"
   xmlns:cc="http://creativecommons.org/ns#"
   xmlns:rdf="http://www.w3.org/1999/02/22-rdf-syntax-ns#"
   xmlns:svg="http://www.w3.org/2000/svg"
   xmlns="http://www.w3.org/2000/svg"
   xmlns:sodipodi="http://sodipodi.sourceforge.net/DTD/sodipodi-0.dtd"
   xmlns:inkscape="http://www.inkscape.org/namespaces/inkscape"
   version="1.0"
   width="100"
   height="100"
   id="svg2"
   inkscape:version="1.0.1 (3bc2e813f5, 2020-09-07)"
   sodipodi:docname="unknown.svg">
  <metadata
     id="metadata3050">
    <rdf:RDF>
      <cc:Work
         rdf:about="">
        <dc:format>image/svg+xml</dc:format>
        <dc:type
           rdf:resource="http://purl.org/dc/dcmitype/StillImage" />
        <dc:title />
      </cc:Work>
    </rdf:RDF>
  </metadata>
  <sodipodi:namedview
     pagecolor="#ffffff"
     bordercolor="#666666"
     borderopacity="1"
     objecttolerance="10"
     gridtolerance="10"
     guidetolerance="10"
     inkscape:pageopacity="0"
     inkscape:pageshadow="2"
     inkscape:window-width="3840"
     inkscape:window-height="1531"
     id="namedview3048"
     showgrid="false"
     inkscape:zoom="4.0000001"
     inkscape:cx="-56.624994"
     inkscape:cy="42.191178"
     inkscape:window-x="0"
     inkscape:window-y="32"
     inkscape:window-maximized="1"
     inkscape:current-layer="svg2"
     inkscape:document-rotation="0" />
  <defs
     id="defs4" />
  <g
     id="g4286"
     transform="matrix(1.1101625,0,0,1.1101625,132.17737,-27.28944)"
     style="stroke:#310049;stroke-opacity:1" />
  <g
     id="g15"
     transform="matrix(1.25,0,0,1.25,-12.5,-12.5)"
     style="stroke-width:0.8">
    <g
       id="g817"
       transform="matrix(1.2499991,0,0,1.249999,-56.656207,-31.249935)"
       style="stroke-width:1">
      <path
         style="fill:#bbbbbb;fill-opacity:1;stroke-width:1"
         id="path4"
         d="m 117.32505,65.000005 c 0,5.80556 -1.43056,11.15973 -4.29167,16.06251 -2.86111,4.90278 -6.74306,8.784727 -11.64584,11.64584 -4.902783,2.861113 -10.256955,4.29167 -16.062514,4.29167 -5.805559,0 -11.15973,-1.430557 -16.062511,-4.29167 -4.902781,-2.861113 -8.784728,-6.74306 -11.645841,-11.64584 -2.861113,-4.90278 -4.29167,-10.25695 -4.29167,-16.06251 0,-5.80556 1.430557,-11.15973 4.29167,-16.06251 2.861113,-4.902787 6.74306,-8.784737 11.645841,-11.64585 4.902781,-2.861113 10.256952,-4.29167 16.062511,-4.29167 5.805559,0 11.159731,1.430557 16.062514,4.29167 4.90278,2.861113 8.78473,6.743063 11.64584,11.64585 2.86111,4.90278 4.29167,10.25695 4.29167,16.06251 z"
         inkscape:connector-curvature="0"
         sodipodi:nodetypes="sssssssssssss" />
    </g>
    <g
       aria-label="?"
       style="font-style:normal;font-variant:normal;font-weight:normal;font-stretch:normal;font-size:61.0172px;line-height:125%;font-family:Serif;-inkscape-font-specification:Serif;text-align:center;letter-spacing:0px;word-spacing:0px;text-anchor:middle;fill:#000000;fill-opacity:1;stroke:#000000;stroke-width:4;stroke-linecap:butt;stroke-linejoin:miter;stroke-miterlimit:4;stroke-dasharray:none;stroke-opacity:1"
       id="text817">
      <path
         d="m 51.847201,59.593519 h -5.541598 q 0.02979,-4.290269 1.161948,-6.435403 1.161948,-2.145135 3.992334,-5.064901 2.02596,-2.085547 3.54543,-3.902953 1.549264,-1.847199 1.549264,-4.88614 0,-3.068734 -1.638644,-4.856346 -1.638645,-1.787612 -4.737172,-1.787612 -2.621831,0 -4.677585,1.43009 -2.055754,1.400296 -2.085548,4.498824 h -5.511803 q 0.05959,-5.035108 3.575224,-7.895287 3.54543,-2.860179 8.699712,-2.860179 5.690565,0 8.789092,3.03894 3.128322,3.038941 3.128322,8.282603 0,3.992333 -2.323896,7.120654 -2.323896,3.128322 -5.154282,5.779946 -1.638644,1.51947 -2.204721,3.426257 -0.566077,1.906786 -0.566077,4.111507 z m -5.779946,9.444551 q 0,-1.340709 0.834219,-2.264309 0.834219,-0.923599 2.413276,-0.923599 1.608851,0 2.44307,0.923599 0.834219,0.9236 0.834219,2.264309 0,1.281122 -0.834219,2.204721 -0.834219,0.9236 -2.44307,0.9236 -1.579057,0 -2.413276,-0.9236 -0.834219,-0.923599 -0.834219,-2.204721 z"
         style="font-style:normal;font-variant:normal;font-weight:normal;font-stretch:normal;font-family:'Adobe Times';-inkscape-font-specification:'Adobe Times';stroke:#000000;stroke-width:4;stroke-miterlimit:4;stroke-dasharray:none;stroke-opacity:1"
         id="path819" />
    </g>
  </g>
</svg>
