<?xml version="1.0" encoding="UTF-8" standalone="no"?>
<svg
   xmlns:dc="http://purl.org/dc/elements/1.1/"
   xmlns:cc="http://creativecommons.org/ns#"
   xmlns:rdf="http://www.w3.org/1999/02/22-rdf-syntax-ns#"
   xmlns:svg="http://www.w3.org/2000/svg"
   xmlns="http://www.w3.org/2000/svg"
   xmlns:sodipodi="http://sodipodi.sourceforge.net/DTD/sodipodi-0.dtd"
   xmlns:inkscape="http://www.inkscape.org/namespaces/inkscape"
   viewBox="0 0 100 100"
   version="1.1"
   id="svg4"
   sodipodi:docname="viewer_snapshot.svg"
   width="100"
   height="100"
   inkscape:version="0.92.2 5c3e80d, 2017-08-06">
  <metadata
     id="metadata10">
    <rdf:RDF>
      <cc:Work
         rdf:about="">
        <dc:format>image/svg+xml</dc:format>
        <dc:type
           rdf:resource="http://purl.org/dc/dcmitype/StillImage" />
        <dc:title></dc:title>
      </cc:Work>
    </rdf:RDF>
  </metadata>
  <defs
     id="defs8" />
  <sodipodi:namedview
     pagecolor="#ffffff"
     bordercolor="#666666"
     borderopacity="1"
     objecttolerance="10"
     gridtolerance="10"
     guidetolerance="10"
     inkscape:pageopacity="0"
     inkscape:pageshadow="2"
     inkscape:window-width="1920"
     inkscape:window-height="983"
     id="namedview6"
     showgrid="false"
     inkscape:zoom="5.2149125"
     inkscape:cx="81.297948"
     inkscape:cy="53.407665"
     inkscape:window-x="0"
     inkscape:window-y="27"
     inkscape:window-maximized="1"
     inkscape:current-layer="svg4" />
  <g
     id="g821"
     transform="matrix(0.8,0,0,0.8,10,10)"
     style="stroke-width:1.25">
    <circle
       r="25.887299"
       cy="56.13625"
       cx="50"
       id="path817"
       style="opacity:1;fill:#ffffeb;fill-opacity:1;fill-rule:nonzero;stroke:none;stroke-width:2.5;stroke-miterlimit:4;stroke-dasharray:none;stroke-dashoffset:0;stroke-opacity:1" />
    <path
       style="fill:#310049;fill-opacity:1;stroke-width:1.25"
       inkscape:connector-curvature="0"
       id="path2"
       d="m 100,28.125 v 56.25 c 0,5.175781 -4.199219,9.375 -9.375,9.375 H 9.375 C 4.1992187,93.75 0,89.550781 0,84.375 V 28.125 C 0,22.949219 4.1992187,18.75 9.375,18.75 h 17.1875 l 2.402344,-6.425781 C 30.332031,8.671875 33.828125,6.25 37.734375,6.25 h 24.511719 c 3.90625,0 7.402343,2.421875 8.769531,6.074219 L 73.4375,18.75 H 90.625 c 5.175781,0 9.375,4.199219 9.375,9.375 z M 73.4375,56.25 C 73.4375,43.320312 62.929687,32.8125 50,32.8125 c -12.929688,0 -23.4375,10.507812 -23.4375,23.4375 0,12.929687 10.507812,23.4375 23.4375,23.4375 12.929687,0 23.4375,-10.507813 23.4375,-23.4375 z m -6.25,0 c 0,9.472656 -7.714844,17.1875 -17.1875,17.1875 -9.472656,0 -17.1875,-7.714844 -17.1875,-17.1875 0,-9.472656 7.714844,-17.1875 17.1875,-17.1875 9.472656,0 17.1875,7.714844 17.1875,17.1875 z" />
  </g>
</svg>
