<?xml version="1.0" encoding="UTF-8" standalone="no"?>
<svg
   xmlns:dc="http://purl.org/dc/elements/1.1/"
   xmlns:cc="http://creativecommons.org/ns#"
   xmlns:rdf="http://www.w3.org/1999/02/22-rdf-syntax-ns#"
   xmlns:svg="http://www.w3.org/2000/svg"
   xmlns="http://www.w3.org/2000/svg"
   xmlns:sodipodi="http://sodipodi.sourceforge.net/DTD/sodipodi-0.dtd"
   xmlns:inkscape="http://www.inkscape.org/namespaces/inkscape"
   version="1.0"
   width="100"
   height="100"
   id="svg2"
   inkscape:version="1.0.1 (3bc2e813f5, 2020-09-07)"
   sodipodi:docname="waiting.svg">
  <metadata
     id="metadata3050">
    <rdf:RDF>
      <cc:Work
         rdf:about="">
        <dc:format>image/svg+xml</dc:format>
        <dc:type
           rdf:resource="http://purl.org/dc/dcmitype/StillImage" />
      </cc:Work>
    </rdf:RDF>
  </metadata>
  <sodipodi:namedview
     pagecolor="#ffffff"
     bordercolor="#666666"
     borderopacity="1"
     objecttolerance="10"
     gridtolerance="10"
     guidetolerance="10"
     inkscape:pageopacity="0"
     inkscape:pageshadow="2"
     inkscape:window-width="3840"
     inkscape:window-height="1531"
     id="namedview3048"
     showgrid="false"
     inkscape:zoom="4.72"
     inkscape:cx="7.8355155"
     inkscape:cy="59.629503"
     inkscape:window-x="0"
     inkscape:window-y="32"
     inkscape:window-maximized="1"
     inkscape:current-layer="g972"
     inkscape:document-rotation="0" />
  <defs
     id="defs4" />
  <g
     id="g972"
     transform="translate(62.711863,29.237287)">
    <g
       id="g15"
       transform="matrix(1.25,0,0,1.25,3.1779658,-5.1906779)"
       style="stroke-width:0.8">
      <circle
         style="opacity:1;fill:#ffffeb;fill-opacity:1;fill-rule:nonzero;stroke:none;stroke-width:3.02362;stroke-miterlimit:4;stroke-dasharray:none;stroke-opacity:1"
         id="path812"
         cx="50"
         cy="50"
         r="36.853447"
         transform="translate(-62.711863,-29.237287)" />
      <path
         inkscape:connector-curvature="0"
         d="m 50,9.9999995 c 7.256942,0 13.94965,1.7881955 20.078125,5.3645875 6.128474,3.576385 10.980903,8.428815 14.557288,14.557288 C 88.211804,36.05035 90,42.743058 90,50 90,57.256942 88.211804,63.94965 84.635413,70.078125 81.059028,76.206599 76.206599,81.059028 70.078125,84.635413 63.94965,88.211804 57.256942,90 50,90 42.743058,90 36.05035,88.211804 29.921876,84.635413 23.793401,81.059028 18.940972,76.206599 15.364587,70.078125 11.788196,63.94965 10,57.256942 10,50 10,42.743058 11.788196,36.05035 15.364587,29.921875 18.940972,23.793401 23.793401,18.940972 29.921876,15.364587 36.05035,11.788195 42.743058,9.9999995 50,9.9999995 Z m 0,68.3333335 c 5.138886,0 9.878468,-1.26736 14.218747,-3.80208 4.340279,-2.534726 7.777781,-5.972228 10.312506,-10.312507 2.53472,-4.340279 3.80208,-9.079861 3.80208,-14.218747 0,-5.138891 -1.26736,-9.878473 -3.80208,-14.218746 C 71.996528,31.440975 68.559026,28.003473 64.218747,25.468747 59.878468,22.934027 55.138886,21.666667 50,21.666667 c -5.138892,0 -9.878474,1.26736 -14.218747,3.80208 -4.340278,2.534726 -7.77778,5.972228 -10.312506,10.312507 -2.53472,4.340273 -3.80208,9.079855 -3.80208,14.218746 0,5.138885 1.26736,9.878468 3.80208,14.218747 2.534726,4.340279 5.972228,7.777781 10.312506,10.312507 4.340273,2.53472 9.079855,3.80208 14.218747,3.802079 z"
         id="path4168"
         style="fill:#310049;fill-opacity:1;stroke-width:0.8"
         sodipodi:nodetypes="sssssssssssssscssscsssscss"
         transform="translate(-62.711863,-29.237287)" />
      <path
         style="fill:#310049;fill-opacity:1;stroke-width:0.8"
         inkscape:connector-curvature="0"
         d="M 0.8858586,0.0423759 H -26.309584 c -1.072842,0 -1.942532,0.8696892 -1.942532,1.9425313 v 1.2950206 c 0,1.0728484 0.86969,1.9425327 1.942532,1.9425327 0,7.3625975 4.129175,13.5761915 9.780812,15.5402515 -5.651637,1.964066 -9.780812,8.177655 -9.780812,15.540253 -1.072842,0 -1.942532,0.86969 -1.942532,1.942532 v 1.295021 c 0,1.072847 0.86969,1.942532 1.942532,1.942532 H 0.8858586 c 1.0728471,0 1.9425314,-0.869685 1.9425314,-1.942532 v -1.295021 c 0,-1.072842 -0.8696843,-1.942532 -1.9425314,-1.942532 0,-7.362598 -4.1291744,-13.576187 -9.7808076,-15.540253 5.6516331,-1.96406 9.7808076,-8.177654 9.7808076,-15.5402515 1.0728471,0 1.9425314,-0.8696843 1.9425314,-1.9425327 V 1.9849072 c 0,-1.0728421 -0.8696843,-1.9425313 -1.9425314,-1.9425313 z M -5.1908621,31.122881 H -20.232697 c 1.380734,-3.787694 4.216588,-6.475106 7.520834,-6.475106 3.3040027,0 6.1401824,2.686848 7.5210009,6.475106 z m 0.00149,-20.720338 H -20.232843 c -0.573856,-1.5744192 -0.896641,-3.3388846 -0.896641,-5.1800825 h 16.8352742 c 0,1.8458081 -0.3227038,3.6088184 -0.8951036,5.1800825 z"
         id="path938" />
    </g>
  </g>
</svg>
