<?xml version="1.0" encoding="UTF-8" standalone="no"?>
<!-- Created with Inkscape (http://www.inkscape.org/) -->

<svg
   xmlns:dc="http://purl.org/dc/elements/1.1/"
   xmlns:cc="http://creativecommons.org/ns#"
   xmlns:rdf="http://www.w3.org/1999/02/22-rdf-syntax-ns#"
   xmlns:svg="http://www.w3.org/2000/svg"
   xmlns="http://www.w3.org/2000/svg"
   xmlns:sodipodi="http://sodipodi.sourceforge.net/DTD/sodipodi-0.dtd"
   xmlns:inkscape="http://www.inkscape.org/namespaces/inkscape"
   version="1.0"
   width="100"
   height="100"
   id="svg2"
   inkscape:version="0.92.2 5c3e80d, 2017-08-06"
   sodipodi:docname="wizard.svg">
  <metadata
     id="metadata3050">
    <rdf:RDF>
      <cc:Work
         rdf:about="">
        <dc:format>image/svg+xml</dc:format>
        <dc:type
           rdf:resource="http://purl.org/dc/dcmitype/StillImage" />
      </cc:Work>
    </rdf:RDF>
  </metadata>
  <sodipodi:namedview
     pagecolor="#ffffff"
     bordercolor="#666666"
     borderopacity="1"
     objecttolerance="10"
     gridtolerance="10"
     guidetolerance="10"
     inkscape:pageopacity="0"
     inkscape:pageshadow="2"
     inkscape:window-width="1920"
     inkscape:window-height="983"
     id="namedview3048"
     showgrid="false"
     inkscape:zoom="2.8284271"
     inkscape:cx="-39.296859"
     inkscape:cy="115.80639"
     inkscape:window-x="0"
     inkscape:window-y="27"
     inkscape:window-maximized="1"
     inkscape:current-layer="svg2" />
  <defs
     id="defs4" />
  <path
     inkscape:connector-curvature="0"
     d="M 68.94014,36.94258 85.04887,20.833843 79.16616,14.951129 63.05742,31.059866 Z M 93.51558,20.833843 q 0,1.484421 -0.98962,2.474037 l -70.7025,70.7025 Q 20.83384,95 19.34942,95 17.865,95 16.87538,94.01038 L 5.98962,83.12462 Q 5,82.135 5,80.65058 5,79.16616 5.98962,78.17654 L 76.69212,7.474037 q 0.98961,-0.989616 2.47404,-0.989616 1.48442,0 2.47403,0.989616 l 10.88577,10.885769 q 0.98962,0.989613 0.98962,2.474037 z M 19.23946,10.387905 24.62737,12.037263 19.23946,13.68662 17.5901,19.074527 15.94074,13.68662 10.55284,12.037263 15.94074,10.387905 17.5901,5 Z M 38.48198,19.294441 49.25779,22.59316 38.48198,25.891875 35.18326,36.667685 31.88454,25.891875 21.10873,22.59316 31.88454,19.294441 35.18326,8.51863 Z M 89.6121,45.574223 95,47.223581 l -5.3879,1.649359 -1.64936,5.3879 -1.64936,-5.3879 -5.38791,-1.649359 5.38791,-1.649358 1.64936,-5.387905 z m -35.18632,-35.186318 5.3879,1.649358 -5.3879,1.649357 -1.64936,5.387907 -1.64936,-5.387907 -5.3879,-1.649357 5.3879,-1.649358 L 52.77642,5 Z"
     id="path2"
     style="fill:#310049;fill-opacity:1;stroke-width:0.05497862" />
</svg>
