<?xml version="1.0" encoding="UTF-8" standalone="no"?>
<svg
   xmlns:dc="http://purl.org/dc/elements/1.1/"
   xmlns:cc="http://creativecommons.org/ns#"
   xmlns:rdf="http://www.w3.org/1999/02/22-rdf-syntax-ns#"
   xmlns:svg="http://www.w3.org/2000/svg"
   xmlns="http://www.w3.org/2000/svg"
   xmlns:sodipodi="http://sodipodi.sourceforge.net/DTD/sodipodi-0.dtd"
   xmlns:inkscape="http://www.inkscape.org/namespaces/inkscape"
   viewBox="0 0 100 100"
   version="1.1"
   id="svg4"
   sodipodi:docname="modules_bragg.svg"
   width="100"
   height="100"
   inkscape:version="1.0.1 (3bc2e813f5, 2020-09-07)">
  <metadata
     id="metadata10">
    <rdf:RDF>
      <cc:Work
         rdf:about="">
        <dc:format>image/svg+xml</dc:format>
        <dc:type
           rdf:resource="http://purl.org/dc/dcmitype/StillImage" />
        <dc:title />
      </cc:Work>
    </rdf:RDF>
  </metadata>
  <defs
     id="defs8" />
  <sodipodi:namedview
     pagecolor="#ffffff"
     bordercolor="#666666"
     borderopacity="1"
     objecttolerance="10"
     gridtolerance="10"
     guidetolerance="10"
     inkscape:pageopacity="0"
     inkscape:pageshadow="2"
     inkscape:window-width="1920"
     inkscape:window-height="1016"
     id="namedview6"
     showgrid="false"
     inkscape:zoom="5.2149128"
     inkscape:cx="-3.877357"
     inkscape:cy="42.760401"
     inkscape:window-x="0"
     inkscape:window-y="27"
     inkscape:window-maximized="1"
     inkscape:current-layer="svg4"
     inkscape:document-rotation="0" />
  <g
     id="g908"
     style="stroke-width:2;stroke-miterlimit:4;stroke-dasharray:none"
     transform="matrix(1.0919386,0,0,1.0919386,-4.2677742,-6.6047285)">
    <path
       style="fill:none;stroke:#000000;stroke-width:2;stroke-linecap:butt;stroke-linejoin:miter;stroke-miterlimit:4;stroke-dasharray:none;stroke-opacity:1"
       d="m 9.4518061,73.751029 c 79.7076759,0 79.7076759,0 79.7076759,0"
       id="path849" />
    <g
       id="g898"
       transform="translate(0,-4.040838)"
       style="stroke-width:2;stroke-miterlimit:4;stroke-dasharray:none">
      <path
         style="fill:none;stroke:#000000;stroke-width:2;stroke-linecap:butt;stroke-linejoin:miter;stroke-miterlimit:4;stroke-dasharray:none;stroke-opacity:1"
         d="m 9.9518061,77.291867 c 0,4.386751 0,4.386751 0,4.386751"
         id="path851" />
      <path
         style="fill:none;stroke:#000000;stroke-width:2;stroke-linecap:butt;stroke-linejoin:miter;stroke-miterlimit:4;stroke-dasharray:none;stroke-opacity:1"
         d="m 88.659482,77.291867 c 0,4.386751 0,4.386751 0,4.386751"
         id="path851-3" />
      <path
         style="fill:none;stroke:#000000;stroke-width:2;stroke-linecap:butt;stroke-linejoin:miter;stroke-miterlimit:4;stroke-dasharray:none;stroke-opacity:1"
         d="m 72.91795,77.291867 c 0,4.386751 0,4.386751 0,4.386751"
         id="path851-6" />
      <path
         style="fill:none;stroke:#000000;stroke-width:2;stroke-linecap:butt;stroke-linejoin:miter;stroke-miterlimit:4;stroke-dasharray:none;stroke-opacity:1"
         d="m 57.176415,77.291867 c 0,4.386751 0,4.386751 0,4.386751"
         id="path851-7" />
      <path
         style="fill:none;stroke:#000000;stroke-width:2;stroke-linecap:butt;stroke-linejoin:miter;stroke-miterlimit:4;stroke-dasharray:none;stroke-opacity:1"
         d="m 41.434878,77.291867 c 0,4.386751 0,4.386751 0,4.386751"
         id="path851-5" />
      <path
         style="fill:none;stroke:#000000;stroke-width:2;stroke-linecap:butt;stroke-linejoin:miter;stroke-miterlimit:4;stroke-dasharray:none;stroke-opacity:1"
         d="m 25.693341,77.291867 c 0,4.386751 0,4.386751 0,4.386751"
         id="path851-35" />
    </g>
  </g>
  <path
     style="fill:none;stroke:#000000;stroke-width:2.18388;stroke-linecap:butt;stroke-linejoin:miter;stroke-miterlimit:4;stroke-dasharray:none;stroke-opacity:1"
     d="m 84.167153,73.899503 c 0,2.39183 0,2.39183 0,2.39183"
     id="path851-3-2" />
  <path
     style="fill:none;stroke:#000000;stroke-width:2.18388;stroke-linecap:butt;stroke-linejoin:miter;stroke-miterlimit:4;stroke-dasharray:none;stroke-opacity:1"
     d="m 66.978366,73.899503 c 0,2.39183 0,2.39183 0,2.39183"
     id="path851-6-7" />
  <path
     style="fill:none;stroke:#000000;stroke-width:2.18388;stroke-linecap:butt;stroke-linejoin:miter;stroke-miterlimit:4;stroke-dasharray:none;stroke-opacity:1"
     d="m 49.789577,73.899503 c 0,2.39183 0,2.39183 0,2.39183"
     id="path851-7-0" />
  <path
     style="fill:none;stroke:#000000;stroke-width:2.18388;stroke-linecap:butt;stroke-linejoin:miter;stroke-miterlimit:4;stroke-dasharray:none;stroke-opacity:1"
     d="m 32.600785,73.899503 c 0,2.39183 0,2.39183 0,2.39183"
     id="path851-5-9" />
  <path
     style="fill:none;stroke:#000000;stroke-width:2.18388;stroke-linecap:butt;stroke-linejoin:miter;stroke-miterlimit:4;stroke-dasharray:none;stroke-opacity:1"
     d="m 15.411993,73.899503 c 0,2.39183 0,2.39183 0,2.39183"
     id="path851-35-3" />
  <g
     id="g1037"
     transform="matrix(1.0919386,0,0,1.0919386,-4.2677742,-6.6047285)">
    <path
       style="fill:none;stroke:#000000;stroke-width:2;stroke-linecap:butt;stroke-linejoin:miter;stroke-miterlimit:4;stroke-dasharray:none;stroke-opacity:1"
       d="m 13.832916,74.237797 c 0,-29.124915 0,-29.124915 0,-29.124915"
       id="path963" />
    <path
       style="fill:none;stroke:#000000;stroke-width:2;stroke-linecap:butt;stroke-linejoin:miter;stroke-miterlimit:4;stroke-dasharray:none;stroke-opacity:1"
       d="m 20.302518,74.237797 c 0,-48.298176 0,-48.748061 0,-48.748061"
       id="path965" />
    <path
       style="fill:none;stroke:#000000;stroke-width:2;stroke-linecap:butt;stroke-linejoin:miter;stroke-miterlimit:4;stroke-dasharray:none;stroke-opacity:1"
       d="m 28.822214,74.237797 c 0,-37.581065 0,-37.581065 0,-37.581065"
       id="path967" />
    <path
       style="fill:none;stroke:#000000;stroke-width:2;stroke-linecap:butt;stroke-linejoin:miter;stroke-miterlimit:4;stroke-dasharray:none;stroke-opacity:1"
       d="m 44.366838,74.237797 c 0,-22.678337 0,-22.678337 0,-22.678337"
       id="path969" />
    <path
       style="fill:none;stroke:#000000;stroke-width:2;stroke-linecap:butt;stroke-linejoin:miter;stroke-miterlimit:4;stroke-dasharray:none;stroke-opacity:1"
       d="m 54.05821,74.237797 c 0,-13.569195 0,-13.569195 0,-13.569195"
       id="path971" />
    <path
       style="fill:none;stroke:#000000;stroke-width:2;stroke-linecap:butt;stroke-linejoin:miter;stroke-miterlimit:4;stroke-dasharray:none;stroke-opacity:1"
       d="m 57.176415,74.237797 c 0,-10.537869 0,-10.537869 0,-10.537869"
       id="path973" />
    <path
       style="fill:none;stroke:#000000;stroke-width:2;stroke-linecap:butt;stroke-linejoin:miter;stroke-miterlimit:4;stroke-dasharray:none;stroke-opacity:1"
       d="m 60.064698,74.237797 c 0,-8.404288 0,-8.589561 0,-8.589561"
       id="path975" />
    <path
       style="fill:none;stroke:#000000;stroke-width:2;stroke-linecap:butt;stroke-linejoin:miter;stroke-miterlimit:4;stroke-dasharray:none;stroke-opacity:1"
       d="m 63.452625,74.237797 c 0,-14.07445 0,-14.07445 0,-14.07445"
       id="path977" />
    <path
       style="fill:none;stroke:#000000;stroke-width:2;stroke-linecap:butt;stroke-linejoin:miter;stroke-miterlimit:4;stroke-dasharray:none;stroke-opacity:1"
       d="m 68.663446,74.237797 c 0,-8.992675 0,-8.992675 0,-8.992675"
       id="path979" />
    <path
       style="fill:none;stroke:#000000;stroke-width:2;stroke-linecap:butt;stroke-linejoin:miter;stroke-miterlimit:4;stroke-dasharray:none;stroke-opacity:1"
       d="m 76.05177,74.237797 c 0,-6.379286 0,-6.379286 0,-6.379286"
       id="path981" />
    <path
       style="fill:none;stroke:#000000;stroke-width:2;stroke-linecap:butt;stroke-linejoin:miter;stroke-miterlimit:4;stroke-dasharray:none;stroke-opacity:1"
       d="m 72.91795,74.237797 c 0,-5.086829 0,-5.086829 0,-5.086829"
       id="path983" />
    <path
       style="fill:none;stroke:#000000;stroke-width:2;stroke-linecap:butt;stroke-linejoin:miter;stroke-miterlimit:4;stroke-dasharray:none;stroke-opacity:1"
       d="m 67.066072,74.237797 c 0,-6.546585 0,-6.546585 0,-6.546585"
       id="path985" />
    <path
       style="fill:none;stroke:#000000;stroke-width:2;stroke-linecap:butt;stroke-linejoin:miter;stroke-miterlimit:4;stroke-dasharray:none;stroke-opacity:1"
       d="m 80.98892,74.237797 c 0,-5.663068 0,-5.663068 0,-5.663068"
       id="path987" />
    <path
       style="fill:none;stroke:#000000;stroke-width:2;stroke-linecap:butt;stroke-linejoin:miter;stroke-miterlimit:4;stroke-dasharray:none;stroke-opacity:1"
       d="m 78.646265,69.516324 c 0,4.721473 0,4.721473 0,4.721473"
       id="path989" />
    <path
       style="fill:none;stroke:#000000;stroke-width:2;stroke-linecap:butt;stroke-linejoin:miter;stroke-miterlimit:4;stroke-dasharray:none;stroke-opacity:1"
       d="m 83.019593,72.121272 c 0,2.116525 0,2.116525 0,2.116525"
       id="path991" />
    <path
       style="fill:none;stroke:#000000;stroke-width:2;stroke-linecap:butt;stroke-linejoin:miter;stroke-miterlimit:4;stroke-dasharray:none;stroke-opacity:1"
       d="m 86.20072,72.418412 c 0,1.819385 0,1.819385 0,1.819385"
       id="path993" />
    <path
       style="fill:none;stroke:#000000;stroke-width:2;stroke-linecap:butt;stroke-linejoin:miter;stroke-miterlimit:4;stroke-dasharray:none;stroke-opacity:1"
       d="m 84.641084,72.580413 c 0,1.657384 0,1.657384 0,1.657384"
       id="path995" />
    <path
       style="fill:none;stroke:#000000;stroke-width:2;stroke-linecap:butt;stroke-linejoin:miter;stroke-miterlimit:4;stroke-dasharray:none;stroke-opacity:1"
       d="m 79.778498,71.244319 c 0,2.993478 0,2.993478 0,2.993478"
       id="path999" />
    <path
       style="fill:none;stroke:#000000;stroke-width:2;stroke-linecap:butt;stroke-linejoin:miter;stroke-miterlimit:4;stroke-dasharray:none;stroke-opacity:1"
       d="m 87.729176,72.418412 c 0,1.819385 0,1.819385 0,1.819385"
       id="path993-6" />
  </g>
</svg>
