<?xml version="1.0" encoding="UTF-8" standalone="no"?>
<svg
   xmlns:dc="http://purl.org/dc/elements/1.1/"
   xmlns:cc="http://creativecommons.org/ns#"
   xmlns:rdf="http://www.w3.org/1999/02/22-rdf-syntax-ns#"
   xmlns:svg="http://www.w3.org/2000/svg"
   xmlns="http://www.w3.org/2000/svg"
   xmlns:sodipodi="http://sodipodi.sourceforge.net/DTD/sodipodi-0.dtd"
   xmlns:inkscape="http://www.inkscape.org/namespaces/inkscape"
   viewBox="0 0 100 100"
   version="1.1"
   id="svg4"
   sodipodi:docname="modules_calibrate.svg"
   width="100"
   height="100"
   inkscape:version="0.92.2 5c3e80d, 2017-08-06">
  <metadata
     id="metadata10">
    <rdf:RDF>
      <cc:Work
         rdf:about="">
        <dc:format>image/svg+xml</dc:format>
        <dc:type
           rdf:resource="http://purl.org/dc/dcmitype/StillImage" />
        <dc:title></dc:title>
      </cc:Work>
    </rdf:RDF>
  </metadata>
  <defs
     id="defs8" />
  <sodipodi:namedview
     pagecolor="#ffffff"
     bordercolor="#666666"
     borderopacity="1"
     objecttolerance="10"
     gridtolerance="10"
     guidetolerance="10"
     inkscape:pageopacity="0"
     inkscape:pageshadow="2"
     inkscape:window-width="1920"
     inkscape:window-height="983"
     id="namedview6"
     showgrid="false"
     inkscape:zoom="0.65186406"
     inkscape:cx="-110.09575"
     inkscape:cy="357.666"
     inkscape:window-x="0"
     inkscape:window-y="27"
     inkscape:window-maximized="1"
     inkscape:current-layer="svg4" />
  <g
     id="g946"
     transform="matrix(0.15624757,0,0,0.15624757,10.000622,10.000622)"
     style="stroke-width:6.40009975">
    <path
       inkscape:connector-curvature="0"
       id="path2"
       d="m 457.015,344.41602 c -25.05,20.33 -52.63,37.18 -82.54,49.05 l 54.38,94.19 53.95,23.04 c 9.81,4.19 20.89,-2.21 22.17,-12.8 l 7.02,-58.25 z m 42.49,-94.56 c 4.86,-7.67 1.89,-17.99 -6.05,-22.39 l -28.07,-15.57 c -7.48,-4.15 -16.61,-1.46 -21.26,5.72 -41.11,63.53 -111.87,102.38 -188.12,102.38 -23.93,0 -47.23,-4.25 -69.41,-11.53 l 67.36,-116.68 c 0.7,0.02 1.34,0.21 2.04,0.21 0.7,0 1.35,-0.19 2.04,-0.21 l 51.09,88.5 c 31.23,-8.96 59.56,-25.75 82.61,-48.92 l -51.79,-89.71 c 7.45,-13.63 12.06,-29.03 12.06,-45.66 0,-53.02 -42.98,-96.0000004 -96,-96.0000004 -53.02,0 -96,42.9800004 -96,96.0000004 0,16.63 4.61,32.03 12.05,45.66 l -68.3,118.31 c -12.550001,-11.61 -23.960001,-24.59 -33.680001,-39 -4.79,-7.1 -13.97,-9.62 -21.38,-5.33 l -27.75,16.07 c -7.85,4.54 -10.63,14.9 -5.64,22.47 15.57,23.64 34.69,44.21 55.98,62.02 l -71.28,123.46 7.02,58.25 c 1.28,10.59 12.36,16.99 22.17,12.8 l 53.95,-23.04 70.800001,-122.63 c 32.19,12.24 66.68,18.96 102.06,18.96 99.05,0 190.88,-51.01 243.5,-134.14 z m -243.5,-185.86 c 17.67,0 32,14.33 32,32 0,17.67 -14.33,32 -32,32 -17.67,0 -32,-14.33 -32,-32 0,-17.67 14.33,-32 32,-32 z"
       style="stroke-width:6.40009975" />
    <path
       inkscape:connector-curvature="0"
       id="path2-6"
       d="m 254.61133,23.912109 c -40.95202,-1.000463 -77.48527,41.730989 -69.91602,82.097661 2.18285,12.70182 7.48749,24.83765 15.44922,34.98242 -29.75775,51.54496 -59.51346,103.09109 -89.27344,154.63476 C 87.597737,282.08047 70.954173,260.352 53.552734,240.38281 c -4.409821,2.6244 -8.644217,5.53792 -13.121093,8.05078 17.270499,23.71101 38.613103,44.23951 61.867189,62.02735 -25.782468,44.66253 -51.566531,89.32415 -77.349611,133.98633 1.965916,13.19842 2.065232,26.8371 4.664062,39.81445 12.299436,-6.82719 27.573907,-8.55135 38.017578,-18.375 8.11052,-11.02717 13.008717,-24.02359 20.748411,-35.30727 18.47921,-32.001 36.95709,-64.00277 55.43714,-96.00328 98.59412,48.80684 226.31292,25.11364 301.67187,-54.73047 10.20146,-10.98732 21.87317,-22.81219 27.90039,-36.00976 -4.48798,-1.9186 -9.377,-6.00214 -13.46094,-6.59961 -58.5473,87.40549 -177.72304,128.93467 -277.6264,95.14256 -10.44098,-3.28494 -20.73267,-7.01763 -31.01227,-10.77147 29.48215,-51.0729 58.96836,-102.14345 88.45313,-153.21484 15.39261,-4.09224 35.59746,0.47789 42.28711,16.39453 12.36535,22.28842 25.14159,44.34127 38.15039,66.24414 14.79378,-6.17142 28.64001,-14.40356 41.08203,-24.45898 -16.55567,-28.68313 -33.11388,-57.36479 -49.66797,-86.04883 27.43206,-30.05138 18.4319,-83.009799 -15.21484,-104.552737 -12.40972,-7.670961 -27.0179,-12.385265 -41.76758,-12.058594 z m 2.16992,15.816407 c 36.77114,-0.904818 65.93169,41.809892 52.22852,75.814454 -11.72449,33.95318 -59.85085,48.21461 -87.64986,24.97718 -26.48157,-20.15495 -28.89548,-65.504188 -2.36186,-86.652962 10.46297,-8.866702 24.02997,-14.122595 37.7832,-14.138672 z M 449.75391,379.84961 c -13.16126,9.1121 -26.91622,17.37948 -41.22071,24.57031 12.62001,21.33122 24.34759,43.28314 37.55274,64.20117 12.18874,4.61557 24.06272,12.25261 36.2832,15.38477 0.61455,-13.594 5.15021,-27.17747 3.55859,-40.66016 -6.44819,-13.92509 -15.72643,-26.31471 -22.61483,-40.02218 -4.52043,-7.82132 -9.03467,-15.66926 -13.55899,-23.47391 z"
       style="fill:#ffffeb;fill-opacity:1;stroke-width:6.40009975" />
  </g>
</svg>
