<?xml version="1.0" encoding="UTF-8" standalone="no"?>
<svg
   xmlns:dc="http://purl.org/dc/elements/1.1/"
   xmlns:cc="http://creativecommons.org/ns#"
   xmlns:rdf="http://www.w3.org/1999/02/22-rdf-syntax-ns#"
   xmlns:svg="http://www.w3.org/2000/svg"
   xmlns="http://www.w3.org/2000/svg"
   xmlns:sodipodi="http://sodipodi.sourceforge.net/DTD/sodipodi-0.dtd"
   xmlns:inkscape="http://www.inkscape.org/namespaces/inkscape"
   viewBox="0 0 100 100"
   version="1.1"
   id="svg4"
   sodipodi:docname="modules_exportcoordinates.svg"
   width="100"
   height="100"
   inkscape:version="1.0.1 (3bc2e813f5, 2020-09-07)">
  <metadata
     id="metadata10">
    <rdf:RDF>
      <cc:Work
         rdf:about="">
        <dc:format>image/svg+xml</dc:format>
        <dc:type
           rdf:resource="http://purl.org/dc/dcmitype/StillImage" />
        <dc:title />
      </cc:Work>
    </rdf:RDF>
  </metadata>
  <defs
     id="defs8" />
  <sodipodi:namedview
     pagecolor="#ffffff"
     bordercolor="#666666"
     borderopacity="1"
     objecttolerance="10"
     gridtolerance="10"
     guidetolerance="10"
     inkscape:pageopacity="0"
     inkscape:pageshadow="2"
     inkscape:window-width="1920"
     inkscape:window-height="1016"
     id="namedview6"
     showgrid="false"
     inkscape:zoom="3.6875"
     inkscape:cx="-57.580586"
     inkscape:cy="8.0413501"
     inkscape:window-x="0"
     inkscape:window-y="27"
     inkscape:window-maximized="1"
     inkscape:current-layer="svg4"
     showguides="false"
     inkscape:document-rotation="0" />
  <g
     id="g1423"
     transform="matrix(0.77094776,0,0,0.77094776,-29.431695,-9.7875632)"
     style="stroke-width:1.94566;stroke-miterlimit:4;stroke-dasharray:none">
    <path
       inkscape:connector-curvature="0"
       d="M 92.267105,102.57943 130.15522,81.918563 V 44.267243 L 92.267105,58.060894 Z M 88.478293,51.371271 129.80002,36.334426 88.478293,21.297579 47.156566,36.334426 Z"
       id="path4170-3"
       style="fill:#ffffeb;fill-opacity:1;stroke:#ffffff;stroke-width:1.94566;stroke-miterlimit:4;stroke-dasharray:none;stroke-opacity:1"
       sodipodi:nodetypes="cccccccccc" />
    <path
       inkscape:connector-curvature="0"
       d="M 92.572661,102.88498 130.46078,82.224119 V 44.572799 L 92.572661,58.36645 Z M 88.783849,51.676827 130.10558,36.639982 88.783849,21.603135 47.462121,36.639982 Z M 138.0384,36.758378 v 45.465741 q 0,2.072009 -1.0656,3.848019 -1.06561,1.775998 -2.90081,2.7824 L 92.39506,111.58742 q -1.657601,0.9472 -3.611211,0.9472 -1.953611,0 -3.611213,-0.9472 L 43.495707,88.854538 q -1.835203,-1.006402 -2.900809,-2.7824 -1.065606,-1.77601 -1.065606,-3.848019 V 36.758378 q 0,-2.368007 1.361604,-4.321617 1.361604,-1.953599 3.611213,-2.7824 L 86.179037,14.499105 q 1.302411,-0.473598 2.604812,-0.473598 1.3024,0 2.60481,0.473598 l 41.676931,15.155256 q 2.24961,0.828801 3.61121,2.7824 1.3616,1.95361 1.3616,4.321617 z"
       id="path4170"
       style="fill:#fba16c;fill-opacity:1;stroke:#000000;stroke-width:1.94566;stroke-miterlimit:4;stroke-dasharray:none;stroke-opacity:1" />
  </g>
  <g
     id="g1421"
     transform="matrix(0.62787346,0,0,0.62787346,43.586406,43.549022)"
     style="opacity:0.8">
    <path
       inkscape:connector-curvature="0"
       id="path2-3"
       d="m 13.615559,9.908208 c -2.078125,0 -3.75,1.67188 -3.75,3.75 v 72.5 c 0,2.07813 1.671875,3.75 3.75,3.75 h 17.5 c 2.078125,0 3.75,-1.67187 3.75,-3.75 V 63.236333 l -0.113281,-0.113281 h -5.082032 c -2.748314,0 -4.960937,-2.21263 -4.960937,-4.960938 V 41.632817 c 0,-2.748322 2.212624,-4.960937 4.960937,-4.960937 h 5.103516 l 0.0918,-0.0918 V 13.658208 c 0,-2.07812 -1.671875,-3.75 -3.75,-3.75 z"
       style="fill:#000000;fill-opacity:1;stroke-width:1" />
    <path
       inkscape:connector-curvature="0"
       id="path1386"
       d="m 29.860387,56.25 v -12.5 c 0,-2.07813 1.671875,-3.75 3.75,-3.75 h 26.25 V 26.29687 c 0,-2.78125 3.359375,-4.17187 5.328125,-2.20312 l 23.78125,23.76562 c 1.171875,1.17188 1.171875,3.09375 0,4.26563 L 65.188512,75.92187 C 63.219762,77.89062 59.860387,76.5 59.860387,73.71875 V 60 h -26.25 c -2.078125,0 -3.75,-1.67188 -3.75,-3.75 z"
       style="fill:#00537d;fill-opacity:1;stroke-width:1" />
  </g>
</svg>
