<?xml version="1.0" encoding="UTF-8" standalone="no"?>
<svg
   xmlns:dc="http://purl.org/dc/elements/1.1/"
   xmlns:cc="http://creativecommons.org/ns#"
   xmlns:rdf="http://www.w3.org/1999/02/22-rdf-syntax-ns#"
   xmlns:svg="http://www.w3.org/2000/svg"
   xmlns="http://www.w3.org/2000/svg"
   xmlns:sodipodi="http://sodipodi.sourceforge.net/DTD/sodipodi-0.dtd"
   xmlns:inkscape="http://www.inkscape.org/namespaces/inkscape"
   viewBox="0 0 100 100"
   version="1.1"
   id="svg4"
   sodipodi:docname="siteRDF.svg"
   width="100"
   height="100"
   inkscape:version="1.0.1 (3bc2e813f5, 2020-09-07)">
  <metadata
     id="metadata10">
    <rdf:RDF>
      <cc:Work
         rdf:about="">
        <dc:format>image/svg+xml</dc:format>
        <dc:type
           rdf:resource="http://purl.org/dc/dcmitype/StillImage" />
        <dc:title />
      </cc:Work>
    </rdf:RDF>
  </metadata>
  <defs
     id="defs8" />
  <sodipodi:namedview
     pagecolor="#ffffff"
     bordercolor="#666666"
     borderopacity="1"
     objecttolerance="10"
     gridtolerance="10"
     guidetolerance="10"
     inkscape:pageopacity="0"
     inkscape:pageshadow="2"
     inkscape:window-width="1920"
     inkscape:window-height="1531"
     id="namedview6"
     showgrid="false"
     inkscape:zoom="0.92187498"
     inkscape:cx="-254.56308"
     inkscape:cy="323.92023"
     inkscape:window-x="1920"
     inkscape:window-y="32"
     inkscape:window-maximized="0"
     inkscape:current-layer="svg4"
     inkscape:document-rotation="0" />
  <path
     style="fill:none;stroke:#000000;stroke-width:0.999999;stroke-linecap:butt;stroke-linejoin:miter;stroke-miterlimit:4;stroke-dasharray:0.999999, 2;stroke-dashoffset:0;stroke-opacity:1"
     d="m 1.8099594,73.9244 c 96.9837736,0 96.6080256,0 96.6080256,0"
     id="path851" />
  <path
     id="rect830"
     style="fill:none;stroke:#303030;stroke-width:5.00001;stroke-opacity:1"
     d="M 100.50843,95.479015 H 8.3674716 c -2.9902534,0 -5.3975687,-2.374517 -5.3975687,-5.324032 V 2.4612881"
     sodipodi:nodetypes="cssc" />
  <path
     id="path872-3"
     style="fill:none;stroke:#a70000;stroke-width:4.424;stroke-linecap:butt;stroke-linejoin:miter;stroke-miterlimit:10;stroke-dasharray:none;stroke-opacity:1"
     d="m 58.601265,94.795723 c 0,0 1.792714,-1.53667 1.370827,-1.123176 -2.441753,2.393177 1.136157,-1.896439 1.136157,-1.896439 l 1.370845,-2.808519 1.136148,-3.7206 1.370837,-4.563844 1.36711,-4.986043 1.139883,-4.983745 1.36711,-4.423875 1.367109,-3.299554 1.139875,-1.896439 1.370837,-0.281084 1.36711,0.843244 1.139883,2.035264 1.36711,2.247504 1.367118,2.387466 1.139875,2.106389 1.36711,1.403116 1.370836,0.913224 1.136158,0.562169 1.370836,-0.06995 1.36711,0.421054 1.139875,0.281076 h 1.367118 l 1.139875,0.06996 1.36711,0.351065 1.367118,0.351065 1.143602,0.491026 1.367109,0.281084 1.36711,0.209951 1.139875,0.281084 1.367118,0.141115 m -92.6490407,19.368023 20.6093847,0 1.36711,-0.02997 1.139883,-0.05997 1.36711,-0.150419 1.36711,-0.421273 1.143601,-0.992961 1.367119,-2.075391 1.367109,-3.941369 1.139875,-6.678408 1.36711,-10.108056 1.36711,-13.417282 1.139883,-15.463167 1.367119,-15.041901 1.139875,-11.371872 1.370836,-4.81341 1.367101,2.948412 1.139884,9.987626 1.367118,14.440221 1.367101,15.643574 1.139884,14.079419 1.370827,10.950108 1.367119,7.460978 1.139883,4.51257 1.36711,2.406703 c 0,0 0.846737,0.839967 1.36711,1.112906 0.350408,0.183791 1.139875,0.331316 1.139875,0.331316"
     sodipodi:nodetypes="cscccccccccccccccccccccccccccccccccccccccccccccccccccccccsc" />
</svg>
