<?xml version="1.0" encoding="UTF-8" standalone="no"?>
<svg
   xmlns:dc="http://purl.org/dc/elements/1.1/"
   xmlns:cc="http://creativecommons.org/ns#"
   xmlns:rdf="http://www.w3.org/1999/02/22-rdf-syntax-ns#"
   xmlns:svg="http://www.w3.org/2000/svg"
   xmlns="http://www.w3.org/2000/svg"
   xmlns:sodipodi="http://sodipodi.sourceforge.net/DTD/sodipodi-0.dtd"
   xmlns:inkscape="http://www.inkscape.org/namespaces/inkscape"
   viewBox="0 0 100 100"
   version="1.1"
   id="svg4"
   sodipodi:docname="modules_xraysq.svg"
   width="100"
   height="100"
   inkscape:version="1.0.1 (3bc2e813f5, 2020-09-07)">
  <metadata
     id="metadata10">
    <rdf:RDF>
      <cc:Work
         rdf:about="">
        <dc:format>image/svg+xml</dc:format>
        <dc:type
           rdf:resource="http://purl.org/dc/dcmitype/StillImage" />
        <dc:title />
      </cc:Work>
    </rdf:RDF>
  </metadata>
  <defs
     id="defs8" />
  <sodipodi:namedview
     pagecolor="#ffffff"
     bordercolor="#666666"
     borderopacity="1"
     objecttolerance="10"
     gridtolerance="10"
     guidetolerance="10"
     inkscape:pageopacity="0"
     inkscape:pageshadow="2"
     inkscape:window-width="1920"
     inkscape:window-height="1016"
     id="namedview6"
     showgrid="false"
     inkscape:zoom="14.75"
     inkscape:cx="38.540587"
     inkscape:cy="72.684106"
     inkscape:window-x="0"
     inkscape:window-y="27"
     inkscape:window-maximized="1"
     inkscape:current-layer="svg4"
     inkscape:document-rotation="0" />
  <path
     d="M 37.06623,46.423277 H 12.617857 c -1.467547,0 -2.7093181,-1.24178 -2.612557,-2.70932 0.822472,-12.22419 7.160342,-22.93245 16.530068,-29.70574 1.19339,-0.85473 2.886714,-0.46768 3.660805,0.77409 l 12.966023,20.70693 c -3.644678,2.30615 -6.095966,6.32174 -6.095966,10.93404 z m 6.095966,10.9179 c 1.983609,1.24177 4.322008,1.99974 6.837804,1.99974 2.515796,0 4.838068,-0.75797 6.837803,-1.99974 l 12.966024,20.72306 c 0.774091,1.24177 0.387045,2.91897 -0.903106,3.61243 -5.628286,3.03185 -12.062918,4.77356 -18.900721,4.77356 -6.837804,0 -13.272435,-1.74171 -18.900721,-4.77356 -1.290152,-0.69346 -1.677197,-2.38678 -0.903106,-3.61243 z M 50,54.164177 c -4.273627,0 -7.74091,-3.46728 -7.74091,-7.7409 0,-4.27363 3.467283,-7.74091 7.74091,-7.74091 4.273627,0 7.74091,3.46728 7.74091,7.74091 0,4.27362 -3.467283,7.7409 -7.74091,7.7409 z m 37.382143,-7.7409 H 62.93377 c 0,-4.6123 -2.451288,-8.62789 -6.095967,-10.91791 l 12.966024,-20.70694 c 0.774091,-1.24177 2.467415,-1.64494 3.660805,-0.77409 9.369726,6.7733 15.707596,17.48156 16.530068,29.70574 0.09676,1.45142 -1.14501,2.6932 -2.612557,2.6932 z"
     id="path2"
     inkscape:connector-curvature="0"
     style="fill:#4100ff;fill-opacity:1;stroke-width:0.99999994" />
  <g
     aria-label="x"
     id="text837-3"
     style="font-style:normal;font-variant:normal;font-weight:normal;font-stretch:normal;font-size:40px;line-height:1.25;font-family:serif;-inkscape-font-specification:serif;fill:#ffffff;fill-opacity:1;stroke:#ffffff;stroke-opacity:1;stroke-width:3.31627106;stroke-miterlimit:4;stroke-dasharray:none"
     transform="matrix(1.4179757,0,0,1.603139,263.06153,64.267149)">
    <path
       d="m -142.45622,11.118588 2.26562,-0.449218 6.23047,-7.7734378 -6.03516,-7.5195313 -2.26562,-0.4492187 v -2.4804688 h 8.28125 v 2.4804688 l -1.91406,0.234375 3.94531,5.078125 3.96484,-5.0976563 -1.89453,-0.2148437 v -2.4804688 h 8.33985 v 2.4804688 l -2.26563,0.4492187 -6.03516,7.5195313 6.21094,7.7734378 2.28516,0.449218 v 2.460938 h -8.28125 v -2.460938 l 1.875,-0.214843 -4.14063,-5.3125003 -4.14062,5.3125003 1.89453,0.214843 v 2.460938 h -8.32031 z"
       id="path839-6"
       style="fill:#ffffff;fill-opacity:1;stroke:#ffffff;stroke-opacity:1;stroke-width:3.31627106;stroke-miterlimit:4;stroke-dasharray:none" />
  </g>
  <g
     id="text814-3"
     style="font-style:normal;font-variant:normal;font-weight:normal;font-stretch:normal;font-size:57.74441528px;line-height:125%;font-family:Quattrocento;-inkscape-font-specification:Quattrocento;letter-spacing:0px;word-spacing:0px;fill:#ffffff;fill-opacity:1;stroke:#ffffff;stroke-width:8;stroke-linecap:butt;stroke-linejoin:miter;stroke-miterlimit:4;stroke-dasharray:none;stroke-opacity:1"
     aria-label="n"
     transform="translate(-40.695184,5.5609754)" />
  <g
     aria-label="x"
     id="text837"
     style="font-style:normal;font-variant:normal;font-weight:normal;font-stretch:normal;font-size:40px;line-height:1.25;font-family:serif;-inkscape-font-specification:serif;fill:#000000;fill-opacity:1;stroke:none"
     transform="matrix(1.4179757,0,0,1.603139,263.06153,64.267149)">
    <path
       d="m -142.45622,11.118588 2.26562,-0.449218 6.23047,-7.7734378 -6.03516,-7.5195313 -2.26562,-0.4492187 v -2.4804688 h 8.28125 v 2.4804688 l -1.91406,0.234375 3.94531,5.078125 3.96484,-5.0976563 -1.89453,-0.2148437 v -2.4804688 h 8.33985 v 2.4804688 l -2.26563,0.4492187 -6.03516,7.5195313 6.21094,7.7734378 2.28516,0.449218 v 2.460938 h -8.28125 v -2.460938 l 1.875,-0.214843 -4.14063,-5.3125003 -4.14062,5.3125003 1.89453,0.214843 v 2.460938 h -8.32031 z"
       id="path839" />
  </g>
</svg>
