<?xml version="1.0" encoding="UTF-8" standalone="no"?>
<svg
   xmlns:dc="http://purl.org/dc/elements/1.1/"
   xmlns:cc="http://creativecommons.org/ns#"
   xmlns:rdf="http://www.w3.org/1999/02/22-rdf-syntax-ns#"
   xmlns:svg="http://www.w3.org/2000/svg"
   xmlns="http://www.w3.org/2000/svg"
   xmlns:sodipodi="http://sodipodi.sourceforge.net/DTD/sodipodi-0.dtd"
   xmlns:inkscape="http://www.inkscape.org/namespaces/inkscape"
   viewBox="0 0 100 100"
   version="1.1"
   id="svg4"
   sodipodi:docname="action-key.svg"
   inkscape:version="0.92.2 5c3e80d, 2017-08-06">
  <metadata
     id="metadata10">
    <rdf:RDF>
      <cc:Work
         rdf:about="">
        <dc:format>image/svg+xml</dc:format>
        <dc:type
           rdf:resource="http://purl.org/dc/dcmitype/StillImage" />
        <dc:title />
      </cc:Work>
    </rdf:RDF>
  </metadata>
  <defs
     id="defs8" />
  <sodipodi:namedview
     pagecolor="#ffffff"
     bordercolor="#666666"
     borderopacity="1"
     objecttolerance="10"
     gridtolerance="10"
     guidetolerance="10"
     inkscape:pageopacity="0"
     inkscape:pageshadow="2"
     inkscape:window-width="3840"
     inkscape:window-height="1545"
     id="namedview6"
     showgrid="false"
     inkscape:zoom="0.65186405"
     inkscape:cx="-1806.9755"
     inkscape:cy="208.70316"
     inkscape:window-x="0"
     inkscape:window-y="0"
     inkscape:window-maximized="1"
     inkscape:current-layer="svg4" />
  <path
     id="path898"
     d="M 74.523923,95.733997 H 14.69342 c -3.304388,0 -5.9830507,-2.678663 -5.9830507,-5.983046 V 53.852642 c 0,-3.304384 2.6786627,-5.983047 5.9830507,-5.983047 h 59.830503 c 3.304388,0 5.98305,2.678663 5.98305,5.983047 v 35.898309 c 0,3.304383 -2.678662,5.983046 -5.98305,5.983046 z M 24.66517,62.328627 v -4.985863 c 0,-0.826034 -0.669728,-1.495769 -1.495762,-1.495769 h -4.985876 c -0.826035,0 -1.495763,0.669735 -1.495763,1.495769 v 4.985863 c 0,0.826048 0.669728,1.495768 1.495763,1.495768 h 4.985876 c 0.826034,0 1.495762,-0.66972 1.495762,-1.495768 z m 11.966101,0 v -4.985863 c 0,-0.826034 -0.669728,-1.495769 -1.495762,-1.495769 h -4.985876 c -0.826035,0 -1.495763,0.669735 -1.495763,1.495769 v 4.985863 c 0,0.826048 0.669728,1.495768 1.495763,1.495768 h 4.985876 c 0.826034,0 1.495762,-0.66972 1.495762,-1.495768 z m 11.9661,0 v -4.985863 c 0,-0.826034 -0.669728,-1.495769 -1.495763,-1.495769 h -4.985874 c -0.826035,0 -1.495763,0.669735 -1.495763,1.495769 v 4.985863 c 0,0.826048 0.669728,1.495768 1.495763,1.495768 h 4.985874 c 0.826035,0 1.495763,-0.66972 1.495763,-1.495768 z m 11.9661,0 v -4.985863 c 0,-0.826034 -0.669727,-1.495769 -1.495763,-1.495769 h -4.985874 c -0.826035,0 -1.495763,0.669735 -1.495763,1.495769 v 4.985863 c 0,0.826048 0.669728,1.495768 1.495763,1.495768 h 4.985874 c 0.826036,0 1.495763,-0.66972 1.495763,-1.495768 z m 11.966102,0 v -4.985863 c 0,-0.826034 -0.669728,-1.495769 -1.495763,-1.495769 h -4.985876 c -0.826034,0 -1.495762,0.669735 -1.495762,1.495769 v 4.985863 c 0,0.826048 0.669728,1.495768 1.495762,1.495768 h 4.985876 c 0.826035,0 1.495763,-0.66972 1.495763,-1.495768 z M 30.648221,74.294734 v -4.985876 c 0,-0.826035 -0.669728,-1.495756 -1.495763,-1.495756 h -4.985876 c -0.826034,0 -1.495761,0.669721 -1.495761,1.495756 v 4.985876 c 0,0.826034 0.669727,1.495769 1.495761,1.495769 h 4.985876 c 0.826035,0 1.495763,-0.669735 1.495763,-1.495769 z m 11.9661,0 v -4.985876 c 0,-0.826035 -0.669728,-1.495756 -1.495763,-1.495756 h -4.985876 c -0.826035,0 -1.495761,0.669721 -1.495761,1.495756 v 4.985876 c 0,0.826034 0.669726,1.495769 1.495761,1.495769 h 4.985876 c 0.826035,0 1.495763,-0.669735 1.495763,-1.495769 z m 11.9661,0 v -4.985876 c 0,-0.826035 -0.669727,-1.495756 -1.495762,-1.495756 h -4.985875 c -0.826036,0 -1.495763,0.669721 -1.495763,1.495756 v 4.985876 c 0,0.826034 0.669727,1.495769 1.495763,1.495769 h 4.985875 c 0.826035,0 1.495762,-0.669735 1.495762,-1.495769 z m 11.9661,0 v -4.985876 c 0,-0.826035 -0.669727,-1.495756 -1.495761,-1.495756 h -4.985876 c -0.826035,0 -1.495763,0.669721 -1.495763,1.495756 v 4.985876 c 0,0.826034 0.669728,1.495769 1.495763,1.495769 h 4.985876 c 0.826034,0 1.495761,-0.669735 1.495761,-1.495769 z M 24.66517,86.260828 v -4.985863 c 0,-0.826034 -0.669728,-1.495768 -1.495762,-1.495768 h -4.985876 c -0.826035,0 -1.495763,0.669734 -1.495763,1.495768 v 4.985863 c 0,0.826048 0.669728,1.495769 1.495763,1.495769 h 4.985876 c 0.826034,0 1.495762,-0.669721 1.495762,-1.495769 z m 35.898301,0 v -4.985863 c 0,-0.826034 -0.669727,-1.495768 -1.495763,-1.495768 H 30.149633 c -0.826035,0 -1.495763,0.669734 -1.495763,1.495768 v 4.985863 c 0,0.826048 0.669728,1.495769 1.495763,1.495769 h 28.918075 c 0.826036,0 1.495763,-0.669721 1.495763,-1.495769 z m 11.966102,0 v -4.985863 c 0,-0.826034 -0.669728,-1.495768 -1.495763,-1.495768 h -4.985876 c -0.826034,0 -1.495762,0.669734 -1.495762,1.495768 v 4.985863 c 0,0.826048 0.669728,1.495769 1.495762,1.495769 h 4.985876 c 0.826035,0 1.495763,-0.669721 1.495763,-1.495769 z"
     inkscape:connector-curvature="0"
     style="fill:#310049;fill-opacity:1;stroke-width:0.12464688" />
  <g
     id="g1096"
     transform="matrix(0.76676678,0,0,0.76676678,21.178548,5.9895204)">
    <path
       sodipodi:nodetypes="sscccssscscsscscsccccsscss"
       id="path1047-6"
       d="m 27.108941,76.691601 c 6.591537,3.310672 14.763315,0.581343 18.060851,-5.984039 l 2.587152,-5.151011 c 1.230378,0.309777 2.494967,0.462854 3.763722,0.455594 2.997929,1.959392 6.753583,2.758183 10.233477,2.247341 7.667065,3.644762 15.884736,1.210998 20.423846,-7.826354 l 1.545818,-3.077718 c 4.359191,-8.679136 1.369682,-17.138116 3.451771,-21.283548 l 0.194434,-0.387117 c 1.132666,-0.471043 2.138406,-1.375343 2.761407,-2.615736 l 4.645005,-9.248179 c 1.28265,-2.553758 0.45927,-5.559825 -1.839157,-6.714235 L 59.644343,0.3848654 c -2.298426,-1.15441 -5.201426,-0.02 -6.484079,2.5338 l -4.644928,9.2480296 c -0.623001,1.24039 -0.747865,2.587122 -0.449398,3.776968 l -0.194434,0.387117 c -0.505426,1.006302 -1.973531,1.698098 -5.61063,2.643708 l -0.03075,0.0079 -0.0306,0.0083 c -2.078644,0.5585 -4.326341,1.105195 -6.681265,1.322081 -5.728405,0.507574 -13.590307,-1.326173 -16.879061,5.221724 -4.131663,8.226127 -1.578237,15.855002 5.345362,19.332456 1.159761,0.582503 2.297247,1.006521 3.394739,1.311291 l -6.254397,12.452511 c -3.27315,6.516829 -0.532791,14.7877 5.984039,18.06085 z"
       inkscape:connector-curvature="0"
       style="fill:none;fill-opacity:1;stroke:#ffffff;stroke-width:5;stroke-miterlimit:4;stroke-dasharray:none;stroke-opacity:1" />
    <g
       transform="matrix(0.14450054,0.07257699,-0.07257699,0.14450054,-6.7821088,27.029084)"
       id="g1075">
      <path
         id="path1047"
         d="m 325.13721,180.38021 c 45.616,0 83.2,-37.765 83.2,-83.199999 v -35.647 a 93.148,93.148 0 0 0 22.064,-7.929 c 22.006,2.507 44.978,-3.503 62.791,-15.985 52.487,-1.139 91.145,-37.39800041 91.145,-99.94 v -21.299002 c 0,-60.062999 -40,-98.511999 -40,-127.199999 v -2.679 c 4.952,-5.747 8,-13.536 8,-22.12 v -64.001 c 0,-17.673 -12.894,-32 -28.8,-32 h -230.4 c -15.906,0 -28.8,14.327 -28.8,32 v 64 c 0,8.584 3.048,16.373 8,22.12 v 2.679 c 0,6.964 -6.193,14.862 -23.668,30.183 l -0.148,0.129 -0.146,0.131 c -9.937,8.856 -20.841,18.116 -33.253,25.851 -30.248,18.705 -78.785,30.393 -78.785,75.706999 0,56.928002 35.286,92.000002 83.2,92.000002 8.026,0 15.489,-0.814 22.4,-2.176 v 86.176 c 0,45.098999 38.101,83.199999 83.2,83.199999 z m 0,-48 c -18.7,0 -35.2,-16.775 -35.2,-35.199999 v -158.4 c -17.325,0 -35.2,26.4 -70.4,26.4 -26.4,0 -35.2,-20.625 -35.2,-44.000002 0,-8.794 32.712,-20.445 56.1,-34.925999 14.575,-9.074 27.225,-19.524 39.875,-30.799 18.374,-16.109 36.633,-33.836 39.596,-59.075 h 176.752 c 3.764,42.79 39.677,74.509 39.677,119.999999 v 21.299002 c 0,40.524 -22.197,57.1239996 -61.325,50.601 -8.001,14.6119996 -33.979,24.151 -53.625,12.9249996 -18.225,19.3650004 -46.381,17.7870004 -61.05,4.95 V 97.180211 c 0,18.974999 -16.225,35.199999 -35.2,35.199999 z m 139.2,-400 c 0,-13.255 10.745,-24 24,-24 13.255,0 24,10.745 24,24 0,13.255 -10.745,24 -24,24 -13.255,0 -24,-10.745 -24,-24 z"
         inkscape:connector-curvature="0"
         style="fill:#310049;fill-opacity:1" />
      <path
         id="path1047-3"
         d="m 325.13721,132.38021 c -18.7,0 -35.2,-16.775 -35.2,-35.199999 v -158.4 c -17.325,0 -35.2,26.4 -70.4,26.4 -26.4,0 -35.2,-20.625 -35.2,-44 0,-8.794 32.712,-20.445 56.1,-34.926001 14.575,-9.074 27.225,-19.524 39.875,-30.799 18.374,-16.109 36.633,-33.836 39.596,-59.075 h 176.752 c 3.764,42.79 39.677,74.509 39.677,120.000001 v 21.299 c 0,40.524 -22.197,57.124 -61.325,50.601 -8.001,14.612 -33.979,24.151 -53.625,12.925 -18.225,19.365 -46.381,17.787 -61.05,4.95 v 91.025 c 0,18.974999 -16.225,35.199999 -35.2,35.199999 z"
         inkscape:connector-curvature="0"
         style="fill:#ffffeb;fill-opacity:1"
         sodipodi:nodetypes="sscssccccsscccss" />
    </g>
  </g>
</svg>
