<?xml version="1.0" encoding="UTF-8" standalone="no"?>
<svg
   xmlns:dc="http://purl.org/dc/elements/1.1/"
   xmlns:cc="http://creativecommons.org/ns#"
   xmlns:rdf="http://www.w3.org/1999/02/22-rdf-syntax-ns#"
   xmlns:svg="http://www.w3.org/2000/svg"
   xmlns="http://www.w3.org/2000/svg"
   id="svg4"
   viewBox="0 0 100 100"
   version="1.0">
  <metadata
     id="metadata3050">
    <rdf:RDF>
      <cc:Work
         rdf:about="">
        <dc:format>image/svg+xml</dc:format>
        <dc:type
           rdf:resource="http://purl.org/dc/dcmitype/StillImage" />
        <dc:title></dc:title>
      </cc:Work>
    </rdf:RDF>
  </metadata>
  <defs
     id="defs4" />
  <g
     style="stroke:#310049;stroke-opacity:1"
     transform="matrix(1.1101625,0,0,1.1101625,132.17737,-27.28944)"
     id="g4286" />
  <g
     style="stroke-width:1.25"
     transform="matrix(0.79999999,0,0,0.79999999,10.000001,10.000001)"
     id="g15">
    <path
       d="M 100,50.000008 C 100,59.071189 97.764757,67.437073 93.294271,75.09766 88.823784,82.758248 82.758247,88.823785 75.097659,93.294271 67.437065,97.764757 59.071178,100 49.999998,100 40.928818,100 32.562933,97.764757 24.902342,93.294271 17.241752,88.823785 11.176214,82.758248 6.7057287,75.09766 2.2352423,67.437073 -9.0750439e-7,59.071189 -9.0750439e-7,50.000008 -9.0750439e-7,40.928827 2.2352423,32.562943 6.7057287,24.902355 11.176214,17.241757 17.241752,11.176215 24.902342,6.7057286 32.562933,2.2352424 40.928818,-6.6246997e-7 49.999998,-6.6246997e-7 59.071178,-6.6246997e-7 67.437065,2.2352424 75.097659,6.7057286 82.758247,11.176215 88.823784,17.241757 93.294271,24.902355 97.764757,32.562943 100,40.928827 100,50.000008 Z"
       id="path4"
       style="fill:#fb9a49;fill-opacity:1;stroke-width:1.95312357" />
    <g
       id="g853"
       style="fill:#ffffff;fill-opacity:1;stroke-width:1.25"
       transform="translate(117.5,-13.875002)">
      <rect
         rx="5.2132702"
         ry="5.2132702"
         y="30.500002"
         x="-76.25"
         height="44"
         width="17.5"
         id="rect834"
         style="opacity:1;fill:#ffffeb;fill-opacity:1;stroke:none;stroke-width:1.14342713;stroke-miterlimit:4;stroke-dasharray:none;stroke-opacity:1" />
      <rect
         rx="5.2137499"
         ry="5.2137499"
         y="81.5"
         x="-76.25"
         height="15.750001"
         width="17.5"
         id="rect834-6"
         style="opacity:1;fill:#ffffeb;fill-opacity:1;stroke:none;stroke-width:0.6841045;stroke-miterlimit:4;stroke-dasharray:none;stroke-opacity:1" />
    </g>
  </g>
</svg>
