<?xml version="1.0" encoding="UTF-8" standalone="no"?>
<svg
   xmlns:dc="http://purl.org/dc/elements/1.1/"
   xmlns:cc="http://creativecommons.org/ns#"
   xmlns:rdf="http://www.w3.org/1999/02/22-rdf-syntax-ns#"
   xmlns:svg="http://www.w3.org/2000/svg"
   xmlns="http://www.w3.org/2000/svg"
   xmlns:sodipodi="http://sodipodi.sourceforge.net/DTD/sodipodi-0.dtd"
   xmlns:inkscape="http://www.inkscape.org/namespaces/inkscape"
   viewBox="0 0 100 100"
   version="1.1"
   id="svg4"
   sodipodi:docname="action-edit.svg"
   inkscape:version="0.92.2 5c3e80d, 2017-08-06">
  <metadata
     id="metadata10">
    <rdf:RDF>
      <cc:Work
         rdf:about="">
        <dc:format>image/svg+xml</dc:format>
        <dc:type
           rdf:resource="http://purl.org/dc/dcmitype/StillImage" />
        <dc:title />
      </cc:Work>
    </rdf:RDF>
  </metadata>
  <defs
     id="defs8" />
  <sodipodi:namedview
     pagecolor="#ffffff"
     bordercolor="#666666"
     borderopacity="1"
     objecttolerance="10"
     gridtolerance="10"
     guidetolerance="10"
     inkscape:pageopacity="0"
     inkscape:pageshadow="2"
     inkscape:window-width="3840"
     inkscape:window-height="1545"
     id="namedview6"
     showgrid="false"
     inkscape:zoom="1.3037281"
     inkscape:cx="-361.52112"
     inkscape:cy="-69.462032"
     inkscape:window-x="0"
     inkscape:window-y="0"
     inkscape:window-maximized="1"
     inkscape:current-layer="svg4" />
  <g
     id="g853">
    <rect
       ry="4"
       rx="4"
       y="23.118645"
       x="15.18644"
       height="53.152542"
       width="53.152542"
       id="rect812"
       style="opacity:1;fill:#ffffeb;fill-opacity:1;fill-rule:nonzero;stroke:#ffffeb;stroke-width:3.77952766;stroke-miterlimit:4;stroke-dasharray:none;stroke-opacity:1" />
    <path
       style="fill:#310049;fill-opacity:1;stroke-width:1"
       inkscape:connector-curvature="0"
       id="path2"
       d="m 49.820627,65.7848 5.201794,-5.2018 -6.816143,-6.8162 -5.201794,5.2018 v 2.5112 h 4.304933 v 4.305 z m 19.730942,-32.287 q -0.717488,-0.7175 -1.479819,0.045 L 52.376682,49.2379 q -0.762332,0.7623 -0.04484,1.4798 0.717489,0.7175 1.479821,-0.045 L 69.50673,34.9776 q 0.762331,-0.7623 0.04484,-1.4798 z m 3.587445,26.6367 v 8.5202 q 0,5.3363 -3.789238,9.1256 -3.789237,3.7892 -9.125561,3.7892 H 22.914797 q -5.336322,0 -9.12556,-3.7892 Q 9.9999995,73.991 9.9999995,68.6547 V 31.3453 q 0,-5.3363 3.7892375,-9.1256 3.789238,-3.7892 9.12556,-3.7892 h 37.309418 q 2.825112,0 5.246638,1.1211 0.672645,0.3139 0.807175,1.0314 0.134528,0.7623 -0.403589,1.3004 l -2.197308,2.1973 q -0.627803,0.6278 -1.434978,0.3588 -1.03139,-0.2691 -2.017938,-0.2691 H 22.914797 q -2.95964,0 -5.067264,2.1076 -2.107623,2.1077 -2.107623,5.0673 v 37.3094 q 0,2.9597 2.107623,5.0673 2.107624,2.1076 5.067264,2.1076 h 37.309418 q 2.959641,0 5.067266,-2.1076 2.107622,-2.1076 2.107622,-5.0673 v -5.6502 q 0,-0.583 0.403587,-0.9865 l 2.869956,-2.87 q 0.672646,-0.6726 1.569507,-0.3139 0.896861,0.3587 0.896861,1.3004 z M 68.834081,27.0404 81.748879,39.9552 51.61435,70.0897 H 38.699551 V 57.1749 Z m 19.910314,5.9193 -4.125561,4.1255 -12.914798,-12.9148 4.12556,-4.1255 q 1.255606,-1.2556 3.049328,-1.2556 1.793722,0 3.049328,1.2556 l 6.816143,6.8161 Q 90,28.1166 90,29.9103 q 0,1.7938 -1.255605,3.0494 z" />
  </g>
</svg>
