<?xml version="1.0" encoding="UTF-8" standalone="no"?>
<svg
   xmlns:dc="http://purl.org/dc/elements/1.1/"
   xmlns:cc="http://creativecommons.org/ns#"
   xmlns:rdf="http://www.w3.org/1999/02/22-rdf-syntax-ns#"
   xmlns:svg="http://www.w3.org/2000/svg"
   xmlns="http://www.w3.org/2000/svg"
   xmlns:sodipodi="http://sodipodi.sourceforge.net/DTD/sodipodi-0.dtd"
   xmlns:inkscape="http://www.inkscape.org/namespaces/inkscape"
   version="1.0"
   width="100"
   height="100"
   id="svg2"
   inkscape:version="1.0.1 (3bc2e813f5, 2020-09-07)"
   sodipodi:docname="tick.svg"
   inkscape:export-filename="/home/tris/src/dissolve/src/gui/qml2/assets/tick.png"
   inkscape:export-xdpi="96"
   inkscape:export-ydpi="96">
  <metadata
     id="metadata3050">
    <rdf:RDF>
      <cc:Work
         rdf:about="">
        <dc:format>image/svg+xml</dc:format>
        <dc:type
           rdf:resource="http://purl.org/dc/dcmitype/StillImage" />
        <dc:title />
      </cc:Work>
    </rdf:RDF>
  </metadata>
  <sodipodi:namedview
     pagecolor="#ffffff"
     bordercolor="#666666"
     borderopacity="1"
     objecttolerance="10"
     gridtolerance="10"
     guidetolerance="10"
     inkscape:pageopacity="0"
     inkscape:pageshadow="2"
     inkscape:window-width="1920"
     inkscape:window-height="1011"
     id="namedview3048"
     showgrid="false"
     inkscape:zoom="4.0000001"
     inkscape:cx="4.0655387"
     inkscape:cy="43.191178"
     inkscape:window-x="0"
     inkscape:window-y="32"
     inkscape:window-maximized="1"
     inkscape:current-layer="svg2"
     inkscape:document-rotation="0" />
  <defs
     id="defs4" />
  <g
     id="g4286"
     transform="matrix(1.1101625,0,0,1.1101625,132.17737,-27.28944)"
     style="stroke:#310049;stroke-opacity:1" />
  <path
     style="fill:#316549;fill-opacity:1;stroke-width:1.56249"
     id="path4"
     d="m 100,28.100759 c 0,-1.808774 -0.58139,-3.294564 -1.74418,-4.457368 l -8.817834,-8.720925 c -1.227394,-1.227379 -2.680882,-1.841069 -4.360462,-1.841069 -1.679588,0 -3.133076,0.61369 -4.360466,1.841069 L 41.182171,54.360463 19.282947,32.461222 c -1.227386,-1.227378 -2.680886,-1.841068 -4.360469,-1.841068 -1.679583,0 -3.133083,0.61369 -4.360469,1.841068 L 1.7441934,41.18217 C 0.5814026,42.344959 -2e-7,43.830741 -2e-7,45.639515 c 0,1.7442 0.5814028,3.197695 1.7441936,4.360484 L 36.821702,85.07751 c 1.227386,1.227395 2.680886,1.841093 4.360469,1.841093 1.744179,0 3.229976,-0.613698 4.457362,-1.841093 L 98.25582,32.461222 C 99.41861,31.298432 100,29.844944 100,28.100759 Z"
     inkscape:connector-curvature="0"
     sodipodi:nodetypes="sccscccsccsccscss" />
</svg>
