<?xml version="1.0" encoding="UTF-8" standalone="no"?>
<svg
   xmlns:dc="http://purl.org/dc/elements/1.1/"
   xmlns:cc="http://creativecommons.org/ns#"
   xmlns:rdf="http://www.w3.org/1999/02/22-rdf-syntax-ns#"
   xmlns:svg="http://www.w3.org/2000/svg"
   xmlns="http://www.w3.org/2000/svg"
   xmlns:sodipodi="http://sodipodi.sourceforge.net/DTD/sodipodi-0.dtd"
   xmlns:inkscape="http://www.inkscape.org/namespaces/inkscape"
   version="1.0"
   width="100"
   height="100"
   id="svg2"
   inkscape:version="1.0.1 (3bc2e813f5, 2020-09-07)"
   sodipodi:docname="add.svg">
  <metadata
     id="metadata3050">
    <rdf:RDF>
      <cc:Work
         rdf:about="">
        <dc:format>image/svg+xml</dc:format>
        <dc:type
           rdf:resource="http://purl.org/dc/dcmitype/StillImage" />
        <dc:title />
      </cc:Work>
    </rdf:RDF>
  </metadata>
  <sodipodi:namedview
     pagecolor="#ffffff"
     bordercolor="#666666"
     borderopacity="1"
     objecttolerance="10"
     gridtolerance="10"
     guidetolerance="10"
     inkscape:pageopacity="0"
     inkscape:pageshadow="2"
     inkscape:window-width="3840"
     inkscape:window-height="1531"
     id="namedview3048"
     showgrid="false"
     inkscape:zoom="4.0000001"
     inkscape:cx="-39.977867"
     inkscape:cy="39.576638"
     inkscape:window-x="0"
     inkscape:window-y="32"
     inkscape:window-maximized="1"
     inkscape:current-layer="svg2"
     showguides="false"
     inkscape:document-rotation="0" />
  <defs
     id="defs4" />
  <path
     style="fill:#00004a;fill-opacity:1;stroke-width:1"
     d="m 81.011899,47.784873 v 4.430254 q 0,0.969129 -0.623014,1.592131 -0.623002,0.623015 -1.59213,0.623015 h -24.36649 v 24.36649 q 0,0.969128 -0.623002,1.592131 -0.623003,0.623002 -1.592131,0.623002 h -4.430266 q -0.969128,0 -1.59213,-0.623002 -0.623015,-0.623003 -0.623015,-1.592131 V 54.430273 H 21.20324 q -0.969123,0 -1.592133,-0.623015 -0.623006,-0.623002 -0.623006,-1.592131 v -4.430254 q 0,-0.969128 0.623006,-1.592143 0.62301,-0.623002 1.592133,-0.623002 h 24.366481 v -24.36649 q 0,-0.969117 0.623015,-1.592131 0.623002,-0.623003 1.59213,-0.623003 h 4.430267 q 0.969127,0 1.592131,0.623003 0.623002,0.623014 0.623002,1.592131 v 24.36649 h 24.366489 q 0.969128,0 1.59213,0.623002 0.623014,0.623015 0.623014,1.592143 z"
     id="path4735" />
</svg>
