<?xml version="1.0" encoding="UTF-8" standalone="no"?>
<svg
   xmlns:dc="http://purl.org/dc/elements/1.1/"
   xmlns:cc="http://creativecommons.org/ns#"
   xmlns:rdf="http://www.w3.org/1999/02/22-rdf-syntax-ns#"
   xmlns:svg="http://www.w3.org/2000/svg"
   xmlns="http://www.w3.org/2000/svg"
   xmlns:sodipodi="http://sodipodi.sourceforge.net/DTD/sodipodi-0.dtd"
   xmlns:inkscape="http://www.inkscape.org/namespaces/inkscape"
   version="1.0"
   width="100"
   height="100"
   id="svg2"
   inkscape:version="1.0.1 (3bc2e813f5, 2020-09-07)"
   sodipodi:docname="addpair.svg">
  <metadata
     id="metadata3050">
    <rdf:RDF>
      <cc:Work
         rdf:about="">
        <dc:format>image/svg+xml</dc:format>
        <dc:type
           rdf:resource="http://purl.org/dc/dcmitype/StillImage" />
        <dc:title />
      </cc:Work>
    </rdf:RDF>
  </metadata>
  <sodipodi:namedview
     pagecolor="#ffffff"
     bordercolor="#666666"
     borderopacity="1"
     objecttolerance="10"
     gridtolerance="10"
     guidetolerance="10"
     inkscape:pageopacity="0"
     inkscape:pageshadow="2"
     inkscape:window-width="1920"
     inkscape:window-height="1531"
     id="namedview3048"
     showgrid="false"
     inkscape:zoom="2"
     inkscape:cx="223.02472"
     inkscape:cy="281.11002"
     inkscape:window-x="0"
     inkscape:window-y="32"
     inkscape:window-maximized="0"
     inkscape:current-layer="svg2"
     showguides="false"
     inkscape:document-rotation="0" />
  <defs
     id="defs4" />
  <g
     id="g1563"
     transform="matrix(1.3549327,0,0,1.3529347,-39.037353,-16.226205)"
     style="stroke-width:0.738589">
    <path
       style="fill:#00004a;fill-opacity:1;stroke-width:0.549907"
       d="m 75.457047,29.591885 v 2.707403 q 0,0.59225 -0.380735,0.972978 Q 74.695585,33.653 74.103334,33.653 H 59.212565 v 14.89077 q 0,0.592251 -0.380727,0.972978 -0.380727,0.380727 -0.972978,0.380727 h -2.70741 q -0.592251,0 -0.972978,-0.380727 -0.380734,-0.380727 -0.380734,-0.972978 V 33.653 H 38.906973 q -0.592247,0 -0.972979,-0.380734 -0.380729,-0.380728 -0.380729,-0.972978 v -2.707403 q 0,-0.59225 0.380729,-0.972985 0.380732,-0.380727 0.972979,-0.380727 h 14.890765 v -14.89077 q 0,-0.592243 0.380734,-0.972978 0.380727,-0.380727 0.972978,-0.380727 h 2.70741 q 0.592251,0 0.972978,0.380727 0.380727,0.380735 0.380727,0.972978 v 14.89077 h 14.890769 q 0.592251,0 0.972978,0.380727 0.380735,0.380735 0.380735,0.972985 z"
       id="path4735" />
    <path
       style="fill:none;fill-opacity:1;stroke:#00004a;stroke-width:1.95357;stroke-miterlimit:4;stroke-dasharray:none;stroke-opacity:1"
       d="m 92.896925,64.624006 v 2.707403 q 0,0.59225 -0.38073,0.972977 -0.38073,0.380735 -0.972979,0.380735 H 76.652448 v 14.890767 q 0,0.59225 -0.380727,0.972978 -0.380728,0.380727 -0.972978,0.380727 h -2.70741 q -0.592251,0 -0.972978,-0.380727 Q 71.23762,84.168138 71.23762,83.575888 V 68.685121 H 56.346856 q -0.592247,0 -0.972979,-0.380735 -0.380729,-0.380727 -0.380729,-0.972977 v -2.707403 q 0,-0.592251 0.380729,-0.972985 0.380732,-0.380727 0.972979,-0.380727 H 71.23762 v -14.89077 q 0,-0.592243 0.380735,-0.972978 0.380727,-0.380727 0.972978,-0.380727 h 2.70741 q 0.59225,0 0.972978,0.380727 0.380727,0.380735 0.380727,0.972978 v 14.89077 h 14.890768 q 0.592249,0 0.972979,0.380727 0.38073,0.380734 0.38073,0.972985 z"
       id="path4735-7" />
  </g>
</svg>
