<?xml version="1.0" encoding="UTF-8" standalone="no"?>
<svg
   xmlns:dc="http://purl.org/dc/elements/1.1/"
   xmlns:cc="http://creativecommons.org/ns#"
   xmlns:rdf="http://www.w3.org/1999/02/22-rdf-syntax-ns#"
   xmlns:svg="http://www.w3.org/2000/svg"
   xmlns="http://www.w3.org/2000/svg"
   xmlns:sodipodi="http://sodipodi.sourceforge.net/DTD/sodipodi-0.dtd"
   xmlns:inkscape="http://www.inkscape.org/namespaces/inkscape"
   version="1.0"
   width="100"
   height="100"
   id="svg2"
   inkscape:version="1.0.1 (3bc2e813f5, 2020-09-07)"
   sodipodi:docname="calculateAxisAngle.svg">
  <metadata
     id="metadata3050">
    <rdf:RDF>
      <cc:Work
         rdf:about="">
        <dc:format>image/svg+xml</dc:format>
        <dc:type
           rdf:resource="http://purl.org/dc/dcmitype/StillImage" />
        <dc:title />
      </cc:Work>
    </rdf:RDF>
  </metadata>
  <sodipodi:namedview
     pagecolor="#ffffff"
     bordercolor="#666666"
     borderopacity="1"
     objecttolerance="10"
     gridtolerance="10"
     guidetolerance="10"
     inkscape:pageopacity="0"
     inkscape:pageshadow="2"
     inkscape:window-width="1920"
     inkscape:window-height="1531"
     id="namedview3048"
     showgrid="false"
     inkscape:zoom="2.828427"
     inkscape:cx="-9.0474977"
     inkscape:cy="17.59433"
     inkscape:window-x="1920"
     inkscape:window-y="32"
     inkscape:window-maximized="0"
     inkscape:current-layer="svg2"
     showguides="false"
     inkscape:document-rotation="0" />
  <defs
     id="defs4" />
  <text
     xml:space="preserve"
     style="font-size:18.6667px;line-height:1.25;font-family:serif;-inkscape-font-specification:serif;font-weight:normal;font-style:normal;font-stretch:normal;font-variant:normal;"
     x="-47.867191"
     y="91.993172"
     id="text1548"><tspan
       sodipodi:role="line"
       id="tspan1546"
       x="-47.867191"
       y="91.993172">ࣻ</tspan></text>
  <g
     aria-label="⃪"
     id="text1552-3"
     style="font-size:18.6667px;line-height:1.25;font-family:'B&amp;H LucidaBright';-inkscape-font-specification:'B&amp;H LucidaBright';fill:#315a49;fill-opacity:1;stroke-width:0.875437"
     transform="matrix(-2.0310508,2.0310508,2.0310508,2.0310508,-352.86382,-256.9843)">
    <g
       id="g862"
       transform="matrix(1.1142557,0,0,1.1142557,2.6134104,-18.389641)"
       style="stroke-width:0.875437">
      <g
         aria-label="⃪"
         id="text1552"
         style="font-size:18.6667px;line-height:1.25;font-family:'B&amp;H LucidaBright';-inkscape-font-specification:'B&amp;H LucidaBright';fill:#315a49;fill-opacity:1;stroke-width:0.875437"
         transform="translate(1.6579271,56.313381)">
        <path
           d="m -38.838114,119.39896 4.816009,2.78134 v -1.60534 l -1.75467,-1.008 h 16.006416 v -1.38133 h -16.006416 l 1.75467,-1.00801 v -1.60533 l -4.816009,2.78134 v 0.52266 z"
           id="path1554"
           sodipodi:nodetypes="cccccccccccc"
           style="fill:#315a49;fill-opacity:1;stroke-width:0.875437" />
      </g>
      <path
         d="m -28.697065,158.59251 -7.07e-4,5.56146 1.390265,-0.80267 -0.0044,-2.02359 8.003208,13.86196 1.196267,-0.69066 -8.003208,-13.86197 1.750297,1.01559 1.390257,-0.80267 -4.816716,-2.78011 -0.452637,0.26133 z"
         id="path1554-6"
         sodipodi:nodetypes="cccccccccccc"
         style="fill:#315a49;fill-opacity:1;stroke-width:0.875437" />
    </g>
  </g>
  <path
     d="m 49.999993,70.0298 c 6.493546,0 12.503194,0.53853 18.028944,1.61559 5.525758,1.07705 9.896406,2.53653 13.111956,4.37845 3.215561,1.84192 4.823341,3.83993 4.823341,5.99404 v 5.99404 c 0,2.15411 -1.60778,4.15212 -4.823341,5.99404 -3.21555,1.84192 -7.586198,3.3014 -13.111956,4.37846 C 62.503187,99.46147 56.493539,100 49.999993,100 c -6.493539,0 -12.503187,-0.53853 -18.028947,-1.61558 -5.52575,-1.07706 -9.8964,-2.53654 -13.11196,-4.37846 -3.21554,-1.84192 -4.82332,-3.83993 -4.82332,-5.99404 v -5.99404 c 0,-2.15411 1.60778,-4.15212 4.82332,-5.99404 3.21556,-1.84192 7.58621,-3.3014 13.11196,-4.37845 5.52576,-1.07706 11.535408,-1.61559 18.028947,-1.61559 z"
     id="path2-3"
     inkscape:connector-curvature="0"
     style="fill:#315a49;fill-opacity:1;stroke-width:0.849048"
     sodipodi:nodetypes="sssssssssssssss" />
</svg>
