<?xml version="1.0" encoding="UTF-8" standalone="no"?>
<svg
   xmlns:dc="http://purl.org/dc/elements/1.1/"
   xmlns:cc="http://creativecommons.org/ns#"
   xmlns:rdf="http://www.w3.org/1999/02/22-rdf-syntax-ns#"
   xmlns:svg="http://www.w3.org/2000/svg"
   xmlns="http://www.w3.org/2000/svg"
   xmlns:sodipodi="http://sodipodi.sourceforge.net/DTD/sodipodi-0.dtd"
   xmlns:inkscape="http://www.inkscape.org/namespaces/inkscape"
   version="1.0"
   width="100"
   height="100"
   id="svg2"
   inkscape:version="1.0.1 (3bc2e813f5, 2020-09-07)"
   sodipodi:docname="calculateangle.svg">
  <g
     id="g838"
     transform="translate(0,-10.620812)">
    <path
       d="m 49.999993,80.650614 c 6.493546,0 12.503194,0.538527 18.028944,1.615581 5.525758,1.077053 9.896406,2.536538 13.111956,4.378457 3.21556,1.841919 4.82334,3.839931 4.82334,5.994038 v 5.994039 c 0,2.154111 -1.60778,4.152121 -4.82334,5.994041 -3.21555,1.84192 -7.586198,3.3014 -13.111956,4.37846 -5.52575,1.07705 -11.535398,1.61558 -18.028944,1.61558 -6.493539,0 -12.503187,-0.53853 -18.028944,-1.61558 -5.525751,-1.07706 -9.896404,-2.53654 -13.11196,-4.37846 -3.215548,-1.84192 -4.823322,-3.83993 -4.823322,-5.994041 V 92.63869 c 0,-2.154107 1.607774,-4.152119 4.823322,-5.994038 3.215556,-1.841919 7.586209,-3.301404 13.11196,-4.378457 5.525757,-1.077054 11.535405,-1.615581 18.028944,-1.615581 z"
       id="path2"
       inkscape:connector-curvature="0"
       style="fill:#315a49;fill-opacity:1;stroke-width:0.849048"
       sodipodi:nodetypes="sssssssssssssss" />
    <g
       aria-label="ðœƒ"
       id="text1495"
       style="font-size:18.6667px;line-height:1.25;font-family:sans-serif;fill:#315a49;fill-opacity:1;stroke-width:0.809415"
       transform="matrix(4.290507,0,0,4.290507,679.98811,-629.07679)">
      <path
         d="m -142.13242,156.39472 q -0.672,3.32267 -2.31467,5.30134 -1.68001,1.99734 -3.80801,1.99734 -2.10934,0 -3.00534,-1.99734 -0.91467,-2.016 -0.24267,-5.30134 0.616,-3.28534 2.31467,-5.30134 1.66134,-1.99734 3.77068,-1.99734 2.128,0 3.024,1.99734 0.87734,1.96 0.26134,5.30134 z m -2.07201,0.48534 h -5.43201 q -0.504,2.912 -0.168,4.38667 0.37334,1.66134 1.69867,1.66134 1.344,0 2.35201,-1.66134 0.896,-1.43734 1.54933,-4.38667 z m 0.37334,-5.39468 q -0.37334,-1.68 -1.71734,-1.64267 -1.344,0 -2.352,1.64267 -0.91467,1.512 -1.54934,4.42401 h 5.43201 q 0.504,-2.91201 0.18667,-4.42401 z"
         id="path1497"
         style="fill:#315a49;fill-opacity:1;stroke-width:0.809415" />
    </g>
  </g>
  <metadata
     id="metadata3050">
    <rdf:RDF>
      <cc:Work
         rdf:about="">
        <dc:format>image/svg+xml</dc:format>
        <dc:type
           rdf:resource="http://purl.org/dc/dcmitype/StillImage" />
        <dc:title />
      </cc:Work>
    </rdf:RDF>
  </metadata>
  <sodipodi:namedview
     pagecolor="#ffffff"
     bordercolor="#666666"
     borderopacity="1"
     objecttolerance="10"
     gridtolerance="10"
     guidetolerance="10"
     inkscape:pageopacity="0"
     inkscape:pageshadow="2"
     inkscape:window-width="1920"
     inkscape:window-height="1531"
     id="namedview3048"
     showgrid="false"
     inkscape:zoom="3.9999998"
     inkscape:cx="58.075771"
     inkscape:cy="71.08623"
     inkscape:window-x="0"
     inkscape:window-y="32"
     inkscape:window-maximized="0"
     inkscape:current-layer="svg2"
     showguides="false"
     inkscape:document-rotation="0" />
  <defs
     id="defs4" />
</svg>
