<?xml version="1.0" encoding="UTF-8" standalone="no"?>
<svg
   xmlns:dc="http://purl.org/dc/elements/1.1/"
   xmlns:cc="http://creativecommons.org/ns#"
   xmlns:rdf="http://www.w3.org/1999/02/22-rdf-syntax-ns#"
   xmlns:svg="http://www.w3.org/2000/svg"
   xmlns="http://www.w3.org/2000/svg"
   xmlns:sodipodi="http://sodipodi.sourceforge.net/DTD/sodipodi-0.dtd"
   xmlns:inkscape="http://www.inkscape.org/namespaces/inkscape"
   version="1.0"
   width="100"
   height="100"
   id="svg2"
   inkscape:version="1.0.1 (3bc2e813f5, 2020-09-07)"
   sodipodi:docname="calculatevector.svg">
  <metadata
     id="metadata3050">
    <rdf:RDF>
      <cc:Work
         rdf:about="">
        <dc:format>image/svg+xml</dc:format>
        <dc:type
           rdf:resource="http://purl.org/dc/dcmitype/StillImage" />
        <dc:title />
      </cc:Work>
    </rdf:RDF>
  </metadata>
  <sodipodi:namedview
     pagecolor="#ffffff"
     bordercolor="#666666"
     borderopacity="1"
     objecttolerance="10"
     gridtolerance="10"
     guidetolerance="10"
     inkscape:pageopacity="0"
     inkscape:pageshadow="2"
     inkscape:window-width="3840"
     inkscape:window-height="1531"
     id="namedview3048"
     showgrid="false"
     inkscape:zoom="2.828427"
     inkscape:cx="-9.0474977"
     inkscape:cy="17.59433"
     inkscape:window-x="0"
     inkscape:window-y="32"
     inkscape:window-maximized="1"
     inkscape:current-layer="svg2"
     showguides="false"
     inkscape:document-rotation="0" />
  <defs
     id="defs4" />
  <text
     xml:space="preserve"
     style="font-size:18.6667px;line-height:1.25;font-family:serif;-inkscape-font-specification:serif;font-weight:normal;font-style:normal;font-stretch:normal;font-variant:normal;"
     x="-47.867191"
     y="91.993172"
     id="text1548"><tspan
       sodipodi:role="line"
       id="tspan1546"
       x="-47.867191"
       y="91.993172">ࣻ</tspan></text>
  <g
     id="g850"
     transform="matrix(1.2221989,0,0,1.2221989,-30.568868,-11.90789)"
     style="stroke-width:0.818197">
    <path
       d="m 65.921236,67.304415 c 5.255975,0 10.120276,0.435892 14.592902,1.307676 4.472633,0.871783 8.010306,2.053113 10.613021,3.54399 2.602719,1.490877 3.904079,3.108099 3.904079,4.851666 v 4.851666 c 0,1.743568 -1.30136,3.36079 -3.904079,4.851667 -2.602715,1.490877 -6.140388,2.672207 -10.613021,3.543992 -4.472626,0.871783 -9.336927,1.307675 -14.592902,1.307675 -5.255969,0 -10.12027,-0.435892 -14.592902,-1.307675 -4.472627,-0.871785 -8.0103,-2.053115 -10.61302,-3.543992 -2.602714,-1.490877 -3.904071,-3.108099 -3.904071,-4.851667 v -4.851666 c 0,-1.743567 1.301357,-3.360789 3.904071,-4.851666 2.60272,-1.490877 6.140393,-2.672207 10.61302,-3.54399 4.472632,-0.871784 9.336933,-1.307676 14.592902,-1.307676 z"
       id="path2"
       inkscape:connector-curvature="0"
       style="fill:#315a49;fill-opacity:1;stroke-width:0.694688"
       sodipodi:nodetypes="sssssssssssssss" />
    <text
       xml:space="preserve"
       style="font-style:italic;font-variant:normal;font-weight:normal;font-stretch:normal;font-size:80.0331px;line-height:1.25;font-family:'DejaVu Serif';-inkscape-font-specification:'DejaVu Serif Italic';fill:#315a49;fill-opacity:1;stroke-width:3.508"
       x="40.551235"
       y="64.502029"
       id="text1544"><tspan
         sodipodi:role="line"
         id="tspan1542"
         x="40.551235"
         y="64.502029"
         style="fill:#315a49;fill-opacity:1;stroke-width:3.508">v</tspan></text>
    <g
       aria-label="⃪"
       id="text1552"
       style="font-size:18.6667px;line-height:1.25;font-family:'B&amp;H LucidaBright';-inkscape-font-specification:'B&amp;H LucidaBright';fill:#315a49;fill-opacity:1;stroke-width:0.818197"
       transform="matrix(-1.3273325,0,0,1.3273325,25.862253,-143.65985)">
      <path
         d="m -38.838114,119.39896 4.816009,2.78134 v -1.60534 l -1.75467,-1.008 h 16.006416 v -1.38133 h -16.006416 l 1.75467,-1.00801 v -1.60533 l -4.816009,2.78134 v 0.52266 z"
         id="path1554"
         sodipodi:nodetypes="cccccccccccc"
         style="fill:#315a49;fill-opacity:1;stroke-width:0.818197" />
    </g>
  </g>
</svg>
