<?xml version="1.0" encoding="UTF-8" standalone="no"?>
<svg
   xmlns:dc="http://purl.org/dc/elements/1.1/"
   xmlns:cc="http://creativecommons.org/ns#"
   xmlns:rdf="http://www.w3.org/1999/02/22-rdf-syntax-ns#"
   xmlns:svg="http://www.w3.org/2000/svg"
   xmlns="http://www.w3.org/2000/svg"
   xmlns:sodipodi="http://sodipodi.sourceforge.net/DTD/sodipodi-0.dtd"
   xmlns:inkscape="http://www.inkscape.org/namespaces/inkscape"
   version="1.0"
   width="100"
   height="100"
   id="svg2"
   inkscape:version="1.0.1 (3bc2e813f5, 2020-09-07)"
   sodipodi:docname="calculatedistance.svg">
  <g
     id="g850"
     transform="translate(0,-4.23968)">
    <g
       id="g844">
      <g
         aria-label="r"
         id="text1464"
         style="font-size:73.2766px;line-height:1.25;font-family:sans-serif;fill:#315a49;fill-opacity:1;stroke:none;stroke-width:3.92552"
         transform="matrix(1.1788577,0,0,1.1788577,-29.273632,-11.05302)">
        <path
           d="m 82.32724,25.432313 -1.681641,9.517372 h -3.399061 q 0.07156,-0.715592 0.07156,-1.323845 0,-1.860539 -0.751372,-2.898147 -1.001828,-1.395404 -3.43484,-1.395404 -4.365111,0 -7.299037,3.363281 -2.933927,3.363282 -4.007314,9.66049 L 58.104456,63.537578 H 52.165044 L 58.176015,29.26073 H 52.52284 l 0.644033,-3.756858 H 64.75946 l -1.180726,6.762343 q 2.433012,-3.971534 5.510057,-5.867853 3.077045,-1.932098 7.0128,-1.932098 1.431183,0 2.969706,0.250457 1.574302,0.250458 3.255943,0.715592 z"
           style="font-style:italic;font-variant:normal;font-weight:normal;font-stretch:semi-condensed;font-family:'DejaVu Serif';-inkscape-font-specification:'DejaVu Serif Italic Semi-Condensed';fill:#315a49;fill-opacity:1;stroke:none;stroke-width:3.92552"
           id="path1466" />
      </g>
      <path
         d="m 49.999991,74.269483 c 6.49355,0 12.5032,0.53853 18.02895,1.61558 5.52576,1.07705 9.8964,2.53654 13.111948,4.37846 3.21556,1.84192 4.82334,3.83993 4.82334,5.99404 v 5.99404 c 0,2.15411 -1.60778,4.15212 -4.82334,5.99404 -3.215548,1.841917 -7.586188,3.301397 -13.111948,4.378457 -5.52575,1.07705 -11.5354,1.61558 -18.02895,1.61558 -6.49353,0 -12.50318,-0.53853 -18.02894,-1.61558 -5.52575,-1.07706 -9.8964,-2.53654 -13.11196,-4.378457 -3.21555,-1.84192 -4.82332,-3.83993 -4.82332,-5.99404 v -5.99404 c 0,-2.15411 1.60777,-4.15212 4.82332,-5.99404 3.21556,-1.84192 7.58621,-3.30141 13.11196,-4.37846 5.52576,-1.07705 11.53541,-1.61558 18.02894,-1.61558 z"
         id="path2-3"
         inkscape:connector-curvature="0"
         style="fill:#315a49;fill-opacity:1;stroke-width:0.849048"
         sodipodi:nodetypes="sssssssssssssss" />
    </g>
  </g>
  <metadata
     id="metadata3050">
    <rdf:RDF>
      <cc:Work
         rdf:about="">
        <dc:format>image/svg+xml</dc:format>
        <dc:type
           rdf:resource="http://purl.org/dc/dcmitype/StillImage" />
        <dc:title />
      </cc:Work>
    </rdf:RDF>
  </metadata>
  <sodipodi:namedview
     pagecolor="#ffffff"
     bordercolor="#666666"
     borderopacity="1"
     objecttolerance="10"
     gridtolerance="10"
     guidetolerance="10"
     inkscape:pageopacity="0"
     inkscape:pageshadow="2"
     inkscape:window-width="1920"
     inkscape:window-height="1531"
     id="namedview3048"
     showgrid="false"
     inkscape:zoom="1.4142135"
     inkscape:cx="42.237252"
     inkscape:cy="91.227261"
     inkscape:window-x="0"
     inkscape:window-y="32"
     inkscape:window-maximized="0"
     inkscape:current-layer="svg2"
     showguides="false"
     inkscape:document-rotation="0" />
  <defs
     id="defs4" />
</svg>
