<?xml version="1.0" encoding="UTF-8" standalone="no"?>
<svg
   xmlns:dc="http://purl.org/dc/elements/1.1/"
   xmlns:cc="http://creativecommons.org/ns#"
   xmlns:rdf="http://www.w3.org/1999/02/22-rdf-syntax-ns#"
   xmlns:svg="http://www.w3.org/2000/svg"
   xmlns="http://www.w3.org/2000/svg"
   xmlns:sodipodi="http://sodipodi.sourceforge.net/DTD/sodipodi-0.dtd"
   xmlns:inkscape="http://www.inkscape.org/namespaces/inkscape"
   version="1.0"
   width="100"
   height="100"
   id="svg2"
   inkscape:version="1.0.1 (3bc2e813f5, 2020-09-07)"
   sodipodi:docname="coordinatesets.svg">
  <g
     id="g852"
     transform="matrix(1.2002042,0,0,1.2002042,-17.299553,-15.108441)"
     style="stroke-width:0.833192">
    <g
       id="g1545"
       transform="matrix(2.2580186,0,0,2.2580186,162.87379,-10.479824)"
       style="stroke-width:0.833192">
      <text
         xml:space="preserve"
         style="font-style:italic;font-variant:normal;font-weight:normal;font-stretch:normal;font-size:18.6667px;line-height:1.25;font-family:'DejaVu Serif';-inkscape-font-specification:'DejaVu Serif Italic';fill:#00004a;fill-opacity:1;stroke-width:0.833192"
         x="-61.355122"
         y="33.24979"
         id="text1483"><tspan
           sodipodi:role="line"
           id="tspan1481"
           x="-61.355122"
           y="33.24979"
           style="stroke-width:0.833192">r</tspan></text>
      <path
         d="m -60.554869,38.171363 v 1.188212 h -0.407038 q -1.634717,0 -2.192753,-0.837407 -0.551471,-0.837406 -0.551471,-3.338307 v -2.919605 q 0,-1.697444 -0.354517,-2.353789 -0.354516,-0.656345 -1.286765,-0.656345 h -0.400473 v -1.188211 h 0.400473 q 0.932249,0 1.286765,-0.656346 0.354517,-0.656345 0.354517,-2.353789 v -2.919605 q 0,-2.500901 0.551471,-3.326991 0.558036,-0.837405 2.192753,-0.837405 h 0.407038 v 1.176895 h -0.446429 q -0.925683,0 -1.207984,0.497916 -0.2823,0.497917 -0.2823,2.093515 v 3.247777 q 0,1.787975 -0.328256,2.557482 -0.328257,0.769509 -1.181723,1.108998 0.866596,0.384754 1.188287,1.142946 0.321692,0.758192 0.321692,2.53485 v 3.247778 q 0,1.595597 0.2823,2.093514 0.282301,0.497917 1.207984,0.497917 z"
         style="font-size:17.6524px;line-height:1.25;font-family:'DejaVu Serif';-inkscape-font-specification:'DejaVu Serif';fill:#00004a;fill-opacity:1;stroke-width:0.787916"
         id="path1529" />
      <path
         d="m -34.041669,38.171363 h 0.459559 q 0.919118,0 1.194854,-0.497917 0.282301,-0.486601 0.282301,-2.093514 v -3.247778 q 0,-1.776658 0.321691,-2.53485 0.321691,-0.758192 1.181723,-1.142946 -0.853467,-0.339489 -1.181723,-1.108998 -0.321691,-0.769507 -0.321691,-2.557482 v -3.247777 q 0,-1.606914 -0.282301,-2.093515 -0.275736,-0.497916 -1.194854,-0.497916 h -0.459559 v -1.176895 h 0.413603 q 1.634717,0 2.179623,0.837405 0.551471,0.82609 0.551471,3.326991 v 2.919605 q 0,1.697444 0.354517,2.353789 0.354517,0.656346 1.286765,0.656346 h 0.407038 v 1.188211 h -0.407038 q -0.932248,0 -1.286765,0.656345 -0.354517,0.656345 -0.354517,2.353789 v 2.919605 q 0,2.500901 -0.551471,3.338307 -0.544906,0.837407 -2.179623,0.837407 h -0.413603 z"
         style="font-size:17.6524px;line-height:1.25;font-family:'DejaVu Serif';-inkscape-font-specification:'DejaVu Serif';fill:#00004a;fill-opacity:1;stroke-width:0.787916"
         id="path1531" />
      <path
         d="m -55.818515,37.082021 v -0.485279 h 1.190306 v -5.686 l -1.378008,0.89273 v -0.599731 l 1.666428,-1.080432 h 0.631778 v 6.473433 h 1.190306 v 0.485279 z"
         id="path1513"
         style="font-size:18.6667px;line-height:1.25;font-family:'DejaVu Serif';-inkscape-font-specification:'DejaVu Serif';fill:#00004a;fill-opacity:1;stroke-width:0.418497" />
      <path
         d="m -50.529476,35.015716 q 0.856773,-0.628907 1.257815,-1.48568 0.401042,-0.847657 0.401042,-2.059899 v -0.33724 h 1.795577 q -0.07292,1.558596 -0.738283,2.670577 -0.656251,1.121096 -1.986983,1.94141 z"
         id="path1515"
         style="font-size:18.6667px;line-height:1.25;font-family:'DejaVu Serif';-inkscape-font-specification:'DejaVu Serif';fill:#00004a;fill-opacity:1;stroke-width:0.833192" />
      <path
         d="m -43.511233,32.253993 q 0,-0.510418 0.346355,-0.865887 0.346354,-0.35547 0.865887,-0.35547 0.501303,0 0.856772,0.35547 0.355469,0.355469 0.355469,0.865887 0,0.501303 -0.355469,0.856772 -0.355469,0.355469 -0.856772,0.355469 -0.519533,0 -0.865887,-0.346355 -0.346355,-0.355469 -0.346355,-0.865886 z"
         id="path1517"
         style="font-size:18.6667px;line-height:1.25;font-family:'DejaVu Serif';-inkscape-font-specification:'DejaVu Serif';fill:#00004a;fill-opacity:1;stroke-width:0.833192" />
      <path
         d="m -40.18336,32.253993 q 0,-0.510418 0.346355,-0.865887 0.346355,-0.35547 0.865887,-0.35547 0.501303,0 0.856772,0.35547 0.35547,0.355469 0.35547,0.865887 0,0.501303 -0.35547,0.856772 -0.355469,0.355469 -0.856772,0.355469 -0.519532,0 -0.865887,-0.346355 -0.346355,-0.355469 -0.346355,-0.865886 z"
         id="path1519"
         style="font-size:18.6667px;line-height:1.25;font-family:'DejaVu Serif';-inkscape-font-specification:'DejaVu Serif';fill:#00004a;fill-opacity:1;stroke-width:0.833192" />
      <path
         d="m -36.628646,32.253993 q 0,-0.510418 0.346355,-0.865887 0.346355,-0.35547 0.865887,-0.35547 0.501303,0 0.856773,0.35547 0.355469,0.355469 0.355469,0.865887 0,0.501303 -0.355469,0.856772 -0.35547,0.355469 -0.856773,0.355469 -0.519532,0 -0.865887,-0.346355 -0.346355,-0.355469 -0.346355,-0.865886 z"
         id="path1521"
         style="font-size:18.6667px;line-height:1.25;font-family:'DejaVu Serif';-inkscape-font-specification:'DejaVu Serif';fill:#00004a;fill-opacity:1;stroke-width:0.833192" />
    </g>
  </g>
  <metadata
     id="metadata3050">
    <rdf:RDF>
      <cc:Work
         rdf:about="">
        <dc:format>image/svg+xml</dc:format>
        <dc:type
           rdf:resource="http://purl.org/dc/dcmitype/StillImage" />
        <dc:title />
      </cc:Work>
    </rdf:RDF>
  </metadata>
  <sodipodi:namedview
     pagecolor="#ffffff"
     bordercolor="#666666"
     borderopacity="1"
     objecttolerance="10"
     gridtolerance="10"
     guidetolerance="10"
     inkscape:pageopacity="0"
     inkscape:pageshadow="2"
     inkscape:window-width="1561"
     inkscape:window-height="1205"
     id="namedview3048"
     showgrid="false"
     inkscape:zoom="2.0000001"
     inkscape:cx="-100.47722"
     inkscape:cy="-6.5241599"
     inkscape:window-x="782"
     inkscape:window-y="120"
     inkscape:window-maximized="0"
     inkscape:current-layer="svg2"
     showguides="false"
     inkscape:document-rotation="0" />
  <defs
     id="defs4" />
</svg>
