<?xml version="1.0" encoding="UTF-8" standalone="no"?>
<svg
   xmlns:dc="http://purl.org/dc/elements/1.1/"
   xmlns:cc="http://creativecommons.org/ns#"
   xmlns:rdf="http://www.w3.org/1999/02/22-rdf-syntax-ns#"
   xmlns:svg="http://www.w3.org/2000/svg"
   xmlns="http://www.w3.org/2000/svg"
   xmlns:sodipodi="http://sodipodi.sourceforge.net/DTD/sodipodi-0.dtd"
   xmlns:inkscape="http://www.inkscape.org/namespaces/inkscape"
   version="1.0"
   width="100"
   height="100"
   id="svg2"
   inkscape:version="1.0.1 (3bc2e813f5, 2020-09-07)"
   sodipodi:docname="customregion.svg">
  <g
     id="g882"
     transform="translate(-13.640041,-0.1354295)">
    <g
       id="g870">
      <path
         id="rect837-6"
         style="fill:#dcdcdc;fill-opacity:1;stroke:#000000;stroke-width:2;stroke-miterlimit:4;stroke-dasharray:none;stroke-opacity:1"
         d="m 106.15212,4.3829317 c -0.0469,-0.9858518 -1.24679,-2.045846 -4.94538,-3.2475009 H 27.188852 c 0.01843,0.099836 0.03739,0.1988222 0.0551,0.2987747 1.014521,5.724157 -0.446556,-0.5160414 1.568107,4.8417082 0.72348,1.9240075 -0.06439,2.0566746 1.186986,4.1393653 1.522187,2.53339 4.882936,7.12628 8.570639,9.198465 1.430204,0.803659 3.192219,1.453456 4.846667,2.148279 4.331631,1.819168 2.916254,1.355223 7.677529,2.273141 0.84984,0.163835 1.652579,0.410051 2.553053,0.487176 1.029136,0.08814 2.091194,0 3.136216,0 5.960386,0 -1.171641,0.04977 5.108403,-0.163879 0.716863,-0.02437 1.459899,0.08694 2.155864,0 4.833179,-0.603687 9.393673,-1.946455 13.688223,-3.109261 4.673252,-1.265344 9.819381,-2.143031 14.030309,-3.779275 5.284521,-2.053405 6.341241,-4.168618 9.162982,-7.084747 1.26311,-1.3053634 2.72415,-2.5633351 3.98341,-3.869576 0.66462,-0.6894191 1.27509,-1.390382 1.23978,-2.1326703 z" />
      <g
         id="g1021"
         transform="matrix(0.53889026,0,0,0.53793157,87.709003,19.649193)"
         style="stroke-width:1.00089">
        <text
           xml:space="preserve"
           style="font-size:80.4577px;line-height:1.25;font-family:sans-serif;fill:#004b00;fill-opacity:1;stroke:#003800;stroke-width:4.00356;stroke-miterlimit:4;stroke-dasharray:none;stroke-opacity:1"
           x="-118.46147"
           y="78.44191"
           id="text922-3"><tspan
             sodipodi:role="line"
             id="tspan920-9"
             x="-118.46147"
             y="78.44191"
             style="font-style:italic;font-variant:normal;font-weight:normal;font-stretch:normal;font-family:'DejaVu Serif';-inkscape-font-specification:'DejaVu Serif Italic';fill:#004b00;fill-opacity:1;stroke:#003800;stroke-width:4.00356;stroke-miterlimit:4;stroke-dasharray:none;stroke-opacity:1">f(x)</tspan></text>
        <g
           id="g1014"
           style="stroke-width:1.00089">
          <text
             xml:space="preserve"
             style="font-size:80.4577px;line-height:1.25;font-family:sans-serif;fill:#004b00;fill-opacity:1;stroke:none;stroke-width:4.31408;stroke-opacity:1"
             x="-118.46147"
             y="78.44191"
             id="text922"><tspan
               sodipodi:role="line"
               id="tspan920"
               x="-118.46147"
               y="78.44191"
               style="font-style:italic;font-variant:normal;font-weight:normal;font-stretch:normal;font-family:'DejaVu Serif';-inkscape-font-specification:'DejaVu Serif Italic';fill:#004b00;fill-opacity:1;stroke:none;stroke-width:4.31408;stroke-opacity:1">f(x)</tspan></text>
        </g>
      </g>
      <rect
         style="fill:#dcdcdc;fill-opacity:1;stroke:#000000;stroke-width:1.99999;stroke-miterlimit:4;stroke-dasharray:none"
         id="rect1439"
         width="22.978289"
         height="22.207111"
         x="35.093445"
         y="76.928322"
         rx="0"
         ry="0" />
      <rect
         style="fill:#dcdcdc;fill-opacity:1;stroke:#000000;stroke-width:1.99999;stroke-miterlimit:4;stroke-dasharray:none"
         id="rect1439-3"
         width="22.978289"
         height="22.207111"
         x="70.018013"
         y="76.423721"
         rx="11.489144"
         ry="11.123344" />
    </g>
  </g>
  <metadata
     id="metadata3050">
    <rdf:RDF>
      <cc:Work
         rdf:about="">
        <dc:format>image/svg+xml</dc:format>
        <dc:type
           rdf:resource="http://purl.org/dc/dcmitype/StillImage" />
        <dc:title />
      </cc:Work>
    </rdf:RDF>
  </metadata>
  <sodipodi:namedview
     pagecolor="#ffffff"
     bordercolor="#666666"
     borderopacity="1"
     objecttolerance="10"
     gridtolerance="10"
     guidetolerance="10"
     inkscape:pageopacity="0"
     inkscape:pageshadow="2"
     inkscape:window-width="3840"
     inkscape:window-height="1531"
     id="namedview3048"
     showgrid="false"
     inkscape:zoom="5.6568544"
     inkscape:cx="26.593041"
     inkscape:cy="71.678073"
     inkscape:window-x="0"
     inkscape:window-y="32"
     inkscape:window-maximized="1"
     inkscape:current-layer="svg2"
     showguides="false"
     inkscape:document-rotation="0" />
  <defs
     id="defs4" />
</svg>
