<?xml version="1.0" encoding="UTF-8" standalone="no"?>
<svg
   xmlns:dc="http://purl.org/dc/elements/1.1/"
   xmlns:cc="http://creativecommons.org/ns#"
   xmlns:rdf="http://www.w3.org/1999/02/22-rdf-syntax-ns#"
   xmlns:svg="http://www.w3.org/2000/svg"
   xmlns="http://www.w3.org/2000/svg"
   xmlns:sodipodi="http://sodipodi.sourceforge.net/DTD/sodipodi-0.dtd"
   xmlns:inkscape="http://www.inkscape.org/namespaces/inkscape"
   version="1.0"
   width="100"
   height="100"
   id="svg2"
   inkscape:version="1.0.1 (3bc2e813f5, 2020-09-07)"
   sodipodi:docname="nodes_customregion.svg">
  <metadata
     id="metadata3050">
    <rdf:RDF>
      <cc:Work
         rdf:about="">
        <dc:format>image/svg+xml</dc:format>
        <dc:type
           rdf:resource="http://purl.org/dc/dcmitype/StillImage" />
        <dc:title />
      </cc:Work>
    </rdf:RDF>
  </metadata>
  <sodipodi:namedview
     pagecolor="#ffffff"
     bordercolor="#666666"
     borderopacity="1"
     objecttolerance="10"
     gridtolerance="10"
     guidetolerance="10"
     inkscape:pageopacity="0"
     inkscape:pageshadow="2"
     inkscape:window-width="3840"
     inkscape:window-height="1531"
     id="namedview3048"
     showgrid="false"
     inkscape:zoom="5.6568544"
     inkscape:cx="26.593041"
     inkscape:cy="71.678073"
     inkscape:window-x="0"
     inkscape:window-y="32"
     inkscape:window-maximized="1"
     inkscape:current-layer="svg2"
     showguides="false"
     inkscape:document-rotation="0" />
  <defs
     id="defs4" />
  <path
     id="rect837-6"
     style="opacity:1;fill:#dcdcdc;fill-opacity:1;stroke:#000000;stroke-width:2;stroke-miterlimit:4;stroke-dasharray:none;stroke-opacity:1"
     d="m 106.15212,4.3887193 c -0.0469,-0.9876087 -1.24679,-2.049492 -4.94538,-3.2532885 H 27.188852 c 0.01843,0.1000143 0.03739,0.1991765 0.0551,0.2993072 1.014521,5.7343585 -0.446556,-0.51696111 1.568107,4.850337 0.72348,1.9274364 -0.06439,2.0603399 1.186986,4.146742 1.522187,2.537905 4.882936,7.138981 8.570639,9.214859 1.430204,0.805091 3.192219,1.456046 4.846667,2.152107 4.331631,1.82241 2.916254,1.357639 7.677529,2.277192 0.84984,0.164127 1.652579,0.410782 2.553053,0.488045 1.029136,0.0883 2.091194,0 3.136216,0 5.960386,0 -1.171641,0.04986 5.108403,-0.164171 0.716863,-0.02441 1.459899,0.08709 2.155864,0 4.833179,-0.604763 9.393673,-1.949924 13.688223,-3.114803 4.673252,-1.267599 9.819381,-2.14685 14.030309,-3.78601 5.284521,-2.057065 6.341241,-4.176047 9.162982,-7.097373 1.26311,-1.3076901 2.72415,-2.5679037 3.98341,-3.8764726 0.66462,-0.6906477 1.27509,-1.3928599 1.23978,-2.1364711 z" />
  <g
     id="g863"
     transform="matrix(0.99008362,0,0,0.99008362,-30.603055,0.49581899)"
     style="fill:#d9d9d9;fill-opacity:1;stroke:#eaeae9;stroke-opacity:1">
    <circle
       style="fill:#d9d9d9;fill-opacity:1;stroke:#eaeae9;stroke-width:2.55631;stroke-miterlimit:4;stroke-dasharray:none;stroke-dashoffset:0;stroke-opacity:1"
       id="path812"
       cx="50"
       cy="50"
       r="17.812279" />
    <path
       id="rect818-3"
       style="fill:#d9d9d9;fill-opacity:1;stroke:#eaeae9;stroke-width:1.00157;stroke-miterlimit:4;stroke-dasharray:none;stroke-dashoffset:0;stroke-opacity:1"
       d="M 44.740234,2.8749996e-8 V 29.769531 A 20.903845,20.903845 0 0 1 50,29.095703 20.903845,20.903845 0 0 1 55.259766,29.769531 V 2.8749996e-8 Z M 44.740234,70.230469 V 100 H 55.259766 V 70.230469 A 20.903845,20.903845 0 0 1 50,70.904297 20.903845,20.903845 0 0 1 44.740234,70.230469 Z" />
  </g>
  <g
     id="g1021"
     transform="matrix(0.53889026,0,0,0.53889026,87.709003,19.682188)">
    <text
       xml:space="preserve"
       style="font-size:80.4577px;line-height:1.25;font-family:sans-serif;fill:#004b00;fill-opacity:1;stroke:#003800;stroke-width:4;stroke-miterlimit:4;stroke-dasharray:none;stroke-opacity:1"
       x="-118.46147"
       y="78.44191"
       id="text922-3"><tspan
         sodipodi:role="line"
         id="tspan920-9"
         x="-118.46147"
         y="78.44191"
         style="font-style:italic;font-variant:normal;font-weight:normal;font-stretch:normal;font-family:'DejaVu Serif';-inkscape-font-specification:'DejaVu Serif Italic';fill:#004b00;fill-opacity:1;stroke:#003800;stroke-width:4;stroke-miterlimit:4;stroke-dasharray:none;stroke-opacity:1">f(x)</tspan></text>
    <g
       id="g1014">
      <text
         xml:space="preserve"
         style="font-size:80.4577px;line-height:1.25;font-family:sans-serif;fill:#004b00;fill-opacity:1;stroke:none;stroke-width:4.31024;stroke-opacity:1"
         x="-118.46147"
         y="78.44191"
         id="text922"><tspan
           sodipodi:role="line"
           id="tspan920"
           x="-118.46147"
           y="78.44191"
           style="font-style:italic;font-variant:normal;font-weight:normal;font-stretch:normal;font-family:'DejaVu Serif';-inkscape-font-specification:'DejaVu Serif Italic';fill:#004b00;fill-opacity:1;stroke:none;stroke-width:4.31024;stroke-opacity:1">f(x)</tspan></text>
    </g>
  </g>
  <rect
     style="fill:#dcdcdc;fill-opacity:1;stroke:#000000;stroke-width:1.99999;stroke-miterlimit:4;stroke-dasharray:none"
     id="rect1439"
     width="22.978289"
     height="22.246689"
     x="35.093445"
     y="77.0634"
     rx="0"
     ry="0" />
  <rect
     style="fill:#dcdcdc;fill-opacity:1;stroke:#000000;stroke-width:1.99999;stroke-miterlimit:4;stroke-dasharray:none"
     id="rect1439-3"
     width="22.978289"
     height="22.246689"
     x="70.018013"
     y="76.557899"
     rx="11.489144"
     ry="11.123344" />
</svg>
