<?xml version="1.0" encoding="UTF-8" standalone="no"?>
<svg
   xmlns:dc="http://purl.org/dc/elements/1.1/"
   xmlns:cc="http://creativecommons.org/ns#"
   xmlns:rdf="http://www.w3.org/1999/02/22-rdf-syntax-ns#"
   xmlns:svg="http://www.w3.org/2000/svg"
   xmlns="http://www.w3.org/2000/svg"
   xmlns:sodipodi="http://sodipodi.sourceforge.net/DTD/sodipodi-0.dtd"
   xmlns:inkscape="http://www.inkscape.org/namespaces/inkscape"
   version="1.0"
   width="100"
   height="100"
   id="svg2"
   inkscape:version="1.0.1 (3bc2e813f5, 2020-09-07)"
   sodipodi:docname="generalregion.svg">
  <metadata
     id="metadata3050">
    <rdf:RDF>
      <cc:Work
         rdf:about="">
        <dc:format>image/svg+xml</dc:format>
        <dc:type
           rdf:resource="http://purl.org/dc/dcmitype/StillImage" />
        <dc:title />
      </cc:Work>
    </rdf:RDF>
  </metadata>
  <sodipodi:namedview
     pagecolor="#ffffff"
     bordercolor="#666666"
     borderopacity="1"
     objecttolerance="10"
     gridtolerance="10"
     guidetolerance="10"
     inkscape:pageopacity="0"
     inkscape:pageshadow="2"
     inkscape:window-width="3840"
     inkscape:window-height="1531"
     id="namedview3048"
     showgrid="false"
     inkscape:zoom="0.7071068"
     inkscape:cx="-279.07999"
     inkscape:cy="6.58628"
     inkscape:window-x="0"
     inkscape:window-y="32"
     inkscape:window-maximized="1"
     inkscape:current-layer="svg2"
     showguides="false"
     inkscape:document-rotation="0" />
  <defs
     id="defs4" />
  <path
     id="path833"
     style="fill:#dcdcdc;stroke:#000000;stroke-width:2;stroke-linecap:butt;stroke-linejoin:miter;stroke-opacity:1;fill-opacity:1;opacity:1;stroke-miterlimit:4;stroke-dasharray:none"
     d="M 39.039062 0 C 40.180178 1.0664989 41.681966 2.6818555 42.294922 3.9003906 C 43.479482 6.2552566 44.231198 9.5039858 44.630859 12.101562 C 45.529806 17.944216 44.379615 22.390743 49.091797 27.050781 C 49.726799 27.678757 50.364402 28.329372 51.128906 28.791016 C 56.681227 32.143768 68.367906 31 74.578125 31 C 77.353685 31 78.776855 30.819893 81.232422 31.521484 C 81.640991 31.638218 82.102363 31.581454 82.482422 31.771484 C 84.901264 32.980903 87.412742 37.007903 88.726562 38.955078 C 91.653032 43.292303 94.032647 48.073716 97.085938 52.320312 C 98.367097 54.102179 97.481659 52.360116 99.255859 53.71875 C 99.524199 53.924239 99.765147 54.160856 100 54.404297 L 100 2.4648438 C 100 1.0997732 99.104586 0 97.992188 0 L 39.039062 0 z " />
  <path
     id="path835"
     style="fill:#dcdcdc;stroke:#000000;stroke-width:2;stroke-linecap:butt;stroke-linejoin:miter;stroke-opacity:1;fill-opacity:1;opacity:1;stroke-miterlimit:4;stroke-dasharray:none"
     d="M 68.904297 55.197266 C 67.673047 55.175892 66.493652 55.339706 65.59375 55.775391 C 64.115556 56.491055 57.538409 61.730802 56.498047 63.509766 C 55.237486 65.665255 55.747723 67.258844 53.732422 69.783203 C 52.441556 71.400135 50.804808 72.708864 49.341797 74.171875 C 48.058527 75.455145 47.072026 76.549384 45.509766 77.578125 C 43.92625 78.620869 42.169234 79.374677 40.558594 80.375 C 38.036373 81.941484 34.394348 83.536865 33.765625 86.833984 C 33.083283 90.412258 35.538957 93.904214 37.013672 96.798828 C 37.547075 97.845798 37.936283 98.976425 38.505859 100 L 89.748047 100 C 90.160519 94.642598 88.274842 91.725206 87.09375 88.246094 C 86.133894 85.418656 85.470585 82.32139 84.712891 79.419922 C 83.20473 73.644661 85.627652 83.23574 84.542969 75.941406 C 84.436734 75.226983 83.961294 74.61408 83.761719 73.919922 C 81.992828 66.291858 83.709034 73.188918 82.353516 68.601562 C 81.923615 67.146687 82.071905 65.935518 81.462891 64.509766 C 80.426296 62.083008 78.123427 60.109755 76.320312 58.306641 C 75.69676 57.683089 75.236425 56.832968 74.449219 56.435547 C 73.15306 55.781183 70.95638 55.232888 68.904297 55.197266 z " />
  <path
     id="rect837-6"
     style="opacity:1;fill:#dcdcdc;fill-opacity:1;stroke:#000000;stroke-width:2;stroke-opacity:1;stroke-miterlimit:4;stroke-dasharray:none"
     d="M 5.6894531 9.171875 C 3.9622916 9.2117621 2.1052372 10.232537 0 13.378906 L 0 76.345703 C 0.17490758 76.330063 0.34832583 76.313898 0.5234375 76.298828 C 10.551864 75.435779 -0.38064008 76.678711 9.0058594 74.964844 C 12.376622 74.349382 12.609046 75.019625 16.257812 73.955078 C 20.69618 72.660159 28.742687 69.80118 32.373047 66.664062 C 33.781016 65.44739 34.919426 63.948449 36.136719 62.541016 C 39.323807 58.856111 38.511002 60.060168 40.119141 56.009766 C 40.406178 55.286808 40.837538 54.603921 40.972656 53.837891 C 41.12708 52.962408 40.972656 52.058919 40.972656 51.169922 C 40.972656 46.09944 41.059848 52.166632 40.685547 46.824219 C 40.642817 46.214386 40.837843 45.582288 40.685547 44.990234 C 39.627918 40.878662 37.275457 36.999064 35.238281 33.345703 C 33.021464 29.370182 31.483801 24.992385 28.617188 21.410156 C 25.019727 16.914633 21.313985 16.015679 16.205078 13.615234 C 13.918149 12.54071 11.714248 11.297807 9.4257812 10.226562 C 8.2179548 9.6611719 6.9899042 9.1418423 5.6894531 9.171875 z " />
</svg>
