<?xml version="1.0" encoding="UTF-8" standalone="no"?>
<svg
   xmlns:dc="http://purl.org/dc/elements/1.1/"
   xmlns:cc="http://creativecommons.org/ns#"
   xmlns:rdf="http://www.w3.org/1999/02/22-rdf-syntax-ns#"
   xmlns:svg="http://www.w3.org/2000/svg"
   xmlns="http://www.w3.org/2000/svg"
   xmlns:sodipodi="http://sodipodi.sourceforge.net/DTD/sodipodi-0.dtd"
   xmlns:inkscape="http://www.inkscape.org/namespaces/inkscape"
   version="1.0"
   width="100"
   height="100"
   id="svg2"
   inkscape:version="1.0.1 (3bc2e813f5, 2020-09-07)"
   sodipodi:docname="ifValueInRange.svg">
  <metadata
     id="metadata3050">
    <rdf:RDF>
      <cc:Work
         rdf:about="">
        <dc:format>image/svg+xml</dc:format>
        <dc:type
           rdf:resource="http://purl.org/dc/dcmitype/StillImage" />
        <dc:title />
      </cc:Work>
    </rdf:RDF>
  </metadata>
  <sodipodi:namedview
     pagecolor="#ffffff"
     bordercolor="#666666"
     borderopacity="1"
     objecttolerance="10"
     gridtolerance="10"
     guidetolerance="10"
     inkscape:pageopacity="0"
     inkscape:pageshadow="2"
     inkscape:window-width="1920"
     inkscape:window-height="1531"
     id="namedview3048"
     showgrid="false"
     inkscape:zoom="8.0000002"
     inkscape:cx="39.635532"
     inkscape:cy="60.611668"
     inkscape:window-x="1920"
     inkscape:window-y="32"
     inkscape:window-maximized="0"
     inkscape:current-layer="svg2"
     showguides="false"
     inkscape:document-rotation="0" />
  <defs
     id="defs4" />
  <g
     id="g833"
     transform="rotate(-90,63.798078,63.798078)">
    <rect
       style="opacity:1;fill:#9c9c9c;fill-opacity:1;stroke:none;stroke-width:1.00157;stroke-miterlimit:4;stroke-dasharray:none;stroke-dashoffset:0;stroke-opacity:1"
       id="rect818"
       width="10.518213"
       height="100"
       x="44.740894"
       y="0"
       rx="5"
       ry="5" />
    <circle
       style="opacity:1;fill:#9c9c9c;fill-opacity:1;stroke:#ffffff;stroke-width:3;stroke-miterlimit:4;stroke-dasharray:none;stroke-dashoffset:0;stroke-opacity:1"
       id="path812"
       cx="50"
       cy="50"
       r="20.903845" />
  </g>
  <g
     aria-label="n"
     id="text837"
     style="font-size:95.2442px;line-height:1.25;font-family:'Liberation Serif';-inkscape-font-specification:'Liberation Serif';letter-spacing:0px;word-spacing:0px;stroke-width:0.999999">
    <path
       d="m 39.643002,13.032224 q 1.302166,-0.744096 3.069393,-1.581203 1.813732,-0.837107 3.766982,-1.5346965 1.953251,-0.6975893 3.906501,-1.116143 1.95325,-0.4650595 3.627465,-0.4650595 2.511321,0 4.604089,0.6975893 2.092769,0.6975894 3.580959,2.2322857 1.534697,1.534697 2.371804,3.999513 0.883613,2.464815 0.883613,5.952762 v 28.740682 l 5.301679,1.162649 v 2.092768 H 51.920575 v -2.092768 l 5.813244,-1.162649 V 22.05438 q 0,-3.859995 -1.906744,-6.045775 -1.860238,-2.232286 -5.813245,-2.232286 -1.302167,0 -2.743851,0.139518 -1.441685,0.139518 -2.836864,0.325542 -1.395178,0.186023 -2.650839,0.465059 -1.209155,0.23253 -2.046262,0.418554 v 34.832962 l 5.906256,1.162649 v 2.092768 H 26.760851 v -2.092768 l 5.255174,-1.162649 V 12.753188 L 26.760851,11.590539 V 9.4977709 h 12.463597 z"
       style="stroke-width:0.999999"
       id="path855" />
  </g>
  <g
     aria-label="&lt;"
     id="text841"
     style="font-size:28.3194px;line-height:1.25;font-family:'Liberation Serif';-inkscape-font-specification:'Liberation Serif';letter-spacing:0px;word-spacing:0px;stroke-width:0.999999">
    <path
       d="M 14.124606,31.119943 V 30.428552 L 27.30253,23.943298 v 1.424267 L 16.115813,30.774248 27.30253,36.18093 v 1.424267 z"
       style="stroke-width:0.999999"
       id="path858" />
  </g>
  <g
     aria-label="&gt;"
     id="text845"
     style="font-size:28.3194px;line-height:1.25;font-family:'Liberation Serif';-inkscape-font-specification:'Liberation Serif';letter-spacing:0px;word-spacing:0px;stroke-width:0.999999">
    <path
       d="M 70.213806,37.605197 V 36.18093 L 81.400522,30.774248 70.213806,25.367565 v -1.424267 l 13.177924,6.485254 v 0.691391 z"
       style="stroke-width:0.999999"
       id="path861" />
  </g>
  <g
     aria-label="a"
     id="text849"
     style="font-size:37.128px;line-height:1.25;font-family:'Liberation Serif';-inkscape-font-specification:'Liberation Serif';letter-spacing:0px;word-spacing:0px;stroke-width:1">
    <path
       d="m 7.1246599,21.88202 q 1.1602499,0 2.1573397,0.217547 0.9970894,0.217546 1.7222464,0.743285 0.725156,0.525738 1.123992,1.432183 0.416965,0.888317 0.416965,2.247985 v 11.511854 l 2.121082,0.453223 v 0.815801 H 9.9890269 L 9.6445777,37.599781 q -0.2719336,0.271933 -0.7432851,0.634511 -0.4532226,0.362579 -1.1058632,0.688899 -0.6526406,0.308191 -1.5228281,0.525738 -0.8520585,0.217547 -1.9035351,0.217547 -1.2327655,0 -2.0848241,-0.380707 Q 1.4503125,38.905062 0.94270311,38.234292 0.43509376,37.545394 0.2175469,36.62082 2.9802322e-8,35.678117 2.9802322e-8,34.590382 q 0,-1.123992 0.271933580197678,-1.939792 0.27193358,-0.83393 0.76141399,-1.395926 0.4894805,-0.561996 1.1421211,-0.906445 0.6707695,-0.362579 1.4321835,-0.561997 0.7795429,-0.199417 1.6316015,-0.271933 0.8701875,-0.07252 1.7403749,-0.09065 l 2.5561757,-0.07251 V 26.68618 q 0,-0.761414 -0.1269023,-1.377797 Q 9.2819996,24.673871 8.9738082,24.220649 8.6837457,23.767426 8.1761364,23.513621 7.668527,23.259817 6.907113,23.259817 q -0.8701875,0 -1.7585038,0.235675 -0.8883164,0.235676 -1.5590859,0.616383 L 2.9731405,26.232957 H 1.9579218 V 22.516531 Q 3.1363007,22.262727 4.3871951,22.081438 5.6562185,21.88202 7.1246599,21.88202 Z m 2.4111444,8.738132 -2.3748866,0.07252 q -1.0696054,0.03626 -1.8491484,0.217547 -0.7795429,0.16316 -1.2871523,0.580125 -0.5076093,0.416964 -0.761414,1.142121 -0.2538047,0.725156 -0.2538047,1.849148 0,3.190687 2.5924335,3.190687 1.2327656,0 2.1210819,-0.271933 Q 8.629359,37.1103 9.5358043,36.675207 Z"
       style="stroke-width:1"
       id="path864" />
  </g>
  <g
     aria-label="b"
     id="text853"
     style="font-size:37.128px;line-height:1.25;font-family:'Liberation Serif';-inkscape-font-specification:'Liberation Serif';letter-spacing:0px;word-spacing:0px;stroke-width:1">
    <path
       d="m 96.736793,30.311961 q 0,-1.849149 -0.344449,-3.100043 -0.32632,-1.269023 -0.960832,-2.048566 -0.616383,-0.779543 -1.504699,-1.105864 -0.870187,-0.344449 -1.939793,-0.344449 -0.435094,0 -0.942703,0.03626 -0.48948,0.03626 -0.978961,0.126902 -0.48948,0.07252 -0.942703,0.181289 -0.453222,0.108774 -0.779543,0.253805 v 13.506035 q 0.761414,0.145031 1.740375,0.217546 0.978961,0.07252 1.903535,0.07252 2.501789,0 3.625781,-1.957922 1.123992,-1.957921 1.123992,-5.837507 z M 85.333712,14.793618 82.850052,14.358524 v -0.815801 h 5.493058 v 6.091312 q 0,0.34445 -0.01813,0.797672 0,0.435094 -0.01813,0.924574 0,0.471352 -0.03626,0.960832 -0.01813,0.471352 -0.03626,0.906446 0.815801,-0.634512 1.97605,-1.015219 1.178379,-0.398836 2.592434,-0.398836 3.48075,0 5.329898,2.121082 1.867277,2.102953 1.867277,6.381375 0,2.15734 -0.471351,3.897714 -0.471352,1.722246 -1.450313,2.936883 -0.97896,1.214637 -2.48366,1.867277 -1.48657,0.652641 -3.535136,0.652641 -0.870188,0 -1.776633,-0.108773 -0.888316,-0.09064 -1.758504,-0.253805 -0.870187,-0.16316 -1.685988,-0.380707 -0.815801,-0.235676 -1.504699,-0.50761 z"
       style="stroke-width:1"
       id="path867" />
  </g>
</svg>
