<?xml version="1.0" encoding="UTF-8" standalone="no"?>
<svg
   xmlns:dc="http://purl.org/dc/elements/1.1/"
   xmlns:cc="http://creativecommons.org/ns#"
   xmlns:rdf="http://www.w3.org/1999/02/22-rdf-syntax-ns#"
   xmlns:svg="http://www.w3.org/2000/svg"
   xmlns="http://www.w3.org/2000/svg"
   xmlns:sodipodi="http://sodipodi.sourceforge.net/DTD/sodipodi-0.dtd"
   xmlns:inkscape="http://www.inkscape.org/namespaces/inkscape"
   version="1.0"
   width="100"
   height="100"
   id="svg2"
   inkscape:version="1.0.1 (3bc2e813f5, 2020-09-07)"
   sodipodi:docname="integrate1D.svg">
  <metadata
     id="metadata3050">
    <rdf:RDF>
      <cc:Work
         rdf:about="">
        <dc:format>image/svg+xml</dc:format>
        <dc:type
           rdf:resource="http://purl.org/dc/dcmitype/StillImage" />
        <dc:title />
      </cc:Work>
    </rdf:RDF>
  </metadata>
  <sodipodi:namedview
     pagecolor="#ffffff"
     bordercolor="#666666"
     borderopacity="1"
     objecttolerance="10"
     gridtolerance="10"
     guidetolerance="10"
     inkscape:pageopacity="0"
     inkscape:pageshadow="2"
     inkscape:window-width="1920"
     inkscape:window-height="1531"
     id="namedview3048"
     showgrid="false"
     inkscape:zoom="1.4142136"
     inkscape:cx="-62.481551"
     inkscape:cy="216.30911"
     inkscape:window-x="0"
     inkscape:window-y="32"
     inkscape:window-maximized="0"
     inkscape:current-layer="svg2"
     showguides="false"
     inkscape:document-rotation="0"
     inkscape:snap-bbox="true"
     inkscape:bbox-paths="true"
     inkscape:bbox-nodes="true"
     inkscape:snap-bbox-edge-midpoints="true" />
  <defs
     id="defs4" />
  <g
     id="g844"
     transform="matrix(1.1355506,0,0,1.132558,-9.7109199,2.3293337)"
     style="opacity:0.5;stroke-width:0.881792">
    <rect
       style="opacity:1;fill:#910000;fill-opacity:1;stroke:none;stroke-width:2.19536;stroke-miterlimit:4;stroke-dasharray:none;stroke-opacity:1"
       id="rect7419-36"
       width="10.269948"
       height="48.085789"
       x="34.20961"
       y="33.612854" />
    <rect
       style="fill:#910000;fill-opacity:1;stroke:none;stroke-width:2.19536;stroke-miterlimit:4;stroke-dasharray:none;stroke-opacity:1"
       id="rect7419-5-7"
       width="10.269948"
       height="23.586372"
       x="46.968853"
       y="58.11227" />
    <rect
       style="fill:#910000;fill-opacity:1;stroke:none;stroke-width:2.19536;stroke-miterlimit:4;stroke-dasharray:none;stroke-opacity:1"
       id="rect7419-3-5"
       width="10.269948"
       height="68.44239"
       x="72.487343"
       y="13.256251" />
    <rect
       style="fill:#910000;fill-opacity:1;stroke:none;stroke-width:2.19536;stroke-miterlimit:4;stroke-dasharray:none;stroke-opacity:1"
       id="rect7419-56-3"
       width="10.269948"
       height="45.005482"
       x="85.246582"
       y="36.693161" />
    <rect
       style="fill:#910000;fill-opacity:1;stroke:none;stroke-width:2.19536;stroke-miterlimit:4;stroke-dasharray:none;stroke-opacity:1"
       id="rect7419-2-5"
       width="10.269948"
       height="30.110949"
       x="59.728096"
       y="51.587696" />
    <rect
       style="fill:#910000;fill-opacity:1;stroke:#000000;stroke-width:2.1875;stroke-miterlimit:4;stroke-dasharray:none;stroke-opacity:1"
       id="rect7454-6"
       width="61.31583"
       height="0.96168411"
       x="34.205154"
       y="84.183563" />
  </g>
  <text
     xml:space="preserve"
     style="font-size:18.6667px;line-height:1.25;font-family:'Liberation Serif';letter-spacing:0px;word-spacing:0px;-inkscape-font-specification:'Liberation Serif';font-weight:normal;font-style:normal;font-stretch:normal;font-variant:normal;"
     x="-5.402894"
     y="173.90688"
     id="text1420"><tspan
       sodipodi:role="line"
       id="tspan1418"
       x="-5.402894"
       y="173.90688" /></text>
  <path
     style="color:#000000;font-style:normal;font-variant:normal;font-weight:normal;font-stretch:normal;font-size:medium;line-height:1.25;font-family:'Liberation Serif';-inkscape-font-specification:'Liberation Serif';font-variant-ligatures:normal;font-variant-position:normal;font-variant-caps:normal;font-variant-numeric:normal;font-variant-alternates:normal;font-variant-east-asian:normal;font-feature-settings:normal;font-variation-settings:normal;text-indent:0;text-align:start;text-decoration:none;text-decoration-line:none;text-decoration-style:solid;text-decoration-color:#000000;letter-spacing:0px;word-spacing:0px;text-transform:none;writing-mode:lr-tb;direction:ltr;text-orientation:mixed;dominant-baseline:auto;baseline-shift:baseline;text-anchor:start;white-space:normal;shape-padding:0;shape-margin:0;inline-size:0;clip-rule:nonzero;display:inline;overflow:visible;visibility:visible;isolation:auto;mix-blend-mode:normal;color-interpolation:sRGB;color-interpolation-filters:linearRGB;solid-color:#000000;solid-opacity:1;vector-effect:none;fill:#910000;fill-opacity:1;fill-rule:nonzero;stroke:none;stroke-width:1;stroke-linecap:butt;stroke-linejoin:miter;stroke-miterlimit:4;stroke-dasharray:none;stroke-dashoffset:0;stroke-opacity:1;color-rendering:auto;image-rendering:auto;shape-rendering:auto;text-rendering:auto;enable-background:accumulate;stop-color:#000000"
     d="m 8.9605811,64.701169 c -0.3523098,0 -0.7253701,-0.04298 -1.119122,-0.124117 C 7.4476695,64.514722 7.0746521,64.43198 6.722337,64.32828 6.3492874,64.224581 6.028066,64.110673 5.758646,63.986556 5.4685023,63.882856 5.2612644,63.779157 5.136911,63.675457 v -0.248771 c 0.082906,-0.248772 0.1658118,-0.559441 0.2487177,-0.932598 0.082906,-0.372888 0.165758,-0.756469 0.2486639,-1.150205 0.082906,-0.372888 0.1658118,-0.735729 0.2487177,-1.088039 0.062166,-0.352471 0.1140157,-0.652984 0.1554418,-0.901541 h 0.6217351 c 0.5802875,0.580288 1.2020225,1.077669 1.8652051,1.492199 0.6839064,0.435215 1.3781774,0.652823 2.0828077,0.652823 0.518121,0 1.005139,-0.196653 1.461078,-0.590657 0.455955,-0.393844 0.860067,-0.963707 1.212382,-1.709807 0.352309,-0.746045 0.63211,-1.657956 0.839343,-2.735625 0.207237,-1.077669 0.310883,-2.30041 0.310883,-3.668223 0,-1.202001 -0.01021,-2.64235 -0.03116,-4.321046 -0.02096,-1.657957 -0.04137,-3.419559 -0.06217,-5.284754 -0.02096,-1.885934 -0.04137,-3.802925 -0.06217,-5.751025 -0.02095,-1.9481 -0.03116,-3.792609 -0.03116,-5.533417 0,-1.595791 0.01021,-3.212321 0.03116,-4.849538 0.04137,-1.657957 0.08291,-3.233061 0.124332,-4.725206 0.04137,-1.512885 0.08291,-2.891067 0.124332,-4.134548 0.06217,-1.264167 0.114016,-2.30041 0.155442,-3.108675 0.08291,-1.305594 0.31083,-2.528335 0.683906,-3.668223 0.37305,-1.160575 0.839343,-2.2175047 1.398907,-3.1708417 0.559557,-0.953337 1.191652,-1.803028 1.896288,-2.549074 0.704636,-0.766839 1.42999,-1.409292 2.176068,-1.927414 0.766807,-0.51796 1.51289,-0.911857 2.238244,-1.181261 0.746082,-0.269189 1.429988,-0.404052 2.051724,-0.404052 0.35231,0 0.73573,0.04298 1.15021,0.124117 0.414475,0.06233 0.818619,0.145072 1.212382,0.248772 0.393789,0.08274 0.735718,0.186444 1.025863,0.311098 0.31083,0.124117 0.518068,0.227817 0.621735,0.311099 v 0.279935 c -0.08291,0.248771 -0.176128,0.55944 -0.279774,0.932597 -0.103646,0.352471 -0.207238,0.72552 -0.310884,1.119095 -0.08291,0.393843 -0.176128,0.766839 -0.279773,1.119149 -0.08291,0.351934 -0.145072,0.652608 -0.186498,0.901487 H 27.42607 c -0.580282,-0.580287 -1.212382,-1.088039 -1.896288,-1.523254 -0.663183,-0.435216 -1.347089,-0.652824 -2.051725,-0.652824 -0.497381,0 -0.984409,0.196653 -1.461072,0.590658 -0.455956,0.393843 -0.860067,0.974077 -1.212382,1.740862 -0.35231,0.746046 -0.63211,1.657957 -0.839343,2.7356257 -0.207238,1.077669 -0.310883,2.30041 -0.310883,3.668223 v 4.25888 c 0.02095,1.575104 0.04137,3.160525 0.06217,4.756262 0.02095,1.575104 0.03116,3.056879 0.03116,4.445432 0.02096,1.367813 0.03116,2.455852 0.03116,3.264117 0,0.870378 -0.01021,1.948047 -0.03116,3.233007 -0.02095,1.264221 -0.05212,2.611294 -0.09328,4.041273 -0.02095,1.429979 -0.05212,2.880697 -0.09328,4.352156 -0.02095,1.450665 -0.05212,2.818478 -0.09328,4.103438 -0.04137,1.264167 -0.08291,2.372946 -0.124332,3.326284 -0.02095,0.953337 -0.04137,1.626846 -0.06217,2.020636 -0.103646,1.989526 -0.528492,3.771815 -1.274559,5.346919 -0.725354,1.595737 -1.606144,2.942864 -2.642371,4.041273 -1.015498,1.098409 -2.103532,1.93773 -3.264101,2.518018 -1.16057,0.600973 -2.2071561,0.901487 -3.1397587,0.901487 z"
     id="path1439" />
</svg>
