<?xml version="1.0" encoding="UTF-8" standalone="no"?>
<svg
   xmlns:dc="http://purl.org/dc/elements/1.1/"
   xmlns:cc="http://creativecommons.org/ns#"
   xmlns:rdf="http://www.w3.org/1999/02/22-rdf-syntax-ns#"
   xmlns:svg="http://www.w3.org/2000/svg"
   xmlns="http://www.w3.org/2000/svg"
   xmlns:sodipodi="http://sodipodi.sourceforge.net/DTD/sodipodi-0.dtd"
   xmlns:inkscape="http://www.inkscape.org/namespaces/inkscape"
   version="1.0"
   width="100"
   height="100"
   id="svg2"
   inkscape:version="1.0.1 (3bc2e813f5, 2020-09-07)"
   sodipodi:docname="operatemultiply.svg">
  <metadata
     id="metadata3050">
    <rdf:RDF>
      <cc:Work
         rdf:about="">
        <dc:format>image/svg+xml</dc:format>
        <dc:type
           rdf:resource="http://purl.org/dc/dcmitype/StillImage" />
        <dc:title />
      </cc:Work>
    </rdf:RDF>
  </metadata>
  <sodipodi:namedview
     pagecolor="#ffffff"
     bordercolor="#666666"
     borderopacity="1"
     objecttolerance="10"
     gridtolerance="10"
     guidetolerance="10"
     inkscape:pageopacity="0"
     inkscape:pageshadow="2"
     inkscape:window-width="3840"
     inkscape:window-height="1531"
     id="namedview3048"
     showgrid="false"
     inkscape:zoom="4.0000001"
     inkscape:cx="-39.977867"
     inkscape:cy="39.576638"
     inkscape:window-x="0"
     inkscape:window-y="32"
     inkscape:window-maximized="1"
     inkscape:current-layer="svg2"
     showguides="false"
     inkscape:document-rotation="0" />
  <defs
     id="defs4" />
  <path
     id="rect833-6"
     style="opacity:1;fill:#004b00;fill-opacity:1;stroke:#003800;stroke-width:2;stroke-opacity:1"
     d="m 25.464368,15.875418 c -0.796564,0 -1.592894,0.305654 -2.203263,0.916072 l -6.472848,6.470324 c -1.220731,1.220836 -1.220731,3.186043 0,4.406881 l 22.3339,22.335702 -22.3339,22.335702 c -1.220731,1.220837 -1.220731,3.186045 0,4.40688 l 6.472848,6.470328 c 1.220739,1.220832 3.185787,1.220832 4.406524,0 l 22.33085,-22.335706 22.33389,22.335706 c 1.220744,1.220832 3.185793,1.220832 4.406528,0 l 6.472844,-6.470328 c 1.220735,-1.220835 1.220735,-3.186043 0,-4.40688 L 60.877844,50.004397 83.211741,27.668695 c 1.220735,-1.220838 1.220735,-3.186045 0,-4.406881 L 76.738897,16.79149 c -1.220735,-1.220836 -3.185784,-1.220836 -4.406528,0 L 49.998479,39.127192 27.667629,16.79149 c -0.610368,-0.610418 -1.406697,-0.916072 -2.203261,-0.916072 z" />
</svg>
