<?xml version="1.0" encoding="UTF-8" standalone="no"?>
<svg
   xmlns:dc="http://purl.org/dc/elements/1.1/"
   xmlns:cc="http://creativecommons.org/ns#"
   xmlns:rdf="http://www.w3.org/1999/02/22-rdf-syntax-ns#"
   xmlns:svg="http://www.w3.org/2000/svg"
   xmlns="http://www.w3.org/2000/svg"
   xmlns:sodipodi="http://sodipodi.sourceforge.net/DTD/sodipodi-0.dtd"
   xmlns:inkscape="http://www.inkscape.org/namespaces/inkscape"
   version="1.0"
   width="100"
   height="100"
   id="svg2"
   inkscape:version="1.0.1 (3bc2e813f5, 2020-09-07)"
   sodipodi:docname="operatesitepopulationnormalise.svg">
  <g
     id="g844"
     transform="matrix(1.0675616,0,0,1.0667477,-22.335638,-2.9078963)"
     style="stroke-width:0.937071">
    <path
       d="m 67.757807,58.231165 q 8.67213,0 16.209929,-1.573424 7.537799,-1.573424 11.892157,-4.647089 v 6.220513 q 0,2.524797 -3.768904,4.68368 -3.768895,2.158884 -10.24555,3.421283 -6.476646,1.262398 -14.087632,1.262398 -7.610979,0 -14.087634,-1.262398 Q 47.193527,65.073729 43.424625,62.914845 39.65573,60.755962 39.65573,58.231164 v -6.220513 q 4.354361,3.073665 11.892158,4.647089 7.53779,1.573424 16.209919,1.573425 z m 0,28.102083 q 8.67213,0 16.209929,-1.573423 7.537799,-1.573423 11.892157,-4.64709 v 6.220513 q 0,2.524798 -3.768904,4.68368 -3.768895,2.158883 -10.24555,3.421282 -6.476646,1.262399 -14.087632,1.262399 -7.610979,0 -14.087634,-1.262399 -6.476646,-1.262399 -10.245548,-3.421282 -3.768895,-2.158882 -3.768895,-4.68368 v -6.220513 q 4.354361,3.073667 11.892158,4.64709 7.53779,1.573423 16.209919,1.573423 z m 0,-14.051041 q 8.67213,0 16.209929,-1.573424 7.537799,-1.573424 11.892157,-4.64709 v 6.220514 q 0,2.524796 -3.768904,4.68368 -3.768895,2.158884 -10.24555,3.421282 -6.476646,1.262399 -14.087632,1.262399 -7.610979,0 -14.087634,-1.262399 -6.476646,-1.262398 -10.245548,-3.421282 -3.768895,-2.158884 -3.768895,-4.68368 v -6.220514 q 4.354361,3.073666 11.892158,4.64709 7.53779,1.573424 16.209919,1.573424 z m 0,-42.153125 q 7.610986,0 14.087632,1.262398 6.476655,1.262398 10.24555,3.421282 3.768904,2.158884 3.768904,4.683681 v 4.68368 q 0,2.524796 -3.768904,4.68368 -3.768895,2.158885 -10.24555,3.421284 -6.476646,1.262398 -14.087632,1.262398 -7.610979,0 -14.087634,-1.262398 -6.476646,-1.262399 -10.245548,-3.421284 -3.768895,-2.158884 -3.768895,-4.68368 v -4.68368 q 0,-2.524797 3.768895,-4.683681 3.768902,-2.158884 10.245548,-3.421282 6.476655,-1.262398 14.087634,-1.262398 z"
       id="path2"
       inkscape:connector-curvature="0"
       style="fill:#004b00;fill-opacity:1;stroke:#003800;stroke-width:1.53614;stroke-miterlimit:4;stroke-dasharray:none;stroke-opacity:1" />
    <g
       id="g946"
       transform="matrix(0.36397239,0,0,0.36397239,85.299345,-5.4261414)"
       style="stroke-width:0.937071">
      <text
         xml:space="preserve"
         style="font-size:80.4577px;line-height:1.25;font-family:sans-serif;fill:#004b00;fill-opacity:1;stroke:#003800;stroke-width:3.74829;stroke-miterlimit:4;stroke-dasharray:none;stroke-opacity:1"
         x="-83.591354"
         y="82.926781"
         id="text922-3-3"><tspan
           sodipodi:role="line"
           id="tspan920-9-8"
           x="-83.591354"
           y="82.926781"
           style="font-style:normal;font-variant:normal;font-weight:normal;font-stretch:normal;font-family:'DejaVu Serif';-inkscape-font-specification:'DejaVu Serif';fill:#004b00;fill-opacity:1;stroke:#003800;stroke-width:3.74829;stroke-miterlimit:4;stroke-dasharray:none;stroke-opacity:1">N</tspan></text>
      <text
         xml:space="preserve"
         style="font-size:80.4577px;line-height:1.25;font-family:sans-serif;fill:#004b00;fill-opacity:1;stroke:none;stroke-width:4.039;stroke-opacity:1"
         x="-83.591354"
         y="82.926781"
         id="text922-0"><tspan
           sodipodi:role="line"
           id="tspan920-5"
           x="-83.591354"
           y="82.926781"
           style="font-style:normal;font-variant:normal;font-weight:normal;font-stretch:normal;font-family:'DejaVu Serif';-inkscape-font-specification:'DejaVu Serif';fill:#004b00;fill-opacity:1;stroke:none;stroke-width:4.039;stroke-opacity:1">N</tspan></text>
    </g>
  </g>
  <metadata
     id="metadata3050">
    <rdf:RDF>
      <cc:Work
         rdf:about="">
        <dc:format>image/svg+xml</dc:format>
        <dc:type
           rdf:resource="http://purl.org/dc/dcmitype/StillImage" />
        <dc:title />
      </cc:Work>
    </rdf:RDF>
  </metadata>
  <sodipodi:namedview
     pagecolor="#ffffff"
     bordercolor="#666666"
     borderopacity="1"
     objecttolerance="10"
     gridtolerance="10"
     guidetolerance="10"
     inkscape:pageopacity="0"
     inkscape:pageshadow="2"
     inkscape:window-width="3840"
     inkscape:window-height="1531"
     id="namedview3048"
     showgrid="false"
     inkscape:zoom="4.0000001"
     inkscape:cx="-39.977867"
     inkscape:cy="39.576638"
     inkscape:window-x="0"
     inkscape:window-y="32"
     inkscape:window-maximized="1"
     inkscape:current-layer="svg2"
     showguides="false"
     inkscape:document-rotation="0" />
  <defs
     id="defs4" />
</svg>
