<?xml version="1.0" encoding="UTF-8" standalone="no"?>
<svg
   xmlns:dc="http://purl.org/dc/elements/1.1/"
   xmlns:cc="http://creativecommons.org/ns#"
   xmlns:rdf="http://www.w3.org/1999/02/22-rdf-syntax-ns#"
   xmlns:svg="http://www.w3.org/2000/svg"
   xmlns="http://www.w3.org/2000/svg"
   xmlns:sodipodi="http://sodipodi.sourceforge.net/DTD/sodipodi-0.dtd"
   xmlns:inkscape="http://www.inkscape.org/namespaces/inkscape"
   version="1.0"
   width="100"
   height="100"
   id="svg2"
   inkscape:version="1.0.1 (3bc2e813f5, 2020-09-07)"
   sodipodi:docname="parameters.svg">
  <metadata
     id="metadata3050">
    <rdf:RDF>
      <cc:Work
         rdf:about="">
        <dc:format>image/svg+xml</dc:format>
        <dc:type
           rdf:resource="http://purl.org/dc/dcmitype/StillImage" />
        <dc:title />
      </cc:Work>
    </rdf:RDF>
  </metadata>
  <sodipodi:namedview
     pagecolor="#ffffff"
     bordercolor="#666666"
     borderopacity="1"
     objecttolerance="10"
     gridtolerance="10"
     guidetolerance="10"
     inkscape:pageopacity="0"
     inkscape:pageshadow="2"
     inkscape:window-width="3840"
     inkscape:window-height="1531"
     id="namedview3048"
     showgrid="false"
     inkscape:zoom="4.0000001"
     inkscape:cx="-39.977867"
     inkscape:cy="39.576638"
     inkscape:window-x="0"
     inkscape:window-y="32"
     inkscape:window-maximized="1"
     inkscape:current-layer="svg2"
     showguides="false"
     inkscape:document-rotation="0" />
  <defs
     id="defs4" />
  <g
     id="g843"
     transform="matrix(1.162677,0,0,1.162677,-7.0103731,-16.2677)"
     style="stroke-width:0.860084">
    <g
       id="g837"
       style="stroke-width:0.860084">
      <path
         d="m 15.071542,59.593678 h -4.835643 l 0.573721,-2.895925 h 9.862528 l -3.496964,18.003899 q 1.994362,-2.732002 4.535126,-4.016044 2.540764,-1.311361 5.901123,-1.311361 5.354728,0 7.92281,4.234603 1.69384,2.786647 1.69384,6.693408 0,2.049003 -0.46444,4.371205 -1.338679,6.830006 -5.545964,11.091931 Q 27.010394,100 21.655669,100 18.295307,100 16.246304,98.715959 14.224621,97.404597 13.29574,94.672595 L 12.4215,99.207717 H 7.3946167 Z m -0.109293,26.527747 q -0.437123,2.158281 -0.437123,3.879444 0,2.486124 0.874242,4.125324 1.475282,2.732004 5.300088,2.732004 3.85212,0 6.420207,-3.087165 2.595401,-3.087163 3.77016,-9.097569 0.5464,-2.759322 0.5464,-4.917607 0,-2.513441 -0.764958,-4.179961 -1.366,-3.059845 -5.245447,-3.059845 -3.824805,0 -6.365566,2.759324 -2.540763,2.75932 -3.551602,7.977448 z"
         id="path843"
         style="font-style:italic;font-variant:normal;font-weight:normal;font-stretch:normal;font-size:18.6667px;line-height:1.25;font-family:'DejaVu Serif';-inkscape-font-specification:'DejaVu Serif Italic';stroke-width:1.79598" />
      <path
         d="m 88.050094,90.49263 q -1.967041,4.6444 -5.491327,7.0759 Q 79.061803,100 74.253479,100 q -6.338246,0 -9.370769,-4.17996 -2.103644,-2.92325 -2.103644,-7.13053 0,-1.88508 0.409802,-4.01605 1.366001,-6.96659 6.010405,-11.11924 4.671724,-4.17997 11.009973,-4.17997 2.759321,0 5.354723,0.65568 2.622724,0.62836 5.108845,1.93972 l -1.420641,7.43106 H 86.32893 q 0,-0.38248 0,-0.71033 0,-3.2784 -1.420641,-4.86296 -1.584561,-1.74849 -5.163486,-1.74849 -4.070683,0 -6.775365,3.16913 -2.677363,3.1418 -3.906765,9.4254 -0.5464,2.86861 -0.5464,5.10885 0,2.62272 0.764962,4.34389 1.447959,3.16912 5.545963,3.16912 3.251085,0 5.518647,-1.69384 2.26756,-1.69384 3.660885,-5.10885 z"
         id="path845"
         style="font-style:italic;font-variant:normal;font-weight:normal;font-stretch:normal;font-size:18.6667px;line-height:1.25;font-family:'DejaVu Serif';-inkscape-font-specification:'DejaVu Serif Italic';stroke-width:1.79598" />
    </g>
    <path
       d="m 54.871758,39.289935 q -3.633565,5.327406 -9.50737,5.327406 -4.808324,0 -7.239808,-3.251084 -1.693842,-2.294881 -1.693842,-5.573286 0,-1.39332 0.300522,-2.950562 1.857763,-9.64397 8.578488,-14.616214 5.709886,-4.234605 12.621853,-4.234605 4.644406,0 6.228967,0.79228 l -5.081527,26.145267 h 4.316565 l -0.5464,2.895923 H 53.997518 Z M 41.730823,35.629053 q 0,5.846485 5.655249,5.846485 3.442321,0 5.764524,-2.732003 2.349524,-2.759323 3.387685,-8.004768 l 2.54076,-13.168253 v 0 q 0,-0.792281 -2.185602,-0.792281 -5.245445,0 -9.316128,4.098004 -4.043366,4.125324 -5.491327,11.611011 -0.355161,1.748483 -0.355161,3.141805 z"
       id="path841"
       style="font-style:italic;font-variant:normal;font-weight:normal;font-stretch:normal;font-size:18.6667px;line-height:1.25;font-family:'DejaVu Serif';-inkscape-font-specification:'DejaVu Serif Italic';stroke-width:1.79598" />
  </g>
</svg>
