<?xml version="1.0" encoding="UTF-8" standalone="no"?>
<svg
   xmlns:dc="http://purl.org/dc/elements/1.1/"
   xmlns:cc="http://creativecommons.org/ns#"
   xmlns:rdf="http://www.w3.org/1999/02/22-rdf-syntax-ns#"
   xmlns:svg="http://www.w3.org/2000/svg"
   xmlns="http://www.w3.org/2000/svg"
   xmlns:sodipodi="http://sodipodi.sourceforge.net/DTD/sodipodi-0.dtd"
   xmlns:inkscape="http://www.inkscape.org/namespaces/inkscape"
   version="1.0"
   width="100"
   height="100"
   id="svg2"
   inkscape:version="1.0.1 (3bc2e813f5, 2020-09-07)"
   sodipodi:docname="parameters.svg">
  <metadata
     id="metadata3050">
    <rdf:RDF>
      <cc:Work
         rdf:about="">
        <dc:format>image/svg+xml</dc:format>
        <dc:type
           rdf:resource="http://purl.org/dc/dcmitype/StillImage" />
        <dc:title />
      </cc:Work>
    </rdf:RDF>
  </metadata>
  <sodipodi:namedview
     pagecolor="#ffffff"
     bordercolor="#666666"
     borderopacity="1"
     objecttolerance="10"
     gridtolerance="10"
     guidetolerance="10"
     inkscape:pageopacity="0"
     inkscape:pageshadow="2"
     inkscape:window-width="3840"
     inkscape:window-height="1531"
     id="namedview3048"
     showgrid="false"
     inkscape:zoom="4.0000001"
     inkscape:cx="-39.977867"
     inkscape:cy="39.576638"
     inkscape:window-x="0"
     inkscape:window-y="32"
     inkscape:window-maximized="1"
     inkscape:current-layer="svg2"
     showguides="false"
     inkscape:document-rotation="0" />
  <defs
     id="defs4" />
  <path
     d="M 10.319297,45.685959 H 3.819242 L 4.5904359,41.793267 H 17.847612 l -4.700607,24.20078 q 2.680815,-3.672348 6.096101,-5.398353 3.415286,-1.762727 7.932269,-1.762727 7.197808,0 10.649815,5.692139 2.276854,3.745801 2.276854,8.997256 0,2.754263 -0.624299,5.875759 -1.799448,9.180871 -7.454866,14.909736 Q 26.367461,100 19.169658,100 14.65267,100 11.898408,98.273996 9.1808684,96.511268 7.9322699,92.83892 L 6.7571195,98.935016 H 0 Z m -0.146912,35.658508 q -0.5875786,2.901154 -0.5875786,5.214735 0,3.34184 1.1751526,5.545247 1.983069,3.67235 7.12436,3.67235 5.178007,0 8.630021,-4.149757 3.488729,-4.149754 5.067836,-12.228921 0.734469,-3.709071 0.734469,-6.610231 0,-3.378558 -1.028254,-5.618689 -1.836172,-4.113033 -7.050912,-4.113033 -5.14129,0 -8.556572,3.709074 -3.415285,3.709068 -4.774051,10.723258 z"
     id="path843"
     style="font-style:italic;font-variant:normal;font-weight:normal;font-stretch:normal;font-size:18.6667px;line-height:1.25;font-family:'DejaVu Serif';-inkscape-font-specification:'DejaVu Serif Italic';stroke-width:2.08814" />
  <path
     d="m 96.47455,87.220226 q -2.64409,6.242986 -7.38143,9.5114 Q 84.392516,100 77.929183,100 q -8.519849,0 -12.596156,-5.618688 -2.827711,-3.929423 -2.827711,-9.584834 0,-2.533918 0.550855,-5.398361 1.836173,-9.364467 8.079165,-14.946445 6.279716,-5.618701 14.799569,-5.618701 3.709065,0 7.197805,0.881363 3.52545,0.844639 6.86729,2.607365 l -1.90962,9.988805 h -3.92942 q 0,-0.514128 0,-0.954823 0,-4.406814 -1.90962,-6.536774 -2.12996,-2.350314 -6.940738,-2.350314 -5.471798,0 -9.107423,4.259933 -3.598902,4.223197 -5.25146,12.669591 -0.734469,3.855976 -0.734469,6.867299 0,3.525451 1.02826,5.839042 1.946341,4.25992 7.454864,4.25992 4.370098,0 7.418147,-2.276854 3.048049,-2.276854 4.920949,-6.867298 z"
     id="path845"
     style="font-style:italic;font-variant:normal;font-weight:normal;font-stretch:normal;font-size:18.6667px;line-height:1.25;font-family:'DejaVu Serif';-inkscape-font-specification:'DejaVu Serif Italic';stroke-width:2.08814" />
  <path
     d="m 59.660854,34.005949 q -4.884226,7.16108 -12.779774,7.16108 -6.463332,0 -9.731725,-4.370095 -2.276857,-3.084772 -2.276857,-7.491593 0,-1.872895 0.403961,-3.966134 Q 37.773657,12.375814 46.807634,5.6921414 54.482843,0 63.773885,0 70.016879,0 72.146841,1.06498 L 65.31627,36.209358 h 5.802312 l -0.73447,3.89269 H 58.485704 Z M 41.996855,29.085003 q 0,7.858826 7.601766,7.858826 4.627156,0 7.748653,-3.672349 3.158222,-3.709073 4.553715,-10.759983 L 65.31627,4.810777 v 0 q 0,-1.064981 -2.937879,-1.064981 -7.050909,0 -12.522707,5.5085228 -5.43508,5.5452462 -7.381423,15.6074812 -0.477406,2.350305 -0.477406,4.223203 z"
     id="path841"
     style="font-style:italic;font-variant:normal;font-weight:normal;font-stretch:normal;font-size:18.6667px;line-height:1.25;font-family:'DejaVu Serif';-inkscape-font-specification:'DejaVu Serif Italic';stroke-width:2.08814" />
</svg>
