<?xml version="1.0" encoding="UTF-8" standalone="no"?>
<svg
   xmlns:dc="http://purl.org/dc/elements/1.1/"
   xmlns:cc="http://creativecommons.org/ns#"
   xmlns:rdf="http://www.w3.org/1999/02/22-rdf-syntax-ns#"
   xmlns:svg="http://www.w3.org/2000/svg"
   xmlns="http://www.w3.org/2000/svg"
   xmlns:sodipodi="http://sodipodi.sourceforge.net/DTD/sodipodi-0.dtd"
   xmlns:inkscape="http://www.inkscape.org/namespaces/inkscape"
   version="1.0"
   width="100"
   height="100"
   id="svg2"
   inkscape:version="1.0.1 (3bc2e813f5, 2020-09-07)"
   sodipodi:docname="pickregion.svg">
  <g
     id="g862"
     transform="matrix(1.037916,0,0,1.0376849,-11.670663,-0.15893016)"
     style="stroke-width:0.963576">
    <circle
       style="opacity:0.111226;fill:#ff642b;fill-opacity:1;stroke:#bf2617;stroke-width:1.92715;stroke-opacity:1"
       id="path835-3-7-3"
       cx="33.342773"
       cy="33"
       r="6.0209961" />
    <g
       id="g1484"
       transform="matrix(1.1448695,0,0,1.1448695,-6.9805302,10.560463)"
       style="stroke-width:0.963576">
      <rect
         style="opacity:0.111226;fill:#ff642b;stroke:#bf2617;stroke-width:1.92715"
         id="rect1445"
         width="33.640137"
         height="35.29248"
         x="23.509766"
         y="-8.126709"
         rx="1.9269382"
         ry="1.9273673" />
      <rect
         style="opacity:0.477826;fill:#ff642b;stroke:#bf2617;stroke-width:1.92715"
         id="rect1445-3"
         width="33.640137"
         height="35.29248"
         x="58.921631"
         y="-8.126709"
         rx="1.9269382"
         ry="1.9273673" />
      <rect
         style="opacity:0.111226;fill:#ff642b;stroke:#bf2617;stroke-width:1.92715"
         id="rect1445-6"
         width="33.640137"
         height="35.29248"
         x="23.43103"
         y="28.896729"
         rx="1.9269382"
         ry="1.9273673" />
      <rect
         style="opacity:0.111226;fill:#ff642b;stroke:#bf2617;stroke-width:1.92715"
         id="rect1445-3-7"
         width="33.640137"
         height="35.29248"
         x="58.842896"
         y="28.896729"
         rx="1.9269382"
         ry="1.9273673" />
    </g>
    <g
       id="g1427"
       transform="matrix(-0.76368409,0,0,0.76368409,83.549778,26.808089)"
       style="stroke:#003800;stroke-width:0.963576;stroke-opacity:1">
      <path
         d="m 77.834597,56.596396 q 1.38392,1.339286 0.62499,3.080357 -0.75892,1.785715 -2.63392,1.785715 h -17.05357 l 8.97321,21.250001 q 0.44643,1.116071 0,2.1875 -0.44643,1.071428 -1.51786,1.562499 l -7.90178,3.348215 q -1.11608,0.446425 -2.1875,0 -1.07143,-0.446429 -1.5625,-1.517857 l -8.52679,-20.178572 -13.92857,13.928571 q -0.84822,0.848214 -2.00893,0.848214 -0.53571,0 -1.07143,-0.223213 -1.78571,-0.758929 -1.78571,-2.633929 V 12.891038 q 0,-1.875 1.78571,-2.633929 0.53572,-0.223213 1.07143,-0.223213 1.20536,0 2.00893,0.848214 z"
         id="path8"
         inkscape:connector-curvature="0"
         style="fill:#ff642b;fill-opacity:1;stroke:#bf2617;stroke-width:2.52349;stroke-miterlimit:4;stroke-dasharray:none;stroke-opacity:1" />
      <path
         d="m 64.102305,51.99616 c 0.55571,0.537787 0.681192,1.156243 0.376445,1.855366 -0.304743,0.71705 -0.833565,1.075575 -1.586468,1.075575 H 49.096996 c -4.291026,3.982155 -8.19513,8.061723 -12.529405,12.395998 -0.340601,0.340599 -0.743942,0.510898 -1.210023,0.510898 -0.215113,0 -0.430228,-0.04481 -0.645345,-0.134446 -0.717048,-0.304747 -1.075572,-0.833571 -1.075572,-1.586473 V 25.671469 c 0,-0.752903 0.358524,-1.281727 1.075572,-1.586473 0.215117,-0.08963 0.430232,-0.134446 0.645345,-0.134446 0.48401,0 0.887351,0.170299 1.210023,0.510898 z"
         id="path8-6"
         inkscape:connector-curvature="0"
         style="fill:#fffffe;fill-opacity:1;stroke:none;stroke-width:0.963576;stroke-opacity:1"
         sodipodi:nodetypes="ccsccscsscscc" />
    </g>
    <circle
       style="opacity:1;fill:#ff642b;fill-opacity:1;stroke:#bf2617;stroke-width:1.92715;stroke-opacity:1"
       id="path835"
       cx="72.848648"
       cy="14.864397"
       r="6.0209961" />
    <circle
       style="opacity:0.111226;fill:#ff642b;fill-opacity:1;stroke:#bf2617;stroke-width:1.92715;stroke-opacity:1"
       id="path835-3"
       cx="46.289062"
       cy="14.08789"
       r="6.0209961" />
    <circle
       style="opacity:0.111226;fill:#ff642b;fill-opacity:1;stroke:#bf2617;stroke-width:1.92715;stroke-opacity:1"
       id="path835-3-7"
       cx="89.368164"
       cy="49.455078"
       r="6.0209961" />
    <circle
       style="opacity:0.111226;fill:#ff642b;fill-opacity:1;stroke:#bf2617;stroke-width:1.92715;stroke-opacity:1"
       id="path835-3-5"
       cx="70.811523"
       cy="60.749023"
       r="6.0209961" />
    <circle
       style="opacity:0.111226;fill:#ff642b;fill-opacity:1;stroke:#bf2617;stroke-width:1.92715;stroke-opacity:1"
       id="path835-3-6-5"
       cx="89.730469"
       cy="74.655273"
       r="6.0209961" />
    <circle
       style="opacity:1;fill:#ff642b;fill-opacity:1;stroke:#bf2617;stroke-width:1.92715;stroke-opacity:1"
       id="path835-5"
       cx="87.98439"
       cy="28.410295"
       r="6.0209961" />
  </g>
  <metadata
     id="metadata3050">
    <rdf:RDF>
      <cc:Work
         rdf:about="">
        <dc:format>image/svg+xml</dc:format>
        <dc:type
           rdf:resource="http://purl.org/dc/dcmitype/StillImage" />
        <dc:title />
      </cc:Work>
    </rdf:RDF>
  </metadata>
  <sodipodi:namedview
     pagecolor="#ffffff"
     bordercolor="#666666"
     borderopacity="1"
     objecttolerance="10"
     gridtolerance="10"
     guidetolerance="10"
     inkscape:pageopacity="0"
     inkscape:pageshadow="2"
     inkscape:window-width="3840"
     inkscape:window-height="1531"
     id="namedview3048"
     showgrid="false"
     inkscape:zoom="5.656854"
     inkscape:cx="-32.401305"
     inkscape:cy="42.831662"
     inkscape:window-x="0"
     inkscape:window-y="32"
     inkscape:window-maximized="1"
     inkscape:current-layer="svg2"
     showguides="false"
     inkscape:document-rotation="0" />
  <defs
     id="defs4" />
</svg>
