<?xml version="1.0" encoding="UTF-8" standalone="no"?>
<svg
   xmlns:dc="http://purl.org/dc/elements/1.1/"
   xmlns:cc="http://creativecommons.org/ns#"
   xmlns:rdf="http://www.w3.org/1999/02/22-rdf-syntax-ns#"
   xmlns:svg="http://www.w3.org/2000/svg"
   xmlns="http://www.w3.org/2000/svg"
   xmlns:sodipodi="http://sodipodi.sourceforge.net/DTD/sodipodi-0.dtd"
   xmlns:inkscape="http://www.inkscape.org/namespaces/inkscape"
   version="1.0"
   width="100"
   height="100"
   id="svg2"
   inkscape:version="1.0.1 (3bc2e813f5, 2020-09-07)"
   sodipodi:docname="process1D.svg">
  <metadata
     id="metadata3050">
    <rdf:RDF>
      <cc:Work
         rdf:about="">
        <dc:format>image/svg+xml</dc:format>
        <dc:type
           rdf:resource="http://purl.org/dc/dcmitype/StillImage" />
        <dc:title />
      </cc:Work>
    </rdf:RDF>
  </metadata>
  <sodipodi:namedview
     pagecolor="#ffffff"
     bordercolor="#666666"
     borderopacity="1"
     objecttolerance="10"
     gridtolerance="10"
     guidetolerance="10"
     inkscape:pageopacity="0"
     inkscape:pageshadow="2"
     inkscape:window-width="1920"
     inkscape:window-height="1531"
     id="namedview3048"
     showgrid="false"
     inkscape:zoom="2.0000001"
     inkscape:cx="-57.565533"
     inkscape:cy="119.09787"
     inkscape:window-x="0"
     inkscape:window-y="32"
     inkscape:window-maximized="0"
     inkscape:current-layer="svg2"
     showguides="false"
     inkscape:document-rotation="0"
     inkscape:snap-bbox="true"
     inkscape:bbox-paths="true"
     inkscape:bbox-nodes="true"
     inkscape:snap-bbox-edge-midpoints="true" />
  <defs
     id="defs4" />
  <g
     id="g844"
     transform="matrix(1.1355506,0,0,1.132558,-9.7109199,2.3293337)"
     style="opacity:0.5;stroke-width:0.881792">
    <rect
       style="opacity:1;fill:#910000;fill-opacity:1;stroke:none;stroke-width:2.19536;stroke-miterlimit:4;stroke-dasharray:none;stroke-opacity:1"
       id="rect7419-36"
       width="10.269948"
       height="48.085789"
       x="34.20961"
       y="33.612854" />
    <rect
       style="fill:#910000;fill-opacity:1;stroke:none;stroke-width:2.19536;stroke-miterlimit:4;stroke-dasharray:none;stroke-opacity:1"
       id="rect7419-5-7"
       width="10.269948"
       height="23.586372"
       x="46.968853"
       y="58.11227" />
    <rect
       style="fill:#910000;fill-opacity:1;stroke:none;stroke-width:2.19536;stroke-miterlimit:4;stroke-dasharray:none;stroke-opacity:1"
       id="rect7419-3-5"
       width="10.269948"
       height="68.44239"
       x="72.487343"
       y="13.256251" />
    <rect
       style="fill:#910000;fill-opacity:1;stroke:none;stroke-width:2.19536;stroke-miterlimit:4;stroke-dasharray:none;stroke-opacity:1"
       id="rect7419-56-3"
       width="10.269948"
       height="45.005482"
       x="85.246582"
       y="36.693161" />
    <rect
       style="fill:#910000;fill-opacity:1;stroke:none;stroke-width:2.19536;stroke-miterlimit:4;stroke-dasharray:none;stroke-opacity:1"
       id="rect7419-2-5"
       width="10.269948"
       height="30.110949"
       x="59.728096"
       y="51.587696" />
    <rect
       style="fill:#910000;fill-opacity:1;stroke:#000000;stroke-width:2.1875;stroke-miterlimit:4;stroke-dasharray:none;stroke-opacity:1"
       id="rect7454-6"
       width="61.31583"
       height="0.96168411"
       x="34.205154"
       y="84.183563" />
  </g>
  <path
     inkscape:connector-curvature="0"
     d="m 71.823927,7.182707 v 20.558024 q 0,1.193101 -0.872251,2.064982 -0.872252,0.871878 -2.065867,0.871878 H 48.318954 q -1.928144,0 -2.708585,-1.835536 -0.780442,-1.789654 0.642718,-3.166304 l 6.335325,-6.332608 q -6.794414,-6.286714 -16.021954,-6.286714 -4.774445,0 -9.112773,1.858485 -4.33832,1.858476 -7.50598,5.024779 -3.16767,3.166304 -5.02694,7.502762 -1.85928,4.33646 -1.85928,9.108858 0,4.7724 1.85928,9.108859 1.85927,4.336458 5.02694,7.502761 3.16766,3.166305 7.50598,5.024782 4.338328,1.858486 9.112773,1.858486 5.463074,0 10.329337,-2.386198 4.86627,-2.386202 8.217564,-6.745607 0.321353,-0.458878 1.05589,-0.550658 0.688623,0 1.147703,0.412993 l 6.28942,6.332607 q 0.413174,0.367109 0.436126,0.940712 0.02291,0.573604 -0.344307,1.032491 -5.003994,6.057279 -12.119755,9.384186 -7.115778,3.326915 -15.011978,3.326915 -7.161663,0 -13.680633,-2.799197 -6.51896,-2.799195 -11.2475,-7.525699 -4.72854,-4.726514 -7.52894,-11.242671 -2.8004,-6.516159 -2.8004,-13.674762 0,-7.158593 2.8004,-13.674759 2.8004,-6.516158 7.52894,-11.24267 4.72854,-4.726507 11.2475,-7.525702 6.51897,-2.799197 13.680633,-2.799197 6.7485,0 13.060874,2.546807 6.312374,2.546815 11.224543,7.18155 l 5.968067,-5.919617 q 1.331338,-1.422535 3.213567,-0.642434 1.790418,0.7801 1.790418,2.707416 z"
     id="path4247"
     style="fill:#910000;fill-opacity:1;stroke:#820000;stroke-width:2.61797;stroke-miterlimit:4;stroke-dasharray:none;stroke-opacity:1" />
</svg>
