<?xml version="1.0" encoding="UTF-8" standalone="no"?>
<svg
   xmlns:dc="http://purl.org/dc/elements/1.1/"
   xmlns:cc="http://creativecommons.org/ns#"
   xmlns:rdf="http://www.w3.org/1999/02/22-rdf-syntax-ns#"
   xmlns:svg="http://www.w3.org/2000/svg"
   xmlns="http://www.w3.org/2000/svg"
   xmlns:sodipodi="http://sodipodi.sourceforge.net/DTD/sodipodi-0.dtd"
   xmlns:inkscape="http://www.inkscape.org/namespaces/inkscape"
   version="1.0"
   width="100"
   height="100"
   id="svg2"
   inkscape:version="1.0.1 (3bc2e813f5, 2020-09-07)"
   sodipodi:docname="process1d.svg">
  <g
     id="g846"
     transform="matrix(1.1329849,0,0,1.1324983,-14.959983,-7.3369311)"
     style="stroke-width:0.882814">
    <rect
       style="opacity:0.5;fill:#000091;fill-opacity:1;stroke:none;stroke-width:2.1979;stroke-miterlimit:4;stroke-dasharray:none;stroke-opacity:1"
       id="rect7419"
       width="10.269948"
       height="48.085789"
       x="34.20961"
       y="42.151241" />
    <rect
       style="opacity:0.5;fill:#000091;fill-opacity:1;stroke:none;stroke-width:2.1979;stroke-miterlimit:4;stroke-dasharray:none;stroke-opacity:1"
       id="rect7419-5"
       width="10.269948"
       height="23.586372"
       x="46.968853"
       y="66.650658" />
    <rect
       style="opacity:0.5;fill:#000091;fill-opacity:1;stroke:none;stroke-width:2.1979;stroke-miterlimit:4;stroke-dasharray:none;stroke-opacity:1"
       id="rect7419-3"
       width="10.269948"
       height="68.44239"
       x="72.487343"
       y="21.79464" />
    <rect
       style="opacity:0.5;fill:#000091;fill-opacity:1;stroke:none;stroke-width:2.1979;stroke-miterlimit:4;stroke-dasharray:none;stroke-opacity:1"
       id="rect7419-56"
       width="10.269948"
       height="45.005482"
       x="85.246582"
       y="45.231548" />
    <rect
       style="opacity:0.5;fill:#000091;fill-opacity:1;stroke:none;stroke-width:2.1979;stroke-miterlimit:4;stroke-dasharray:none;stroke-opacity:1"
       id="rect7419-2"
       width="10.269948"
       height="30.110949"
       x="59.728096"
       y="60.126083" />
    <rect
       style="opacity:0.5;fill:#910000;fill-opacity:1;stroke:#000000;stroke-width:2.19003;stroke-miterlimit:4;stroke-dasharray:none;stroke-opacity:1"
       id="rect7454"
       width="61.31583"
       height="0.96168411"
       x="34.205154"
       y="92.721947" />
    <path
       inkscape:connector-curvature="0"
       d="m 81.448307,12.820887 v 18.152808 q 0,1.053512 -0.76987,1.823386 -0.769871,0.769872 -1.823384,0.769872 H 60.702247 q -1.701827,0 -2.390663,-1.620785 -0.688837,-1.580271 0.567278,-2.795858 l 5.591712,-5.591715 q -5.996915,-5.551191 -14.141366,-5.551191 -4.214041,0 -8.043152,1.641049 -3.829105,1.641041 -6.624961,4.436898 -2.795865,2.795857 -4.436899,6.624965 -1.64105,3.82911 -1.64105,8.043154 0,4.214046 1.64105,8.043155 1.641034,3.829107 4.436899,6.624964 2.795856,2.795859 6.624961,4.4369 3.829111,1.64105 8.043152,1.64105 4.821842,0 9.116924,-2.107021 4.295088,-2.107025 7.253022,-5.956395 0.283634,-0.405191 0.931954,-0.486233 0.607795,0 1.01299,0.364674 l 5.551195,5.591715 q 0.364678,0.324158 0.384936,0.830652 0.02022,0.506494 -0.303894,0.911693 -4.416647,5.348599 -10.69719,8.286269 -6.280559,2.937678 -13.249937,2.937678 -6.32106,0 -12.074858,-2.471701 -5.753789,-2.471699 -9.927319,-6.645219 -4.173521,-4.173528 -6.645222,-9.927318 -2.4717,-5.753791 -2.4717,-12.074863 0,-6.321063 2.4717,-12.074861 2.471701,-5.75379 6.645222,-9.927317 4.17353,-4.173522 9.927319,-6.645221 5.753798,-2.4717013 12.074858,-2.4717013 5.95639,0 11.527845,2.24884 5.571455,2.2488463 9.907054,6.3413333 l 5.267561,-5.227042 q 1.175072,-1.2561039 2.836373,-0.567272 1.580266,0.688831 1.580266,2.390658 z"
       id="path4247"
       style="opacity:1;fill:#ffffff;fill-opacity:1;stroke:#000091;stroke-width:2.31118;stroke-miterlimit:4;stroke-dasharray:none;stroke-opacity:1" />
  </g>
  <metadata
     id="metadata3050">
    <rdf:RDF>
      <cc:Work
         rdf:about="">
        <dc:format>image/svg+xml</dc:format>
        <dc:type
           rdf:resource="http://purl.org/dc/dcmitype/StillImage" />
        <dc:title />
      </cc:Work>
    </rdf:RDF>
  </metadata>
  <sodipodi:namedview
     pagecolor="#ffffff"
     bordercolor="#666666"
     borderopacity="1"
     objecttolerance="10"
     gridtolerance="10"
     guidetolerance="10"
     inkscape:pageopacity="0"
     inkscape:pageshadow="2"
     inkscape:window-width="1920"
     inkscape:window-height="1531"
     id="namedview3048"
     showgrid="false"
     inkscape:zoom="2.0000001"
     inkscape:cx="38.684462"
     inkscape:cy="119.09787"
     inkscape:window-x="0"
     inkscape:window-y="32"
     inkscape:window-maximized="0"
     inkscape:current-layer="svg2"
     showguides="false"
     inkscape:document-rotation="0"
     inkscape:snap-bbox="true"
     inkscape:bbox-paths="true"
     inkscape:bbox-nodes="true"
     inkscape:snap-bbox-edge-midpoints="true" />
  <defs
     id="defs4" />
</svg>
