<?xml version="1.0" encoding="UTF-8" standalone="no"?>
<svg
   xmlns:dc="http://purl.org/dc/elements/1.1/"
   xmlns:cc="http://creativecommons.org/ns#"
   xmlns:rdf="http://www.w3.org/1999/02/22-rdf-syntax-ns#"
   xmlns:svg="http://www.w3.org/2000/svg"
   xmlns="http://www.w3.org/2000/svg"
   xmlns:sodipodi="http://sodipodi.sourceforge.net/DTD/sodipodi-0.dtd"
   xmlns:inkscape="http://www.inkscape.org/namespaces/inkscape"
   version="1.0"
   width="100"
   height="100"
   id="svg2"
   inkscape:version="1.0.1 (3bc2e813f5, 2020-09-07)"
   sodipodi:docname="nodes_process2d.svg">
  <metadata
     id="metadata3050">
    <rdf:RDF>
      <cc:Work
         rdf:about="">
        <dc:format>image/svg+xml</dc:format>
        <dc:type
           rdf:resource="http://purl.org/dc/dcmitype/StillImage" />
        <dc:title></dc:title>
      </cc:Work>
    </rdf:RDF>
  </metadata>
  <sodipodi:namedview
     pagecolor="#ffffff"
     bordercolor="#666666"
     borderopacity="1"
     objecttolerance="10"
     gridtolerance="10"
     guidetolerance="10"
     inkscape:pageopacity="0"
     inkscape:pageshadow="2"
     inkscape:window-width="960"
     inkscape:window-height="1131"
     id="namedview3048"
     showgrid="false"
     inkscape:zoom="2"
     inkscape:cx="56.459361"
     inkscape:cy="17.32123"
     inkscape:window-x="20"
     inkscape:window-y="20"
     inkscape:window-maximized="0"
     inkscape:current-layer="svg2"
     showguides="false"
     inkscape:document-rotation="0"
     inkscape:snap-bbox="true"
     inkscape:bbox-paths="true"
     inkscape:bbox-nodes="true"
     inkscape:snap-bbox-edge-midpoints="true" />
  <defs
     id="defs4" />
  <g
     id="g863"
     transform="matrix(0.99008362,0,0,0.99008362,-30.603055,0.49581899)"
     style="fill:#d9d9d9;fill-opacity:1;stroke:#eaeae9;stroke-opacity:1">
    <circle
       style="fill:#d9d9d9;fill-opacity:1;stroke:#eaeae9;stroke-width:2.55631;stroke-miterlimit:4;stroke-dasharray:none;stroke-dashoffset:0;stroke-opacity:1"
       id="path812"
       cx="50"
       cy="50"
       r="17.812279" />
    <path
       id="rect818-3"
       style="fill:#d9d9d9;fill-opacity:1;stroke:#eaeae9;stroke-width:1.00157;stroke-miterlimit:4;stroke-dasharray:none;stroke-dashoffset:0;stroke-opacity:1"
       d="M 44.740234,2.8749996e-8 V 29.769531 A 20.903845,20.903845 0 0 1 50,29.095703 20.903845,20.903845 0 0 1 55.259766,29.769531 V 2.8749996e-8 Z M 44.740234,70.230469 V 100 H 55.259766 V 70.230469 A 20.903845,20.903845 0 0 1 50,70.904297 20.903845,20.903845 0 0 1 44.740234,70.230469 Z" />
  </g>
  <g
     id="g10435"
     style="opacity:0.5"
     transform="translate(0,12.994499)">
    <g
       id="g10390">
      <rect
         style="fill:#910000;fill-opacity:1;stroke:#000000;stroke-width:2.48074;stroke-miterlimit:4;stroke-dasharray:none;stroke-opacity:1"
         id="rect7454"
         width="61.31583"
         height="0.96168411"
         x="34.205154"
         y="79.698891" />
      <rect
         style="fill:#910000;fill-opacity:1;stroke:#000000;stroke-width:2.48074;stroke-miterlimit:4;stroke-dasharray:none;stroke-opacity:1"
         id="rect7454-9"
         width="61.31583"
         height="0.96168411"
         x="-80.660576"
         y="34.205154"
         transform="rotate(-90)" />
      <rect
         style="opacity:0.365873;fill:#000091;fill-opacity:1;stroke:none;stroke-width:2.1526;stroke-miterlimit:4;stroke-dasharray:none;stroke-opacity:1"
         id="rect7419"
         width="9.9197006"
         height="9.9192905"
         x="38.552444"
         y="66.391945" />
      <rect
         style="fill:#000091;fill-opacity:1;stroke:none;stroke-width:2.1526;stroke-miterlimit:4;stroke-dasharray:none;stroke-opacity:1"
         id="rect7419-1"
         width="9.9197006"
         height="9.9192905"
         x="50.624748"
         y="66.391945" />
      <rect
         style="opacity:0.519825;fill:#000091;fill-opacity:1;stroke:none;stroke-width:2.1526;stroke-miterlimit:4;stroke-dasharray:none;stroke-opacity:1"
         id="rect7419-2"
         width="9.9197006"
         height="9.9192905"
         x="62.697052"
         y="66.391945" />
      <rect
         style="opacity:0.727992;fill:#000091;fill-opacity:1;stroke:none;stroke-width:2.1526;stroke-miterlimit:4;stroke-dasharray:none;stroke-opacity:1"
         id="rect7419-7"
         width="9.9197006"
         height="9.9192905"
         x="74.769348"
         y="66.391945" />
      <rect
         style="fill:#000091;fill-opacity:1;stroke:none;stroke-width:2.1526;stroke-miterlimit:4;stroke-dasharray:none;stroke-opacity:1"
         id="rect7419-0"
         width="9.9197006"
         height="9.9192905"
         x="86.841652"
         y="66.391945" />
      <rect
         style="fill:#000091;fill-opacity:1;stroke:none;stroke-width:2.1526;stroke-miterlimit:4;stroke-dasharray:none;stroke-opacity:1"
         id="rect7419-3"
         width="9.9197006"
         height="9.9192905"
         x="38.552448"
         y="54.320049" />
      <rect
         style="opacity:0.682253;fill:#000091;fill-opacity:1;stroke:none;stroke-width:2.1526;stroke-miterlimit:4;stroke-dasharray:none;stroke-opacity:1"
         id="rect7419-1-6"
         width="9.9197006"
         height="9.9192905"
         x="50.624752"
         y="54.320049" />
      <rect
         style="opacity:0.828955;fill:#000091;fill-opacity:1;stroke:none;stroke-width:2.1526;stroke-miterlimit:4;stroke-dasharray:none;stroke-opacity:1"
         id="rect7419-2-0"
         width="9.9197006"
         height="9.9192905"
         x="62.697052"
         y="54.320049" />
      <rect
         style="opacity:0.365873;fill:#000091;fill-opacity:1;stroke:none;stroke-width:2.1526;stroke-miterlimit:4;stroke-dasharray:none;stroke-opacity:1"
         id="rect7419-7-6"
         width="9.9197006"
         height="9.9192905"
         x="74.769348"
         y="54.320049" />
      <rect
         style="opacity:0.784646;fill:#000091;fill-opacity:1;stroke:none;stroke-width:2.1526;stroke-miterlimit:4;stroke-dasharray:none;stroke-opacity:1"
         id="rect7419-0-2"
         width="9.9197006"
         height="9.9192905"
         x="86.841652"
         y="54.320049" />
      <rect
         style="opacity:0.828955;fill:#000091;fill-opacity:1;stroke:none;stroke-width:2.1526;stroke-miterlimit:4;stroke-dasharray:none;stroke-opacity:1"
         id="rect7419-18"
         width="9.9197006"
         height="9.9192905"
         x="38.552448"
         y="42.248158" />
      <rect
         style="opacity:0.519825;fill:#000091;fill-opacity:1;stroke:none;stroke-width:2.1526;stroke-miterlimit:4;stroke-dasharray:none;stroke-opacity:1"
         id="rect7419-1-7"
         width="9.9197006"
         height="9.9192905"
         x="50.624752"
         y="42.248158" />
      <rect
         style="opacity:0.682253;fill:#000091;fill-opacity:1;stroke:none;stroke-width:2.1526;stroke-miterlimit:4;stroke-dasharray:none;stroke-opacity:1"
         id="rect7419-2-9"
         width="9.9197006"
         height="9.9192905"
         x="62.697052"
         y="42.248158" />
      <rect
         style="fill:#000091;fill-opacity:1;stroke:none;stroke-width:2.1526;stroke-miterlimit:4;stroke-dasharray:none;stroke-opacity:1"
         id="rect7419-7-2"
         width="9.9197006"
         height="9.9192905"
         x="74.769348"
         y="42.248158" />
      <rect
         style="opacity:0.784646;fill:#000091;fill-opacity:1;stroke:none;stroke-width:2.1526;stroke-miterlimit:4;stroke-dasharray:none;stroke-opacity:1"
         id="rect7419-0-0"
         width="9.9197006"
         height="9.9192905"
         x="86.841652"
         y="42.248158" />
      <rect
         style="opacity:0.519825;fill:#000091;fill-opacity:1;stroke:none;stroke-width:2.1526;stroke-miterlimit:4;stroke-dasharray:none;stroke-opacity:1"
         id="rect7419-37"
         width="9.9197006"
         height="9.9192905"
         x="38.552448"
         y="30.176266" />
      <rect
         style="opacity:0.828955;fill:#000091;fill-opacity:1;stroke:none;stroke-width:2.1526;stroke-miterlimit:4;stroke-dasharray:none;stroke-opacity:1"
         id="rect7419-1-5"
         width="9.9197006"
         height="9.9192905"
         x="50.624752"
         y="30.176266" />
      <rect
         style="opacity:0.365873;fill:#000091;fill-opacity:1;stroke:none;stroke-width:2.1526;stroke-miterlimit:4;stroke-dasharray:none;stroke-opacity:1"
         id="rect7419-2-92"
         width="9.9197006"
         height="9.9192905"
         x="62.697052"
         y="30.176266" />
      <rect
         style="opacity:0.828955;fill:#000091;fill-opacity:1;stroke:none;stroke-width:2.1526;stroke-miterlimit:4;stroke-dasharray:none;stroke-opacity:1"
         id="rect7419-7-28"
         width="9.9197006"
         height="9.9192905"
         x="74.769348"
         y="30.176266" />
      <rect
         style="fill:#000091;fill-opacity:1;stroke:none;stroke-width:2.1526;stroke-miterlimit:4;stroke-dasharray:none;stroke-opacity:1"
         id="rect7419-0-9"
         width="9.9197006"
         height="9.9192905"
         x="86.841652"
         y="30.176266" />
      <rect
         style="opacity:0.784646;fill:#000091;fill-opacity:1;stroke:none;stroke-width:2.1526;stroke-miterlimit:4;stroke-dasharray:none;stroke-opacity:1"
         id="rect7419-36"
         width="9.9197006"
         height="9.9192905"
         x="38.552448"
         y="18.104376" />
      <rect
         style="opacity:0.682253;fill:#000091;fill-opacity:1;stroke:none;stroke-width:2.1526;stroke-miterlimit:4;stroke-dasharray:none;stroke-opacity:1"
         id="rect7419-1-1"
         width="9.9197006"
         height="9.9192905"
         x="50.624752"
         y="18.104376" />
      <rect
         style="fill:#000091;fill-opacity:1;stroke:none;stroke-width:2.1526;stroke-miterlimit:4;stroke-dasharray:none;stroke-opacity:1"
         id="rect7419-2-2"
         width="9.9197006"
         height="9.9192905"
         x="62.697056"
         y="18.104376" />
      <rect
         style="opacity:0.784646;fill:#000091;fill-opacity:1;stroke:none;stroke-width:2.1526;stroke-miterlimit:4;stroke-dasharray:none;stroke-opacity:1"
         id="rect7419-7-9"
         width="9.9197006"
         height="9.9192905"
         x="74.769348"
         y="18.104376" />
      <rect
         style="fill:#000091;fill-opacity:1;stroke:none;stroke-width:2.1526;stroke-miterlimit:4;stroke-dasharray:none;stroke-opacity:1"
         id="rect7419-0-3"
         width="9.9197006"
         height="9.9192905"
         x="86.841652"
         y="18.104376" />
    </g>
  </g>
  <path
     inkscape:connector-curvature="0"
     d="m 79.591245,12.633823 v 18.152808 q 0,1.053512 -0.76987,1.823386 -0.76987,0.769872 -1.823386,0.769872 H 58.845183 q -1.701827,0 -2.390663,-1.620785 -0.688837,-1.580271 0.567278,-2.795858 L 62.61351,23.371531 Q 56.616595,17.82034 48.472144,17.82034 q -4.214041,0 -8.043152,1.641049 -3.829105,1.641041 -6.624961,4.436898 -2.795865,2.795857 -4.436899,6.624965 -1.64105,3.829105 -1.64105,8.043155 0,4.21404 1.64105,8.04315 1.641034,3.82911 4.436899,6.62497 2.795856,2.79586 6.624961,4.4369 3.829111,1.64105 8.043152,1.64105 4.821842,0 9.116924,-2.10702 4.295088,-2.10703 7.253022,-5.9564 0.283634,-0.40519 0.931954,-0.48623 0.607795,0 1.01299,0.36467 l 5.551195,5.59172 q 0.364678,0.32416 0.384936,0.83065 0.02022,0.50649 -0.303894,0.91169 -4.416647,5.3486 -10.69719,8.28627 -6.280559,2.93768 -13.249937,2.93768 -6.32106,0 -12.074858,-2.4717 -5.753789,-2.4717 -9.927319,-6.64522 -4.173521,-4.17353 -6.645222,-9.92732 -2.4717,-5.75379 -2.4717,-12.07486 0,-6.321064 2.4717,-12.074862 2.471701,-5.75379 6.645222,-9.927317 4.17353,-4.173522 9.927319,-6.6452211 5.753798,-2.471701 12.074858,-2.471701 5.95639,0 11.527845,2.24884 5.571455,2.2488461 9.907054,6.3413331 l 5.267561,-5.227042 q 1.175072,-1.2561041 2.836371,-0.567272 1.58027,0.688831 1.58027,2.390658 z"
     id="path4247"
     style="opacity:1;fill:#ffffff;fill-opacity:1;stroke:#000091;stroke-width:2.61797;stroke-miterlimit:4;stroke-dasharray:none;stroke-opacity:1" />
</svg>
