<?xml version="1.0" encoding="UTF-8" standalone="no"?>
<svg
   xmlns:dc="http://purl.org/dc/elements/1.1/"
   xmlns:cc="http://creativecommons.org/ns#"
   xmlns:rdf="http://www.w3.org/1999/02/22-rdf-syntax-ns#"
   xmlns:svg="http://www.w3.org/2000/svg"
   xmlns="http://www.w3.org/2000/svg"
   xmlns:sodipodi="http://sodipodi.sourceforge.net/DTD/sodipodi-0.dtd"
   xmlns:inkscape="http://www.inkscape.org/namespaces/inkscape"
   version="1.0"
   width="100"
   height="100"
   id="svg2"
   inkscape:version="1.0.1 (3bc2e813f5, 2020-09-07)"
   sodipodi:docname="remove.svg">
  <metadata
     id="metadata3050">
    <rdf:RDF>
      <cc:Work
         rdf:about="">
        <dc:format>image/svg+xml</dc:format>
        <dc:type
           rdf:resource="http://purl.org/dc/dcmitype/StillImage" />
        <dc:title />
      </cc:Work>
    </rdf:RDF>
  </metadata>
  <sodipodi:namedview
     pagecolor="#ffffff"
     bordercolor="#666666"
     borderopacity="1"
     objecttolerance="10"
     gridtolerance="10"
     guidetolerance="10"
     inkscape:pageopacity="0"
     inkscape:pageshadow="2"
     inkscape:window-width="1920"
     inkscape:window-height="1531"
     id="namedview3048"
     showgrid="false"
     inkscape:zoom="2.0000001"
     inkscape:cx="-54.789773"
     inkscape:cy="99.467163"
     inkscape:window-x="0"
     inkscape:window-y="32"
     inkscape:window-maximized="0"
     inkscape:current-layer="svg2"
     showguides="false"
     inkscape:document-rotation="0" />
  <defs
     id="defs4" />
  <path
     style="fill:#00004a;fill-opacity:1;stroke:none;stroke-width:1"
     id="path4135"
     d="m 37.5,39.583336 v 37.500003 q 0,0.91146 -0.585934,1.4974 -0.585934,0.58593 -1.4974,0.58593 H 31.25 q -0.911457,0 -1.497389,-0.58593 -0.585945,-0.58594 -0.585945,-1.4974 V 39.583336 q 0,-0.911459 0.585945,-1.497397 0.585932,-0.585937 1.497389,-0.585937 h 4.166666 q 0.911466,0 1.4974,0.585937 Q 37.5,38.671877 37.5,39.583336 Z m 16.666666,0 v 37.500003 q 0,0.91146 -0.585934,1.4974 -0.585943,0.58593 -1.497388,0.58593 h -4.166678 q -0.911455,0 -1.497389,-0.58593 -0.585945,-0.58594 -0.585945,-1.4974 V 39.583336 q 0,-0.911459 0.585945,-1.497397 0.585934,-0.585937 1.497389,-0.585937 h 4.166678 q 0.911445,0 1.497388,0.585937 0.585934,0.585938 0.585934,1.497397 z m 16.666669,0 v 37.500003 q 0,0.91146 -0.585938,1.4974 -0.585938,0.58593 -1.497395,0.58593 h -4.166668 q -0.911457,0 -1.497395,-0.58593 Q 62.5,77.994799 62.5,77.083339 V 39.583336 q 0,-0.911459 0.585939,-1.497397 0.585938,-0.585937 1.497395,-0.585937 h 4.166668 q 0.911457,0 1.497395,0.585937 0.585938,0.585938 0.585938,1.497397 z m 8.333331,47.135423 V 25.000002 H 20.833332 v 61.718757 q 0,1.43229 0.455733,2.63672 0.455722,1.20441 0.944012,1.7578 0.488277,0.55339 0.683589,0.55339 h 54.166668 q 0.195312,0 0.683592,-0.55339 0.488281,-0.55339 0.944011,-1.7578 0.455729,-1.20443 0.455729,-2.63672 z m -43.75,-70.052089 h 29.166668 l -3.125,-7.61719 Q 61.002605,8.463541 60.351562,8.333333 H 39.713543 Q 39.0625,8.463541 38.606766,9.04948 Z m 60.416668,2.083331 v 4.166666 q 0,0.911459 -0.585939,1.497395 -0.585934,0.58594 -1.497394,0.58594 h -6.25 v 61.718757 q 0,5.40364 -3.059897,9.34244 -3.059897,3.9388 -7.356769,3.9388 H 22.916666 q -4.296877,0 -7.356767,-3.8086 Q 12.5,92.382809 12.5,86.979169 V 25.000002 H 6.2500002 q -0.911457,0 -1.497394,-0.58594 -0.58594,-0.585936 -0.58594,-1.497395 v -4.166666 q 0,-0.911459 0.58594,-1.497396 0.585937,-0.585935 1.497394,-0.585935 H 26.367176 l 4.5573,-10.872398 Q 31.901031,3.385417 34.440099,1.69271 36.979166,9.9999999e-7 39.583332,9.9999999e-7 h 20.833334 q 2.604166,0 5.14323,1.69270900000001 2.539061,1.692707 3.515625,4.101562 L 73.632814,16.66667 H 93.75 q 0.91146,0 1.497395,0.585935 0.585938,0.585937 0.585939,1.497396 z"
     inkscape:connector-curvature="0" />
</svg>
