<?xml version="1.0" encoding="UTF-8" standalone="no"?>
<svg
   xmlns:dc="http://purl.org/dc/elements/1.1/"
   xmlns:cc="http://creativecommons.org/ns#"
   xmlns:rdf="http://www.w3.org/1999/02/22-rdf-syntax-ns#"
   xmlns:svg="http://www.w3.org/2000/svg"
   xmlns="http://www.w3.org/2000/svg"
   xmlns:sodipodi="http://sodipodi.sourceforge.net/DTD/sodipodi-0.dtd"
   xmlns:inkscape="http://www.inkscape.org/namespaces/inkscape"
   version="1.0"
   width="100"
   height="100"
   id="svg2"
   inkscape:version="1.0.1 (3bc2e813f5, 2020-09-07)"
   sodipodi:docname="select.svg">
  <g
     id="g834"
     transform="matrix(1.4722482,0,0,1.4722482,-47.052428,-23.029355)"
     style="stroke-width:0.679233">
    <path
       d="m 65.921236,44.752303 q 8.983166,0 16.791318,-1.629857 7.808151,-1.629857 12.318684,-4.813763 v 6.44362 q 0,2.615351 -3.904079,4.851666 -3.904072,2.236315 -10.613021,3.543992 -6.708939,1.307675 -14.592902,1.307675 -7.883954,0 -14.592902,-1.307675 -6.70894,-1.307677 -10.61302,-3.543992 -3.904071,-2.236315 -3.904071,-4.851667 v -6.44362 q 4.510534,3.183907 12.318685,4.813763 7.808142,1.629857 16.791308,1.629858 z m 0,29.109999 q 8.983166,0 16.791318,-1.629856 7.808151,-1.629857 12.318684,-4.813764 v 6.44362 q 0,2.615351 -3.904079,4.851667 -3.904072,2.236315 -10.613021,3.54399 -6.708939,1.307676 -14.592902,1.307676 -7.883954,0 -14.592902,-1.307676 -6.70894,-1.307675 -10.61302,-3.54399 -3.904071,-2.236316 -3.904071,-4.851667 v -6.44362 q 4.510534,3.183907 12.318685,4.813763 7.808142,1.629857 16.791308,1.629857 z m 0,-14.554999 q 8.983166,0 16.791318,-1.629857 7.808151,-1.629857 12.318684,-4.813763 v 6.44362 q 0,2.615351 -3.904079,4.851666 -3.904072,2.236315 -10.613021,3.543991 -6.708939,1.307676 -14.592902,1.307676 -7.883954,0 -14.592902,-1.307676 -6.70894,-1.307676 -10.61302,-3.543991 -3.904071,-2.236315 -3.904071,-4.851666 v -6.44362 q 4.510534,3.183906 12.318685,4.813763 7.808142,1.629857 16.791308,1.629857 z m 0,-43.664999 q 7.883963,0 14.592902,1.307676 6.708949,1.307674 10.613021,3.54399 3.904079,2.236315 3.904079,4.851666 v 4.851666 q 0,2.615352 -3.904079,4.851667 -3.904072,2.236315 -10.613021,3.543992 -6.708939,1.307675 -14.592902,1.307675 -7.883954,0 -14.592902,-1.307675 -6.70894,-1.307677 -10.61302,-3.543992 -3.904071,-2.236315 -3.904071,-4.851667 v -4.851666 q 0,-2.615351 3.904071,-4.851666 3.90408,-2.236316 10.61302,-3.54399 6.708948,-1.307676 14.592902,-1.307676 z"
       id="path2"
       inkscape:connector-curvature="0"
       style="fill:#315a49;fill-opacity:1;stroke-width:0.576701" />
  </g>
  <metadata
     id="metadata3050">
    <rdf:RDF>
      <cc:Work
         rdf:about="">
        <dc:format>image/svg+xml</dc:format>
        <dc:type
           rdf:resource="http://purl.org/dc/dcmitype/StillImage" />
        <dc:title />
      </cc:Work>
    </rdf:RDF>
  </metadata>
  <sodipodi:namedview
     pagecolor="#ffffff"
     bordercolor="#666666"
     borderopacity="1"
     objecttolerance="10"
     gridtolerance="10"
     guidetolerance="10"
     inkscape:pageopacity="0"
     inkscape:pageshadow="2"
     inkscape:window-width="1424"
     inkscape:window-height="974"
     id="namedview3048"
     showgrid="false"
     inkscape:zoom="3.9999998"
     inkscape:cx="12.249991"
     inkscape:cy="44.335553"
     inkscape:window-x="26"
     inkscape:window-y="32"
     inkscape:window-maximized="0"
     inkscape:current-layer="svg2"
     showguides="false"
     inkscape:document-rotation="0" />
  <defs
     id="defs4" />
</svg>
