<?xml version="1.0" encoding="UTF-8" standalone="no"?>
<svg
   xmlns:dc="http://purl.org/dc/elements/1.1/"
   xmlns:cc="http://creativecommons.org/ns#"
   xmlns:rdf="http://www.w3.org/1999/02/22-rdf-syntax-ns#"
   xmlns:svg="http://www.w3.org/2000/svg"
   xmlns="http://www.w3.org/2000/svg"
   xmlns:sodipodi="http://sodipodi.sourceforge.net/DTD/sodipodi-0.dtd"
   xmlns:inkscape="http://www.inkscape.org/namespaces/inkscape"
   version="1.0"
   width="100"
   height="100"
   id="svg2"
   inkscape:version="1.0.1 (3bc2e813f5, 2020-09-07)"
   sodipodi:docname="transmute.svg">
  <metadata
     id="metadata3050">
    <rdf:RDF>
      <cc:Work
         rdf:about="">
        <dc:format>image/svg+xml</dc:format>
        <dc:type
           rdf:resource="http://purl.org/dc/dcmitype/StillImage" />
        <dc:title />
      </cc:Work>
    </rdf:RDF>
  </metadata>
  <sodipodi:namedview
     pagecolor="#ffffff"
     bordercolor="#666666"
     borderopacity="1"
     objecttolerance="10"
     gridtolerance="10"
     guidetolerance="10"
     inkscape:pageopacity="0"
     inkscape:pageshadow="2"
     inkscape:window-width="3840"
     inkscape:window-height="1531"
     id="namedview3048"
     showgrid="false"
     inkscape:zoom="5.6568542"
     inkscape:cx="21.390572"
     inkscape:cy="25.102046"
     inkscape:window-x="0"
     inkscape:window-y="32"
     inkscape:window-maximized="1"
     inkscape:current-layer="svg2"
     showguides="false"
     inkscape:document-rotation="0" />
  <defs
     id="defs4" />
  <path
     inkscape:connector-curvature="0"
     d="m 46.219035,39.706548 -1.603484,1.603484 q -0.663941,0.663941 -0.731202,1.536222 -0.06726,0.872282 0.576759,1.516298 l 8.719008,8.719008 -7.311794,0.05421 q -0.921606,-0.01965 -1.598077,0.656822 -0.676468,0.676469 -0.656821,1.598076 l -0.02319,1.88094 q -0.0053,0.92175 0.651136,1.578153 0.644017,0.644017 1.59054,0.663522 l 16.230348,-0.105137 q 0.921749,-0.0053 1.585692,-0.66921 0.651415,-0.651415 0.681735,-1.598217 l 0.08008,-16.205295 q 0.0054,-0.946663 -0.650997,-1.603066 -0.644017,-0.644017 -1.590678,-0.63861 l -1.855887,-0.0019 q -0.946661,0.0054 -1.610604,0.66935 -0.663943,0.663943 -0.669351,1.610604 l -0.04168,7.299265 -8.719008,-8.719008 q -0.644016,-0.644016 -1.5163,-0.576756 -0.87228,0.06726 -1.536222,0.731201 z"
     id="path4"
     style="fill:none;fill-opacity:1;stroke:#000000;stroke-width:1.01871;stroke-miterlimit:4;stroke-dasharray:none;stroke-opacity:1" />
  <ellipse
     style="fill:#00004a;fill-opacity:1;stroke:#000028;stroke-width:1.84388;stroke-miterlimit:4;stroke-dasharray:none;stroke-opacity:1"
     id="path7385"
     cx="21.012764"
     cy="20.784609"
     rx="20.090824"
     ry="19.862669" />
  <path
     sodipodi:type="star"
     style="fill:#00004a;fill-opacity:1;stroke:#000028;stroke-width:1.49344;stroke-miterlimit:4;stroke-dasharray:none;stroke-opacity:1"
     id="path7387"
     sodipodi:sides="3"
     sodipodi:cx="64.516403"
     sodipodi:cy="84.793556"
     sodipodi:r1="19.088383"
     sodipodi:r2="9.5441914"
     sodipodi:arg1="0.52359878"
     sodipodi:arg2="1.5707963"
     inkscape:flatsided="true"
     inkscape:rounded="0"
     inkscape:randomized="0"
     d="m 81.047428,94.337748 -33.062049,0 16.531024,-28.632575 z"
     inkscape:transform-center-y="-6.3630505"
     inkscape:transform-center-x="2.2613568e-06"
     transform="matrix(1.348704,0,0,1.3333878,-11.053345,-26.784469)" />
</svg>
